<svg width="50" height="50" viewBox="0 0 50 50" fill="none" xmlns="http://www.w3.org/2000/svg">
<path d="M39.9991 0H10.0009C4.47756 0 0 4.47756 0 10.0009V39.9991C0 45.5224 4.47756 50 10.0009 50H39.9991C45.5224 50 50 45.5224 50 39.9991V10.0009C50 4.47756 45.5224 0 39.9991 0Z" fill="#9B1010"/>
<path d="M39.944 0.0939331H10.0581C4.55631 0.0939331 0.0961914 4.55405 0.0961914 10.0559V39.9418C0.0961914 45.4436 4.55631 49.9037 10.0581 49.9037H39.944C45.4459 49.9037 49.906 45.4436 49.906 39.9418V10.0559C49.906 4.55405 45.4459 0.0939331 39.944 0.0939331Z" fill="#9C1010"/>
<path d="M39.8868 0.187927H10.1155C4.63389 0.187927 0.190186 4.63163 0.190186 10.1132V39.8845C0.190186 45.3661 4.63389 49.8098 10.1155 49.8098H39.8868C45.3684 49.8098 49.8121 45.3661 49.8121 39.8845V10.1132C49.8121 4.63163 45.3684 0.187927 39.8868 0.187927Z" fill="#9D1010"/>
<path d="M39.8295 0.28186H10.1705C4.71044 0.28186 0.28418 4.70812 0.28418 10.1682V39.8272C0.28418 45.2873 4.71044 49.7135 10.1705 49.7135H39.8295C45.2896 49.7135 49.7158 45.2873 49.7158 39.8272V10.1682C49.7158 4.70812 45.2896 0.28186 39.8295 0.28186Z" fill="#9E1010"/>
<path d="M39.7723 0.378113H10.2278C4.78802 0.378113 0.378174 4.78796 0.378174 10.2278V39.7722C0.378174 45.212 4.78802 49.6219 10.2278 49.6219H39.7723C45.2121 49.6219 49.6219 45.212 49.6219 39.7722V10.2278C49.6219 4.78796 45.2121 0.378113 39.7723 0.378113Z" fill="#9F1010"/>
<path d="M39.7172 0.472107H10.2851C4.86677 0.472107 0.474365 4.86451 0.474365 10.2828V39.7149C0.474365 45.1332 4.86677 49.5256 10.2851 49.5256H39.7172C45.1355 49.5256 49.5279 45.1332 49.5279 39.7149V10.2828C49.5279 4.86451 45.1355 0.472107 39.7172 0.472107Z" fill="#A01111"/>
<path d="M39.6576 0.56604H10.3424C4.94435 0.56604 0.568359 4.94203 0.568359 10.3401V39.6553C0.568359 45.0534 4.94435 49.4294 10.3424 49.4294H39.6576C45.0557 49.4294 49.4317 45.0534 49.4317 39.6553V10.3401C49.4317 4.94203 45.0557 0.56604 39.6576 0.56604Z" fill="#A11111"/>
<path d="M39.6027 0.660034H10.3974C5.0209 0.660034 0.662354 5.01858 0.662354 10.3951V39.6004C0.662354 44.9769 5.0209 49.3354 10.3974 49.3354H39.6027C44.9792 49.3354 49.3378 44.9769 49.3378 39.6004V10.3951C49.3378 5.01858 44.9792 0.660034 39.6027 0.660034Z" fill="#A21111"/>
<path d="M39.543 0.756226H10.4546C5.09835 0.756226 0.756226 5.09835 0.756226 10.4546V39.543C0.756226 44.8993 5.09835 49.2414 10.4546 49.2414H39.543C44.8993 49.2414 49.2414 44.8993 49.2414 39.543V10.4546C49.2414 5.09835 44.8993 0.756226 39.543 0.756226Z" fill="#A31111"/>
<path d="M39.4904 0.85022H10.512C5.17722 0.85022 0.852539 5.17491 0.852539 10.5097V39.488C0.852539 44.8228 5.17722 49.1475 10.512 49.1475H39.4904C44.8251 49.1475 49.1498 44.8228 49.1498 39.488V10.5097C49.1498 5.17491 44.8251 0.85022 39.4904 0.85022Z" fill="#A41111"/>
<path d="M39.4307 0.944153H10.5692C5.25468 0.944153 0.946411 5.25242 0.946411 10.5669V39.4284C0.946411 44.743 5.25468 49.0512 10.5692 49.0512H39.4307C44.7452 49.0512 49.0535 44.743 49.0535 39.4284V10.5669C49.0535 5.25242 44.7452 0.944153 39.4307 0.944153Z" fill="#A51111"/>
<path d="M39.3757 1.04041H10.6242C5.33123 1.04041 1.04041 5.33123 1.04041 10.6242V39.3757C1.04041 44.6687 5.33123 48.9596 10.6242 48.9596H39.3757C44.6687 48.9596 48.9596 44.6687 48.9596 39.3757V10.6242C48.9596 5.33123 44.6687 1.04041 39.3757 1.04041Z" fill="#A61111"/>
<path d="M39.3162 1.1344H10.6816C5.40881 1.1344 1.1344 5.40881 1.1344 10.6816V39.3162C1.1344 44.5889 5.40881 48.8633 10.6816 48.8633H39.3162C44.5889 48.8633 48.8633 44.5889 48.8633 39.3162V10.6816C48.8633 5.40881 44.5889 1.1344 39.3162 1.1344Z" fill="#A71111"/>
<path d="M39.2635 1.22833H10.7389C5.48768 1.22833 1.23071 5.4853 1.23071 10.7365V39.2612C1.23071 44.5124 5.48768 48.7694 10.7389 48.7694H39.2635C44.5148 48.7694 48.7717 44.5124 48.7717 39.2612V10.7365C48.7717 5.4853 44.5148 1.22833 39.2635 1.22833Z" fill="#A81212"/>
<path d="M39.2039 1.32233H10.7961C5.56514 1.32233 1.32458 5.56288 1.32458 10.7939V39.2016C1.32458 44.4326 5.56514 48.6731 10.7961 48.6731H39.2039C44.4348 48.6731 48.6754 44.4326 48.6754 39.2016V10.7939C48.6754 5.56288 44.4348 1.32233 39.2039 1.32233Z" fill="#A91212"/>
<path d="M39.1489 1.41858H10.8512C5.64169 1.41858 1.41858 5.64169 1.41858 10.8512V39.1489C1.41858 44.3584 5.64169 48.5815 10.8512 48.5815H39.1489C44.3584 48.5815 48.5815 44.3584 48.5815 39.1489V10.8512C48.5815 5.64169 44.3584 1.41858 39.1489 1.41858Z" fill="#AA1212"/>
<path d="M10.9085 1.51251H39.0962C40.3301 1.51251 41.5519 1.75554 42.6919 2.22773C43.8318 2.69992 44.8676 3.39202 45.7401 4.26451C46.6126 5.137 47.3047 6.1728 47.7769 7.31276C48.2491 8.45273 48.4921 9.67454 48.4921 10.9084V39.0962C48.4921 41.5881 47.5022 43.978 45.7401 45.7401C43.9781 47.5022 41.5882 48.4921 39.0962 48.4921H10.9085C8.41653 48.4921 6.02665 47.5022 4.26457 45.7401C2.5025 43.978 1.51257 41.5881 1.51257 39.0962V10.9084C1.51257 8.41647 2.5025 6.02659 4.26457 4.26451C6.02665 2.50244 8.41653 1.51251 10.9085 1.51251Z" fill="#AB1212"/>
<path d="M39.0366 1.60645H10.9657C5.79802 1.60645 1.60876 5.7957 1.60876 10.9634V39.0343C1.60876 44.202 5.79802 48.3912 10.9657 48.3912H39.0366C44.2043 48.3912 48.3935 44.202 48.3935 39.0343V10.9634C48.3935 5.7957 44.2043 1.60645 39.0366 1.60645Z" fill="#AC1212"/>
<path d="M11.0208 1.70044H38.9793C41.4506 1.70044 43.8207 2.68215 45.5681 4.42962C47.3156 6.17708 48.2973 8.54715 48.2973 11.0184V38.977C48.2973 41.4489 47.3154 43.8195 45.5675 45.5674C43.8196 47.3153 41.4489 48.2973 38.977 48.2973H11.023C8.55115 48.2973 6.1805 47.3153 4.43261 45.5674C2.68471 43.8195 1.70276 41.4489 1.70276 38.977V11.0184C1.70276 9.79478 1.94378 8.5831 2.41205 7.45259C2.88032 6.32208 3.56668 5.29487 4.43194 4.42962C6.1794 2.68215 8.54947 1.70044 11.0208 1.70044Z" fill="#AD1212"/>
<path d="M38.9219 1.79669H11.078C5.95202 1.79669 1.79663 5.95208 1.79663 11.078V38.922C1.79663 44.0479 5.95202 48.2033 11.078 48.2033H38.9219C44.0479 48.2033 48.2033 44.0479 48.2033 38.922V11.078C48.2033 5.95208 44.0479 1.79669 38.9219 1.79669Z" fill="#AE1212"/>
<path d="M11.1353 1.89063H38.8647C41.3159 1.89063 43.6667 2.86437 45.4 4.59765C47.1333 6.33093 48.1071 8.68177 48.1071 11.133V38.8624C48.1071 41.3142 47.1331 43.6656 45.3994 45.3994C43.6656 47.1331 41.3142 48.1071 38.8624 48.1071H11.133C8.68155 48.1064 6.33073 47.1322 4.59751 45.3985C2.8643 43.6649 1.89062 41.3138 1.89063 38.8624V11.133C1.89062 9.91908 2.12976 8.71705 2.59438 7.59556C3.05899 6.47408 3.73999 5.45511 4.59846 4.59684C5.45694 3.73858 6.47608 3.05784 7.59768 2.5935C8.71928 2.12916 9.92137 1.89032 11.1353 1.89063Z" fill="#AF1212"/>
<path d="M38.8096 1.98462H11.1925C6.10835 1.98462 1.98682 6.10615 1.98682 11.1903V38.8074C1.98682 43.8916 6.10835 48.0131 11.1925 48.0131H38.8096C43.8938 48.0131 48.0153 43.8916 48.0153 38.8074V11.1903C48.0153 6.10615 43.8938 1.98462 38.8096 1.98462Z" fill="#B01212"/>
<path d="M11.2476 2.07855H38.7478C39.9516 2.07855 41.1436 2.31566 42.2557 2.77633C43.3679 3.237 44.3784 3.91222 45.2297 4.76343C46.0809 5.61464 46.7561 6.62517 47.2168 7.73733C47.6774 8.8495 47.9145 10.0415 47.9145 11.2453V38.7455C47.9145 39.9493 47.6774 41.1413 47.2168 42.2535C46.7561 43.3657 46.0809 44.3762 45.2297 45.2274C44.3784 46.0786 43.3679 46.7538 42.2557 47.2145C41.1436 47.6752 39.9516 47.9123 38.7478 47.9123H11.2476C8.81638 47.9123 6.48479 46.9465 4.76569 45.2274C3.04659 43.5083 2.08081 41.1767 2.08081 38.7455V11.2453C2.08081 8.81412 3.04659 6.48253 4.76569 4.76343C6.48479 3.04433 8.81638 2.07855 11.2476 2.07855Z" fill="#B01313"/>
<path d="M38.6928 2.1748H11.3049C6.26248 2.1748 2.1748 6.26248 2.1748 11.3049V38.6928C2.1748 43.7352 6.26248 47.8229 11.3049 47.8229H38.6928C43.7352 47.8229 47.8229 43.7352 47.8229 38.6928V11.3049C47.8229 6.26248 43.7352 2.1748 38.6928 2.1748Z" fill="#B11313"/>
<path d="M11.3622 2.2688H38.6333C41.0444 2.2688 43.3568 3.22661 45.0617 4.93153C46.7666 6.63644 47.7244 8.9488 47.7244 11.3599V38.631C47.7244 41.0415 46.7673 43.3534 45.0635 45.0586C43.3596 46.7637 41.0484 47.7226 38.6379 47.7244H11.3668C8.95549 47.725 6.64266 46.7678 4.93695 45.0634C3.23124 43.359 2.27233 41.0469 2.27112 38.6356V11.3645C2.27052 10.1703 2.50522 8.98759 2.96182 7.88407C3.41843 6.78056 4.08798 5.77782 4.93223 4.93315C5.77647 4.08847 6.77887 3.41842 7.88216 2.96126C8.98544 2.5041 10.168 2.2688 11.3622 2.2688Z" fill="#B21313"/>
<path d="M38.5805 2.36273H11.4194C6.41881 2.36273 2.36499 6.41655 2.36499 11.4172V38.5782C2.36499 43.5789 6.41881 47.6327 11.4194 47.6327H38.5805C43.5811 47.6327 47.635 43.5789 47.635 38.5782V11.4172C47.635 6.41655 43.5811 2.36273 38.5805 2.36273Z" fill="#B31313"/>
<path d="M11.4769 2.45667H38.5188C40.9098 2.45667 43.2029 3.40651 44.8937 5.09724C46.5844 6.78798 47.5342 9.0811 47.5342 11.4722V38.514C47.5342 40.9057 46.5842 43.1994 44.893 44.8906C43.2018 46.5818 40.9081 47.5318 38.5165 47.5318H11.4746C9.08291 47.5318 6.7892 46.5818 5.09803 44.8906C3.40687 43.1994 2.45679 40.9057 2.45679 38.514V11.4722C2.45679 10.2878 2.69013 9.11513 3.14349 8.02102C3.59685 6.92691 4.26133 5.93285 5.09898 5.09562C5.93664 4.2584 6.93104 3.59441 8.02538 3.14161C9.11972 2.68881 10.2925 2.45606 11.4769 2.45667Z" fill="#B41313"/>
<path d="M38.466 2.55292H11.5318C6.57294 2.55292 2.55298 6.57287 2.55298 11.5317V38.4659C2.55298 43.4248 6.57294 47.4448 11.5318 47.4448H38.466C43.4249 47.4448 47.4448 43.4248 47.4448 38.4659V11.5317C47.4448 6.57287 43.4249 2.55292 38.466 2.55292Z" fill="#B51313"/>
<path d="M11.5889 2.64691H38.4017C40.7721 2.64691 43.0454 3.58855 44.7215 5.26467C46.3976 6.94079 47.3392 9.21409 47.3392 11.5845V38.3972C47.3392 40.7676 46.3976 43.0409 44.7215 44.717C43.0454 46.3932 40.7721 47.3348 38.4017 47.3348H11.5889C9.21855 47.3348 6.94524 46.3932 5.26912 44.717C3.593 43.0409 2.65137 40.7676 2.65137 38.3972V11.5845C2.65137 9.21409 3.593 6.94079 5.26912 5.26467C6.94524 3.58855 9.21855 2.64691 11.5889 2.64691Z" fill="#B61313"/>
<path d="M38.3537 2.74084H11.6464C6.72926 2.74084 2.74316 6.72694 2.74316 11.644V38.3514C2.74316 43.2685 6.72926 47.2546 11.6464 47.2546H38.3537C43.2708 47.2546 47.2569 43.2685 47.2569 38.3514V11.644C47.2569 6.72694 43.2708 2.74084 38.3537 2.74084Z" fill="#B71313"/>
<path d="M11.7036 2.8371H38.2871C39.4521 2.8356 40.606 3.06377 41.6828 3.50856C42.7596 3.95336 43.7382 4.60606 44.5625 5.42933C45.3868 6.2526 46.0408 7.23029 46.487 8.3065C46.9332 9.3827 47.1628 10.5363 47.1628 11.7013V38.2849C47.1628 40.6364 46.2287 42.8917 44.5659 44.5545C42.9031 46.2173 40.6478 47.1514 38.2963 47.1514H11.7127C9.36117 47.1514 7.10594 46.2173 5.44314 44.5545C3.78034 42.8917 2.84619 40.6364 2.84619 38.2849V11.7013C2.84619 9.35159 3.77916 7.09798 5.44004 5.43581C7.10092 3.77364 9.35381 2.83893 11.7036 2.8371Z" fill="#B81414"/>
<path d="M38.239 2.93109H11.7586C6.88327 2.93109 2.93103 6.88333 2.93103 11.7587V38.2391C2.93103 43.1144 6.88327 47.0667 11.7586 47.0667H38.239C43.1144 47.0667 47.0666 43.1144 47.0666 38.2391V11.7587C47.0666 6.88333 43.1144 2.93109 38.239 2.93109Z" fill="#B91414"/>
<path d="M11.8159 3.0365H38.1841C40.5142 3.03468 42.7496 3.95824 44.399 5.60414C46.0483 7.25005 46.9765 9.48357 46.9796 11.8137V38.1818C46.9796 40.5133 46.0534 42.7493 44.4048 44.3979C42.7561 46.0465 40.5201 46.9727 38.1887 46.9727H11.8159C9.48444 46.9727 7.24844 46.0465 5.59982 44.3979C3.95121 42.7493 3.02502 40.5133 3.02502 38.1818V11.8137C3.02806 9.48436 3.95566 7.25154 5.60401 5.60576C7.25236 3.95999 9.48663 3.03589 11.8159 3.0365Z" fill="#BA1414"/>
<path d="M38.1268 3.11896H11.8733C7.03972 3.11896 3.12134 7.03734 3.12134 11.8709V38.1245C3.12134 42.958 7.03972 46.8764 11.8733 46.8764H38.1268C42.9604 46.8764 46.8788 42.958 46.8788 38.1245V11.8709C46.8788 7.03734 42.9604 3.11896 38.1268 3.11896Z" fill="#BB1414"/>
<path d="M11.9306 3.21527H38.0695C40.3792 3.21527 42.5942 4.13276 44.2273 5.7659C45.8605 7.39905 46.778 9.61406 46.778 11.9237V38.0695C46.778 40.3791 45.8605 42.5942 44.2273 44.2273C42.5942 45.8604 40.3792 46.7779 38.0695 46.7779H11.9306C9.62096 46.7779 7.40594 45.8604 5.7728 44.2273C4.13966 42.5942 3.22217 40.3791 3.22217 38.0695V11.9283C3.22217 9.61865 4.13966 7.40363 5.7728 5.77049C7.40594 4.13734 9.62096 3.21985 11.9306 3.21985V3.21527Z" fill="#BC1414"/>
<path d="M38.0122 3.3092H11.9855C7.19373 3.3092 3.3092 7.19373 3.3092 11.9855V38.0122C3.3092 42.804 7.19373 46.6885 11.9855 46.6885H38.0122C42.804 46.6885 46.6885 42.804 46.6885 38.0122V11.9855C46.6885 7.19373 42.804 3.3092 38.0122 3.3092Z" fill="#BD1414"/>
<path d="M12.0429 3.40314H37.9572C39.0917 3.40314 40.2151 3.62663 41.2631 4.06084C42.3112 4.49505 43.2635 5.13148 44.0656 5.93377C44.8677 6.73607 45.5038 7.68852 45.9378 8.73671C46.3717 9.78491 46.5949 10.9083 46.5946 12.0428V37.9549C46.5946 40.2463 45.6844 42.4438 44.0641 44.064C42.4439 45.6843 40.2463 46.5945 37.9549 46.5945H12.0429C9.75147 46.5945 7.55394 45.6843 5.93369 44.064C4.31345 42.4438 3.4032 40.2463 3.4032 37.9549V12.0428C3.4029 10.9081 3.62616 9.78453 4.06024 8.73618C4.49432 7.68784 5.1307 6.73529 5.93302 5.93296C6.73535 5.13064 7.6879 4.49426 8.73624 4.06018C9.78459 3.6261 10.9082 3.40284 12.0429 3.40314Z" fill="#BE1414"/>
<path d="M37.8999 3.49713H12.1001C7.35005 3.49713 3.49939 7.34779 3.49939 12.0978V37.8976C3.49939 42.6477 7.35005 46.4983 12.1001 46.4983H37.8999C42.6499 46.4983 46.5006 42.6477 46.5006 37.8976V12.0978C46.5006 7.34779 42.6499 3.49713 37.8999 3.49713Z" fill="#BF1414"/>
<path d="M12.1459 3.59338H37.8426C38.9672 3.59308 40.0807 3.81432 41.1198 4.24445C42.1588 4.67458 43.1029 5.30519 43.8982 6.10025C44.6934 6.89531 45.3243 7.83925 45.7547 8.87816C46.1851 9.91707 46.4066 11.0306 46.4066 12.1551V37.8426C46.4066 38.9673 46.1851 40.0809 45.7547 41.1199C45.3244 42.159 44.6935 43.1031 43.8983 43.8983C43.1031 44.6936 42.159 45.3244 41.1199 45.7548C40.0809 46.1852 38.9673 46.4067 37.8426 46.4067H12.1459C9.87462 46.4067 7.69632 45.5044 6.09026 43.8983C4.48419 42.2923 3.58191 40.114 3.58191 37.8426V12.1551C3.58191 11.0306 3.80344 9.91707 4.23385 8.87816C4.66426 7.83925 5.29512 6.89531 6.09039 6.10025C6.88567 5.30519 7.82978 4.67458 8.8688 4.24445C9.90782 3.81432 11.0214 3.59308 12.1459 3.59338Z" fill="#C01515"/>
<path d="M37.7853 3.68732H12.2123C7.50406 3.68732 3.68726 7.50412 3.68726 12.2124V37.7853C3.68726 42.4936 7.50406 46.3104 12.2123 46.3104H37.7853C42.4935 46.3104 46.3103 42.4936 46.3103 37.7853V12.2124C46.3103 7.50412 42.4935 3.68732 37.7853 3.68732Z" fill="#C11515"/>
<path d="M12.2698 3.78131H37.7304C39.9792 3.78131 42.136 4.67466 43.7261 6.26482C45.3163 7.85499 46.2096 10.0117 46.2096 12.2605V37.7212C46.2096 39.97 45.3163 42.1267 43.7261 43.7169C42.136 45.3071 39.9792 46.2004 37.7304 46.2004H12.2698C10.0209 46.2004 7.8642 45.3071 6.27404 43.7169C4.68387 42.1267 3.79053 39.97 3.79053 37.7212V12.2697C3.79053 10.0209 4.68387 7.86415 6.27404 6.27399C7.8642 4.68382 10.0209 3.79048 12.2698 3.79048V3.78131Z" fill="#C21515"/>
<path d="M37.6729 3.87524H12.3269C7.66039 3.87524 3.87744 7.65819 3.87744 12.3247V37.6707C3.87744 42.3372 7.66039 46.1202 12.3269 46.1202H37.6729C42.3394 46.1202 46.1224 42.3372 46.1224 37.6707V12.3247C46.1224 7.65819 42.3394 3.87524 37.6729 3.87524Z" fill="#C31515"/>
<path d="M12.3752 3.9715H37.6158C39.8464 3.9715 41.9857 4.8576 43.5629 6.43487C45.1402 8.01214 46.0263 10.1514 46.0263 12.382V37.6134C46.0263 38.7182 45.8087 39.8122 45.3859 40.8329C44.9631 41.8536 44.3435 42.781 43.5623 43.5622C42.7811 44.3434 41.8536 44.9631 40.833 45.3858C39.8123 45.8086 38.7183 46.0262 37.6135 46.0262H12.3752C11.2704 46.0262 10.1764 45.8086 9.15575 45.3858C8.13506 44.9631 7.20765 44.3434 6.42645 43.5622C5.64525 42.781 5.02557 41.8536 4.60279 40.8329C4.18001 39.8122 3.9624 38.7182 3.9624 37.6134V12.382C3.9624 11.2773 4.18002 10.1835 4.60283 9.1629C5.02564 8.14234 5.64536 7.21508 6.42659 6.43406C7.20782 5.65305 8.13525 5.03358 9.15592 4.61105C10.1766 4.18852 11.2705 3.9712 12.3752 3.9715Z" fill="#C41515"/>
<path style="mix-blend-mode:screen" d="M39.9991 0H10.0009C4.47756 0 0 4.47756 0 10.0009V39.9991C0 45.5224 4.47756 50 10.0009 50H39.9991C45.5224 50 50 45.5224 50 39.9991V10.0009C50 4.47756 45.5224 0 39.9991 0Z" fill="url(#paint0_linear_91_6205)"/>
<path style="mix-blend-mode:soft-light" d="M12.3752 3.9715H37.6158C39.8464 3.9715 41.9857 4.8576 43.5629 6.43487C45.1402 8.01214 46.0263 10.1514 46.0263 12.382V37.6134C46.0263 38.7182 45.8087 39.8122 45.3859 40.8329C44.9631 41.8536 44.3435 42.781 43.5623 43.5622C42.7811 44.3434 41.8536 44.9631 40.833 45.3858C39.8123 45.8086 38.7183 46.0262 37.6135 46.0262H12.3752C11.2704 46.0262 10.1764 45.8086 9.15575 45.3858C8.13506 44.9631 7.20765 44.3434 6.42645 43.5622C5.64525 42.781 5.02557 41.8536 4.60279 40.8329C4.18001 39.8122 3.9624 38.7182 3.9624 37.6134V12.382C3.9624 11.2773 4.18002 10.1835 4.60283 9.1629C5.02564 8.14234 5.64536 7.21508 6.42659 6.43406C7.20782 5.65305 8.13525 5.03358 9.15592 4.61105C10.1766 4.18852 11.2705 3.9712 12.3752 3.9715Z" fill="url(#paint1_linear_91_6205)"/>
<path d="M18.3334 12.9778C18.3339 13.9669 18.041 14.9339 17.4918 15.7566C16.9426 16.5792 16.1618 17.2205 15.2482 17.5993C14.3345 17.9781 13.329 18.0775 12.3588 17.8848C11.3887 17.6921 10.4975 17.216 9.79793 16.5168C9.09838 15.8176 8.6219 14.9266 8.42877 13.9565C8.23564 12.9865 8.33453 11.9809 8.71294 11.0671C9.09135 10.1532 9.73227 9.37212 10.5546 8.82256C11.377 8.273 12.3439 7.97968 13.333 7.97968C14.6588 7.97968 15.9303 8.50619 16.868 9.44347C17.8057 10.3807 18.3328 11.652 18.3334 12.9778Z" fill="url(#paint2_radial_91_6205)"/>
<path d="M30.0004 24.6448C30.0009 25.6339 29.708 26.6009 29.1588 27.4235C28.6096 28.2461 27.8288 28.8874 26.9152 29.2662C26.0015 29.6451 24.996 29.7444 24.0258 29.5517C23.0557 29.359 22.1645 28.883 21.4649 28.1837C20.7654 27.4845 20.2889 26.5935 20.0958 25.6234C19.9026 24.6534 20.0015 23.6478 20.3799 22.734C20.7583 21.8202 21.3993 21.0391 22.2216 20.4895C23.044 19.9399 24.0109 19.6466 25 19.6466C26.3258 19.6466 27.5973 20.1731 28.535 21.1104C29.4727 22.0477 29.9998 23.319 30.0004 24.6448Z" fill="url(#paint3_radial_91_6205)"/>
<path d="M41.6674 36.3117C41.6674 37.3007 41.3742 38.2675 40.8247 39.0898C40.2752 39.9122 39.4943 40.5531 38.5806 40.9316C37.6668 41.31 36.6614 41.4091 35.6914 41.2161C34.7214 41.0232 33.8304 40.5469 33.1311 39.8476C32.4318 39.1483 31.9555 38.2573 31.7626 37.2873C31.5696 36.3173 31.6687 35.3119 32.0471 34.3981C32.4256 33.4844 33.0665 32.7035 33.8889 32.154C34.7112 31.6045 35.678 31.3113 36.667 31.3113C37.9932 31.3113 39.2651 31.8381 40.2028 32.7759C41.1406 33.7136 41.6674 34.9855 41.6674 36.3117Z" fill="url(#paint4_radial_91_6205)"/>
<defs>
<linearGradient id="paint0_linear_91_6205" x1="50.0917" y1="24.9977" x2="0.488129" y2="24.9977" gradientUnits="userSpaceOnUse">
<stop offset="0.04" stop-color="#380404"/>
<stop offset="1"/>
</linearGradient>
<linearGradient id="paint1_linear_91_6205" x1="3.64844" y1="24.9977" x2="46.1065" y2="24.9977" gradientUnits="userSpaceOnUse">
<stop stop-color="#8F0F0F"/>
<stop offset="1"/>
</linearGradient>
<radialGradient id="paint2_radial_91_6205" cx="0" cy="0" r="1" gradientUnits="userSpaceOnUse" gradientTransform="translate(13.333 12.9778) scale(5.00046)">
<stop stop-color="#F0F0F0"/>
<stop offset="1" stop-color="#E3E3E3"/>
</radialGradient>
<radialGradient id="paint3_radial_91_6205" cx="0" cy="0" r="1" gradientUnits="userSpaceOnUse" gradientTransform="translate(25 24.6448) scale(5.00046)">
<stop stop-color="#F0F0F0"/>
<stop offset="1" stop-color="#E3E3E3"/>
</radialGradient>
<radialGradient id="paint4_radial_91_6205" cx="0" cy="0" r="1" gradientUnits="userSpaceOnUse" gradientTransform="translate(36.667 36.3117) scale(5.00046 5.00046)">
<stop stop-color="#F0F0F0"/>
<stop offset="1" stop-color="#E3E3E3"/>
</radialGradient>
</defs>
</svg>
