<svg width="50" height="50" viewBox="0 0 50 50" fill="none" xmlns="http://www.w3.org/2000/svg">
<path d="M39.9991 0H10.0009C4.47756 0 0 4.47756 0 10.0009V39.9991C0 45.5224 4.47756 50 10.0009 50H39.9991C45.5224 50 50 45.5224 50 39.9991V10.0009C50 4.47756 45.5224 0 39.9991 0Z" fill="#9B1010"/>
<path d="M39.9441 0.0939636H10.056C4.55412 0.0939636 0.0939941 4.55408 0.0939941 10.0559V39.9441C0.0939941 45.4459 4.55412 49.906 10.056 49.906H39.9441C45.446 49.906 49.9061 45.4459 49.9061 39.9441V10.0559C49.9061 4.55408 45.446 0.0939636 39.9441 0.0939636Z" fill="#9C1010"/>
<path d="M39.8868 0.190216H10.1155C4.63392 0.190216 0.190216 4.63392 0.190216 10.1155V39.8868C0.190216 45.3684 4.63392 49.8121 10.1155 49.8121H39.8868C45.3684 49.8121 49.8121 45.3684 49.8121 39.8868V10.1155C49.8121 4.63392 45.3684 0.190216 39.8868 0.190216Z" fill="#9D1010"/>
<path d="M39.8295 0.284149H10.1705C4.71047 0.284149 0.28421 4.71041 0.28421 10.1705V39.8318C0.28421 45.2918 4.71047 49.7181 10.1705 49.7181H39.8295C45.2896 49.7181 49.7159 45.2918 49.7159 39.8318V10.1705C49.7159 4.71041 45.2896 0.284149 39.8295 0.284149Z" fill="#9E1010"/>
<path d="M39.7722 0.378113H10.2278C4.78796 0.378113 0.378113 4.78796 0.378113 10.2278V39.7722C0.378113 45.212 4.78796 49.6219 10.2278 49.6219H39.7722C45.212 49.6219 49.6219 45.212 49.6219 39.7722V10.2278C49.6219 4.78796 45.212 0.378113 39.7722 0.378113Z" fill="#9F1010"/>
<path d="M39.7149 0.472076H10.2828C4.86451 0.472076 0.472107 4.86448 0.472107 10.2828V39.7172C0.472107 45.1355 4.86451 49.5279 10.2828 49.5279H39.7149C45.1332 49.5279 49.5256 45.1355 49.5256 39.7172V10.2828C49.5256 4.86448 45.1332 0.472076 39.7149 0.472076Z" fill="#A01111"/>
<path d="M39.6599 0.568329H10.3424C4.94432 0.568329 0.568329 4.94432 0.568329 10.3424V39.6599C0.568329 45.058 4.94432 49.434 10.3424 49.434H39.6599C45.058 49.434 49.4339 45.058 49.4339 39.6599V10.3424C49.4339 4.94432 45.058 0.568329 39.6599 0.568329Z" fill="#A11111"/>
<path d="M39.6026 0.662262H10.3974C5.02087 0.662262 0.662323 5.02081 0.662323 10.3973V39.6049C0.662323 44.9814 5.02087 49.34 10.3974 49.34H39.6026C44.9792 49.34 49.3377 44.9814 49.3377 39.6049V10.3973C49.3377 5.02081 44.9792 0.662262 39.6026 0.662262Z" fill="#A21111"/>
<path d="M39.5453 0.756256H10.4546C5.09835 0.756256 0.756226 5.09838 0.756226 10.4547V39.5453C0.756226 44.9016 5.09835 49.2437 10.4546 49.2437H39.5453C44.9016 49.2437 49.2437 44.9016 49.2437 39.5453V10.4547C49.2437 5.09838 44.9016 0.756256 39.5453 0.756256Z" fill="#A31111"/>
<path d="M39.488 0.85022H10.5097C5.17491 0.85022 0.85022 5.17491 0.85022 10.5097V39.4903C0.85022 44.8251 5.17491 49.1498 10.5097 49.1498H39.488C44.8228 49.1498 49.1475 44.8251 49.1475 39.4903V10.5097C49.1475 5.17491 44.8228 0.85022 39.488 0.85022Z" fill="#A41111"/>
<path d="M10.5669 0.946472H39.4422C41.9949 0.946472 44.4431 1.96054 46.2481 3.76559C48.0532 5.57065 49.0673 8.01882 49.0673 10.5716V39.4468C49.0673 41.9995 48.0532 44.4477 46.2481 46.2528C44.4431 48.0578 41.9949 49.0719 39.4422 49.0719H10.5669C8.01421 49.0719 5.56604 48.0578 3.76098 46.2528C1.95593 44.4477 0.941864 41.9995 0.941864 39.4468V10.5716C0.941864 8.01882 1.95593 5.57065 3.76098 3.76559C5.56604 1.96054 8.01421 0.946472 10.5669 0.946472Z" fill="#A51111"/>
<path d="M39.3758 1.04041H10.6243C5.33126 1.04041 1.04044 5.33123 1.04044 10.6242V39.3757C1.04044 44.6687 5.33126 48.9596 10.6243 48.9596H39.3758C44.6688 48.9596 48.9596 44.6687 48.9596 39.3757V10.6242C48.9596 5.33123 44.6688 1.04041 39.3758 1.04041Z" fill="#A61111"/>
<path d="M10.6816 1.14584H39.3276C41.8597 1.14584 44.2881 2.1517 46.0785 3.94214C47.8689 5.73258 48.8748 8.16094 48.8748 10.693V39.3391C48.8748 41.8712 47.8689 44.2995 46.0785 46.09C44.2881 47.8804 41.8597 48.8862 39.3276 48.8862H10.6816C9.42723 48.8847 8.18549 48.6361 7.02731 48.1545C5.86912 47.6729 4.81718 46.9677 3.93162 46.0794C3.04606 45.1911 2.34423 44.137 1.86623 42.9773C1.38824 41.8176 1.14345 40.5751 1.14586 39.3208V10.6747C1.15011 8.14758 2.15634 5.72531 3.94391 3.93903C5.73148 2.15275 8.15447 1.14827 10.6816 1.14584Z" fill="#A71111"/>
<path d="M39.2611 1.23059H10.7365C5.48527 1.23059 1.2283 5.48756 1.2283 10.7388V39.2634C1.2283 44.5146 5.48527 48.7716 10.7365 48.7716H39.2611C44.5124 48.7716 48.7693 44.5146 48.7693 39.2634V10.7388C48.7693 5.48756 44.5124 1.23059 39.2611 1.23059Z" fill="#A81212"/>
<path d="M10.7938 1.32458H39.2107C41.7215 1.32641 44.1289 2.3251 45.9037 4.10116C47.6784 5.87722 48.6754 8.28531 48.6754 10.7961V39.213C48.6754 41.725 47.6775 44.1342 45.9012 45.9104C44.125 47.6867 41.7158 48.6846 39.2038 48.6846H10.7938C9.5496 48.6843 8.31764 48.4388 7.16832 47.9623C6.01899 47.4857 4.97482 46.7874 4.09546 45.9072C3.2161 45.027 2.51878 43.9821 2.04334 42.8323C1.5679 41.6826 1.32365 40.4504 1.32456 39.2062V10.7938C1.32456 8.28243 2.32221 5.87389 4.09803 4.09806C5.87386 2.32223 8.2824 1.32458 10.7938 1.32458Z" fill="#A91212"/>
<path d="M39.1489 1.41852H10.8511C5.64166 1.41852 1.41855 5.64163 1.41855 10.8511V39.1488C1.41855 44.3583 5.64166 48.5814 10.8511 48.5814H39.1489C44.3583 48.5814 48.5814 44.3583 48.5814 39.1488V10.8511C48.5814 5.64163 44.3583 1.41852 39.1489 1.41852Z" fill="#AA1212"/>
<path d="M10.9085 1.51251H39.0962C40.3301 1.51251 41.5519 1.75554 42.6919 2.22773C43.8318 2.69992 44.8676 3.39202 45.7401 4.26451C46.6126 5.137 47.3047 6.1728 47.7769 7.31276C48.2491 8.45273 48.4921 9.67454 48.4921 10.9084V39.0962C48.4921 41.5881 47.5022 43.978 45.7401 45.7401C43.978 47.5022 41.5881 48.4921 39.0962 48.4921H10.9085C8.4165 48.4921 6.02662 47.5022 4.26454 45.7401C2.50247 43.978 1.51254 41.5881 1.51254 39.0962V10.9084C1.51254 8.41647 2.50247 6.02659 4.26454 4.26451C6.02662 2.50244 8.4165 1.51251 10.9085 1.51251Z" fill="#AB1212"/>
<path d="M39.0366 1.60873H10.9657C5.79802 1.60873 1.60876 5.79798 1.60876 10.9657V39.0365C1.60876 44.2042 5.79802 48.3935 10.9657 48.3935H39.0366C44.2043 48.3935 48.3935 44.2042 48.3935 39.0365V10.9657C48.3935 5.79798 44.2043 1.60873 39.0366 1.60873Z" fill="#AC1212"/>
<path d="M11.0208 1.70273H38.9793C41.4508 1.70334 43.8209 2.68556 45.5683 4.43339C47.3157 6.18121 48.2973 8.55152 48.2973 11.023V38.9816C48.2973 41.4535 47.3154 43.8241 45.5675 45.572C43.8196 47.3199 41.4489 48.3019 38.977 48.3019H11.0185C8.54697 48.3007 6.17714 47.3179 4.43018 45.5696C2.68321 43.8213 1.70215 41.4508 1.70276 38.9793V11.0207C1.70276 8.54944 2.68447 6.17937 4.43194 4.43191C6.1794 2.68444 8.54947 1.70273 11.0208 1.70273Z" fill="#AD1212"/>
<path d="M38.9219 1.79669H11.078C5.95202 1.79669 1.79663 5.95208 1.79663 11.078V38.922C1.79663 44.0479 5.95202 48.2033 11.078 48.2033H38.9219C44.0479 48.2033 48.2033 44.0479 48.2033 38.922V11.078C48.2033 5.95208 44.0479 1.79669 38.9219 1.79669Z" fill="#AE1212"/>
<path d="M38.8647 48.1094H11.1353C8.68388 48.1094 6.33281 47.1357 4.59916 45.4025C2.86552 43.6693 1.89126 41.3185 1.89066 38.867V11.1376C1.89035 9.92339 2.12925 8.721 2.59371 7.59913C3.05816 6.47725 3.73907 5.45785 4.59754 4.59916C5.45602 3.74048 6.47525 3.05931 7.59701 2.59458C8.71877 2.12985 9.9211 1.89066 11.1353 1.89066H38.8647C41.3166 1.89066 43.668 2.86464 45.4017 4.59835C47.1354 6.33206 48.1094 8.68348 48.1094 11.1353V38.8647C48.1094 41.3166 47.1354 43.668 45.4017 45.4017C43.668 47.1354 41.3166 48.1094 38.8647 48.1094Z" fill="#AF1212"/>
<path d="M38.8074 48.0154H11.1926C9.98367 48.0154 8.7866 47.7773 7.66971 47.3146C6.55282 46.852 5.53799 46.1739 4.68317 45.3191C2.95676 43.5927 1.98688 41.2512 1.98688 38.8097V11.1926C1.98658 9.98359 2.22448 8.78638 2.68701 7.66935C3.14953 6.55233 3.82761 5.53738 4.68249 4.68249C5.53738 3.82761 6.55233 3.14953 7.66935 2.68701C8.78638 2.22448 9.98359 1.98658 11.1926 1.98688H38.8074C40.0164 1.98658 41.2136 2.22448 42.3306 2.68701C43.4476 3.14953 44.4626 3.82761 45.3175 4.68249C46.1724 5.53738 46.8504 6.55233 47.313 7.66935C47.7755 8.78638 48.0134 9.98359 48.0131 11.1926V38.8097C48.0131 41.2512 47.0432 43.5927 45.3168 45.3191C43.5904 47.0455 41.2489 48.0154 38.8074 48.0154Z" fill="#B01212"/>
<path d="M38.7524 47.9192H11.2522C10.0484 47.9192 8.85639 47.6821 7.74423 47.2214C6.63207 46.7607 5.62154 46.0855 4.77033 45.2343C3.05123 43.5152 2.08545 41.1836 2.08545 38.7524V11.2522C2.08545 8.82102 3.05123 6.48942 4.77033 4.77033C6.48942 3.05123 8.82102 2.08545 11.2522 2.08545H38.7524C39.9562 2.08545 41.1482 2.32255 42.2604 2.78323C43.3725 3.2439 44.3831 3.91912 45.2343 4.77033C46.0855 5.62154 46.7607 6.63207 47.2214 7.74423C47.6821 8.85639 47.9192 10.0484 47.9192 11.2522V38.7524C47.9192 41.1836 46.9534 43.5152 45.2343 45.2343C43.5152 46.9534 41.1836 47.9192 38.7524 47.9192Z" fill="#B01313"/>
<path d="M38.6952 47.8252H11.3049C8.8835 47.8252 6.56122 46.8633 4.849 45.1511C3.13678 43.4388 2.17487 41.1166 2.17487 38.6951V11.3049C2.17487 8.88344 3.13678 6.56116 4.849 4.84894C6.56122 3.13672 8.8835 2.1748 11.3049 2.1748H38.6952C41.1166 2.1748 43.4389 3.13672 45.1511 4.84894C46.8633 6.56116 47.8252 8.88344 47.8252 11.3049V38.6951C47.8252 41.1166 46.8633 43.4388 45.1511 45.1511C43.4389 46.8633 41.1166 47.8252 38.6952 47.8252Z" fill="#B11313"/>
<path d="M11.3621 2.27106H38.6332C41.0443 2.27106 43.3567 3.22887 45.0616 4.93378C46.7665 6.6387 47.7243 8.95106 47.7243 11.3622V38.6332C47.7243 41.0444 46.7665 43.3567 45.0616 45.0616C43.3567 46.7665 41.0443 47.7244 38.6332 47.7244H11.3621C8.95162 47.7244 6.63971 46.7673 4.93457 45.0634C3.22942 43.3595 2.27056 41.0484 2.26874 38.6378V11.3668C2.26844 10.1724 2.50342 8.98969 2.96027 7.88616C3.41713 6.78263 4.08689 5.77991 4.93133 4.93527C5.77576 4.09062 6.77831 3.4206 7.88172 2.96347C8.98513 2.50634 10.1678 2.27106 11.3621 2.27106Z" fill="#B21313"/>
<path d="M38.5805 47.6372H11.4194C9.01805 47.6372 6.71502 46.6833 5.01698 44.9853C3.31894 43.2872 2.36499 40.9842 2.36499 38.5828V11.4194C2.36499 9.01805 3.31894 6.71502 5.01698 5.01698C6.71502 3.31894 9.01805 2.36499 11.4194 2.36499H38.5805C40.9819 2.36499 43.2849 3.31894 44.983 5.01698C46.681 6.71502 47.635 9.01805 47.635 11.4194V38.5828C47.635 40.9842 46.681 43.2872 44.983 44.9853C43.2849 46.6833 40.9819 47.6372 38.5805 47.6372Z" fill="#B31313"/>
<path d="M38.5255 47.541H11.4836C10.2995 47.5413 9.12687 47.3084 8.0328 46.8554C6.93872 46.4025 5.94459 45.7385 5.10718 44.9013C4.26977 44.0641 3.60549 43.0701 3.15228 41.9761C2.69906 40.8822 2.46579 39.7097 2.46579 38.5255V11.4836C2.46459 10.2993 2.69674 9.12638 3.14899 8.03181C3.60123 6.93724 4.26471 5.9425 5.10151 5.10442C5.93831 4.26634 6.93203 3.60135 8.02591 3.14744C9.11979 2.69353 10.2924 2.45959 11.4767 2.45898H38.5186C39.7025 2.45898 40.8749 2.69218 41.9687 3.14525C43.0625 3.59832 44.0563 4.26239 44.8935 5.09956C45.7307 5.93673 46.3948 6.93059 46.8478 8.0244C47.3009 9.11821 47.5341 10.2905 47.5341 11.4745V38.5164C47.5353 39.7005 47.3032 40.8733 46.8511 41.9677C46.399 43.0621 45.7357 44.0567 44.8992 44.8948C44.0626 45.7328 43.0692 46.3979 41.9756 46.8519C40.8819 47.306 39.7096 47.5401 38.5255 47.541Z" fill="#B41313"/>
<path d="M38.4683 47.4379H11.5318C9.15047 47.4379 6.86667 46.4919 5.18282 44.8081C3.49896 43.1242 2.55298 40.8404 2.55298 38.4591V11.5318C2.55298 9.15044 3.49896 6.86664 5.18282 5.18279C6.86667 3.49893 9.15047 2.55295 11.5318 2.55295H38.4683C40.848 2.55538 43.1295 3.50243 44.8113 5.18602C46.4932 6.86962 47.4379 9.15203 47.4379 11.5318V38.4683C47.4355 40.8464 46.4897 43.1265 44.8081 44.8081C43.1265 46.4897 40.8464 47.4355 38.4683 47.4379Z" fill="#B51313"/>
<path d="M38.4109 47.3531H11.5982C9.2278 47.3531 6.95449 46.4115 5.27837 44.7353C3.60225 43.0592 2.66061 40.7859 2.66061 38.4155V11.6028C2.66061 9.2324 3.60225 6.9591 5.27837 5.28298C6.95449 3.60686 9.2278 2.66522 11.5982 2.66522H38.4109C40.7813 2.66522 43.0546 3.60686 44.7307 5.28298C46.4069 6.9591 47.3485 9.2324 47.3485 11.6028V38.4132C47.3488 39.5871 47.1178 40.7496 46.6688 41.8342C46.2198 42.9188 45.5615 43.9044 44.7315 44.7345C43.9016 45.5647 42.9162 46.2232 41.8317 46.6725C40.7472 47.1218 39.5848 47.3531 38.4109 47.3531Z" fill="#B61313"/>
<path d="M38.356 2.7431H11.6464C6.72929 2.7431 2.74319 6.7292 2.74319 11.6463V38.3559C2.74319 43.273 6.72929 47.2591 11.6464 47.2591H38.356C43.2731 47.2591 47.2592 43.273 47.2592 38.3559V11.6463C47.2592 6.7292 43.2731 2.7431 38.356 2.7431Z" fill="#B71313"/>
<path d="M38.2987 47.1629H11.7151C9.36398 47.1629 7.10909 46.229 5.44636 44.5667C3.78363 42.9044 2.84921 40.6498 2.8486 38.2986V11.7013C2.84921 9.35217 3.78205 7.09925 5.44231 5.43728C7.10256 3.77531 9.35451 2.84013 11.7037 2.8371H38.2987C40.6496 2.8371 42.9043 3.77101 44.5667 5.43337C46.229 7.09574 47.1629 9.3504 47.1629 11.7013V38.2986C47.1629 40.6496 46.229 42.9042 44.5667 44.5666C42.9043 46.229 40.6496 47.1629 38.2987 47.1629Z" fill="#B81414"/>
<path d="M38.2414 47.0689H11.7586C9.4176 47.0683 7.17263 46.1381 5.51727 44.4827C3.86191 42.8274 2.93167 40.5824 2.93106 38.2414V11.7586C2.93167 9.4176 3.86191 7.17263 5.51727 5.51727C7.17263 3.86191 9.4176 2.93167 11.7586 2.93106H38.2414C40.5824 2.93167 42.8274 3.86191 44.4827 5.51727C46.1381 7.17263 47.0683 9.4176 47.0689 11.7586V38.2414C47.0683 40.5824 46.1381 42.8274 44.4827 44.4827C42.8274 46.1381 40.5824 47.0683 38.2414 47.0689Z" fill="#B91414"/>
<path d="M38.1841 46.9796H11.816C10.6613 46.9796 9.51801 46.7521 8.4513 46.3102C7.38459 45.8682 6.41538 45.2205 5.59904 44.4039C4.7827 43.5874 4.13522 42.618 3.69357 41.5512C3.25192 40.4844 3.02475 39.341 3.02506 38.1864V11.8159C3.02566 9.48483 3.95211 7.24942 5.60066 5.6013C7.24921 3.95318 9.48487 3.02731 11.816 3.02731H38.1841C39.3387 3.02671 40.4822 3.25358 41.5491 3.69495C42.6161 4.13632 43.5856 4.78355 44.4024 5.59968C45.2191 6.41581 45.8671 7.38484 46.3093 8.45144C46.7515 9.51804 46.9793 10.6613 46.9796 11.8159V38.1864C46.9799 39.3414 46.7526 40.4851 46.3106 41.5523C45.8687 42.6194 45.2208 43.589 44.404 44.4056C43.5872 45.2222 42.6174 45.8698 41.5502 46.3115C40.4829 46.7531 39.3391 46.9802 38.1841 46.9796Z" fill="#BA1414"/>
<path d="M38.1268 46.881H11.8733C9.55209 46.881 7.326 45.9589 5.68469 44.3176C4.04338 42.6763 3.12131 40.4502 3.12131 38.129V11.8732C3.12131 9.55203 4.04338 7.32594 5.68469 5.68463C7.326 4.04332 9.55209 3.12125 11.8733 3.12125H38.1268C40.448 3.12125 42.6741 4.04332 44.3154 5.68463C45.9567 7.32594 46.8788 9.55203 46.8788 11.8732V38.129C46.8788 40.4502 45.9567 42.6763 44.3154 44.3176C42.6741 45.9589 40.448 46.881 38.1268 46.881Z" fill="#BB1414"/>
<path d="M38.0695 46.7847H11.9305C9.62093 46.7847 7.40591 45.8672 5.77277 44.2341C4.13963 42.601 3.22214 40.3859 3.22214 38.0763V11.9305C3.22214 9.62087 4.13963 7.40585 5.77277 5.77271C7.40591 4.13957 9.62093 3.22208 11.9305 3.22208H38.0695C40.3791 3.22208 42.5941 4.13957 44.2273 5.77271C45.8604 7.40585 46.7779 9.62087 46.7779 11.9305V38.0717C46.7785 39.2157 46.5537 40.3486 46.1163 41.4057C45.679 42.4628 45.0376 43.4233 44.2289 44.2325C43.4202 45.0416 42.46 45.6835 41.4031 46.1214C40.3463 46.5593 39.2135 46.7847 38.0695 46.7847Z" fill="#BC1414"/>
<path d="M38.0145 46.6908H11.9878C10.8482 46.6911 9.71972 46.4669 8.6668 46.031C7.61388 45.5951 6.65713 44.9561 5.85122 44.1504C5.04531 43.3447 4.40601 42.3881 3.96984 41.3353C3.53367 40.2825 3.30917 39.1541 3.30917 38.0145V11.9855C3.30917 10.846 3.53369 9.71774 3.96988 8.66506C4.40608 7.61238 5.04542 6.65596 5.85136 5.85044C6.6573 5.04492 7.61406 4.40609 8.66697 3.97045C9.71988 3.53481 10.8483 3.31089 11.9878 3.31149H38.0145C39.1537 3.31119 40.2819 3.53533 41.3346 3.97111C42.3872 4.40688 43.3437 5.04576 44.1494 5.85125C44.9551 6.65674 45.5942 7.61306 46.0303 8.66559C46.4664 9.71812 46.6908 10.8462 46.6908 11.9855V38.0145C46.6908 40.3156 45.7767 42.5225 44.1496 44.1496C42.5224 45.7767 40.3156 46.6908 38.0145 46.6908Z" fill="#BD1414"/>
<path d="M37.9572 46.5969H12.0428C9.75144 46.5969 7.55391 45.6866 5.93366 44.0664C4.31341 42.4461 3.40317 40.2486 3.40317 37.9572V12.0428C3.40317 10.9084 3.62666 9.785 4.06087 8.73692C4.49508 7.68883 5.13151 6.73656 5.9338 5.93447C6.7361 5.13239 7.68855 4.49621 8.73674 4.06228C9.78494 3.62835 10.9084 3.40516 12.0428 3.40546H37.9572C39.0916 3.40516 40.2149 3.62836 41.2629 4.06232C42.311 4.49629 43.2633 5.1325 44.0654 5.93461C44.8675 6.73672 45.5037 7.68902 45.9377 8.73709C46.3717 9.78516 46.5949 10.9085 46.5946 12.0428V37.9572C46.5949 39.0917 46.3717 40.2151 45.9377 41.2633C45.5038 42.3115 44.8676 43.2639 44.0656 44.0662C43.2635 44.8685 42.3112 45.505 41.2631 45.9392C40.215 46.3734 39.0917 46.5969 37.9572 46.5969Z" fill="#BE1414"/>
<path d="M37.8999 3.49936H12.1001C7.35008 3.49936 3.49942 7.35002 3.49942 12.1001V37.8999C3.49942 42.6499 7.35008 46.5006 12.1001 46.5006H37.8999C42.65 46.5006 46.5006 42.6499 46.5006 37.8999V12.1001C46.5006 7.35002 42.65 3.49936 37.8999 3.49936Z" fill="#BF1414"/>
<path d="M37.8427 46.4066H12.1574C9.88652 46.4066 7.70857 45.5047 6.10257 43.8991C4.49657 42.2935 3.59402 40.1158 3.59341 37.8449V12.1574C3.59341 9.88606 4.49569 7.70777 6.10176 6.1017C7.70783 4.49563 9.88612 3.59335 12.1574 3.59335H37.8427C38.9673 3.59335 40.0809 3.81487 41.12 4.24525C42.159 4.67563 43.1031 5.30646 43.8983 6.1017C44.6936 6.89694 45.3244 7.84103 45.7548 8.88007C46.1852 9.91911 46.4067 11.0327 46.4067 12.1574V37.8449C46.4061 40.1158 45.5035 42.2935 43.8975 43.8991C42.2915 45.5047 40.1136 46.4066 37.8427 46.4066Z" fill="#C01515"/>
<path d="M37.7876 46.3127H12.2146C9.95345 46.3127 7.78483 45.4146 6.1857 43.8159C4.58658 42.2172 3.68789 40.0488 3.68729 37.7876V12.2124C3.68759 11.0929 3.90839 9.98435 4.3371 8.95016C4.7658 7.91596 5.394 6.97633 6.18584 6.18492C6.97768 5.39351 7.91765 4.76581 8.95207 4.33766C9.9865 3.90951 11.0951 3.68931 12.2146 3.68961H37.7876C40.0482 3.68961 42.2162 4.58747 43.8149 6.18573C45.4136 7.784 46.312 9.95179 46.3126 12.2124V37.7876C46.312 40.0484 45.4137 42.2164 43.815 43.8151C42.2164 45.4137 40.0484 46.3121 37.7876 46.3127Z" fill="#C11515"/>
<path d="M37.7303 46.2187H12.2697C10.0209 46.2187 7.86414 45.3254 6.27398 43.7352C4.68381 42.145 3.79047 39.9883 3.79047 37.7395V12.2697C3.79047 10.0208 4.68381 7.86411 6.27398 6.27395C7.86414 4.68378 10.0209 3.79044 12.2697 3.79044H37.7303C39.9792 3.79044 42.1359 4.68378 43.7261 6.27395C45.3162 7.86411 46.2096 10.0208 46.2096 12.2697V37.7303C46.2108 38.8446 45.9923 39.9482 45.5668 40.978C45.1412 42.0078 44.5168 42.9436 43.7293 43.732C42.9418 44.5203 42.0067 45.1457 40.9773 45.5724C39.948 45.9991 38.8446 46.2187 37.7303 46.2187Z" fill="#C21515"/>
<path d="M37.673 46.1224H12.3269C11.2175 46.1227 10.1188 45.9045 9.09366 45.4801C8.06854 45.0557 7.13706 44.4336 6.35243 43.6491C5.56779 42.8647 4.94538 41.9334 4.52072 40.9084C4.09607 39.8834 3.8775 38.7848 3.8775 37.6753V12.3269C3.8775 10.086 4.76771 7.93687 6.35229 6.35229C7.93687 4.76771 10.086 3.8775 12.3269 3.8775H37.673C39.9139 3.8775 42.0631 4.76771 43.6477 6.35229C45.2322 7.93687 46.1224 10.086 46.1224 12.3269V37.6753C46.1224 38.7848 45.9039 39.8834 45.4792 40.9084C45.0546 41.9334 44.4321 42.8647 43.6475 43.6491C42.8629 44.4336 41.9314 45.0557 40.9063 45.4801C39.8812 45.9045 38.7825 46.1227 37.673 46.1224Z" fill="#C31515"/>
<path d="M37.6157 46.0285H12.3751C11.2704 46.0288 10.1765 45.8115 9.15586 45.389C8.13519 44.9664 7.20775 44.347 6.42653 43.566C5.6453 42.7849 5.02558 41.8577 4.60277 40.8371C4.17996 39.8166 3.96234 38.7227 3.96234 37.618V12.3751C3.96477 10.1455 4.85219 8.00802 6.42963 6.4323C8.00706 4.85658 10.1455 3.9715 12.3751 3.9715H37.6066C39.8376 3.96967 41.978 4.85388 43.5573 6.42973C45.1366 8.00559 46.0255 10.1441 46.0285 12.3751V37.618C46.0279 39.8488 45.1413 41.9881 43.5637 43.5653C41.986 45.1425 39.8466 46.0285 37.6157 46.0285Z" fill="#C41515"/>
<path style="mix-blend-mode:screen" d="M39.9991 0H10.0009C4.47756 0 0 4.47756 0 10.0009V39.9991C0 45.5224 4.47756 50 10.0009 50H39.9991C45.5224 50 50 45.5224 50 39.9991V10.0009C50 4.47756 45.5224 0 39.9991 0Z" fill="url(#paint0_linear_91_1065)"/>
<path style="mix-blend-mode:soft-light" d="M37.6157 46.0285H12.3751C11.2704 46.0288 10.1765 45.8115 9.15586 45.389C8.13519 44.9664 7.20775 44.347 6.42653 43.566C5.6453 42.7849 5.02558 41.8577 4.60277 40.8371C4.17996 39.8166 3.96234 38.7227 3.96234 37.618V12.3751C3.96477 10.1455 4.85219 8.00802 6.42963 6.4323C8.00706 4.85658 10.1455 3.9715 12.3751 3.9715H37.6066C39.8376 3.96967 41.978 4.85388 43.5573 6.42973C45.1366 8.00559 46.0255 10.1441 46.0285 12.3751V37.618C46.0279 39.8488 45.1413 41.9881 43.5637 43.5653C41.986 45.1425 39.8466 46.0285 37.6157 46.0285Z" fill="url(#paint1_linear_91_1065)"/>
<path d="M30.0005 24.6471C30.0005 25.6361 29.7072 26.6029 29.1577 27.4252C28.6083 28.2475 27.8273 28.8884 26.9136 29.2669C25.9999 29.6454 24.9945 29.7444 24.0245 29.5515C23.0545 29.3585 22.1635 28.8823 21.4641 28.183C20.7648 27.4836 20.2886 26.5926 20.0956 25.6226C19.9027 24.6526 20.0017 23.6472 20.3802 22.7335C20.7587 21.8198 21.3996 21.0388 22.2219 20.4894C23.0442 19.9399 24.011 19.6466 25 19.6466C26.3262 19.6466 27.5981 20.1735 28.5359 21.1112C29.4736 22.049 30.0005 23.3209 30.0005 24.6471Z" fill="url(#paint2_radial_91_1065)"/>
<defs>
<linearGradient id="paint0_linear_91_1065" x1="50.0917" y1="25" x2="0.485839" y2="25" gradientUnits="userSpaceOnUse">
<stop offset="0.04" stop-color="#380404"/>
<stop offset="1"/>
</linearGradient>
<linearGradient id="paint1_linear_91_1065" x1="3.64609" y1="25" x2="46.1064" y2="25" gradientUnits="userSpaceOnUse">
<stop stop-color="#8F0F0F"/>
<stop offset="1"/>
</linearGradient>
<radialGradient id="paint2_radial_91_1065" cx="0" cy="0" r="1" gradientUnits="userSpaceOnUse" gradientTransform="translate(25 24.6471) scale(5.00046 5.00046)">
<stop stop-color="#F0F0F0"/>
<stop offset="1" stop-color="#E3E3E3"/>
</radialGradient>
</defs>
</svg>
