<svg width="252" height="252" viewBox="0 0 252 252" fill="none" xmlns="http://www.w3.org/2000/svg">
<g clip-path="url(#clip0_46_89)">
<path d="M12.4803 251.53L239.53 251.53C246.158 251.53 251.53 246.157 251.53 239.53L251.53 12.48C251.53 5.85262 246.158 0.480026 239.53 0.480026L12.4803 0.480026C5.85286 0.480026 0.48027 5.85262 0.48027 12.48L0.48027 239.53C0.48027 246.157 5.85286 251.53 12.4803 251.53Z" fill="url(#paint0_linear_46_89)"/>
<path d="M206.727 209.598C252.106 164.219 252.106 90.6454 206.727 45.2665C161.348 -0.112428 87.7742 -0.112417 42.3953 45.2665C-2.98363 90.6454 -2.98363 164.219 42.3953 209.598C87.7742 254.977 161.348 254.977 206.727 209.598Z" fill="url(#paint1_linear_46_89)"/>
<path d="M146.575 135.748C151.953 124.386 147.102 110.817 135.741 105.439C124.379 100.061 110.809 104.912 105.431 116.273C100.053 127.635 104.904 141.205 116.266 146.582C127.627 151.96 141.197 147.109 146.575 135.748Z" fill="url(#paint2_radial_46_89)"/>
<path style="mix-blend-mode:screen" opacity="0.5" d="M106.62 132.1C102.55 128 105 119 112 112C119 105 128 102.56 132.11 106.63C136.22 110.7 133.78 119.71 126.75 126.75C119.72 133.79 110.7 136.17 106.62 132.1Z" fill="url(#paint3_radial_46_89)"/>
<path d="M199.616 182.659C202.49 170.422 194.901 158.172 182.664 155.297C170.427 152.422 158.177 160.012 155.302 172.249C152.428 184.486 160.017 196.736 172.254 199.611C184.491 202.485 196.741 194.896 199.616 182.659Z" fill="url(#paint4_radial_46_89)"/>
<path style="mix-blend-mode:screen" opacity="0.5" d="M158.07 183.55C154 179.48 156.4 170.47 163.44 163.43C170.48 156.39 179.44 154 183.55 158.07C187.66 162.14 185.22 171.15 178.18 178.18C171.14 185.21 162.14 187.62 158.07 183.55Z" fill="url(#paint5_radial_46_89)"/>
<path d="M79.2674 96.8187C91.5645 94.2139 99.4216 82.1334 96.8168 69.8363C94.2119 57.5391 82.1314 49.682 69.8343 52.2869C57.5372 54.8917 49.68 66.9722 52.2849 79.2693C54.8898 91.5665 66.9702 99.4236 79.2674 96.8187Z" fill="url(#paint6_radial_46_89)"/>
<path style="mix-blend-mode:screen" opacity="0.5" d="M75.2987 75.2951C82.3321 68.2618 84.7318 59.2582 80.6586 55.185C76.5854 51.1118 67.5818 53.5115 60.5485 60.5449C53.5151 67.5782 51.1154 76.5818 55.1886 80.655C59.2618 84.7282 68.2654 82.3285 75.2987 75.2951Z" fill="url(#paint7_radial_46_89)"/>
<g style="mix-blend-mode:screen">
<path d="M21.3203 152.8C26.2003 153.86 29.6703 147.37 31.5603 142.75C33.4503 138.13 34.3203 133.1 36.6503 128.69C40.7503 120.97 48.7003 116.27 55.7803 111.15C58.7803 108.94 62.1303 105.52 60.8903 101.96C60.2303 100.08 58.4703 98.86 56.8903 97.6C44.0203 87.14 42.8903 65.27 54.5303 53.5C63.3203 44.65 76.6903 42.09 86.5303 34.43C88.1503 33.18 89.7803 31.56 89.8803 29.51C90.0203 26.93 87.5203 24.81 84.9603 24.45C82.4003 24.09 79.8503 25.05 77.4803 26.07C56.6303 35.07 39.0003 51.07 27.2303 70.44C15.4603 89.81 12.3403 112 12.1803 134.71C12.1803 134.71 11.5303 150.66 21.3203 152.8Z" fill="url(#paint8_linear_46_89)"/>
</g>
<path d="M190.762 196.277C200.96 188.928 203.269 174.703 195.919 164.506C188.57 154.308 174.345 151.999 164.148 159.348C153.95 166.698 151.641 180.922 158.99 191.12C166.34 201.318 180.564 203.627 190.762 196.277Z" fill="url(#paint9_radial_46_89)"/>
<path style="mix-blend-mode:screen" opacity="0.5" d="M158.07 183.9C154 179.82 156.4 170.82 163.44 163.78C170.48 156.74 179.44 154.35 183.55 158.42C187.66 162.49 185.22 171.5 178.18 178.53C171.14 185.56 162.14 188 158.07 183.9Z" fill="url(#paint10_radial_46_89)"/>
<path d="M139.311 144.417C149.509 137.067 151.818 122.843 144.469 112.645C137.119 102.447 122.895 100.138 112.697 107.488C102.499 114.837 100.19 129.062 107.54 139.259C114.889 149.457 129.114 151.766 139.311 144.417Z" fill="url(#paint11_radial_46_89)"/>
<path style="mix-blend-mode:screen" opacity="0.5" d="M106.62 132C102.55 128 105 119 112 111.92C119 104.84 128 102.49 132.11 106.56C136.22 110.63 133.78 119.64 126.75 126.67C119.72 133.7 110.7 136.11 106.62 132Z" fill="url(#paint12_radial_46_89)"/>
<path d="M87.8503 92.6731C98.048 85.3237 100.357 71.099 93.0076 60.9014C85.6582 50.7038 71.4336 48.3948 61.2359 55.7441C51.0383 63.0935 48.7293 77.3181 56.0787 87.5158C63.428 97.7134 77.6527 100.022 87.8503 92.6731Z" fill="url(#paint13_radial_46_89)"/>
<path style="mix-blend-mode:screen" opacity="0.5" d="M55.1804 80.31C51.1104 76.23 53.5104 67.23 60.5404 60.19C67.5704 53.15 76.5404 50.76 80.6504 54.83C84.7604 58.9 82.3304 67.91 75.2904 74.94C68.2504 81.97 59.2504 84.38 55.1804 80.31Z" fill="url(#paint14_radial_46_89)"/>
</g>
<defs>
<linearGradient id="paint0_linear_46_89" x1="3.99025" y1="3.98002" x2="248.01" y2="248.01" gradientUnits="userSpaceOnUse">
<stop stop-color="#C0272D"/>
<stop offset="0.04" stop-color="#C52A30"/>
<stop offset="0.26" stop-color="#DF3A41"/>
<stop offset="0.49" stop-color="#F1464D"/>
<stop offset="0.73" stop-color="#FB4D54"/>
<stop offset="1" stop-color="#FF4F56"/>
</linearGradient>
<linearGradient id="paint1_linear_46_89" x1="206.724" y1="209.606" x2="42.3937" y2="45.2665" gradientUnits="userSpaceOnUse">
<stop stop-color="#C0272D"/>
<stop offset="0.04" stop-color="#C52A30"/>
<stop offset="0.26" stop-color="#DF3A41"/>
<stop offset="0.49" stop-color="#F1464D"/>
<stop offset="0.73" stop-color="#FB4D54"/>
<stop offset="1" stop-color="#FF4F56"/>
</linearGradient>
<radialGradient id="paint2_radial_46_89" cx="0" cy="0" r="1" gradientUnits="userSpaceOnUse" gradientTransform="translate(118.924 113.509) rotate(180) scale(30.48)">
<stop stop-color="#FF4F56"/>
<stop offset="0.27" stop-color="#FB4D54"/>
<stop offset="0.51" stop-color="#F1464D"/>
<stop offset="0.74" stop-color="#DF3A41"/>
<stop offset="0.96" stop-color="#C52A30"/>
<stop offset="1" stop-color="#C0272D"/>
</radialGradient>
<radialGradient id="paint3_radial_46_89" cx="0" cy="0" r="1" gradientUnits="userSpaceOnUse" gradientTransform="translate(123.646 122.746) rotate(135) scale(18.0472 10.4833)">
<stop stop-color="#E6E6E5"/>
<stop offset="0.11" stop-color="#B2B2B1"/>
<stop offset="0.22" stop-color="#838383"/>
<stop offset="0.34" stop-color="#5B5B5A"/>
<stop offset="0.46" stop-color="#3A3A3A"/>
<stop offset="0.59" stop-color="#202020"/>
<stop offset="0.71" stop-color="#0E0E0E"/>
<stop offset="0.85" stop-color="#040403"/>
<stop offset="1"/>
</radialGradient>
<radialGradient id="paint4_radial_46_89" cx="0" cy="0" r="1" gradientUnits="userSpaceOnUse" gradientTransform="translate(170.376 164.952) rotate(-180) scale(30.48)">
<stop stop-color="#FF4F56"/>
<stop offset="0.27" stop-color="#FB4D54"/>
<stop offset="0.51" stop-color="#F1464D"/>
<stop offset="0.74" stop-color="#DF3A41"/>
<stop offset="0.96" stop-color="#C52A30"/>
<stop offset="1" stop-color="#C0272D"/>
</radialGradient>
<radialGradient id="paint5_radial_46_89" cx="0" cy="0" r="1" gradientUnits="userSpaceOnUse" gradientTransform="translate(175.373 174.474) rotate(135) scale(18.0472 10.4833)">
<stop stop-color="#E6E6E5"/>
<stop offset="0.11" stop-color="#B2B2B1"/>
<stop offset="0.22" stop-color="#838383"/>
<stop offset="0.34" stop-color="#5B5B5A"/>
<stop offset="0.46" stop-color="#3A3A3A"/>
<stop offset="0.59" stop-color="#202020"/>
<stop offset="0.71" stop-color="#0E0E0E"/>
<stop offset="0.85" stop-color="#040403"/>
<stop offset="1"/>
</radialGradient>
<radialGradient id="paint6_radial_46_89" cx="0" cy="0" r="1" gradientUnits="userSpaceOnUse" gradientTransform="translate(67.4498 62.0222) rotate(-180) scale(30.48)">
<stop stop-color="#FF4F56"/>
<stop offset="0.27" stop-color="#FB4D54"/>
<stop offset="0.51" stop-color="#F1464D"/>
<stop offset="0.74" stop-color="#DF3A41"/>
<stop offset="0.96" stop-color="#C52A30"/>
<stop offset="1" stop-color="#C0272D"/>
</radialGradient>
<radialGradient id="paint7_radial_46_89" cx="0" cy="0" r="1" gradientUnits="userSpaceOnUse" gradientTransform="translate(71.9173 71.0272) rotate(135) scale(18.0472 10.4833)">
<stop stop-color="#E6E6E5"/>
<stop offset="0.11" stop-color="#B2B2B1"/>
<stop offset="0.22" stop-color="#838383"/>
<stop offset="0.34" stop-color="#5B5B5A"/>
<stop offset="0.46" stop-color="#3A3A3A"/>
<stop offset="0.59" stop-color="#202020"/>
<stop offset="0.71" stop-color="#0E0E0E"/>
<stop offset="0.85" stop-color="#040403"/>
<stop offset="1"/>
</radialGradient>
<linearGradient id="paint8_linear_46_89" x1="39.4303" y1="34.442" x2="63.1708" y2="145.231" gradientUnits="userSpaceOnUse">
<stop/>
<stop offset="0.04" stop-color="#161616"/>
<stop offset="0.07" stop-color="#262626"/>
<stop offset="0.12" stop-color="#303030"/>
<stop offset="0.18" stop-color="#333333"/>
<stop offset="1"/>
</linearGradient>
<radialGradient id="paint9_radial_46_89" cx="0" cy="0" r="1" gradientUnits="userSpaceOnUse" gradientTransform="translate(170.368 165.302) rotate(-180) scale(30.48)">
<stop stop-color="#FFFFFD"/>
<stop offset="0.16" stop-color="#FEFBFA"/>
<stop offset="0.29" stop-color="#FBF1EF"/>
<stop offset="0.43" stop-color="#F6DFDE"/>
<stop offset="0.55" stop-color="#EEC5C5"/>
<stop offset="0.68" stop-color="#E4A4A6"/>
<stop offset="0.8" stop-color="#D97C7F"/>
<stop offset="0.92" stop-color="#CB4D52"/>
<stop offset="1" stop-color="#C0272D"/>
</radialGradient>
<radialGradient id="paint10_radial_46_89" cx="0" cy="0" r="1" gradientUnits="userSpaceOnUse" gradientTransform="translate(175.373 174.82) rotate(135) scale(18.0472 10.4833)">
<stop stop-color="#9A1B1F"/>
<stop offset="0.07" stop-color="#82171A"/>
<stop offset="0.21" stop-color="#5B1012"/>
<stop offset="0.36" stop-color="#3A0A0C"/>
<stop offset="0.5" stop-color="#200607"/>
<stop offset="0.66" stop-color="#0E0303"/>
<stop offset="0.82" stop-color="#040101"/>
<stop offset="1"/>
</radialGradient>
<radialGradient id="paint11_radial_46_89" cx="0" cy="0" r="1" gradientUnits="userSpaceOnUse" gradientTransform="translate(118.916 113.437) rotate(-180) scale(30.48)">
<stop stop-color="#FFFFFD"/>
<stop offset="0.16" stop-color="#FEFBFA"/>
<stop offset="0.29" stop-color="#FBF1EF"/>
<stop offset="0.43" stop-color="#F6DFDE"/>
<stop offset="0.55" stop-color="#EEC5C5"/>
<stop offset="0.68" stop-color="#E4A4A6"/>
<stop offset="0.8" stop-color="#D97C7F"/>
<stop offset="0.92" stop-color="#CB4D52"/>
<stop offset="1" stop-color="#C0272D"/>
</radialGradient>
<radialGradient id="paint12_radial_46_89" cx="0" cy="0" r="1" gradientUnits="userSpaceOnUse" gradientTransform="translate(123.641 122.684) rotate(135) scale(18.0472 10.4833)">
<stop stop-color="#9A1B1F"/>
<stop offset="0.07" stop-color="#82171A"/>
<stop offset="0.21" stop-color="#5B1012"/>
<stop offset="0.36" stop-color="#3A0A0C"/>
<stop offset="0.5" stop-color="#200607"/>
<stop offset="0.66" stop-color="#0E0303"/>
<stop offset="0.82" stop-color="#040101"/>
<stop offset="1"/>
</radialGradient>
<radialGradient id="paint13_radial_46_89" cx="0" cy="0" r="1" gradientUnits="userSpaceOnUse" gradientTransform="translate(67.4582 61.7054) rotate(-180) scale(30.48)">
<stop stop-color="#FFFFFD"/>
<stop offset="0.16" stop-color="#FEFBFA"/>
<stop offset="0.29" stop-color="#FBF1EF"/>
<stop offset="0.43" stop-color="#F6DFDE"/>
<stop offset="0.55" stop-color="#EEC5C5"/>
<stop offset="0.68" stop-color="#E4A4A6"/>
<stop offset="0.8" stop-color="#D97C7F"/>
<stop offset="0.92" stop-color="#CB4D52"/>
<stop offset="1" stop-color="#C0272D"/>
</radialGradient>
<radialGradient id="paint14_radial_46_89" cx="0" cy="0" r="1" gradientUnits="userSpaceOnUse" gradientTransform="translate(71.918 70.672) rotate(135) scale(18.0472 10.4833)">
<stop stop-color="#9A1B1F"/>
<stop offset="0.07" stop-color="#82171A"/>
<stop offset="0.21" stop-color="#5B1012"/>
<stop offset="0.36" stop-color="#3A0A0C"/>
<stop offset="0.5" stop-color="#200607"/>
<stop offset="0.66" stop-color="#0E0303"/>
<stop offset="0.82" stop-color="#040101"/>
<stop offset="1"/>
</radialGradient>
<clipPath id="clip0_46_89">
<rect width="252" height="252" fill="white"/>
</clipPath>
</defs>
</svg>
