<svg width="252" height="252" viewBox="0 0 252 252" fill="none" xmlns="http://www.w3.org/2000/svg">
<g clip-path="url(#clip0_46_121)">
<path d="M12.4803 251.53L239.53 251.53C246.158 251.53 251.53 246.157 251.53 239.53L251.53 12.48C251.53 5.85262 246.158 0.480026 239.53 0.480026L12.4803 0.480026C5.85286 0.480026 0.48027 5.85262 0.48027 12.48L0.48027 239.53C0.48027 246.157 5.85286 251.53 12.4803 251.53Z" fill="url(#paint0_linear_46_121)"/>
<path d="M206.727 209.598C252.106 164.219 252.106 90.6454 206.727 45.2665C161.348 -0.112428 87.7742 -0.112417 42.3953 45.2665C-2.98363 90.6454 -2.98363 164.219 42.3953 209.598C87.7742 254.977 161.348 254.977 206.727 209.598Z" fill="url(#paint1_linear_46_121)"/>
<path d="M189.894 197.05C200.578 190.388 203.839 176.326 197.177 165.641C190.515 154.957 176.453 151.696 165.768 158.358C155.084 165.02 151.823 179.082 158.485 189.767C165.147 200.451 179.209 203.712 189.894 197.05Z" fill="url(#paint2_radial_46_121)"/>
<path style="mix-blend-mode:screen" opacity="0.5" d="M158.07 183.55C154 179.48 156.4 170.47 163.44 163.43C170.48 156.39 179.44 154 183.55 158.07C187.66 162.14 185.22 171.15 178.18 178.18C171.14 185.21 162.14 187.62 158.07 183.55Z" fill="url(#paint3_radial_46_121)"/>
<path d="M81.1905 199.219C93.2145 195.554 99.991 182.836 96.3264 170.812C92.6618 158.788 79.9437 152.011 67.9197 155.676C55.8958 159.341 49.1192 172.059 52.7838 184.083C56.4484 196.107 69.1665 202.883 81.1905 199.219Z" fill="url(#paint4_radial_46_121)"/>
<path style="mix-blend-mode:screen" opacity="0.5" d="M55.18 183.55C51.1 179.48 53.51 170.47 60.54 163.43C67.57 156.39 76.54 154 80.65 158.07C84.76 162.14 82.33 171.15 75.29 178.18C68.25 185.21 59.25 187.62 55.18 183.55Z" fill="url(#paint5_radial_46_121)"/>
<path d="M199.597 79.8397C202.514 67.6129 194.968 55.3362 182.741 52.4189C170.514 49.5015 158.237 57.0483 155.32 69.2751C152.403 81.5019 159.949 93.7786 172.176 96.6959C184.403 99.6133 196.68 92.0665 199.597 79.8397Z" fill="url(#paint6_radial_46_121)"/>
<path style="mix-blend-mode:screen" opacity="0.5" d="M158.07 80.65C154 76.58 156.4 67.58 163.44 60.54C170.48 53.5 179.44 51.1 183.55 55.18C187.66 59.26 185.22 68.26 178.18 75.29C171.14 82.32 162.14 84.73 158.07 80.65Z" fill="url(#paint7_radial_46_121)"/>
<path d="M97.1451 77.3555C98.6901 64.8808 89.8298 53.5156 77.3551 51.9707C64.8804 50.4257 53.5152 59.286 51.9703 71.7607C50.4253 84.2354 59.2856 95.6006 71.7603 97.1455C84.235 98.6905 95.6002 89.8302 97.1451 77.3555Z" fill="url(#paint8_radial_46_121)"/>
<path style="mix-blend-mode:screen" opacity="0.5" d="M55.18 80.65C51.1 76.58 53.51 67.58 60.54 60.54C67.57 53.5 76.54 51.1 80.65 55.18C84.76 59.26 82.33 68.26 75.29 75.29C68.25 82.32 59.25 84.73 55.18 80.65Z" fill="url(#paint9_radial_46_121)"/>
<g style="mix-blend-mode:screen">
<path d="M21.3203 152.8C26.2003 153.86 29.6703 147.37 31.5603 142.75C33.4503 138.13 34.3203 133.1 36.6503 128.69C40.7503 120.97 48.7003 116.27 55.7803 111.15C58.7803 108.94 62.1303 105.52 60.8903 101.96C60.2303 100.08 58.4703 98.86 56.8903 97.6C44.0203 87.14 42.8903 65.27 54.5303 53.5C63.3203 44.65 76.6903 42.09 86.5303 34.43C88.1503 33.18 89.7803 31.56 89.8803 29.51C90.0203 26.93 87.5203 24.81 84.9603 24.45C82.4003 24.09 79.8503 25.05 77.4803 26.07C56.6303 35.07 39.0003 51.07 27.2303 70.44C15.4603 89.81 12.3403 112 12.1803 134.71C12.1803 134.71 11.5303 150.66 21.3203 152.8Z" fill="url(#paint10_linear_46_121)"/>
</g>
<path d="M190.758 195.923C200.955 188.574 203.264 174.349 195.915 164.152C188.565 153.954 174.341 151.645 164.143 158.995C153.946 166.344 151.637 180.569 158.986 190.766C166.335 200.964 180.56 203.273 190.758 195.923Z" fill="url(#paint11_radial_46_121)"/>
<path style="mix-blend-mode:screen" opacity="0.5" d="M158.07 183.55C154 179.47 156.4 170.47 163.44 163.44C170.48 156.41 179.44 154 183.55 158.07C187.66 162.14 185.22 171.15 178.18 178.18C171.14 185.21 162.14 187.62 158.07 183.55Z" fill="url(#paint12_radial_46_121)"/>
<path d="M87.8581 195.926C98.0558 188.577 100.365 174.352 93.0154 164.155C85.666 153.957 71.4414 151.648 61.2438 158.998C51.0461 166.347 48.7371 180.572 56.0865 190.769C63.4358 200.967 77.6605 203.276 87.8581 195.926Z" fill="url(#paint13_radial_46_121)"/>
<path style="mix-blend-mode:screen" opacity="0.5" d="M55.1804 183.55C51.1104 179.47 53.5104 170.47 60.5404 163.44C67.5704 156.41 76.5404 154 80.6504 158.07C84.7604 162.14 82.3304 171.15 75.2904 178.18C68.2504 185.21 59.2504 187.62 55.1804 183.55Z" fill="url(#paint14_radial_46_121)"/>
<path d="M190.755 93.024C200.952 85.6747 203.261 71.45 195.912 61.2524C188.563 51.0547 174.338 48.7457 164.14 56.0951C153.943 63.4445 151.634 77.6691 158.983 87.8667C166.332 98.0644 180.557 100.373 190.755 93.024Z" fill="url(#paint15_radial_46_121)"/>
<path style="mix-blend-mode:screen" opacity="0.5" d="M158.07 80.65C154 76.58 156.4 67.58 163.44 60.54C170.48 53.5 179.44 51.1 183.55 55.18C187.66 59.26 185.22 68.26 178.18 75.29C171.14 82.32 162.14 84.73 158.07 80.65Z" fill="url(#paint16_radial_46_121)"/>
<path d="M87.8547 93.017C98.0524 85.6676 100.361 71.443 93.012 61.2453C85.6626 51.0477 71.438 48.7387 61.2403 56.0881C51.0427 63.4374 48.7337 77.6621 56.0831 87.8597C63.4324 98.0574 77.6571 100.366 87.8547 93.017Z" fill="url(#paint17_radial_46_121)"/>
<path style="mix-blend-mode:screen" opacity="0.5" d="M55.1804 80.65C51.1104 76.58 53.5104 67.58 60.5404 60.54C67.5704 53.5 76.5404 51.1 80.6504 55.18C84.7604 59.26 82.3304 68.26 75.2904 75.29C68.2504 82.32 59.2504 84.73 55.1804 80.65Z" fill="url(#paint18_radial_46_121)"/>
</g>
<defs>
<linearGradient id="paint0_linear_46_121" x1="3.99025" y1="3.98002" x2="248.01" y2="248.01" gradientUnits="userSpaceOnUse">
<stop stop-color="#C0272D"/>
<stop offset="0.04" stop-color="#C52A30"/>
<stop offset="0.26" stop-color="#DF3A41"/>
<stop offset="0.49" stop-color="#F1464D"/>
<stop offset="0.73" stop-color="#FB4D54"/>
<stop offset="1" stop-color="#FF4F56"/>
</linearGradient>
<linearGradient id="paint1_linear_46_121" x1="206.729" y1="209.606" x2="42.3992" y2="45.2665" gradientUnits="userSpaceOnUse">
<stop stop-color="#C0272D"/>
<stop offset="0.04" stop-color="#C52A30"/>
<stop offset="0.26" stop-color="#DF3A41"/>
<stop offset="0.49" stop-color="#F1464D"/>
<stop offset="0.73" stop-color="#FB4D54"/>
<stop offset="1" stop-color="#FF4F56"/>
</linearGradient>
<radialGradient id="paint2_radial_46_121" cx="0" cy="0" r="1" gradientUnits="userSpaceOnUse" gradientTransform="translate(170.733 165.13) rotate(-179.965) scale(30.5318)">
<stop stop-color="#FF4F56"/>
<stop offset="0.27" stop-color="#FB4D54"/>
<stop offset="0.51" stop-color="#F1464D"/>
<stop offset="0.74" stop-color="#DF3A41"/>
<stop offset="0.96" stop-color="#C52A30"/>
<stop offset="1" stop-color="#C0272D"/>
</radialGradient>
<radialGradient id="paint3_radial_46_121" cx="0" cy="0" r="1" gradientUnits="userSpaceOnUse" gradientTransform="translate(177.573 174.303) rotate(135) scale(18.0472 10.4833)">
<stop stop-color="#E6E6E5"/>
<stop offset="0.11" stop-color="#B2B2B1"/>
<stop offset="0.22" stop-color="#838383"/>
<stop offset="0.34" stop-color="#5B5B5A"/>
<stop offset="0.46" stop-color="#3A3A3A"/>
<stop offset="0.59" stop-color="#202020"/>
<stop offset="0.71" stop-color="#0E0E0E"/>
<stop offset="0.85" stop-color="#040403"/>
<stop offset="1"/>
</radialGradient>
<radialGradient id="paint4_radial_46_121" cx="0" cy="0" r="1" gradientUnits="userSpaceOnUse" gradientTransform="translate(67.4442 164.903) rotate(-180) scale(30.48 30.48)">
<stop stop-color="#FF4F56"/>
<stop offset="0.27" stop-color="#FB4D54"/>
<stop offset="0.51" stop-color="#F1464D"/>
<stop offset="0.74" stop-color="#DF3A41"/>
<stop offset="0.96" stop-color="#C52A30"/>
<stop offset="1" stop-color="#C0272D"/>
</radialGradient>
<radialGradient id="paint5_radial_46_121" cx="0" cy="0" r="1" gradientUnits="userSpaceOnUse" gradientTransform="translate(74.2809 174.139) rotate(135) scale(18.0472 10.4833)">
<stop stop-color="#E6E6E5"/>
<stop offset="0.11" stop-color="#B2B2B1"/>
<stop offset="0.22" stop-color="#838383"/>
<stop offset="0.34" stop-color="#5B5B5A"/>
<stop offset="0.46" stop-color="#3A3A3A"/>
<stop offset="0.59" stop-color="#202020"/>
<stop offset="0.71" stop-color="#0E0E0E"/>
<stop offset="0.85" stop-color="#040403"/>
<stop offset="1"/>
</radialGradient>
<radialGradient id="paint6_radial_46_121" cx="0" cy="0" r="1" gradientUnits="userSpaceOnUse" gradientTransform="translate(170.381 62.0153) rotate(180) scale(30.48 30.48)">
<stop stop-color="#FF4F56"/>
<stop offset="0.27" stop-color="#FB4D54"/>
<stop offset="0.51" stop-color="#F1464D"/>
<stop offset="0.74" stop-color="#DF3A41"/>
<stop offset="0.96" stop-color="#C52A30"/>
<stop offset="1" stop-color="#C0272D"/>
</radialGradient>
<radialGradient id="paint7_radial_46_121" cx="0" cy="0" r="1" gradientUnits="userSpaceOnUse" gradientTransform="translate(177.401 71.0201) rotate(135) scale(18.0472 10.4833)">
<stop stop-color="#E6E6E5"/>
<stop offset="0.11" stop-color="#B2B2B1"/>
<stop offset="0.22" stop-color="#838383"/>
<stop offset="0.34" stop-color="#5B5B5A"/>
<stop offset="0.46" stop-color="#3A3A3A"/>
<stop offset="0.59" stop-color="#202020"/>
<stop offset="0.71" stop-color="#0E0E0E"/>
<stop offset="0.85" stop-color="#040403"/>
<stop offset="1"/>
</radialGradient>
<radialGradient id="paint8_radial_46_121" cx="0" cy="0" r="1" gradientUnits="userSpaceOnUse" gradientTransform="translate(67.4658 62.0181) rotate(180) scale(30.48)">
<stop stop-color="#FF4F56"/>
<stop offset="0.27" stop-color="#FB4D54"/>
<stop offset="0.51" stop-color="#F1464D"/>
<stop offset="0.74" stop-color="#DF3A41"/>
<stop offset="0.96" stop-color="#C52A30"/>
<stop offset="1" stop-color="#C0272D"/>
</radialGradient>
<radialGradient id="paint9_radial_46_121" cx="0" cy="0" r="1" gradientUnits="userSpaceOnUse" gradientTransform="translate(74.1177 70.8473) rotate(135) scale(18.0472 10.4833)">
<stop stop-color="#E6E6E5"/>
<stop offset="0.11" stop-color="#B2B2B1"/>
<stop offset="0.22" stop-color="#838383"/>
<stop offset="0.34" stop-color="#5B5B5A"/>
<stop offset="0.46" stop-color="#3A3A3A"/>
<stop offset="0.59" stop-color="#202020"/>
<stop offset="0.71" stop-color="#0E0E0E"/>
<stop offset="0.85" stop-color="#040403"/>
<stop offset="1"/>
</radialGradient>
<linearGradient id="paint10_linear_46_121" x1="41.1232" y1="34.7697" x2="64.8637" y2="145.559" gradientUnits="userSpaceOnUse">
<stop/>
<stop offset="0.04" stop-color="#161616"/>
<stop offset="0.07" stop-color="#262626"/>
<stop offset="0.12" stop-color="#303030"/>
<stop offset="0.18" stop-color="#333333"/>
<stop offset="1"/>
</linearGradient>
<radialGradient id="paint11_radial_46_121" cx="0" cy="0" r="1" gradientUnits="userSpaceOnUse" gradientTransform="translate(170.365 164.912) rotate(-180) scale(30.48)">
<stop stop-color="#FFFFFD"/>
<stop offset="0.16" stop-color="#FEFBFA"/>
<stop offset="0.29" stop-color="#FBF1EF"/>
<stop offset="0.43" stop-color="#F6DFDE"/>
<stop offset="0.55" stop-color="#EEC5C5"/>
<stop offset="0.68" stop-color="#E4A4A6"/>
<stop offset="0.8" stop-color="#D97C7F"/>
<stop offset="0.92" stop-color="#CB4D52"/>
<stop offset="1" stop-color="#C0272D"/>
</radialGradient>
<radialGradient id="paint12_radial_46_121" cx="0" cy="0" r="1" gradientUnits="userSpaceOnUse" gradientTransform="translate(177.573 174.303) rotate(135) scale(18.0472 10.4833)">
<stop stop-color="#9A1B1F"/>
<stop offset="0.07" stop-color="#82171A"/>
<stop offset="0.21" stop-color="#5B1012"/>
<stop offset="0.36" stop-color="#3A0A0C"/>
<stop offset="0.5" stop-color="#200607"/>
<stop offset="0.66" stop-color="#0E0303"/>
<stop offset="0.82" stop-color="#040101"/>
<stop offset="1"/>
</radialGradient>
<radialGradient id="paint13_radial_46_121" cx="0" cy="0" r="1" gradientUnits="userSpaceOnUse" gradientTransform="translate(67.4646 164.913) rotate(-180) scale(30.48 30.48)">
<stop stop-color="#FFFFFD"/>
<stop offset="0.16" stop-color="#FEFBFA"/>
<stop offset="0.29" stop-color="#FBF1EF"/>
<stop offset="0.43" stop-color="#F6DFDE"/>
<stop offset="0.55" stop-color="#EEC5C5"/>
<stop offset="0.68" stop-color="#E4A4A6"/>
<stop offset="0.8" stop-color="#D97C7F"/>
<stop offset="0.92" stop-color="#CB4D52"/>
<stop offset="1" stop-color="#C0272D"/>
</radialGradient>
<radialGradient id="paint14_radial_46_121" cx="0" cy="0" r="1" gradientUnits="userSpaceOnUse" gradientTransform="translate(74.2814 174.139) rotate(135) scale(18.0472 10.4833)">
<stop stop-color="#9A1B1F"/>
<stop offset="0.07" stop-color="#82171A"/>
<stop offset="0.21" stop-color="#5B1012"/>
<stop offset="0.36" stop-color="#3A0A0C"/>
<stop offset="0.5" stop-color="#200607"/>
<stop offset="0.66" stop-color="#0E0303"/>
<stop offset="0.82" stop-color="#040101"/>
<stop offset="1"/>
</radialGradient>
<radialGradient id="paint15_radial_46_121" cx="0" cy="0" r="1" gradientUnits="userSpaceOnUse" gradientTransform="translate(170.365 62.0216) rotate(180) scale(30.48 30.48)">
<stop stop-color="#FFFFFD"/>
<stop offset="0.16" stop-color="#FEFBFA"/>
<stop offset="0.29" stop-color="#FBF1EF"/>
<stop offset="0.43" stop-color="#F6DFDE"/>
<stop offset="0.55" stop-color="#EEC5C5"/>
<stop offset="0.68" stop-color="#E4A4A6"/>
<stop offset="0.8" stop-color="#D97C7F"/>
<stop offset="0.92" stop-color="#CB4D52"/>
<stop offset="1" stop-color="#C0272D"/>
</radialGradient>
<radialGradient id="paint16_radial_46_121" cx="0" cy="0" r="1" gradientUnits="userSpaceOnUse" gradientTransform="translate(177.401 71.0201) rotate(135) scale(18.0472 10.4833)">
<stop stop-color="#9A1B1F"/>
<stop offset="0.07" stop-color="#82171A"/>
<stop offset="0.21" stop-color="#5B1012"/>
<stop offset="0.36" stop-color="#3A0A0C"/>
<stop offset="0.5" stop-color="#200607"/>
<stop offset="0.66" stop-color="#0E0303"/>
<stop offset="0.82" stop-color="#040101"/>
<stop offset="1"/>
</radialGradient>
<radialGradient id="paint17_radial_46_121" cx="0" cy="0" r="1" gradientUnits="userSpaceOnUse" gradientTransform="translate(67.4558 62.0177) rotate(-180) scale(30.48)">
<stop stop-color="#FFFFFD"/>
<stop offset="0.16" stop-color="#FEFBFA"/>
<stop offset="0.29" stop-color="#FBF1EF"/>
<stop offset="0.43" stop-color="#F6DFDE"/>
<stop offset="0.55" stop-color="#EEC5C5"/>
<stop offset="0.68" stop-color="#E4A4A6"/>
<stop offset="0.8" stop-color="#D97C7F"/>
<stop offset="0.92" stop-color="#CB4D52"/>
<stop offset="1" stop-color="#C0272D"/>
</radialGradient>
<radialGradient id="paint18_radial_46_121" cx="0" cy="0" r="1" gradientUnits="userSpaceOnUse" gradientTransform="translate(74.1182 70.8473) rotate(135) scale(18.0472 10.4833)">
<stop stop-color="#9A1B1F"/>
<stop offset="0.07" stop-color="#82171A"/>
<stop offset="0.21" stop-color="#5B1012"/>
<stop offset="0.36" stop-color="#3A0A0C"/>
<stop offset="0.5" stop-color="#200607"/>
<stop offset="0.66" stop-color="#0E0303"/>
<stop offset="0.82" stop-color="#040101"/>
<stop offset="1"/>
</radialGradient>
<clipPath id="clip0_46_121">
<rect width="252" height="252" fill="white"/>
</clipPath>
</defs>
</svg>
