<svg width="50" height="50" viewBox="0 0 50 50" fill="none" xmlns="http://www.w3.org/2000/svg">
<path d="M39.9991 50H10.0009C7.34851 50 4.80474 48.9463 2.9292 47.0708C1.05367 45.1953 0 42.6515 0 39.9991L0 10.0009C0 7.34851 1.05367 4.80474 2.9292 2.9292C4.80474 1.05367 7.34851 0 10.0009 0L39.9991 0C42.6515 0 45.1953 1.05367 47.0708 2.9292C48.9463 4.80474 50 7.34851 50 10.0009V39.9991C50 42.6515 48.9463 45.1953 47.0708 47.0708C45.1953 48.9463 42.6515 50 39.9991 50Z" fill="#9B1010"/>
<path d="M39.9441 49.906H10.0582C7.41596 49.906 4.88186 48.8565 3.01327 46.9884C1.14467 45.1202 0.0946018 42.5863 0.0939941 39.9441V10.0582C0.0946018 7.41589 1.14467 4.88204 3.01327 3.01387C4.88186 1.14571 7.41596 0.0962219 10.0582 0.0962219H39.9441C42.5862 0.0962219 45.1201 1.14578 46.9883 3.01401C48.8565 4.88224 49.9061 7.41611 49.9061 10.0582V39.9441C49.9061 42.5861 48.8565 45.12 46.9883 46.9882C45.1201 48.8565 42.5862 49.906 39.9441 49.906Z" fill="#9C1010"/>
<path d="M39.8868 49.8097H10.1155C8.81224 49.81 7.52164 49.5536 6.31747 49.055C5.11329 48.5565 4.01911 47.8256 3.09744 46.9042C2.17576 45.9827 1.44463 44.8887 0.945809 43.6846C0.446988 42.4806 0.190247 41.19 0.190247 39.8867V10.1132C0.190247 8.80986 0.446988 7.51932 0.945809 6.31526C1.44463 5.1112 2.17576 4.01719 3.09744 3.09572C4.01911 2.17426 5.11329 1.44338 6.31747 0.944841C7.52164 0.446298 8.81224 0.189854 10.1155 0.190155H39.8868C41.1901 0.189854 42.4807 0.446298 43.6849 0.944841C44.8891 1.44338 45.9833 2.17426 46.9049 3.09572C47.8266 4.01719 48.5577 5.1112 49.0566 6.31526C49.5554 7.51932 49.8121 8.80986 49.8121 10.1132V39.8867C49.8121 41.19 49.5554 42.4806 49.0566 43.6846C48.5577 44.8887 47.8266 45.9827 46.9049 46.9042C45.9833 47.8256 44.8891 48.5565 43.6849 49.055C42.4807 49.5536 41.1901 49.81 39.8868 49.8097Z" fill="#9D1010"/>
<path d="M39.8296 49.7158H10.1706C8.8722 49.7161 7.58648 49.4606 6.38688 48.9639C5.18728 48.4672 4.0973 47.7389 3.17921 46.8208C2.26112 45.9028 1.53291 44.8128 1.03618 43.6132C0.539452 42.4136 0.28394 41.1279 0.284241 39.8295V10.1705C0.28394 8.87211 0.539452 7.58639 1.03618 6.38679C1.53291 5.18719 2.26112 4.09721 3.17921 3.17912C4.0973 2.26103 5.18728 1.53282 6.38688 1.03609C7.58648 0.53936 8.8722 0.283848 10.1706 0.284149H39.8296C41.1279 0.283848 42.4137 0.53936 43.6133 1.03609C44.8129 1.53282 45.9028 2.26103 46.8209 3.17912C47.739 4.09721 48.4672 5.18719 48.964 6.38679C49.4607 7.58639 49.7162 8.87211 49.7159 10.1705V39.8295C49.7162 41.1279 49.4607 42.4136 48.964 43.6132C48.4672 44.8128 47.739 45.9028 46.8209 46.8208C45.9028 47.7389 44.8129 48.4672 43.6133 48.9639C42.4137 49.4606 41.1279 49.7161 39.8296 49.7158Z" fill="#9E1010"/>
<path d="M39.7722 49.6218H10.2278C7.61427 49.6218 5.10781 48.5836 3.25978 46.7356C1.41175 44.8876 0.373535 42.3811 0.373535 39.7676V10.2278C0.373535 7.61424 1.41175 5.10778 3.25978 3.25975C5.10781 1.41172 7.61427 0.373505 10.2278 0.373505H39.7722C42.3857 0.373505 44.8922 1.41172 46.7402 3.25975C48.5882 5.10778 49.6264 7.61424 49.6264 10.2278V39.7722C49.6252 42.3849 48.5865 44.8902 46.7386 46.7372C44.8907 48.5843 42.3849 49.6218 39.7722 49.6218Z" fill="#9F1010"/>
<path d="M39.7172 49.5279H10.2851C7.68293 49.5279 5.18731 48.4943 3.34708 46.6545C1.50685 44.8147 0.472715 42.3193 0.472107 39.7172V10.285C0.472107 8.99649 0.725944 7.72056 1.21912 6.53012C1.7123 5.33968 2.43516 4.25805 3.34641 3.34701C4.25766 2.43598 5.33945 1.71337 6.53001 1.22047C7.72056 0.727573 8.99655 0.474034 10.2851 0.474335H39.7172C42.3192 0.474335 44.8146 1.50796 46.6544 3.34782C48.4943 5.18769 49.5279 7.68308 49.5279 10.285V39.7172C49.5279 42.3191 48.4943 44.8145 46.6544 46.6544C44.8146 48.4942 42.3192 49.5279 39.7172 49.5279Z" fill="#A01111"/>
<path d="M39.6599 49.4317H10.3424C9.05896 49.432 7.78804 49.1794 6.60221 48.6885C5.41638 48.1975 4.33888 47.4778 3.43125 46.5704C2.52362 45.663 1.80363 44.5856 1.31241 43.3999C0.821189 42.2142 0.568359 40.9433 0.568359 39.6599V10.3401C0.568359 9.05664 0.821189 7.78577 1.31241 6.60006C1.80363 5.41435 2.52362 4.33702 3.43125 3.4296C4.33888 2.52218 5.41638 1.80244 6.60221 1.3115C7.78804 0.82056 9.05896 0.568028 10.3424 0.568329H39.6599C42.2516 0.568329 44.737 1.59785 46.5696 3.43041C48.4022 5.26297 49.4317 7.74845 49.4317 10.3401V39.6599C49.4317 42.2515 48.4022 44.737 46.5696 46.5696C44.737 48.4021 42.2516 49.4317 39.6599 49.4317Z" fill="#A11111"/>
<path d="M39.6027 49.3377H10.3974C7.81553 49.3377 5.33938 48.312 3.51369 46.4863C1.68801 44.6607 0.662354 42.1845 0.662354 39.6026V10.3973C0.662354 7.81544 1.68801 5.33928 3.51369 3.5136C5.33938 1.68792 7.81553 0.662262 10.3974 0.662262H39.6027C42.1846 0.662262 44.6607 1.68792 46.4864 3.5136C48.3121 5.33928 49.3378 7.81544 49.3378 10.3973V39.6026C49.3378 42.1845 48.3121 44.6607 46.4864 46.4863C44.6607 48.312 42.1846 49.3377 39.6027 49.3377Z" fill="#A21111"/>
<path d="M39.5453 49.2437H10.4546C7.88246 49.2437 5.41563 48.2219 3.59683 46.4031C1.77802 44.5843 0.756226 42.1175 0.756226 39.5453V10.4546C0.756226 7.88243 1.77802 5.4156 3.59683 3.5968C5.41563 1.77799 7.88246 0.756195 10.4546 0.756195H39.5453C42.1175 0.756195 44.5843 1.77799 46.4031 3.5968C48.2219 5.4156 49.2437 7.88243 49.2437 10.4546V39.5453C49.2437 42.1175 48.2219 44.5843 46.4031 46.4031C44.5843 48.2219 42.1175 49.2437 39.5453 49.2437Z" fill="#A31111"/>
<path d="M39.4903 49.1497H10.512C7.94951 49.1497 5.49201 48.1318 3.68008 46.3199C1.86815 44.5079 0.85022 42.0504 0.85022 39.488V10.5119C0.850827 7.94984 1.86903 5.49293 3.68089 3.6815C5.49275 1.87006 7.94991 0.852447 10.512 0.852448H39.4903C40.7588 0.852448 42.0149 1.1023 43.1868 1.58773C44.3588 2.07316 45.4236 2.78467 46.3206 3.68164C47.2176 4.5786 47.9291 5.64345 48.4145 6.81539C48.8999 7.98733 49.1498 9.2434 49.1498 10.5119V39.488C49.1498 42.05 48.1322 44.5072 46.3207 46.3191C44.5093 48.1309 42.0524 49.1491 39.4903 49.1497Z" fill="#A41111"/>
<path d="M39.4331 49.0535H10.5693C8.01656 49.0535 5.56839 48.0394 3.76333 46.2344C1.95828 44.4293 0.944214 41.9811 0.944214 39.4284V10.5532C0.944214 8.00042 1.95828 5.55224 3.76333 3.74719C5.56839 1.94214 8.01656 0.92807 10.5693 0.92807H39.4445C41.9973 0.92807 44.4454 1.94214 46.2505 3.74719C48.0555 5.55224 49.0696 8.00042 49.0696 10.5532V39.4284C49.0696 40.6933 48.8203 41.9459 48.3359 43.1144C47.8514 44.2829 47.1414 45.3445 46.2464 46.2384C45.3515 47.1323 44.2891 47.8411 43.12 48.3241C41.9509 48.8071 40.698 49.055 39.4331 49.0535Z" fill="#A51111"/>
<path d="M39.3757 48.9595H10.6242C8.08245 48.9595 5.64476 47.9498 3.84744 46.1525C2.05013 44.3552 1.04041 41.9175 1.04041 39.3757V10.6242C1.04041 8.08242 2.05013 5.64473 3.84744 3.84741C5.64476 2.0501 8.08245 1.04037 10.6242 1.04037H39.3757C41.9175 1.04037 44.3552 2.0501 46.1525 3.84741C47.9498 5.64473 48.9596 8.08242 48.9596 10.6242V39.3757C48.9596 41.9175 47.9498 44.3552 46.1525 46.1525C44.3552 47.9498 41.9175 48.9595 39.3757 48.9595Z" fill="#A61111"/>
<path d="M10.6815 1.14578H39.3276C41.8597 1.14578 44.288 2.15164 46.0785 3.94208C47.8689 5.73252 48.8748 8.16088 48.8748 10.6929V39.339C48.8748 41.8711 47.8689 44.2994 46.0785 46.0899C44.288 47.8803 41.8597 48.8862 39.3276 48.8862H10.6815C9.42694 48.885 8.18487 48.6365 7.0264 48.1548C5.86792 47.6732 4.81577 46.9678 3.93012 46.0792C3.04446 45.1906 2.34269 44.1361 1.86494 42.976C1.38719 41.8159 1.14283 40.573 1.14584 39.3184V10.6723C1.1513 8.14582 2.15799 5.72448 3.94536 3.93883C5.73274 2.15318 8.15504 1.14881 10.6815 1.14578Z" fill="#A71111"/>
<path d="M39.2635 1.23062H10.7389C5.48762 1.23062 1.23065 5.48759 1.23065 10.7388V39.2634C1.23065 44.5147 5.48762 48.7716 10.7389 48.7716H39.2635C44.5147 48.7716 48.7717 44.5147 48.7717 39.2634V10.7388C48.7717 5.48759 44.5147 1.23062 39.2635 1.23062Z" fill="#A81212"/>
<path d="M10.7938 1.32455H39.2107C41.7215 1.32638 44.1288 2.32507 45.9036 4.10113C47.6784 5.87719 48.6753 8.28528 48.6753 10.7961V39.213C48.6753 41.725 47.6774 44.1341 45.9012 45.9104C44.1249 47.6866 41.7158 48.6845 39.2038 48.6845H10.7938C9.54948 48.6845 8.31739 48.4393 7.16793 47.9629C6.01847 47.4864 4.97418 46.7881 4.09476 45.9078C3.21534 45.0275 2.51803 43.9826 2.0427 42.8327C1.56736 41.6827 1.32332 40.4504 1.32453 39.2061V10.7938C1.32514 8.28259 2.32298 5.8744 4.09868 4.0987C5.87437 2.32301 8.28256 1.32516 10.7938 1.32455Z" fill="#A91212"/>
<path d="M39.1488 48.5837H10.8511C9.6122 48.5837 8.38544 48.3397 7.24088 47.8655C6.09631 47.3913 5.05637 46.6963 4.18045 45.8202C3.30452 44.944 2.60977 43.9039 2.13587 42.7593C1.66198 41.6146 1.41822 40.3878 1.41852 39.1489V10.8511C1.41852 8.34945 2.41231 5.95024 4.18126 4.18129C5.95021 2.41234 8.34942 1.41855 10.8511 1.41855H39.1488C40.3877 1.41825 41.6146 1.66201 42.7592 2.1359C43.9039 2.6098 44.944 3.30455 45.8202 4.18048C46.6963 5.0564 47.3913 6.09634 47.8655 7.24091C48.3396 8.38547 48.5837 9.61223 48.5837 10.8511V39.1489C48.584 40.388 48.3402 41.615 47.8661 42.7598C47.3921 43.9046 46.6971 44.9448 45.821 45.821C44.9448 46.6972 43.9046 47.3921 42.7598 47.8662C41.6149 48.3402 40.3879 48.584 39.1488 48.5837Z" fill="#AA1212"/>
<path d="M10.9084 1.51248H39.0962C40.3301 1.51248 41.5519 1.75551 42.6918 2.2277C43.8318 2.69989 44.8676 3.39199 45.7401 4.26448C46.6126 5.13697 47.3047 6.17277 47.7769 7.31273C48.249 8.4527 48.4921 9.67451 48.4921 10.9084V39.0961C48.4921 41.5881 47.5022 43.978 45.7401 45.74C43.978 47.5021 41.5881 48.492 39.0962 48.492H10.9084C8.41647 48.492 6.02659 47.5021 4.26451 45.74C2.50244 43.978 1.51251 41.5881 1.51251 39.0961V10.9084C1.51251 8.41644 2.50244 6.02656 4.26451 4.26448C6.02659 2.50241 8.41647 1.51248 10.9084 1.51248Z" fill="#AB1212"/>
<path d="M39.0366 1.60873H10.9657C5.79802 1.60873 1.60876 5.79798 1.60876 10.9657V39.0365C1.60876 44.2042 5.79802 48.3935 10.9657 48.3935H39.0366C44.2043 48.3935 48.3935 44.2042 48.3935 39.0365V10.9657C48.3935 5.79798 44.2043 1.60873 39.0366 1.60873Z" fill="#AC1212"/>
<path d="M11.0208 1.70267H38.9793C41.4508 1.70327 43.8209 2.6855 45.5683 4.43333C47.3157 6.18115 48.2973 8.55146 48.2973 11.023V38.9815C48.2973 41.4534 47.3154 43.8241 45.5675 45.572C43.8196 47.3199 41.4489 48.3018 38.977 48.3018H11.0185C9.79461 48.3015 8.58281 48.0601 7.45227 47.5914C6.32172 47.1227 5.29458 46.4359 4.42951 45.5702C3.56443 44.7045 2.87838 43.6768 2.41052 42.546C1.94265 41.4151 1.70216 40.2031 1.70276 38.9792V11.023C1.70246 9.7991 1.94325 8.58718 2.41139 7.45641C2.87953 6.32563 3.56584 5.29815 4.43113 4.43266C5.29641 3.56716 6.32372 2.88059 7.45438 2.41218C8.58504 1.94376 9.79691 1.70267 11.0208 1.70267Z" fill="#AD1212"/>
<path d="M38.9219 1.79666H11.078C5.95202 1.79666 1.79663 5.95205 1.79663 11.078V38.922C1.79663 44.0479 5.95202 48.2033 11.078 48.2033H38.9219C44.0479 48.2033 48.2033 44.0479 48.2033 38.922V11.078C48.2033 5.95205 44.0479 1.79666 38.9219 1.79666Z" fill="#AE1212"/>
<path d="M11.1353 1.89291H38.8647C41.3165 1.89291 43.6679 2.8669 45.4016 4.60061C47.1354 6.33432 48.1093 8.68574 48.1093 11.1376V38.867C48.1093 41.3188 47.1354 43.6702 45.4016 45.4039C43.6679 47.1376 41.3165 48.1116 38.8647 48.1116H11.1353C9.92098 48.1119 8.71852 47.8729 7.59662 47.4083C6.47472 46.9437 5.45538 46.2626 4.59684 45.4038C3.73831 44.5451 3.05741 43.5255 2.59306 42.4035C2.12872 41.2815 1.89002 40.079 1.89063 38.8647V11.1353C1.89063 9.92137 2.12976 8.71934 2.59438 7.59785C3.05899 6.47637 3.73999 5.45739 4.59846 4.59913C5.45694 3.74087 6.47608 3.06013 7.59768 2.59579C8.71928 2.13145 9.92137 1.89261 11.1353 1.89291Z" fill="#AF1212"/>
<path d="M38.8097 1.98685H11.1926C6.10841 1.98685 1.98688 6.10838 1.98688 11.1925V38.8097C1.98688 43.8938 6.10841 48.0154 11.1926 48.0154H38.8097C43.8939 48.0154 48.0154 43.8938 48.0154 38.8097V11.1925C48.0154 6.10838 43.8939 1.98685 38.8097 1.98685Z" fill="#B01212"/>
<path d="M11.2476 2.08084H38.7478C39.9516 2.08084 41.1437 2.31795 42.2558 2.77862C43.368 3.23929 44.3785 3.91451 45.2297 4.76572C46.0809 5.61693 46.7561 6.62746 47.2168 7.73962C47.6775 8.85178 47.9146 10.0438 47.9146 11.2476V38.7478C47.9146 39.9516 47.6775 41.1436 47.2168 42.2558C46.7561 43.3679 46.0809 44.3785 45.2297 45.2297C44.3785 46.0809 43.368 46.7561 42.2558 47.2168C41.1437 47.6775 39.9516 47.9146 38.7478 47.9146H11.2476C10.0438 47.9146 8.85182 47.6775 7.73965 47.2168C6.62749 46.7561 5.61696 46.0809 4.76575 45.2297C3.91454 44.3785 3.23932 43.3679 2.77865 42.2558C2.31798 41.1436 2.08087 39.9516 2.08087 38.7478V11.2476C2.08087 8.81641 3.04665 6.48482 4.76575 4.76572C6.48485 3.04662 8.81644 2.08084 11.2476 2.08084Z" fill="#B01313"/>
<path d="M38.6952 2.17477H11.3049C6.26254 2.17477 2.17487 6.26245 2.17487 11.3049V38.6928C2.17487 43.7352 6.26254 47.8229 11.3049 47.8229H38.6952C43.7376 47.8229 47.8252 43.7352 47.8252 38.6928V11.3049C47.8252 6.26245 43.7376 2.17477 38.6952 2.17477Z" fill="#B11313"/>
<path d="M11.3622 2.27103H38.6333C39.8275 2.27103 41.0099 2.50623 42.1132 2.96322C43.2165 3.42021 44.2189 4.09002 45.0633 4.93443C45.9077 5.77883 46.5775 6.78128 47.0345 7.88454C47.4915 8.9878 47.7267 10.1703 47.7267 11.3644V38.6355C47.7267 41.0472 46.7687 43.3602 45.0633 45.0655C43.358 46.7709 41.045 47.7289 38.6333 47.7289H11.3622C10.1684 47.7289 8.9862 47.4938 7.88322 47.0369C6.78023 46.58 5.77803 45.9104 4.93385 45.0662C4.08966 44.222 3.42001 43.2198 2.96314 42.1168C2.50627 41.0138 2.27112 39.8317 2.27112 38.6378V11.3667C2.27052 10.1725 2.50522 8.98982 2.96182 7.8863C3.41843 6.78279 4.08798 5.78005 4.93223 4.93537C5.77647 4.0907 6.77887 3.42064 7.88216 2.96349C8.98544 2.50633 10.168 2.27103 11.3622 2.27103Z" fill="#B21313"/>
<path d="M38.5828 47.635H11.4194C10.2303 47.6353 9.05277 47.4013 7.9541 46.9464C6.85542 46.4914 5.85715 45.8245 5.01631 44.9837C4.17546 44.1428 3.50853 43.1445 3.05361 42.0459C2.59868 40.9472 2.36469 39.7697 2.36499 38.5805V11.4195C2.36499 9.01808 3.31894 6.71505 5.01698 5.01701C6.71502 3.31897 9.01805 2.36502 11.4194 2.36502H38.5828C40.9838 2.36563 43.2862 3.31985 44.9838 5.01782C46.6813 6.71579 47.635 9.01848 47.635 11.4195V38.5805C47.6353 39.7695 47.4013 40.9468 46.9466 42.0453C46.4918 43.1439 45.825 44.142 44.9844 44.9829C44.1438 45.8237 43.1458 46.4907 42.0474 46.9457C40.949 47.4008 39.7717 47.635 38.5828 47.635Z" fill="#B31313"/>
<path d="M11.4768 2.45895H38.5187C40.9104 2.45895 43.2041 3.40904 44.8952 5.1002C46.5864 6.79136 47.5365 9.08507 47.5365 11.4767V38.5186C47.5365 40.9103 46.5864 43.204 44.8952 44.8952C43.2041 46.5863 40.9104 47.5364 38.5187 47.5364H11.4768C9.08574 47.5364 6.79261 46.5866 5.10188 44.8958C3.41115 43.2051 2.4613 40.912 2.4613 38.5209V11.479C2.4607 10.2947 2.69345 9.12188 3.14625 8.02754C3.59905 6.9332 4.26303 5.9388 5.10026 5.10115C5.93749 4.2635 6.93155 3.59901 8.02566 3.14566C9.11977 2.6923 10.2925 2.45895 11.4768 2.45895Z" fill="#B41313"/>
<path d="M38.4683 2.55289H11.5318C6.57294 2.55289 2.55298 6.57284 2.55298 11.5317V38.4659C2.55298 43.4248 6.57294 47.4447 11.5318 47.4447H38.4683C43.4271 47.4447 47.4471 43.4248 47.4471 38.4659V11.5317C47.4471 6.57284 43.4271 2.55289 38.4683 2.55289Z" fill="#B51313"/>
<path d="M11.589 2.64914H38.4017C40.7721 2.64914 43.0454 3.59077 44.7215 5.26689C46.3977 6.94301 47.3393 9.21632 47.3393 11.5867V38.3994C47.3393 40.7698 46.3977 43.0431 44.7215 44.7193C43.0454 46.3954 40.7721 47.337 38.4017 47.337H11.589C9.21861 47.337 6.9453 46.3954 5.26918 44.7193C3.59306 43.0431 2.65143 40.7698 2.65143 38.3994V11.5867C2.65143 9.21632 3.59306 6.94301 5.26918 5.26689C6.9453 3.59077 9.21861 2.64914 11.589 2.64914Z" fill="#B61313"/>
<path d="M38.3559 47.2568H11.6463C9.28624 47.255 7.02344 46.3162 5.35526 44.6467C3.68707 42.9772 2.75 40.7137 2.75 38.3536V11.6463C2.75182 9.2874 3.68969 7.02564 5.35768 5.35765C7.02567 3.68966 9.28743 2.75179 11.6463 2.74997H38.3559C39.525 2.74997 40.6826 2.98027 41.7627 3.42773C42.8427 3.87519 43.8241 4.53103 44.6506 5.3578C45.4772 6.18456 46.1328 7.16606 46.5799 8.24624C47.0271 9.32641 47.2571 10.4841 47.2568 11.6532V38.3536C47.2571 39.5227 47.0271 40.6804 46.5799 41.7605C46.1328 42.8407 45.4772 43.8222 44.6506 44.649C43.8241 45.4757 42.8427 46.1316 41.7627 46.579C40.6826 47.0265 39.525 47.2568 38.3559 47.2568Z" fill="#B71313"/>
<path d="M38.2987 47.1629H11.7152C9.36402 47.1629 7.10913 46.229 5.4464 44.5667C3.78367 42.9044 2.84925 40.6498 2.84864 38.2986V11.7151C2.84713 10.5507 3.07498 9.39742 3.51918 8.32111C3.96337 7.24479 4.61521 6.26651 5.43748 5.44211C6.25975 4.61772 7.23635 3.96335 8.31151 3.51637C9.38667 3.0694 10.5393 2.83857 11.7037 2.83707H38.2987C40.6499 2.83767 42.9045 3.77209 44.5668 5.43482C46.2291 7.09756 47.163 9.35245 47.163 11.7036V38.2986C47.163 40.6496 46.2291 42.9042 44.5667 44.5666C42.9043 46.2289 40.6497 47.1629 38.2987 47.1629Z" fill="#B81414"/>
<path d="M38.2414 47.0689H11.7587C9.41763 47.0683 7.17266 46.1381 5.5173 44.4827C3.86194 42.8274 2.9317 40.5824 2.93109 38.2414V11.7609C2.93109 9.4195 3.86106 7.17393 5.51649 5.51808C7.17191 3.86222 9.41724 2.93167 11.7587 2.93106H38.2414C40.5828 2.93167 42.8281 3.86222 44.4836 5.51808C46.139 7.17393 47.069 9.4195 47.069 11.7609V38.2414C47.0684 40.5824 46.1381 42.8274 44.4828 44.4827C42.8274 46.1381 40.5824 47.0683 38.2414 47.0689Z" fill="#B91414"/>
<path d="M38.184 46.9795H11.8159C9.48501 46.9795 7.24959 46.0536 5.60141 44.4054C3.95322 42.7572 3.02728 40.5218 3.02728 38.1909V11.8159C3.02728 9.48498 3.95322 7.24957 5.60141 5.60138C7.24959 3.9532 9.48501 3.02725 11.8159 3.02725H38.184C39.3387 3.02635 40.4823 3.25301 41.5494 3.69427C42.6165 4.13554 43.5861 4.78276 44.403 5.59895C45.2198 6.41514 45.8678 7.38429 46.3099 8.45102C46.752 9.51776 46.9795 10.6612 46.9795 11.8159V38.184C46.9804 39.3393 46.7535 40.4834 46.3118 41.551C45.8702 42.6185 45.2223 43.5885 44.4054 44.4054C43.5885 45.2223 42.6185 45.8701 41.551 46.3118C40.4835 46.7535 39.3393 46.9804 38.184 46.9795Z" fill="#BA1414"/>
<path d="M38.1291 46.8787H11.8732C9.55206 46.8787 7.32597 45.9566 5.68466 44.3153C4.04335 42.674 3.12128 40.4479 3.12128 38.1268V11.8732C3.12128 9.55203 4.04335 7.32594 5.68466 5.68463C7.32597 4.04332 9.55206 3.12125 11.8732 3.12125H38.1291C40.4498 3.12185 42.6753 4.0442 44.3162 5.68544C45.957 7.32669 46.8787 9.55243 46.8787 11.8732V38.1268C46.879 39.276 46.6529 40.414 46.2134 41.4758C45.7738 42.5376 45.1293 43.5024 44.3168 44.3152C43.5043 45.1279 42.5397 45.7726 41.4779 46.2125C40.4162 46.6523 39.2783 46.8787 38.1291 46.8787Z" fill="#BB1414"/>
<path d="M38.0718 46.7847H11.9305C9.6209 46.7847 7.40588 45.8672 5.77274 44.2341C4.1396 42.601 3.22211 40.3859 3.22211 38.0763V11.9305C3.22211 9.62087 4.1396 7.40585 5.77274 5.77271C7.40588 4.13957 9.6209 3.22208 11.9305 3.22208H38.0718C40.3814 3.22208 42.5964 4.13957 44.2295 5.77271C45.8627 7.40585 46.7802 9.62087 46.7802 11.9305V38.0695C46.7811 39.2136 46.5565 40.3468 46.1193 41.4041C45.682 42.4615 45.0407 43.4223 44.232 44.2317C43.4232 45.0411 42.4629 45.6831 41.4059 46.1212C40.3489 46.5593 39.216 46.7847 38.0718 46.7847Z" fill="#BC1414"/>
<path d="M38.0145 46.6908H11.9855C9.68461 46.6901 7.47811 45.7758 5.85111 44.1488C4.22412 42.5219 3.30981 40.3153 3.3092 38.0144V11.9878C3.30981 9.68684 4.22412 7.48033 5.85111 5.85334C7.47811 4.22634 9.68461 3.31204 11.9855 3.31143H38.0145C40.3156 3.31143 42.5225 4.22554 44.1496 5.85267C45.7767 7.47979 46.6908 9.68665 46.6908 11.9878V38.0144C46.6908 40.3155 45.7767 42.5224 44.1496 44.1495C42.5225 45.7766 40.3156 46.6908 38.0145 46.6908Z" fill="#BD1414"/>
<path d="M37.9571 46.5945H12.0428C9.75199 46.5945 7.55504 45.6845 5.93522 44.0647C4.3154 42.4449 3.4054 40.2479 3.4054 37.9572V12.0428C3.4054 9.75202 4.3154 7.55507 5.93522 5.93525C7.55504 4.31543 9.75199 3.40543 12.0428 3.40543H37.9571C39.0915 3.40513 40.2148 3.62833 41.2629 4.06229C42.3109 4.49626 43.2632 5.13247 44.0654 5.93458C44.8675 6.73669 45.5037 7.68899 45.9376 8.73706C46.3716 9.78513 46.5948 10.9084 46.5945 12.0428V37.9572C46.5948 39.0915 46.3716 40.2148 45.9376 41.2629C45.5037 42.311 44.8675 43.2633 44.0654 44.0654C43.2632 44.8675 42.3109 45.5037 41.2629 45.9377C40.2148 46.3716 39.0915 46.5948 37.9571 46.5945Z" fill="#BE1414"/>
<path d="M37.9022 46.5006H12.1001C9.81904 46.5006 7.63142 45.5944 6.01848 43.9815C4.40553 42.3685 3.49939 40.1809 3.49939 37.8999V12.1001C3.49939 9.81901 4.40553 7.63139 6.01848 6.01845C7.63142 4.4055 9.81904 3.49936 12.1001 3.49936H37.9022C39.0315 3.49936 40.1498 3.72184 41.1932 4.15409C42.2365 4.58635 43.1845 5.21991 43.983 6.01858C44.7814 6.81726 45.4147 7.76541 45.8467 8.80889C46.2787 9.85236 46.5009 10.9707 46.5006 12.1001V37.8999C46.5009 39.0292 46.2787 40.1476 45.8467 41.191C45.4147 42.2345 44.7814 43.1827 43.983 43.9813C43.1845 44.78 42.2365 45.4136 41.1932 45.8458C40.1498 46.2781 39.0315 46.5006 37.9022 46.5006Z" fill="#BF1414"/>
<path d="M37.8449 46.4066H12.1574C11.0328 46.4066 9.91914 46.1851 8.8801 45.7547C7.84106 45.3244 6.89697 44.6935 6.10173 43.8983C5.30649 43.103 4.67566 42.159 4.24528 41.1199C3.8149 40.0809 3.59338 38.9673 3.59338 37.8426V12.1574C3.59338 9.88606 4.49566 7.70777 6.10173 6.1017C7.7078 4.49563 9.88609 3.59335 12.1574 3.59335H37.8449C40.1158 3.59396 42.2936 4.49651 43.8991 6.10251C45.5047 7.70851 46.4067 9.88646 46.4067 12.1574V37.8426C46.4067 40.1135 45.5047 42.2915 43.8991 43.8975C42.2936 45.5035 40.1158 46.406 37.8449 46.4066Z" fill="#C01515"/>
<path d="M37.7876 46.3127H12.2124C9.95182 46.3121 7.78403 45.4136 6.18576 43.8149C4.5875 42.2162 3.68964 40.0482 3.68964 37.7876V12.2147C3.68934 11.0953 3.90956 9.98674 4.33774 8.95245C4.76591 7.91815 5.39365 6.97834 6.18509 6.18668C6.97653 5.39502 7.91618 4.76704 8.95036 4.33858C9.98454 3.91013 11.093 3.68961 12.2124 3.68961H37.7876C40.0486 3.68961 42.217 4.58778 43.8158 6.18654C45.4145 7.7853 46.3127 9.95369 46.3127 12.2147V37.7876C46.3121 40.0484 45.4137 42.2164 43.8151 43.8151C42.2165 45.4137 40.0484 46.3121 37.7876 46.3127Z" fill="#C11515"/>
<path d="M37.7303 46.2164H12.2697C10.0209 46.2164 7.86414 45.3231 6.27398 43.7329C4.68381 42.1427 3.79047 39.986 3.79047 37.7372V12.2697C3.79047 10.0208 4.68381 7.86411 6.27398 6.27395C7.86414 4.68378 10.0209 3.79044 12.2697 3.79044H37.7303C39.9792 3.79044 42.1359 4.68378 43.7261 6.27395C45.3162 7.86411 46.2096 10.0208 46.2096 12.2697V37.7303C46.2105 38.8444 45.9918 39.9477 45.5661 40.9773C45.1404 42.0068 44.5159 42.9424 43.7285 43.7305C42.941 44.5186 42.006 45.1438 40.9768 45.5703C39.9476 45.9969 38.8444 46.2164 37.7303 46.2164Z" fill="#C21515"/>
<path d="M37.6753 46.1224H12.3269C10.086 46.1224 7.93687 45.2322 6.35229 43.6476C4.76771 42.063 3.8775 39.9139 3.8775 37.673V12.3269C3.8775 10.086 4.76771 7.93684 6.35229 6.35226C7.93687 4.76768 10.086 3.87747 12.3269 3.87747H37.6753C39.9158 3.87808 42.0644 4.76855 43.6485 6.35307C45.2325 7.93758 46.1224 10.0864 46.1224 12.3269V37.673C46.1224 39.9135 45.2325 42.0623 43.6485 43.6468C42.0644 45.2313 39.9158 46.1218 37.6753 46.1224Z" fill="#C31515"/>
<path d="M37.618 46.0285H12.3751C10.1439 46.0285 8.00409 45.1421 6.42639 43.5644C4.84869 41.9867 3.96234 39.8469 3.96234 37.6157V12.3751C3.96538 10.1456 4.85299 8.00853 6.43029 6.43294C8.0076 4.85735 10.1457 3.97207 12.3751 3.97147H37.618C39.8473 3.97207 41.9851 4.85743 43.5621 6.43308C45.139 8.00873 46.0261 10.1459 46.0285 12.3751V37.6065C46.0297 38.7119 45.8131 39.8067 45.391 40.8283C44.9689 41.8498 44.3496 42.7782 43.5685 43.5604C42.7875 44.3425 41.8599 44.9631 40.8389 45.3866C39.8179 45.8101 38.7234 46.0282 37.618 46.0285Z" fill="#C41515"/>
<path style="mix-blend-mode:screen" d="M39.9991 50H10.0009C7.34851 50 4.80474 48.9463 2.9292 47.0708C1.05367 45.1953 0 42.6515 0 39.9991L0 10.0009C0 7.34851 1.05367 4.80474 2.9292 2.9292C4.80474 1.05367 7.34851 0 10.0009 0L39.9991 0C42.6515 0 45.1953 1.05367 47.0708 2.9292C48.9463 4.80474 50 7.34851 50 10.0009V39.9991C50 42.6515 48.9463 45.1953 47.0708 47.0708C45.1953 48.9463 42.6515 50 39.9991 50Z" fill="url(#paint0_linear_91_3481)"/>
<path style="mix-blend-mode:soft-light" d="M37.618 46.0285H12.3751C10.1439 46.0285 8.00409 45.1421 6.42639 43.5644C4.84869 41.9867 3.96234 39.8469 3.96234 37.6157V12.3751C3.96538 10.1456 4.85299 8.00853 6.43029 6.43294C8.0076 4.85735 10.1457 3.97207 12.3751 3.97147H37.618C39.8473 3.97207 41.9851 4.85743 43.5621 6.43308C45.139 8.00873 46.0261 10.1459 46.0285 12.3751V37.6065C46.0297 38.7119 45.8131 39.8067 45.391 40.8283C44.9689 41.8498 44.3496 42.7782 43.5685 43.5604C42.7875 44.3425 41.8599 44.9631 40.8389 45.3866C39.8179 45.8101 38.7234 46.0282 37.618 46.0285Z" fill="url(#paint1_linear_91_3481)"/>
<path d="M18.3334 12.9801C18.3334 13.9692 18.0401 14.9361 17.4905 15.7584C16.941 16.5808 16.1599 17.2217 15.246 17.6001C14.3322 17.9785 13.3267 18.0774 12.3566 17.8843C11.3865 17.6912 10.4955 17.2147 9.79631 16.5152C9.09708 15.8156 8.62101 14.9244 8.42832 13.9542C8.23564 12.9841 8.33499 11.9786 8.71382 11.0649C9.09264 10.1512 9.73392 9.37044 10.5565 8.82126C11.3792 8.27208 12.3462 7.97919 13.3353 7.97965C14.6611 7.98025 15.9324 8.50735 16.8696 9.44506C17.8069 10.3828 18.3334 11.6543 18.3334 12.9801Z" fill="url(#paint2_radial_91_3481)"/>
<path d="M18.3334 36.3117C18.3339 37.3009 18.0409 38.268 17.4917 39.0907C16.9424 39.9134 16.1614 40.5547 15.2476 40.9334C14.3338 41.3122 13.3282 41.4114 12.358 41.2185C11.3878 41.0256 10.4966 40.5493 9.79712 39.8499C9.09766 39.1504 8.62136 38.2592 8.42849 37.289C8.23562 36.3188 8.33484 35.3132 8.7136 34.3994C9.09235 33.4856 9.73363 32.7046 10.5563 32.1553C11.379 31.6061 12.3461 31.3131 13.3353 31.3136C14.6607 31.3142 15.9316 31.841 16.8688 32.7782C17.806 33.7154 18.3328 34.9863 18.3334 36.3117Z" fill="url(#paint3_radial_91_3481)"/>
<path d="M41.6675 12.9801C41.6675 13.9691 41.3742 14.9359 40.8248 15.7582C40.2753 16.5805 39.4943 17.2215 38.5806 17.5999C37.6669 17.9784 36.6615 18.0774 35.6915 17.8845C34.7215 17.6915 33.8305 17.2153 33.1312 16.516C32.4318 15.8166 31.9556 14.9256 31.7626 13.9556C31.5697 12.9857 31.6687 11.9802 32.0472 11.0665C32.4257 10.1528 33.0666 9.37183 33.8889 8.82237C34.7112 8.27292 35.678 7.97964 36.667 7.97964C37.9932 7.97964 39.2651 8.50648 40.2029 9.44425C41.1407 10.382 41.6675 11.6539 41.6675 12.9801Z" fill="url(#paint4_radial_91_3481)"/>
<path d="M41.6675 36.3117C41.6679 37.3008 41.375 38.2678 40.8259 39.0905C40.2767 39.9131 39.4959 40.5544 38.5822 40.9332C37.6685 41.312 36.663 41.4114 35.6929 41.2187C34.7227 41.026 33.8315 40.5499 33.132 39.8507C32.4324 39.1515 31.9559 38.2605 31.7628 37.2904C31.5697 36.3204 31.6686 35.3148 32.047 34.401C32.4254 33.4871 33.0663 32.706 33.8887 32.1565C34.7111 31.6069 35.6779 31.3136 36.667 31.3136C37.9928 31.3136 39.2644 31.8401 40.2021 32.7774C41.1398 33.7146 41.6669 34.9859 41.6675 36.3117Z" fill="url(#paint5_radial_91_3481)"/>
<defs>
<linearGradient id="paint0_linear_91_3481" x1="50.0917" y1="25" x2="0.485839" y2="25" gradientUnits="userSpaceOnUse">
<stop offset="0.04" stop-color="#380404"/>
<stop offset="1"/>
</linearGradient>
<linearGradient id="paint1_linear_91_3481" x1="3.64838" y1="25" x2="46.1064" y2="25" gradientUnits="userSpaceOnUse">
<stop stop-color="#8F0F0F"/>
<stop offset="1"/>
</linearGradient>
<radialGradient id="paint2_radial_91_3481" cx="0" cy="0" r="1" gradientUnits="userSpaceOnUse" gradientTransform="translate(13.333 12.9801) scale(5.00046)">
<stop stop-color="#F0F0F0"/>
<stop offset="1" stop-color="#E3E3E3"/>
</radialGradient>
<radialGradient id="paint3_radial_91_3481" cx="0" cy="0" r="1" gradientUnits="userSpaceOnUse" gradientTransform="translate(13.333 36.314) scale(5.00046)">
<stop stop-color="#F0F0F0"/>
<stop offset="1" stop-color="#E3E3E3"/>
</radialGradient>
<radialGradient id="paint4_radial_91_3481" cx="0" cy="0" r="1" gradientUnits="userSpaceOnUse" gradientTransform="translate(36.667 12.9801) scale(5.00046 5.00046)">
<stop stop-color="#F0F0F0"/>
<stop offset="1" stop-color="#E3E3E3"/>
</radialGradient>
<radialGradient id="paint5_radial_91_3481" cx="0" cy="0" r="1" gradientUnits="userSpaceOnUse" gradientTransform="translate(36.667 36.314) scale(5.00046)">
<stop stop-color="#F0F0F0"/>
<stop offset="1" stop-color="#E3E3E3"/>
</radialGradient>
</defs>
</svg>
