<svg width="252" height="252" viewBox="0 0 252 252" fill="none" xmlns="http://www.w3.org/2000/svg">
<g clip-path="url(#clip0_46_159)">
<path d="M12.48 252.09L239.53 252.09C246.157 252.09 251.53 246.717 251.53 240.09L251.53 13.04C251.53 6.41261 246.157 1.04002 239.53 1.04002L12.48 1.04002C5.85262 1.04002 0.480026 6.41261 0.480026 13.04L0.480026 240.09C0.480026 246.717 5.85262 252.09 12.48 252.09Z" fill="url(#paint0_linear_46_159)"/>
<path d="M206.737 210.168C252.116 164.789 252.116 91.2156 206.737 45.8366C161.358 0.457702 87.7842 0.457713 42.4053 45.8366C-2.97362 91.2156 -2.97362 164.789 42.4053 210.168C87.7842 255.547 161.358 255.547 206.737 210.168Z" fill="url(#paint1_linear_46_159)"/>
<path d="M145.943 137.522C151.997 126.506 147.974 112.668 136.958 106.614C125.942 100.561 112.104 104.583 106.05 115.6C99.9961 126.616 104.019 140.454 115.035 146.508C126.052 152.561 139.889 148.538 145.943 137.522Z" fill="url(#paint2_radial_46_159)"/>
<path style="mix-blend-mode:screen" opacity="0.5" d="M106.62 132.67C102.55 128.6 104.95 119.59 111.99 112.56C119.03 105.53 127.99 103.12 132.1 107.2C136.21 111.28 133.77 120.27 126.74 127.31C119.71 134.35 110.7 136.75 106.62 132.67Z" fill="url(#paint3_radial_46_159)"/>
<path d="M199.593 183.236C202.48 171.002 194.904 158.744 182.67 155.857C170.436 152.969 158.178 160.546 155.29 172.78C152.403 185.014 159.98 197.272 172.213 200.16C184.447 203.047 196.706 195.47 199.593 183.236Z" fill="url(#paint4_radial_46_159)"/>
<path style="mix-blend-mode:screen" opacity="0.5" d="M158.07 184.12C154 180.05 156.4 171 163.44 164C170.48 157 179.44 154.56 183.55 158.63C187.66 162.7 185.22 171.71 178.18 178.75C171.14 185.79 162.14 188.19 158.07 184.12Z" fill="url(#paint5_radial_46_159)"/>
<path d="M96.7081 183.232C99.5828 170.995 91.9932 158.745 79.7563 155.87C67.5194 152.996 55.2691 160.585 52.3945 172.822C49.5198 185.059 57.1094 197.309 69.3463 200.184C81.5832 203.059 93.8335 195.469 96.7081 183.232Z" fill="url(#paint6_radial_46_159)"/>
<path style="mix-blend-mode:screen" opacity="0.5" d="M55.1802 184.12C51.1102 180.05 53.5102 171 60.5402 164C67.5702 157 76.5402 154.56 80.6502 158.63C84.7602 162.7 82.3302 171.71 75.2902 178.75C68.2502 185.79 59.2502 188.19 55.1802 184.12Z" fill="url(#paint7_radial_46_159)"/>
<path d="M181.1 97.5734C193.508 95.5593 201.934 83.8683 199.92 71.4607C197.906 59.0531 186.215 50.6274 173.807 52.6415C161.399 54.6555 152.974 66.3466 154.988 78.7542C157.002 91.1618 168.693 99.5874 181.1 97.5734Z" fill="url(#paint8_radial_46_159)"/>
<path style="mix-blend-mode:screen" opacity="0.5" d="M158.07 81.23C154 77.15 156.4 68.15 163.44 61.11C170.48 54.07 179.44 51.68 183.55 55.75C187.66 59.82 185.22 68.83 178.18 75.86C171.14 82.89 162.14 85.3 158.07 81.23Z" fill="url(#paint9_radial_46_159)"/>
<path d="M78.1662 97.5896C90.5763 95.5907 99.0162 83.91 97.0173 71.4999C95.0185 59.0899 83.3377 50.65 70.9277 52.6488C58.5176 54.6477 50.0777 66.3285 52.0766 78.7385C54.0754 91.1486 65.7562 99.5885 78.1662 97.5896Z" fill="url(#paint10_radial_46_159)"/>
<path style="mix-blend-mode:screen" opacity="0.5" d="M55.1802 81.23C51.1102 77.15 53.5102 68.15 60.5402 61.11C67.5702 54.07 76.5402 51.68 80.6502 55.75C84.7602 59.82 82.3302 68.83 75.2902 75.86C68.2502 82.89 59.2502 85.3 55.1802 81.23Z" fill="url(#paint11_radial_46_159)"/>
<path d="M190.76 196.496C200.958 189.147 203.267 174.922 195.918 164.724C188.568 154.527 174.344 152.218 164.146 159.567C153.948 166.916 151.639 181.141 158.989 191.339C166.338 201.536 180.563 203.845 190.76 196.496Z" fill="url(#paint12_radial_46_159)"/>
<path style="mix-blend-mode:screen" opacity="0.5" d="M158.07 184.12C154 180.05 156.4 171 163.44 164C170.48 157 179.44 154.56 183.55 158.63C187.66 162.7 185.22 171.71 178.18 178.75C171.14 185.79 162.14 188.19 158.07 184.12Z" fill="url(#paint13_radial_46_159)"/>
<path d="M190.763 93.6045C200.961 86.2552 203.27 72.0305 195.921 61.8329C188.571 51.6352 174.347 49.3262 164.149 56.6756C153.951 64.025 151.642 78.2496 158.992 88.4472C166.341 98.6449 180.566 100.954 190.763 93.6045Z" fill="url(#paint14_radial_46_159)"/>
<path style="mix-blend-mode:screen" opacity="0.5" d="M158.07 81.23C154 77.15 156.4 68.15 163.44 61.11C170.48 54.07 179.44 51.68 183.55 55.75C187.66 59.82 185.22 68.83 178.18 75.86C171.14 82.89 162.14 85.3 158.07 81.23Z" fill="url(#paint15_radial_46_159)"/>
<path d="M139.309 145.038C149.507 137.688 151.816 123.464 144.467 113.266C137.117 103.068 122.893 100.759 112.695 108.109C102.497 115.458 100.188 129.683 107.538 139.88C114.887 150.078 129.112 152.387 139.309 145.038Z" fill="url(#paint16_radial_46_159)"/>
<path style="mix-blend-mode:screen" opacity="0.5" d="M106.62 132.67C102.55 128.6 104.95 119.59 111.99 112.56C119.03 105.53 127.99 103.12 132.1 107.2C136.21 111.28 133.77 120.27 126.74 127.31C119.71 134.35 110.7 136.75 106.62 132.67Z" fill="url(#paint17_radial_46_159)"/>
<path d="M87.8581 93.5894C98.0558 86.2401 100.365 72.0154 93.0154 61.8178C85.666 51.6202 71.4414 49.3112 61.2438 56.6605C51.0461 64.0099 48.7371 78.2345 56.0865 88.4322C63.4358 98.6298 77.6605 100.939 87.8581 93.5894Z" fill="url(#paint18_radial_46_159)"/>
<path style="mix-blend-mode:screen" opacity="0.5" d="M55.1802 81.23C51.1102 77.15 53.5102 68.15 60.5402 61.11C67.5702 54.07 76.5402 51.68 80.6502 55.75C84.7602 59.82 82.3302 68.83 75.2902 75.86C68.2502 82.89 59.2502 85.3 55.1802 81.23Z" fill="url(#paint19_radial_46_159)"/>
<path d="M87.8511 196.489C98.0487 189.14 100.358 174.915 93.0083 164.717C85.659 154.52 71.4343 152.211 61.2367 159.56C51.039 166.909 48.7301 181.134 56.0794 191.332C63.4288 201.529 77.6534 203.838 87.8511 196.489Z" fill="url(#paint20_radial_46_159)"/>
<path style="mix-blend-mode:screen" opacity="0.5" d="M55.1802 184.12C51.1102 180.05 53.5102 171 60.5402 164C67.5702 157 76.5402 154.56 80.6502 158.63C84.7602 162.7 82.3302 171.71 75.2902 178.75C68.2502 185.79 59.2502 188.19 55.1802 184.12Z" fill="url(#paint21_radial_46_159)"/>
<g style="mix-blend-mode:screen">
<path d="M21.3201 153.37C26.2001 154.43 29.6701 147.94 31.5601 143.32C33.4501 138.7 34.3201 133.67 36.6501 129.26C40.7501 121.54 48.7001 116.84 55.7801 111.72C58.7801 109.51 62.1301 106.09 60.8901 102.53C60.2301 100.65 58.4701 99.43 56.8901 98.18C44.0201 87.71 42.8901 65.84 54.5301 54.07C63.3201 45.22 76.6901 42.66 86.5301 35.01C88.1501 33.75 89.7801 32.13 89.8801 30.08C90.0201 27.5 87.5201 25.38 84.9601 25.02C82.4001 24.66 79.8501 25.62 77.4801 26.64C56.6301 35.64 39.0001 51.64 27.2301 71.02C15.4601 90.4 12.2901 112.58 12.1301 135.28C12.1801 135.28 11.5301 151.23 21.3201 153.37Z" fill="url(#paint22_linear_46_159)"/>
</g>
</g>
<defs>
<linearGradient id="paint0_linear_46_159" x1="3.99002" y1="4.56002" x2="248.01" y2="248.58" gradientUnits="userSpaceOnUse">
<stop stop-color="#C0272D"/>
<stop offset="0.04" stop-color="#C52A30"/>
<stop offset="0.26" stop-color="#DF3A41"/>
<stop offset="0.49" stop-color="#F1464D"/>
<stop offset="0.73" stop-color="#FB4D54"/>
<stop offset="1" stop-color="#FF4F56"/>
</linearGradient>
<linearGradient id="paint1_linear_46_159" x1="206.732" y1="210.167" x2="42.4023" y2="45.8268" gradientUnits="userSpaceOnUse">
<stop stop-color="#C0272D"/>
<stop offset="0.04" stop-color="#C52A30"/>
<stop offset="0.26" stop-color="#DF3A41"/>
<stop offset="0.49" stop-color="#F1464D"/>
<stop offset="0.73" stop-color="#FB4D54"/>
<stop offset="1" stop-color="#FF4F56"/>
</linearGradient>
<radialGradient id="paint2_radial_46_159" cx="0" cy="0" r="1" gradientUnits="userSpaceOnUse" gradientTransform="translate(118.891 114.062) rotate(-180) scale(30.48 30.48)">
<stop stop-color="#FF4F56"/>
<stop offset="0.27" stop-color="#FB4D54"/>
<stop offset="0.51" stop-color="#F1464D"/>
<stop offset="0.74" stop-color="#DF3A41"/>
<stop offset="0.96" stop-color="#C52A30"/>
<stop offset="1" stop-color="#C0272D"/>
</radialGradient>
<radialGradient id="paint3_radial_46_159" cx="0" cy="0" r="1" gradientUnits="userSpaceOnUse" gradientTransform="translate(128.119 122.983) rotate(135) scale(18.0472 10.4833)">
<stop stop-color="#E6E6E5"/>
<stop offset="0.11" stop-color="#B2B2B1"/>
<stop offset="0.22" stop-color="#838383"/>
<stop offset="0.34" stop-color="#5B5B5A"/>
<stop offset="0.46" stop-color="#3A3A3A"/>
<stop offset="0.59" stop-color="#202020"/>
<stop offset="0.71" stop-color="#0E0E0E"/>
<stop offset="0.85" stop-color="#040403"/>
<stop offset="1"/>
</radialGradient>
<radialGradient id="paint4_radial_46_159" cx="0" cy="0" r="1" gradientUnits="userSpaceOnUse" gradientTransform="translate(170.332 165.505) rotate(180) scale(30.48)">
<stop stop-color="#FF4F56"/>
<stop offset="0.27" stop-color="#FB4D54"/>
<stop offset="0.51" stop-color="#F1464D"/>
<stop offset="0.74" stop-color="#DF3A41"/>
<stop offset="0.96" stop-color="#C52A30"/>
<stop offset="1" stop-color="#C0272D"/>
</radialGradient>
<radialGradient id="paint5_radial_46_159" cx="0" cy="0" r="1" gradientUnits="userSpaceOnUse" gradientTransform="translate(179.847 174.711) rotate(135) scale(18.0472 10.4833)">
<stop stop-color="#E6E6E5"/>
<stop offset="0.11" stop-color="#B2B2B1"/>
<stop offset="0.22" stop-color="#838383"/>
<stop offset="0.34" stop-color="#5B5B5A"/>
<stop offset="0.46" stop-color="#3A3A3A"/>
<stop offset="0.59" stop-color="#202020"/>
<stop offset="0.71" stop-color="#0E0E0E"/>
<stop offset="0.85" stop-color="#040403"/>
<stop offset="1"/>
</radialGradient>
<radialGradient id="paint6_radial_46_159" cx="0" cy="0" r="1" gradientUnits="userSpaceOnUse" gradientTransform="translate(67.4662 165.44) rotate(-180) scale(30.48 30.48)">
<stop stop-color="#FF4F56"/>
<stop offset="0.27" stop-color="#FB4D54"/>
<stop offset="0.51" stop-color="#F1464D"/>
<stop offset="0.74" stop-color="#DF3A41"/>
<stop offset="0.96" stop-color="#C52A30"/>
<stop offset="1" stop-color="#C0272D"/>
</radialGradient>
<radialGradient id="paint7_radial_46_159" cx="0" cy="0" r="1" gradientUnits="userSpaceOnUse" gradientTransform="translate(76.5546 174.548) rotate(135) scale(18.0472 10.4833)">
<stop stop-color="#E6E6E5"/>
<stop offset="0.11" stop-color="#B2B2B1"/>
<stop offset="0.22" stop-color="#838383"/>
<stop offset="0.34" stop-color="#5B5B5A"/>
<stop offset="0.46" stop-color="#3A3A3A"/>
<stop offset="0.59" stop-color="#202020"/>
<stop offset="0.71" stop-color="#0E0E0E"/>
<stop offset="0.85" stop-color="#040403"/>
<stop offset="1"/>
</radialGradient>
<radialGradient id="paint8_radial_46_159" cx="0" cy="0" r="1" gradientUnits="userSpaceOnUse" gradientTransform="translate(170.352 62.6112) rotate(180) scale(30.48 30.48)">
<stop stop-color="#FF4F56"/>
<stop offset="0.27" stop-color="#FB4D54"/>
<stop offset="0.51" stop-color="#F1464D"/>
<stop offset="0.74" stop-color="#DF3A41"/>
<stop offset="0.96" stop-color="#C52A30"/>
<stop offset="1" stop-color="#C0272D"/>
</radialGradient>
<radialGradient id="paint9_radial_46_159" cx="0" cy="0" r="1" gradientUnits="userSpaceOnUse" gradientTransform="translate(179.674 71.4286) rotate(135) scale(18.0472 10.4833)">
<stop stop-color="#E6E6E5"/>
<stop offset="0.11" stop-color="#B2B2B1"/>
<stop offset="0.22" stop-color="#838383"/>
<stop offset="0.34" stop-color="#5B5B5A"/>
<stop offset="0.46" stop-color="#3A3A3A"/>
<stop offset="0.59" stop-color="#202020"/>
<stop offset="0.71" stop-color="#0E0E0E"/>
<stop offset="0.85" stop-color="#040403"/>
<stop offset="1"/>
</radialGradient>
<radialGradient id="paint10_radial_46_159" cx="0" cy="0" r="1" gradientUnits="userSpaceOnUse" gradientTransform="translate(67.4561 62.5533) rotate(180) scale(30.48)">
<stop stop-color="#FF4F56"/>
<stop offset="0.27" stop-color="#FB4D54"/>
<stop offset="0.51" stop-color="#F1464D"/>
<stop offset="0.74" stop-color="#DF3A41"/>
<stop offset="0.96" stop-color="#C52A30"/>
<stop offset="1" stop-color="#C0272D"/>
</radialGradient>
<radialGradient id="paint11_radial_46_159" cx="0" cy="0" r="1" gradientUnits="userSpaceOnUse" gradientTransform="translate(76.397 71.2614) rotate(135) scale(18.0472 10.4833)">
<stop stop-color="#E6E6E5"/>
<stop offset="0.11" stop-color="#B2B2B1"/>
<stop offset="0.22" stop-color="#838383"/>
<stop offset="0.34" stop-color="#5B5B5A"/>
<stop offset="0.46" stop-color="#3A3A3A"/>
<stop offset="0.59" stop-color="#202020"/>
<stop offset="0.71" stop-color="#0E0E0E"/>
<stop offset="0.85" stop-color="#040403"/>
<stop offset="1"/>
</radialGradient>
<radialGradient id="paint12_radial_46_159" cx="0" cy="0" r="1" gradientUnits="userSpaceOnUse" gradientTransform="translate(170.365 165.449) rotate(-180) scale(30.48)">
<stop stop-color="#FFFFFD"/>
<stop offset="0.16" stop-color="#FEFBFA"/>
<stop offset="0.29" stop-color="#FBF1EF"/>
<stop offset="0.43" stop-color="#F6DFDE"/>
<stop offset="0.55" stop-color="#EEC5C5"/>
<stop offset="0.68" stop-color="#E4A4A6"/>
<stop offset="0.8" stop-color="#D97C7F"/>
<stop offset="0.92" stop-color="#CB4D52"/>
<stop offset="1" stop-color="#C0272D"/>
</radialGradient>
<radialGradient id="paint13_radial_46_159" cx="0" cy="0" r="1" gradientUnits="userSpaceOnUse" gradientTransform="translate(179.847 174.711) rotate(135) scale(18.0472 10.4833)">
<stop stop-color="#9A1B1F"/>
<stop offset="0.07" stop-color="#82171A"/>
<stop offset="0.21" stop-color="#5B1012"/>
<stop offset="0.36" stop-color="#3A0A0C"/>
<stop offset="0.5" stop-color="#200607"/>
<stop offset="0.66" stop-color="#0E0303"/>
<stop offset="0.82" stop-color="#040101"/>
<stop offset="1"/>
</radialGradient>
<radialGradient id="paint14_radial_46_159" cx="0" cy="0" r="1" gradientUnits="userSpaceOnUse" gradientTransform="translate(170.365 62.5582) rotate(180) scale(30.48)">
<stop stop-color="#FFFFFD"/>
<stop offset="0.16" stop-color="#FEFBFA"/>
<stop offset="0.29" stop-color="#FBF1EF"/>
<stop offset="0.43" stop-color="#F6DFDE"/>
<stop offset="0.55" stop-color="#EEC5C5"/>
<stop offset="0.68" stop-color="#E4A4A6"/>
<stop offset="0.8" stop-color="#D97C7F"/>
<stop offset="0.92" stop-color="#CB4D52"/>
<stop offset="1" stop-color="#C0272D"/>
</radialGradient>
<radialGradient id="paint15_radial_46_159" cx="0" cy="0" r="1" gradientUnits="userSpaceOnUse" gradientTransform="translate(179.674 71.4286) rotate(135) scale(18.0472 10.4833)">
<stop stop-color="#9A1B1F"/>
<stop offset="0.07" stop-color="#82171A"/>
<stop offset="0.21" stop-color="#5B1012"/>
<stop offset="0.36" stop-color="#3A0A0C"/>
<stop offset="0.5" stop-color="#200607"/>
<stop offset="0.66" stop-color="#0E0303"/>
<stop offset="0.82" stop-color="#040101"/>
<stop offset="1"/>
</radialGradient>
<radialGradient id="paint16_radial_46_159" cx="0" cy="0" r="1" gradientUnits="userSpaceOnUse" gradientTransform="translate(118.915 113.989) rotate(-180) scale(30.48 30.48)">
<stop stop-color="#FFFFFD"/>
<stop offset="0.16" stop-color="#FEFBFA"/>
<stop offset="0.29" stop-color="#FBF1EF"/>
<stop offset="0.43" stop-color="#F6DFDE"/>
<stop offset="0.55" stop-color="#EEC5C5"/>
<stop offset="0.68" stop-color="#E4A4A6"/>
<stop offset="0.8" stop-color="#D97C7F"/>
<stop offset="0.92" stop-color="#CB4D52"/>
<stop offset="1" stop-color="#C0272D"/>
</radialGradient>
<radialGradient id="paint17_radial_46_159" cx="0" cy="0" r="1" gradientUnits="userSpaceOnUse" gradientTransform="translate(128.119 122.983) rotate(135) scale(18.0472 10.4833)">
<stop stop-color="#9A1B1F"/>
<stop offset="0.07" stop-color="#82171A"/>
<stop offset="0.21" stop-color="#5B1012"/>
<stop offset="0.36" stop-color="#3A0A0C"/>
<stop offset="0.5" stop-color="#200607"/>
<stop offset="0.66" stop-color="#0E0303"/>
<stop offset="0.82" stop-color="#040101"/>
<stop offset="1"/>
</radialGradient>
<radialGradient id="paint18_radial_46_159" cx="0" cy="0" r="1" gradientUnits="userSpaceOnUse" gradientTransform="translate(67.4645 62.5485) rotate(-180) scale(30.48)">
<stop stop-color="#FFFFFD"/>
<stop offset="0.16" stop-color="#FEFBFA"/>
<stop offset="0.29" stop-color="#FBF1EF"/>
<stop offset="0.43" stop-color="#F6DFDE"/>
<stop offset="0.55" stop-color="#EEC5C5"/>
<stop offset="0.68" stop-color="#E4A4A6"/>
<stop offset="0.8" stop-color="#D97C7F"/>
<stop offset="0.92" stop-color="#CB4D52"/>
<stop offset="1" stop-color="#C0272D"/>
</radialGradient>
<radialGradient id="paint19_radial_46_159" cx="0" cy="0" r="1" gradientUnits="userSpaceOnUse" gradientTransform="translate(76.397 71.2614) rotate(135) scale(18.0472 10.4833)">
<stop stop-color="#9A1B1F"/>
<stop offset="0.07" stop-color="#82171A"/>
<stop offset="0.21" stop-color="#5B1012"/>
<stop offset="0.36" stop-color="#3A0A0C"/>
<stop offset="0.5" stop-color="#200607"/>
<stop offset="0.66" stop-color="#0E0303"/>
<stop offset="0.82" stop-color="#040101"/>
<stop offset="1"/>
</radialGradient>
<radialGradient id="paint20_radial_46_159" cx="0" cy="0" r="1" gradientUnits="userSpaceOnUse" gradientTransform="translate(67.4605 165.447) rotate(-180) scale(30.48 30.48)">
<stop stop-color="#FFFFFD"/>
<stop offset="0.16" stop-color="#FEFBFA"/>
<stop offset="0.29" stop-color="#FBF1EF"/>
<stop offset="0.43" stop-color="#F6DFDE"/>
<stop offset="0.55" stop-color="#EEC5C5"/>
<stop offset="0.68" stop-color="#E4A4A6"/>
<stop offset="0.8" stop-color="#D97C7F"/>
<stop offset="0.92" stop-color="#CB4D52"/>
<stop offset="1" stop-color="#C0272D"/>
</radialGradient>
<radialGradient id="paint21_radial_46_159" cx="0" cy="0" r="1" gradientUnits="userSpaceOnUse" gradientTransform="translate(76.5546 174.548) rotate(135) scale(18.0472 10.4833)">
<stop stop-color="#9A1B1F"/>
<stop offset="0.07" stop-color="#82171A"/>
<stop offset="0.21" stop-color="#5B1012"/>
<stop offset="0.36" stop-color="#3A0A0C"/>
<stop offset="0.5" stop-color="#200607"/>
<stop offset="0.66" stop-color="#0E0303"/>
<stop offset="0.82" stop-color="#040101"/>
<stop offset="1"/>
</radialGradient>
<linearGradient id="paint22_linear_46_159" x1="42.8731" y1="35.6915" x2="66.6136" y2="146.48" gradientUnits="userSpaceOnUse">
<stop/>
<stop offset="0.04" stop-color="#161616"/>
<stop offset="0.07" stop-color="#262626"/>
<stop offset="0.12" stop-color="#303030"/>
<stop offset="0.18" stop-color="#333333"/>
<stop offset="1"/>
</linearGradient>
<clipPath id="clip0_46_159">
<rect width="252" height="252" fill="white"/>
</clipPath>
</defs>
</svg>
