<svg width="50" height="50" viewBox="0 0 50 50" fill="none" xmlns="http://www.w3.org/2000/svg">
<path d="M10.0009 0H40.0014C42.6532 0 45.1964 1.05342 47.0715 2.92853C48.9466 4.80364 50 7.34683 50 9.99863V40.0014C50 42.6532 48.9466 45.1964 47.0715 47.0715C45.1964 48.9466 42.6532 50 40.0014 50H10.0009C7.34851 50 4.80474 48.9463 2.9292 47.0708C1.05367 45.1953 0 42.6515 0 39.9991L0 10.0009C0 7.34851 1.05367 4.80474 2.9292 2.9292C4.80474 1.05367 7.34851 0 10.0009 0V0Z" fill="#9B1010"/>
<path d="M39.9441 49.906H10.0582C7.41596 49.906 4.88186 48.8565 3.01327 46.9883C1.14467 45.1202 0.0946018 42.5863 0.0939941 39.944V10.0559C0.0946018 7.41358 1.14467 4.87972 3.01327 3.01155C4.88186 1.14339 7.41596 0.0939025 10.0582 0.0939026H39.9441C42.5862 0.0939026 45.1201 1.14346 46.9883 3.01169C48.8565 4.87992 49.9061 7.41379 49.9061 10.0559V39.944C49.9061 42.5861 48.8565 45.12 46.9883 46.9882C45.1201 48.8564 42.5862 49.906 39.9441 49.906Z" fill="#9C1010"/>
<path d="M39.8868 49.8097H10.1155C8.81218 49.81 7.52158 49.5536 6.31741 49.055C5.11323 48.5565 4.01905 47.8256 3.09738 46.9042C2.1757 45.9827 1.44457 44.8887 0.945748 43.6846C0.446927 42.4806 0.190186 41.19 0.190186 39.8867V10.1132C0.190793 7.4812 1.23676 4.95725 3.09805 3.0964C4.95933 1.23554 7.48352 0.190155 10.1155 0.190155H39.8868C42.5187 0.190155 45.0429 1.23554 46.9042 3.0964C48.7655 4.95725 49.8115 7.4812 49.8121 10.1132V39.8867C49.8121 41.19 49.5553 42.4806 49.0565 43.6846C48.5577 44.8887 47.8265 45.9827 46.9049 46.9042C45.9832 47.8256 44.889 48.5565 43.6848 49.055C42.4807 49.5536 41.1901 49.81 39.8868 49.8097Z" fill="#9D1010"/>
<path d="M39.8295 49.7158H10.1705C8.87214 49.7161 7.58642 49.4606 6.38682 48.9639C5.18722 48.4672 4.09724 47.7389 3.17915 46.8208C2.26106 45.9028 1.53285 44.8128 1.03612 43.6132C0.539391 42.4136 0.283879 41.1279 0.28418 39.8295V10.1705C0.28418 7.54846 1.32577 5.03384 3.17982 3.17979C5.03387 1.32574 7.54849 0.284149 10.1705 0.284149H39.8295C42.4515 0.284149 44.9662 1.32574 46.8202 3.17979C48.6743 5.03384 49.7158 7.54846 49.7158 10.1705V39.8295C49.7161 41.1279 49.4606 42.4136 48.9639 43.6132C48.4672 44.8128 47.739 45.9028 46.8209 46.8208C45.9028 47.7389 44.8128 48.4672 43.6132 48.9639C42.4136 49.4606 41.1279 49.7161 39.8295 49.7158Z" fill="#9E1010"/>
<path d="M39.7722 49.6218H10.2278C7.61427 49.6218 5.10781 48.5836 3.25978 46.7356C1.41175 44.8876 0.373535 42.3811 0.373535 39.7676V10.2278C0.373535 7.61424 1.41175 5.10778 3.25978 3.25975C5.10781 1.41172 7.61427 0.373505 10.2278 0.373505H39.7722C42.3857 0.373505 44.8922 1.41172 46.7402 3.25975C48.5882 5.10778 49.6264 7.61424 49.6264 10.2278V39.7722C49.6252 42.3849 48.5865 44.8902 46.7386 46.7372C44.8907 48.5843 42.3849 49.6218 39.7722 49.6218Z" fill="#9F1010"/>
<path d="M39.7173 49.5279H10.2852C7.68299 49.5279 5.18737 48.4944 3.34714 46.6546C1.50691 44.8148 0.472776 42.3194 0.472168 39.7172V10.2828C0.472776 7.68061 1.50691 5.18523 3.34714 3.34543C5.18737 1.50563 7.68299 0.472076 10.2852 0.472076H39.7173C42.3193 0.472076 44.8146 1.5057 46.6545 3.34557C48.4944 5.18543 49.528 7.68082 49.528 10.2828V39.7172C49.528 42.3192 48.4944 44.8146 46.6545 46.6544C44.8146 48.4943 42.3193 49.5279 39.7173 49.5279Z" fill="#A01111"/>
<path d="M39.6599 49.4317H10.3424C9.05896 49.432 7.78804 49.1794 6.60221 48.6885C5.41638 48.1975 4.33888 47.4778 3.43125 46.5704C2.52362 45.663 1.80363 44.5856 1.31241 43.3999C0.821189 42.2142 0.568359 40.9433 0.568359 39.6599V10.3401C0.568359 9.05664 0.821189 7.78577 1.31241 6.60006C1.80363 5.41435 2.52362 4.33702 3.43125 3.4296C4.33888 2.52218 5.41638 1.80244 6.60221 1.3115C7.78804 0.82056 9.05896 0.568028 10.3424 0.568329H39.6599C42.2516 0.568329 44.737 1.59785 46.5696 3.43041C48.4022 5.26297 49.4317 7.74845 49.4317 10.3401V39.6599C49.4317 42.2515 48.4022 44.737 46.5696 46.5696C44.737 48.4021 42.2516 49.4317 39.6599 49.4317Z" fill="#A11111"/>
<path d="M39.6027 49.3377H10.3974C7.81553 49.3377 5.33938 48.312 3.51369 46.4863C1.68801 44.6607 0.662354 42.1845 0.662354 39.6026V10.3973C0.662354 7.81544 1.68801 5.33928 3.51369 3.5136C5.33938 1.68792 7.81553 0.662262 10.3974 0.662262H39.6027C42.1846 0.662262 44.6607 1.68792 46.4864 3.5136C48.3121 5.33928 49.3378 7.81544 49.3378 10.3973V39.6026C49.3378 42.1845 48.3121 44.6607 46.4864 46.4863C44.6607 48.312 42.1846 49.3377 39.6027 49.3377Z" fill="#A21111"/>
<path d="M39.5454 49.2437H10.4548C7.88258 49.2437 5.41575 48.2219 3.59695 46.4031C1.77814 44.5843 0.756348 42.1175 0.756348 39.5453V10.4546C0.756348 7.88243 1.77814 5.4156 3.59695 3.5968C5.41575 1.77799 7.88258 0.756195 10.4548 0.756195H39.5454C42.1176 0.756195 44.5844 1.77799 46.4032 3.5968C48.222 5.4156 49.2438 7.88243 49.2438 10.4546V39.5453C49.2438 42.1175 48.222 44.5843 46.4032 46.4031C44.5844 48.2219 42.1176 49.2437 39.5454 49.2437Z" fill="#A31111"/>
<path d="M39.4903 49.1497H10.512C7.94991 49.1497 5.49275 48.1321 3.68089 46.3207C1.86903 44.5092 0.850827 42.0523 0.85022 39.4903V10.5096C0.850521 9.24111 1.10067 7.9851 1.58638 6.81327C2.07209 5.64145 2.78385 4.57677 3.68103 3.68002C4.57821 2.78327 5.64322 2.07201 6.81528 1.58685C7.98733 1.1017 9.24347 0.852147 10.512 0.852448H39.4903C42.0518 0.852448 44.5084 1.86982 46.3198 3.68083C48.1312 5.49183 49.1492 7.94816 49.1498 10.5096V39.4903C49.1492 42.0519 48.1313 44.5085 46.3199 46.3199C44.5086 48.1312 42.052 49.1491 39.4903 49.1497Z" fill="#A41111"/>
<path d="M39.4331 49.0535H10.5693C8.01656 49.0535 5.56839 48.0394 3.76333 46.2344C1.95828 44.4293 0.944214 41.9811 0.944214 39.4284V10.5532C0.944214 8.00042 1.95828 5.55224 3.76333 3.74719C5.56839 1.94214 8.01656 0.92807 10.5693 0.92807H39.4445C41.9973 0.92807 44.4454 1.94214 46.2505 3.74719C48.0555 5.55224 49.0696 8.00042 49.0696 10.5532V39.4284C49.0696 40.6933 48.8203 41.9459 48.3359 43.1144C47.8514 44.2829 47.1414 45.3445 46.2464 46.2384C45.3515 47.1323 44.2891 47.8411 43.12 48.3241C41.9509 48.8071 40.698 49.055 39.4331 49.0535Z" fill="#A51111"/>
<path d="M39.3757 48.9595H10.6242C8.08245 48.9595 5.64476 47.9498 3.84744 46.1525C2.05013 44.3552 1.04041 41.9175 1.04041 39.3757V10.6242C1.04101 8.0826 2.05093 5.64527 3.84811 3.84808C5.6453 2.0509 8.08263 1.04098 10.6242 1.04037H39.3757C41.9175 1.04037 44.3552 2.0501 46.1525 3.84741C47.9498 5.64473 48.9596 8.08242 48.9596 10.6242V39.3757C48.9596 41.9175 47.9498 44.3552 46.1525 46.1525C44.3552 47.9498 41.9175 48.9595 39.3757 48.9595Z" fill="#A61111"/>
<path d="M39.3184 48.8656H10.6723C8.1438 48.8601 5.72074 47.8518 3.93476 46.062C2.14877 44.2721 1.14575 41.8469 1.14575 39.3184V10.6723C1.15121 8.14581 2.1579 5.72448 3.94528 3.93883C5.73265 2.15317 8.15495 1.14881 10.6815 1.14578H39.3275C41.8596 1.14578 44.288 2.15164 46.0784 3.94208C47.8688 5.73252 48.8747 8.16088 48.8747 10.6929V39.339C48.8692 41.8691 47.8597 44.2935 46.0679 46.0798C44.276 47.866 41.8484 48.868 39.3184 48.8656Z" fill="#A71111"/>
<path d="M39.2635 48.7716H10.7389C8.21719 48.7716 5.79874 47.7699 4.0156 45.9868C2.23247 44.2036 1.23071 41.7852 1.23071 39.2634V10.7388C1.23041 9.49011 1.47614 8.25356 1.95387 7.09984C2.43159 5.94611 3.13195 4.89782 4.01493 4.01484C4.89791 3.13186 5.9462 2.4315 7.09993 1.95378C8.25365 1.47605 9.4902 1.23032 10.7389 1.23062H39.2635C41.7853 1.23062 44.2037 2.23238 45.9869 4.01551C47.77 5.79865 48.7717 8.21709 48.7717 10.7388V39.2634C48.7711 41.785 47.7692 44.2031 45.9862 45.9861C44.2032 47.7691 41.7851 48.771 39.2635 48.7716Z" fill="#A81212"/>
<path d="M39.2062 48.6754H10.7892C8.27864 48.6742 5.87128 47.676 4.09644 45.9003C2.32161 44.1246 1.32458 41.7167 1.32458 39.2061V10.7938C1.32458 9.55009 1.56959 8.31856 2.04561 7.16955C2.52162 6.02054 3.21933 4.97655 4.09887 4.09722C4.97842 3.21789 6.02257 2.52044 7.17169 2.0447C8.32082 1.56896 9.55241 1.32425 10.7961 1.32455H39.213C41.7232 1.32638 44.13 2.32483 45.9044 4.10046C47.6787 5.87609 48.6754 8.28359 48.6754 10.7938V39.2107C48.6742 41.7213 47.676 44.1287 45.9003 45.9035C44.1246 47.6783 41.7168 48.6754 39.2062 48.6754Z" fill="#A91212"/>
<path d="M39.1488 48.5837H10.851C9.61214 48.5837 8.38538 48.3397 7.24082 47.8655C6.09625 47.3913 5.05631 46.6963 4.18039 45.8202C3.30446 44.944 2.60971 43.9039 2.13581 42.7593C1.66191 41.6146 1.41816 40.3878 1.41846 39.1489V10.8511C1.41846 8.34945 2.41224 5.95024 4.1812 4.18129C5.95015 2.41234 8.34936 1.41855 10.851 1.41855H39.1488C40.3877 1.41825 41.6145 1.66201 42.7592 2.1359C43.9038 2.6098 44.944 3.30455 45.8201 4.18048C46.6962 5.0564 47.3912 6.09634 47.8654 7.24091C48.3396 8.38547 48.5836 9.61223 48.5836 10.8511V39.1489C48.5839 40.388 48.3401 41.615 47.8661 42.7598C47.392 43.9046 46.6971 44.9448 45.8209 45.821C44.9447 46.6972 43.9045 47.3921 42.7597 47.8662C41.6149 48.3402 40.3879 48.584 39.1488 48.5837Z" fill="#AA1212"/>
<path d="M39.0915 48.4875H10.9084C8.41641 48.4875 6.02653 47.4975 4.26445 45.7355C2.50237 43.9734 1.51245 41.5835 1.51245 39.0915V10.9084C1.51245 8.41644 2.50237 6.02656 4.26445 4.26448C6.02653 2.50241 8.41641 1.51248 10.9084 1.51248H39.0961C41.5881 1.51248 43.9779 2.50241 45.74 4.26448C47.5021 6.02656 48.492 8.41644 48.492 10.9084V39.0961C48.4914 40.33 48.2478 41.5517 47.775 42.6914C47.3023 43.8312 46.6097 44.8666 45.7368 45.7387C44.8639 46.6108 43.8277 47.3024 42.6875 47.774C41.5473 48.2456 40.3254 48.4881 39.0915 48.4875Z" fill="#AB1212"/>
<path d="M39.0366 48.3912H10.9658C9.73682 48.3918 8.51977 48.1503 7.38416 47.6805C6.24854 47.2107 5.2166 46.5218 4.34727 45.6531C3.47794 44.7844 2.78825 43.7529 2.3176 42.6177C1.84695 41.4824 1.60455 40.2655 1.60425 39.0366V10.9657C1.60365 9.73615 1.84538 8.51854 2.31563 7.38248C2.78587 6.24641 3.47542 5.21416 4.34484 4.34474C5.21426 3.47533 6.2465 2.78578 7.38257 2.31554C8.51863 1.84529 9.73624 1.60356 10.9658 1.60416H39.0366C41.5181 1.60477 43.8977 2.59078 45.6523 4.34542C47.407 6.10005 48.393 8.47968 48.3936 10.9611V39.0366C48.393 41.5178 47.4069 43.8972 45.6522 45.6514C43.8975 47.4057 41.5179 48.3912 39.0366 48.3912Z" fill="#AC1212"/>
<path d="M38.9792 1.70267H11.0206C5.87444 1.70267 1.70264 5.87448 1.70264 11.0207V38.9792C1.70264 44.1254 5.87444 48.2972 11.0206 48.2972H38.9792C44.1254 48.2972 48.2972 44.1254 48.2972 38.9792V11.0207C48.2972 5.87448 44.1254 1.70267 38.9792 1.70267Z" fill="#AD1212"/>
<path d="M38.9219 48.2033H11.078C8.6164 48.2033 6.25566 47.2255 4.51507 45.4849C2.77448 43.7443 1.79663 41.3835 1.79663 38.922V11.078C1.79724 8.61661 2.77528 6.25623 4.51574 4.51577C6.25619 2.77532 8.61658 1.79727 11.078 1.79666H38.9219C41.3835 1.79666 43.7442 2.77451 45.4848 4.5151C47.2254 6.25569 48.2033 8.61643 48.2033 11.078V38.922C48.2033 41.3835 47.2254 43.7443 45.4848 45.4849C43.7442 47.2255 41.3835 48.2033 38.9219 48.2033Z" fill="#AE1212"/>
<path d="M38.8647 48.1093H11.1353C8.68364 48.1087 6.33257 47.1345 4.59899 45.4009C2.86542 43.6674 1.89123 41.3163 1.89062 38.8647V11.1353C1.89123 8.68361 2.86542 6.33254 4.59899 4.59896C6.33257 2.86539 8.68364 1.8912 11.1353 1.89059H38.8647C41.3163 1.8912 43.6674 2.86539 45.401 4.59896C47.1346 6.33254 48.1087 8.68361 48.1093 11.1353V38.8647C48.1093 41.3165 47.1354 43.6679 45.4016 45.4016C43.6679 47.1353 41.3165 48.1093 38.8647 48.1093Z" fill="#AF1212"/>
<path d="M38.8096 48.0131H11.1925C9.98372 48.0134 8.7867 47.7755 7.66982 47.3132C6.55295 46.8508 5.5381 46.1729 4.68324 45.3183C3.82838 44.4636 3.15026 43.4489 2.6876 42.3322C2.22495 41.2154 1.98682 40.0185 1.98682 38.8097V11.1925C1.98652 9.98355 2.22442 8.78635 2.68695 7.66932C3.14947 6.5523 3.82754 5.53735 4.68243 4.68246C5.53732 3.82758 6.55227 3.1495 7.66929 2.68698C8.78632 2.22445 9.98352 1.98655 11.1925 1.98685H38.8096C40.0184 1.98685 41.2154 2.22498 42.3321 2.68763C43.4489 3.15029 44.4636 3.82842 45.3182 4.68327C46.1729 5.53813 46.8507 6.55298 47.3131 7.66985C47.7755 8.78673 48.0133 9.98375 48.013 11.1925V38.8097C48.013 41.2506 47.0434 43.5915 45.3174 45.3175C43.5914 47.0434 41.2505 48.0131 38.8096 48.0131Z" fill="#B01212"/>
<path d="M38.7524 47.9191H11.2522C10.0484 47.9191 8.85639 47.682 7.74423 47.2214C6.63207 46.7607 5.62154 46.0855 4.77033 45.2343C3.05123 43.5152 2.08545 41.1836 2.08545 38.7524V11.2522C2.08545 8.82099 3.05123 6.48939 4.77033 4.7703C6.48942 3.0512 8.82102 2.08542 11.2522 2.08542H38.7524C39.9562 2.08542 41.1482 2.32252 42.2604 2.7832C43.3725 3.24387 44.3831 3.91908 45.2343 4.7703C46.0855 5.62151 46.7607 6.63204 47.2214 7.7442C47.6821 8.85636 47.9192 10.0484 47.9192 11.2522V38.7524C47.9192 41.1836 46.9534 43.5152 45.2343 45.2343C43.5152 46.9534 41.1836 47.9191 38.7524 47.9191Z" fill="#B01313"/>
<path d="M38.6951 47.8252H11.3049C8.88344 47.8252 6.56116 46.8632 4.84894 45.151C3.13672 43.4388 2.1748 41.1165 2.1748 38.6951V11.3049C2.1748 8.88341 3.13672 6.56113 4.84894 4.84891C6.56116 3.13669 8.88344 2.17477 11.3049 2.17477H38.6951C41.1166 2.17477 43.4388 3.13669 45.1511 4.84891C46.8633 6.56113 47.8252 8.88341 47.8252 11.3049V38.6951C47.8252 41.1165 46.8633 43.4388 45.1511 45.151C43.4388 46.8632 41.1166 47.8252 38.6951 47.8252Z" fill="#B11313"/>
<path d="M11.3621 2.27103H38.6332C39.8273 2.27103 41.0098 2.50623 42.1131 2.96322C43.2163 3.42021 44.2188 4.09002 45.0632 4.93442C45.9076 5.77883 46.5774 6.78128 47.0344 7.88454C47.4914 8.9878 47.7266 10.1703 47.7266 11.3644V38.6355C47.7266 41.0466 46.7688 43.359 45.0639 45.0639C43.3589 46.7688 41.0466 47.7266 38.6355 47.7266H11.3644C10.1705 47.7269 8.98831 47.4921 7.88521 47.0355C6.78211 46.5789 5.77975 45.9095 4.93534 45.0655C4.09094 44.2215 3.42104 43.2195 2.96389 42.1166C2.50674 41.0138 2.2713 39.8316 2.271 38.6378V11.3667C2.2704 10.1725 2.5051 8.98981 2.9617 7.8863C3.4183 6.78279 4.08785 5.78005 4.9321 4.93537C5.77635 4.0907 6.77875 3.42064 7.88204 2.96348C8.98532 2.50633 10.1679 2.27103 11.3621 2.27103Z" fill="#B21313"/>
<path d="M38.5828 2.36502H11.4194C6.41881 2.36502 2.36499 6.41884 2.36499 11.4195V38.5805C2.36499 43.5812 6.41881 47.635 11.4194 47.635H38.5828C43.5834 47.635 47.6372 43.5812 47.6372 38.5805V11.4195C47.6372 6.41884 43.5834 2.36502 38.5828 2.36502Z" fill="#B31313"/>
<path d="M11.4744 2.45895H38.5163C40.9079 2.45895 43.2016 3.40904 44.8928 5.1002C46.584 6.79136 47.5341 9.08507 47.5341 11.4767V38.5186C47.5341 40.9097 46.5842 43.2028 44.8935 44.8936C43.2028 46.5843 40.9096 47.5341 38.5186 47.5341H11.4767C9.08562 47.5341 6.79249 46.5843 5.10176 44.8936C3.41103 43.2028 2.46118 40.9097 2.46118 38.5186V11.4767C2.46088 10.2928 2.69378 9.12041 3.14657 8.02648C3.59936 6.93256 4.26319 5.93853 5.10014 5.10115C5.93709 4.26377 6.93078 3.59944 8.02448 3.14609C9.11817 2.69275 10.2905 2.45925 11.4744 2.45895Z" fill="#B41313"/>
<path d="M38.4683 2.55289H11.5318C6.57294 2.55289 2.55298 6.57284 2.55298 11.5317V38.4659C2.55298 43.4248 6.57294 47.4447 11.5318 47.4447H38.4683C43.4271 47.4447 47.4471 43.4248 47.4471 38.4659V11.5317C47.4471 6.57284 43.4271 2.55289 38.4683 2.55289Z" fill="#B51313"/>
<path d="M11.5891 2.64914H38.4018C40.7722 2.64914 43.0455 3.59077 44.7216 5.26689C46.3977 6.94301 47.3394 9.21632 47.3394 11.5867V38.3994C47.3394 40.7698 46.3977 43.0431 44.7216 44.7193C43.0455 46.3954 40.7722 47.337 38.4018 47.337H11.5891C9.21867 47.337 6.94536 46.3954 5.26924 44.7193C3.59312 43.0431 2.65149 40.7698 2.65149 38.3994V11.5867C2.65149 9.21632 3.59312 6.94301 5.26924 5.26689C6.94536 3.59077 9.21867 2.64914 11.5891 2.64914Z" fill="#B61313"/>
<path d="M38.3537 2.74313H11.6464C6.72926 2.74313 2.74316 6.72923 2.74316 11.6463V38.3536C2.74316 43.2707 6.72926 47.2568 11.6464 47.2568H38.3537C43.2708 47.2568 47.2569 43.2707 47.2569 38.3536V11.6463C47.2569 6.72923 43.2708 2.74313 38.3537 2.74313Z" fill="#B71313"/>
<path d="M11.7014 2.83707H38.2964C40.648 2.83707 42.9032 3.77122 44.566 5.43401C46.2288 7.09681 47.1629 9.35205 47.1629 11.7036V38.2872C47.1629 40.6381 46.229 42.8927 44.5667 44.5551C42.9043 46.2175 40.6496 47.1514 38.2987 47.1514H11.7014C9.35046 47.1514 7.0958 46.2175 5.43343 44.5551C3.77107 42.8927 2.83716 40.6381 2.83716 38.2872V11.7013C2.83716 9.35036 3.77107 7.09571 5.43343 5.43334C7.0958 3.77098 9.35046 2.83707 11.7014 2.83707Z" fill="#B81414"/>
<path d="M38.2392 2.93106H11.7587C6.88339 2.93106 2.93115 6.8833 2.93115 11.7586V38.2391C2.93115 43.1144 6.88339 47.0666 11.7587 47.0666H38.2392C43.1145 47.0666 47.0667 43.1144 47.0667 38.2391V11.7586C47.0667 6.8833 43.1145 2.93106 38.2392 2.93106Z" fill="#B91414"/>
<path d="M11.816 3.02731H38.1841C39.3387 3.02671 40.4822 3.25358 41.5491 3.69495C42.6161 4.13632 43.5856 4.78355 44.4024 5.59968C45.2191 6.41581 45.8671 7.38484 46.3093 8.45144C46.7515 9.51804 46.9793 10.6613 46.9796 11.8159V38.1841C46.9805 39.3394 46.7536 40.4835 46.3119 41.551C45.8702 42.6185 45.2224 43.5885 44.4055 44.4054C43.5885 45.2224 42.6186 45.8702 41.5511 46.3119C40.4835 46.7536 39.3394 46.9805 38.1841 46.9796H11.816C9.48507 46.9796 7.24965 46.0536 5.60147 44.4054C3.95328 42.7572 3.02734 40.5218 3.02734 38.1909V11.8159C3.02734 9.48504 3.95328 7.24963 5.60147 5.60144C7.24965 3.95326 9.48507 3.02731 11.816 3.02731Z" fill="#BA1414"/>
<path d="M38.1268 3.12125H11.8733C7.03972 3.12125 3.12134 7.03963 3.12134 11.8732V38.1268C3.12134 42.9603 7.03972 46.8787 11.8733 46.8787H38.1268C42.9604 46.8787 46.8788 42.9603 46.8788 38.1268V11.8732C46.8788 7.03963 42.9604 3.12125 38.1268 3.12125Z" fill="#BB1414"/>
<path d="M11.9283 3.20834H38.0695C40.3792 3.20834 42.5942 4.12583 44.2273 5.75898C45.8605 7.39212 46.778 9.60714 46.778 11.9167V38.0718C46.778 40.3814 45.8605 42.5964 44.2273 44.2295C42.5942 45.8627 40.3792 46.7802 38.0695 46.7802H11.9306C9.62097 46.7802 7.40595 45.8627 5.77281 44.2295C4.13967 42.5964 3.22218 40.3814 3.22218 38.0718V11.9282C3.22067 10.7838 3.44473 9.65038 3.88155 8.59266C4.31837 7.53493 4.95939 6.57367 5.76794 5.76384C6.5765 4.954 7.53675 4.31147 8.59378 3.87298C9.65082 3.43449 10.7839 3.20864 11.9283 3.20834Z" fill="#BC1414"/>
<path d="M38.0122 3.30917H11.9855C7.19373 3.30917 3.3092 7.1937 3.3092 11.9855V38.0122C3.3092 42.804 7.19373 46.6885 11.9855 46.6885H38.0122C42.804 46.6885 46.6885 42.804 46.6885 38.0122V11.9855C46.6885 7.1937 42.804 3.30917 38.0122 3.30917Z" fill="#BD1414"/>
<path d="M37.9596 3.40543H12.0429C7.2726 3.40543 3.40552 7.27251 3.40552 12.0428V37.9595C3.40552 42.7298 7.2726 46.5968 12.0429 46.5968H37.9596C42.7298 46.5968 46.5969 42.7298 46.5969 37.9595V12.0428C46.5969 7.27251 42.7298 3.40543 37.9596 3.40543Z" fill="#BE1414"/>
<path d="M37.8999 3.49936H12.1001C7.35005 3.49936 3.49939 7.35002 3.49939 12.1001V37.8999C3.49939 42.6499 7.35005 46.5006 12.1001 46.5006H37.8999C42.6499 46.5006 46.5006 42.6499 46.5006 37.8999V12.1001C46.5006 7.35002 42.6499 3.49936 37.8999 3.49936Z" fill="#BF1414"/>
<path d="M37.8448 46.4066H12.1573C9.88637 46.4066 7.70842 45.5047 6.10242 43.8991C4.49642 42.2935 3.59387 40.1158 3.59326 37.8449V12.1574C3.59326 9.88606 4.49554 7.70777 6.10161 6.1017C7.70768 4.49563 9.88597 3.59335 12.1573 3.59335H37.8448C40.1157 3.59396 42.2934 4.49651 43.899 6.10251C45.5046 7.70851 46.4065 9.88646 46.4065 12.1574V37.8449C46.4065 40.1156 45.5045 42.2933 43.8989 43.899C42.2932 45.5046 40.1155 46.4066 37.8448 46.4066Z" fill="#C01515"/>
<path d="M37.7877 3.68961H12.2148C7.5065 3.68961 3.6897 7.50641 3.6897 12.2147V37.7876C3.6897 42.4959 7.5065 46.3127 12.2148 46.3127H37.7877C42.496 46.3127 46.3128 42.4959 46.3128 37.7876V12.2147C46.3128 7.50641 42.496 3.68961 37.7877 3.68961Z" fill="#C11515"/>
<path d="M37.7326 3.78354H12.2697C7.58293 3.78354 3.78357 7.5829 3.78357 12.2697V37.7303C3.78357 42.417 7.58293 46.2164 12.2697 46.2164H37.7326C42.4194 46.2164 46.2187 42.417 46.2187 37.7303V12.2697C46.2187 7.5829 42.4194 3.78354 37.7326 3.78354Z" fill="#C21515"/>
<path d="M12.3269 3.87747H37.6729C39.9139 3.87747 42.063 4.76768 43.6476 6.35226C45.2322 7.93684 46.1224 10.086 46.1224 12.3269V37.673C46.1224 39.9139 45.2322 42.063 43.6476 43.6476C42.063 45.2322 39.9139 46.1224 37.6729 46.1224H12.3269C11.2174 46.1227 10.1187 45.9044 9.0936 45.4801C8.06848 45.0557 7.137 44.4335 6.35237 43.6491C5.56773 42.8647 4.94531 41.9334 4.52066 40.9084C4.09601 39.8834 3.87744 38.7847 3.87744 37.6753V12.3269C3.87744 10.086 4.76765 7.93684 6.35223 6.35226C7.93681 4.76768 10.086 3.87747 12.3269 3.87747Z" fill="#C31515"/>
<path d="M37.6157 3.97147H12.3819C7.73694 3.97147 3.97144 7.73697 3.97144 12.382V37.6157C3.97144 42.2607 7.73694 46.0262 12.3819 46.0262H37.6157C42.2607 46.0262 46.0262 42.2607 46.0262 37.6157V12.382C46.0262 7.73697 42.2607 3.97147 37.6157 3.97147Z" fill="#C41515"/>
<path style="mix-blend-mode:screen" d="M10.0009 0H40.0014C42.6532 0 45.1964 1.05342 47.0715 2.92853C48.9466 4.80364 50 7.34682 50 9.99863V40.0014C50 42.6532 48.9466 45.1964 47.0715 47.0715C45.1964 48.9466 42.6532 50 40.0014 50H10.0009C7.34851 50 4.80474 48.9463 2.9292 47.0708C1.05367 45.1953 0 42.6515 0 39.9991L0 10.0009C0 7.34851 1.05367 4.80474 2.9292 2.9292C4.80474 1.05367 7.34851 0 10.0009 0V0Z" fill="url(#paint0_linear_91_6101)"/>
<path style="mix-blend-mode:soft-light" d="M37.6157 3.97147H12.3819C7.73694 3.97147 3.97144 7.73697 3.97144 12.382V37.6157C3.97144 42.2607 7.73694 46.0262 12.3819 46.0262H37.6157C42.2607 46.0262 46.0262 42.2607 46.0262 37.6157V12.382C46.0262 7.73697 42.2607 3.97147 37.6157 3.97147Z" fill="url(#paint1_linear_91_6101)"/>
<path d="M18.3334 12.9801C18.3334 13.9692 18.0401 14.9361 17.4905 15.7584C16.941 16.5808 16.1599 17.2217 15.246 17.6001C14.3322 17.9785 13.3267 18.0774 12.3566 17.8843C11.3865 17.6912 10.4955 17.2147 9.79631 16.5152C9.09708 15.8156 8.62101 14.9244 8.42832 13.9542C8.23564 12.9841 8.33499 11.9786 8.71382 11.0649C9.09264 10.1512 9.73392 9.37044 10.5565 8.82126C11.3792 8.27208 12.3462 7.97919 13.3353 7.97965C14.6611 7.98025 15.9324 8.50735 16.8696 9.44506C17.8069 10.3828 18.3334 11.6543 18.3334 12.9801Z" fill="url(#paint2_radial_91_6101)"/>
<path d="M18.3334 24.647C18.3334 25.6361 18.0401 26.603 17.4905 27.4254C16.941 28.2477 16.1599 28.8887 15.246 29.2671C14.3322 29.6455 13.3267 29.7444 12.3566 29.5512C11.3865 29.3581 10.4955 28.8816 9.79631 28.1821C9.09708 27.4825 8.62101 26.5913 8.42832 25.6212C8.23564 24.651 8.33499 23.6455 8.71382 22.7319C9.09264 21.8182 9.73392 21.0374 10.5565 20.4882C11.3792 19.939 12.3462 19.6461 13.3353 19.6466C13.9918 19.6466 14.642 19.7759 15.2485 20.0273C15.8551 20.2786 16.4062 20.6469 16.8703 21.1113C17.3345 21.5757 17.7026 22.1269 17.9536 22.7336C18.2047 23.3403 18.3337 23.9905 18.3334 24.647Z" fill="url(#paint3_radial_91_6101)"/>
<path d="M18.3334 36.3117C18.3339 37.3009 18.0409 38.268 17.4917 39.0907C16.9424 39.9134 16.1614 40.5547 15.2476 40.9334C14.3338 41.3122 13.3282 41.4114 12.358 41.2185C11.3878 41.0256 10.4966 40.5493 9.79712 39.8499C9.09766 39.1504 8.62136 38.2592 8.42849 37.289C8.23562 36.3188 8.33484 35.3132 8.7136 34.3994C9.09235 33.4856 9.73363 32.7046 10.5563 32.1553C11.379 31.6061 12.3461 31.3131 13.3353 31.3136C14.6609 31.3136 15.9322 31.8402 16.8695 32.7775C17.8068 33.7148 18.3334 34.9861 18.3334 36.3117Z" fill="url(#paint4_radial_91_6101)"/>
<path d="M41.6674 12.9801C41.6674 13.9691 41.3742 14.9359 40.8247 15.7582C40.2752 16.5805 39.4943 17.2215 38.5806 17.5999C37.6668 17.9784 36.6614 18.0774 35.6914 17.8845C34.7214 17.6915 33.8304 17.2153 33.1311 16.516C32.4318 15.8166 31.9555 14.9256 31.7626 13.9556C31.5696 12.9857 31.6687 11.9802 32.0471 11.0665C32.4256 10.1528 33.0665 9.37183 33.8889 8.82237C34.7112 8.27292 35.678 7.97964 36.667 7.97964C37.9932 7.97964 39.2651 8.50648 40.2028 9.44425C41.1406 10.382 41.6674 11.6539 41.6674 12.9801Z" fill="url(#paint5_radial_91_6101)"/>
<path d="M41.6674 24.647C41.6674 25.636 41.3742 26.6028 40.8247 27.4251C40.2752 28.2475 39.4943 28.8884 38.5806 29.2669C37.6668 29.6453 36.6614 29.7444 35.6914 29.5514C34.7214 29.3585 33.8304 28.8822 33.1311 28.1829C32.4318 27.4836 31.9555 26.5926 31.7626 25.6226C31.5696 24.6526 31.6687 23.6472 32.0471 22.7334C32.4256 21.8197 33.0665 21.0388 33.8889 20.4893C34.7112 19.9398 35.678 19.6466 36.667 19.6466C37.3237 19.6463 37.9741 19.7754 38.5809 20.0266C39.1877 20.2778 39.7391 20.6461 40.2035 21.1105C40.6679 21.5749 41.0362 22.1263 41.2874 22.7331C41.5386 23.3399 41.6677 23.9903 41.6674 24.647Z" fill="url(#paint6_radial_91_6101)"/>
<path d="M41.6674 36.3117C41.6679 37.3008 41.375 38.2678 40.8258 39.0905C40.2766 39.9131 39.4958 40.5544 38.5821 40.9332C37.6685 41.312 36.663 41.4114 35.6928 41.2187C34.7227 41.026 33.8315 40.5499 33.1319 39.8507C32.4324 39.1515 31.9559 38.2605 31.7628 37.2904C31.5696 36.3204 31.6685 35.3148 32.0469 34.401C32.4253 33.4871 33.0662 32.706 33.8886 32.1565C34.711 31.6069 35.6779 31.3136 36.667 31.3136C37.3235 31.3133 37.9737 31.4423 38.5804 31.6934C39.1871 31.9444 39.7383 32.3125 40.2027 32.7767C40.667 33.2408 41.0354 33.7919 41.2867 34.3985C41.5381 35.005 41.6674 35.6552 41.6674 36.3117Z" fill="url(#paint7_radial_91_6101)"/>
<defs>
<linearGradient id="paint0_linear_91_6101" x1="50.0917" y1="25" x2="0.485839" y2="25" gradientUnits="userSpaceOnUse">
<stop offset="0.04" stop-color="#380404"/>
<stop offset="1"/>
</linearGradient>
<linearGradient id="paint1_linear_91_6101" x1="3.64831" y1="25" x2="46.1064" y2="25" gradientUnits="userSpaceOnUse">
<stop stop-color="#8F0F0F"/>
<stop offset="1"/>
</linearGradient>
<radialGradient id="paint2_radial_91_6101" cx="0" cy="0" r="1" gradientUnits="userSpaceOnUse" gradientTransform="translate(13.333 12.9801) scale(5.00046)">
<stop stop-color="#F0F0F0"/>
<stop offset="1" stop-color="#E3E3E3"/>
</radialGradient>
<radialGradient id="paint3_radial_91_6101" cx="0" cy="0" r="1" gradientUnits="userSpaceOnUse" gradientTransform="translate(13.333 24.647) scale(5.00046 5.00046)">
<stop stop-color="#F0F0F0"/>
<stop offset="1" stop-color="#E3E3E3"/>
</radialGradient>
<radialGradient id="paint4_radial_91_6101" cx="0" cy="0" r="1" gradientUnits="userSpaceOnUse" gradientTransform="translate(13.333 36.314) scale(5.00046)">
<stop stop-color="#F0F0F0"/>
<stop offset="1" stop-color="#E3E3E3"/>
</radialGradient>
<radialGradient id="paint5_radial_91_6101" cx="0" cy="0" r="1" gradientUnits="userSpaceOnUse" gradientTransform="translate(36.667 12.9801) scale(5.00046 5.00046)">
<stop stop-color="#F0F0F0"/>
<stop offset="1" stop-color="#E3E3E3"/>
</radialGradient>
<radialGradient id="paint6_radial_91_6101" cx="0" cy="0" r="1" gradientUnits="userSpaceOnUse" gradientTransform="translate(36.667 24.647) scale(5.00046 5.00046)">
<stop stop-color="#F0F0F0"/>
<stop offset="1" stop-color="#E3E3E3"/>
</radialGradient>
<radialGradient id="paint7_radial_91_6101" cx="0" cy="0" r="1" gradientUnits="userSpaceOnUse" gradientTransform="translate(36.667 36.314) scale(5.00046)">
<stop stop-color="#F0F0F0"/>
<stop offset="1" stop-color="#E3E3E3"/>
</radialGradient>
</defs>
</svg>
