<svg width="252" height="252" viewBox="0 0 252 252" fill="none" xmlns="http://www.w3.org/2000/svg">
<g clip-path="url(#clip0_46_7)">
<path d="M16.39 254.02L243.44 254.02C250.067 254.02 255.44 248.647 255.44 242.02L255.44 14.97C255.44 8.34261 250.067 2.97002 243.44 2.97002L16.39 2.97002C9.76254 2.97002 4.38995 8.34261 4.38995 14.97L4.38995 242.02C4.38995 248.647 9.76254 254.02 16.39 254.02Z" fill="url(#paint0_linear_46_7)"/>
<path d="M210.639 212.105C256.018 166.726 256.018 93.1526 210.639 47.7737C165.26 2.39473 91.6866 2.39472 46.3077 47.7736C0.928726 93.1526 0.928731 166.726 46.3077 212.105C91.6866 257.484 165.26 257.484 210.639 212.105Z" fill="url(#paint1_linear_46_7)"/>
<path d="M183.5 203.621C192.388 194.732 192.388 180.322 183.5 171.433C174.612 162.545 160.201 162.545 151.312 171.433C142.424 180.322 142.424 194.732 151.313 203.621C160.201 212.509 174.612 212.509 183.5 203.621Z" fill="url(#paint2_radial_46_7)"/>
<path style="mix-blend-mode:screen" opacity="0.5" d="M148 193.62C143.93 189.55 146.33 180.54 153.36 173.51C160.39 166.48 169.36 164.07 173.48 168.14C177.6 172.21 175.15 181.22 168.11 188.25C161.07 195.28 152.1 197.69 148 193.62Z" fill="url(#paint3_radial_46_7)"/>
<path d="M115.797 191.819C118.174 179.476 110.095 167.543 97.7517 165.166C85.4085 162.789 73.4754 170.868 71.0985 183.211C68.7216 195.555 76.8008 207.488 89.1441 209.865C101.487 212.241 113.42 204.162 115.797 191.819Z" fill="url(#paint4_radial_46_7)"/>
<path style="mix-blend-mode:screen" opacity="0.5" d="M74.0699 193.62C69.9999 189.55 72.3999 180.54 79.4399 173.51C86.4799 166.48 95.4399 164.07 99.5499 168.14C103.66 172.21 101.22 181.22 94.1899 188.25C87.1599 195.28 78.1499 197.69 74.0699 193.62Z" fill="url(#paint5_radial_46_7)"/>
<path d="M189.548 133.007C192.435 120.773 184.858 108.515 172.625 105.627C160.391 102.74 148.132 110.317 145.245 122.551C142.358 134.784 149.934 147.043 162.168 149.93C174.402 152.818 186.66 145.241 189.548 133.007Z" fill="url(#paint6_radial_46_7)"/>
<path style="mix-blend-mode:screen" opacity="0.5" d="M148 133.89C143.93 129.81 146.33 120.81 153.36 113.77C160.39 106.73 169.36 104.34 173.48 108.41C177.6 112.48 175.15 121.49 168.11 128.52C161.07 135.55 152.1 138 148 133.89Z" fill="url(#paint7_radial_46_7)"/>
<path d="M105.999 146.64C116.683 139.978 119.944 125.916 113.282 115.232C106.62 104.547 92.5576 101.286 81.8731 107.948C71.1886 114.611 67.9278 128.673 74.5899 139.357C81.252 150.042 95.3142 153.303 105.999 146.64Z" fill="url(#paint8_radial_46_7)"/>
<path style="mix-blend-mode:screen" opacity="0.5" d="M94.1849 128.527C101.218 121.494 103.618 112.49 99.5448 108.417C95.4716 104.344 86.468 106.744 79.4347 113.777C72.4014 120.81 70.0017 129.814 74.0748 133.887C78.148 137.96 87.1516 135.561 94.1849 128.527Z" fill="url(#paint9_radial_46_7)"/>
<path d="M183.492 84.1427C192.38 75.2544 192.38 60.8435 183.492 51.9552C174.604 43.0669 160.193 43.0669 151.304 51.9552C142.416 60.8435 142.416 75.2544 151.304 84.1427C160.193 93.031 174.604 93.031 183.492 84.1427Z" fill="url(#paint10_radial_46_7)"/>
<path style="mix-blend-mode:screen" opacity="0.5" d="M148 74.15C144 70.08 146.36 61.07 153.39 54C160.42 46.93 169.39 44.56 173.51 48.64C177.63 52.72 175.18 61.71 168.14 68.75C161.1 75.79 152.1 78.23 148 74.15Z" fill="url(#paint11_radial_46_7)"/>
<path d="M115.793 72.3577C118.17 60.0145 110.09 48.0815 97.747 45.7045C85.4038 43.3276 73.4708 51.4069 71.0939 63.7501C68.7169 76.0933 76.7962 88.0264 89.1394 90.4033C101.483 92.7802 113.416 84.701 115.793 72.3577Z" fill="url(#paint12_radial_46_7)"/>
<path style="mix-blend-mode:screen" opacity="0.5" d="M74.0699 74.15C69.9999 70.08 72.3999 61.07 79.4399 54C86.4799 46.93 95.4399 44.56 99.5499 48.64C103.66 52.72 101.22 61.71 94.1899 68.75C87.1599 75.79 78.1499 78.23 74.0699 74.15Z" fill="url(#paint13_radial_46_7)"/>
<g style="mix-blend-mode:screen">
<path d="M23.9401 133.05C28.4901 135.11 33.2501 129.5 36.0701 125.38C38.8901 121.26 40.7901 116.52 44.0001 112.7C49.6301 106.02 58.3901 103.09 66.3801 99.57C69.8301 98.06 73.7801 95.41 73.3101 91.67C73.0701 89.67 71.6001 88.13 70.3101 86.57C60.0001 73.64 63.4401 52 77.3201 43C87.7701 36.19 101.39 36.5 112.62 31.09C114.47 30.2 116.4 28.96 116.94 26.98C117.61 24.48 115.62 21.88 113.19 20.98C110.76 20.08 108.07 20.49 105.53 20.98C83.2601 25.38 62.6701 37.28 47.0801 53.79C31.4901 70.3 23.7401 91.29 18.8101 113.45C18.8101 113.45 14.8201 128.9 23.9401 133.05Z" fill="url(#paint14_linear_46_7)"/>
</g>
<path d="M106.665 146.109C116.863 138.76 119.172 124.535 111.822 114.338C104.473 104.14 90.2483 101.831 80.0506 109.181C69.853 116.53 67.544 130.755 74.8934 140.952C82.2427 151.15 96.4674 153.459 106.665 146.109Z" fill="url(#paint15_radial_46_7)"/>
<path style="mix-blend-mode:screen" opacity="0.5" d="M74.0001 133.74C69.9301 129.67 72.3301 120.66 79.3701 113.63C86.4101 106.6 95.3701 104.19 99.4801 108.26C103.59 112.33 101.15 121.34 94.1201 128.38C87.0901 135.42 78.0601 137.81 74.0001 133.74Z" fill="url(#paint16_radial_46_7)"/>
<path d="M180.744 146.117C190.941 138.767 193.25 124.543 185.901 114.345C178.552 104.148 164.327 101.839 154.129 109.188C143.932 116.537 141.623 130.762 148.972 140.96C156.321 151.157 170.546 153.466 180.744 146.117Z" fill="url(#paint17_radial_46_7)"/>
<path style="mix-blend-mode:screen" opacity="0.5" d="M148.06 133.74C143.99 129.67 146.39 120.66 153.43 113.63C160.47 106.6 169.43 104.19 173.54 108.26C177.65 112.33 175.21 121.34 168.18 128.38C161.15 135.42 152.14 137.81 148.06 133.74Z" fill="url(#paint18_radial_46_7)"/>
<path d="M106.665 205.988C116.863 198.639 119.172 184.414 111.823 174.217C104.473 164.019 90.2485 161.71 80.0509 169.059C69.8532 176.409 67.5443 190.633 74.8936 200.831C82.243 211.029 96.4676 213.338 106.665 205.988Z" fill="url(#paint19_radial_46_7)"/>
<path style="mix-blend-mode:screen" opacity="0.5" d="M74.0001 193.62C69.9301 189.55 72.3301 180.54 79.3701 173.51C86.4101 166.48 95.3701 164.07 99.4801 168.14C103.59 172.21 101.15 181.22 94.1201 188.25C87.0901 195.28 78.0601 197.69 74.0001 193.62Z" fill="url(#paint20_radial_46_7)"/>
<path d="M180.744 205.996C190.942 198.646 193.251 184.421 185.901 174.224C178.552 164.026 164.327 161.717 154.13 169.067C143.932 176.416 141.623 190.641 148.972 200.838C156.322 211.036 170.546 213.345 180.744 205.996Z" fill="url(#paint21_radial_46_7)"/>
<path style="mix-blend-mode:screen" opacity="0.5" d="M148.06 193.62C143.99 189.55 146.39 180.54 153.43 173.51C160.47 166.48 169.43 164.07 173.54 168.14C177.65 172.21 175.21 181.22 168.18 188.25C161.15 195.28 152.14 197.69 148.06 193.62Z" fill="url(#paint22_radial_46_7)"/>
<path d="M106.664 86.516C116.862 79.1667 119.171 64.942 111.822 54.7444C104.472 44.5468 90.2475 42.2378 80.0499 49.5871C69.8523 56.9365 67.5433 71.1611 74.8926 81.3588C82.242 91.5564 96.4667 93.8654 106.664 86.516Z" fill="url(#paint23_radial_46_7)"/>
<path style="mix-blend-mode:screen" opacity="0.5" d="M73.9999 74.15C69.9099 70.08 72.3099 61.07 79.3499 54C86.3899 46.93 95.3499 44.56 99.4599 48.64C103.57 52.72 101.13 61.71 94.0999 68.75C87.0699 75.79 78.0599 78.23 73.9999 74.15Z" fill="url(#paint24_radial_46_7)"/>
<path d="M180.753 86.5233C190.951 79.174 193.26 64.9493 185.91 54.7517C178.561 44.554 164.336 42.2451 154.139 49.5944C143.941 56.9438 141.632 71.1684 148.981 81.3661C156.331 91.5637 170.555 93.8727 180.753 86.5233Z" fill="url(#paint25_radial_46_7)"/>
<path style="mix-blend-mode:screen" opacity="0.5" d="M148.06 74.15C144 70.08 146.39 61.07 153.43 54C160.47 46.93 169.43 44.56 173.54 48.64C177.65 52.72 175.21 61.71 168.18 68.75C161.15 75.79 152.14 78.23 148.06 74.15Z" fill="url(#paint26_radial_46_7)"/>
</g>
<defs>
<linearGradient id="paint0_linear_46_7" x1="7.89994" y1="6.49001" x2="251.92" y2="250.51" gradientUnits="userSpaceOnUse">
<stop stop-color="#C0272D"/>
<stop offset="0.04" stop-color="#C52A30"/>
<stop offset="0.26" stop-color="#DF3A41"/>
<stop offset="0.49" stop-color="#F1464D"/>
<stop offset="0.73" stop-color="#FB4D54"/>
<stop offset="1" stop-color="#FF4F56"/>
</linearGradient>
<linearGradient id="paint1_linear_46_7" x1="210.635" y1="212.103" x2="46.3048" y2="47.7734" gradientUnits="userSpaceOnUse">
<stop stop-color="#C0272D"/>
<stop offset="0.04" stop-color="#C52A30"/>
<stop offset="0.26" stop-color="#DF3A41"/>
<stop offset="0.49" stop-color="#F1464D"/>
<stop offset="0.73" stop-color="#FB4D54"/>
<stop offset="1" stop-color="#FF4F56"/>
</linearGradient>
<radialGradient id="paint2_radial_46_7" cx="0" cy="0" r="1" gradientUnits="userSpaceOnUse" gradientTransform="translate(160.301 174.981) rotate(180) scale(30.48)">
<stop stop-color="#FF4F56"/>
<stop offset="0.27" stop-color="#FB4D54"/>
<stop offset="0.51" stop-color="#F1464D"/>
<stop offset="0.74" stop-color="#DF3A41"/>
<stop offset="0.96" stop-color="#C52A30"/>
<stop offset="1" stop-color="#C0272D"/>
</radialGradient>
<radialGradient id="paint3_radial_46_7" cx="0" cy="0" r="1" gradientUnits="userSpaceOnUse" gradientTransform="translate(172.167 184.06) rotate(135) scale(18.0472 10.4833)">
<stop stop-color="#E6E6E5"/>
<stop offset="0.11" stop-color="#B2B2B1"/>
<stop offset="0.22" stop-color="#838383"/>
<stop offset="0.34" stop-color="#5B5B5A"/>
<stop offset="0.46" stop-color="#3A3A3A"/>
<stop offset="0.59" stop-color="#202020"/>
<stop offset="0.71" stop-color="#0E0E0E"/>
<stop offset="0.85" stop-color="#040403"/>
<stop offset="1"/>
</radialGradient>
<radialGradient id="paint4_radial_46_7" cx="0" cy="0" r="1" gradientUnits="userSpaceOnUse" gradientTransform="translate(86.3447 174.998) rotate(-180) scale(30.48 30.48)">
<stop stop-color="#FF4F56"/>
<stop offset="0.27" stop-color="#FB4D54"/>
<stop offset="0.51" stop-color="#F1464D"/>
<stop offset="0.74" stop-color="#DF3A41"/>
<stop offset="0.96" stop-color="#C52A30"/>
<stop offset="1" stop-color="#C0272D"/>
</radialGradient>
<radialGradient id="paint5_radial_46_7" cx="0" cy="0" r="1" gradientUnits="userSpaceOnUse" gradientTransform="translate(97.938 183.937) rotate(135) scale(18.0472 10.4833)">
<stop stop-color="#E6E6E5"/>
<stop offset="0.11" stop-color="#B2B2B1"/>
<stop offset="0.22" stop-color="#838383"/>
<stop offset="0.34" stop-color="#5B5B5A"/>
<stop offset="0.46" stop-color="#3A3A3A"/>
<stop offset="0.59" stop-color="#202020"/>
<stop offset="0.71" stop-color="#0E0E0E"/>
<stop offset="0.85" stop-color="#040403"/>
<stop offset="1"/>
</radialGradient>
<radialGradient id="paint6_radial_46_7" cx="0" cy="0" r="1" gradientUnits="userSpaceOnUse" gradientTransform="translate(160.291 115.312) rotate(180) scale(30.48 30.48)">
<stop stop-color="#FF4F56"/>
<stop offset="0.27" stop-color="#FB4D54"/>
<stop offset="0.51" stop-color="#F1464D"/>
<stop offset="0.74" stop-color="#DF3A41"/>
<stop offset="0.96" stop-color="#C52A30"/>
<stop offset="1" stop-color="#C0272D"/>
</radialGradient>
<radialGradient id="paint7_radial_46_7" cx="0" cy="0" r="1" gradientUnits="userSpaceOnUse" gradientTransform="translate(172.068 124.108) rotate(135) scale(18.0472 10.4833)">
<stop stop-color="#E6E6E5"/>
<stop offset="0.11" stop-color="#B2B2B1"/>
<stop offset="0.22" stop-color="#838383"/>
<stop offset="0.34" stop-color="#5B5B5A"/>
<stop offset="0.46" stop-color="#3A3A3A"/>
<stop offset="0.59" stop-color="#202020"/>
<stop offset="0.71" stop-color="#0E0E0E"/>
<stop offset="0.85" stop-color="#040403"/>
<stop offset="1"/>
</radialGradient>
<radialGradient id="paint8_radial_46_7" cx="0" cy="0" r="1" gradientUnits="userSpaceOnUse" gradientTransform="translate(86.7672 114.832) rotate(179.775) scale(30.5318)">
<stop stop-color="#FF4F56"/>
<stop offset="0.27" stop-color="#FB4D54"/>
<stop offset="0.51" stop-color="#F1464D"/>
<stop offset="0.74" stop-color="#DF3A41"/>
<stop offset="0.96" stop-color="#C52A30"/>
<stop offset="1" stop-color="#C0272D"/>
</radialGradient>
<radialGradient id="paint9_radial_46_7" cx="0" cy="0" r="1" gradientUnits="userSpaceOnUse" gradientTransform="translate(97.834 123.972) rotate(135) scale(18.0472 10.4833)">
<stop stop-color="#E6E6E5"/>
<stop offset="0.11" stop-color="#B2B2B1"/>
<stop offset="0.22" stop-color="#838383"/>
<stop offset="0.34" stop-color="#5B5B5A"/>
<stop offset="0.46" stop-color="#3A3A3A"/>
<stop offset="0.59" stop-color="#202020"/>
<stop offset="0.71" stop-color="#0E0E0E"/>
<stop offset="0.85" stop-color="#040403"/>
<stop offset="1"/>
</radialGradient>
<radialGradient id="paint10_radial_46_7" cx="0" cy="0" r="1" gradientUnits="userSpaceOnUse" gradientTransform="translate(160.3 55.4989) rotate(180) scale(30.48)">
<stop stop-color="#FF4F56"/>
<stop offset="0.27" stop-color="#FB4D54"/>
<stop offset="0.51" stop-color="#F1464D"/>
<stop offset="0.74" stop-color="#DF3A41"/>
<stop offset="0.96" stop-color="#C52A30"/>
<stop offset="1" stop-color="#C0272D"/>
</radialGradient>
<radialGradient id="paint11_radial_46_7" cx="0" cy="0" r="1" gradientUnits="userSpaceOnUse" gradientTransform="translate(171.974 64.14) rotate(135) scale(18.0472 10.4833)">
<stop stop-color="#E6E6E5"/>
<stop offset="0.11" stop-color="#B2B2B1"/>
<stop offset="0.22" stop-color="#838383"/>
<stop offset="0.34" stop-color="#5B5B5A"/>
<stop offset="0.46" stop-color="#3A3A3A"/>
<stop offset="0.59" stop-color="#202020"/>
<stop offset="0.71" stop-color="#0E0E0E"/>
<stop offset="0.85" stop-color="#040403"/>
<stop offset="1"/>
</radialGradient>
<radialGradient id="paint12_radial_46_7" cx="0" cy="0" r="1" gradientUnits="userSpaceOnUse" gradientTransform="translate(86.3397 55.5317) rotate(-180) scale(30.48)">
<stop stop-color="#FF4F56"/>
<stop offset="0.27" stop-color="#FB4D54"/>
<stop offset="0.51" stop-color="#F1464D"/>
<stop offset="0.74" stop-color="#DF3A41"/>
<stop offset="0.96" stop-color="#C52A30"/>
<stop offset="1" stop-color="#C0272D"/>
</radialGradient>
<radialGradient id="paint13_radial_46_7" cx="0" cy="0" r="1" gradientUnits="userSpaceOnUse" gradientTransform="translate(97.7354 64.0268) rotate(135) scale(18.0472 10.4833)">
<stop stop-color="#E6E6E5"/>
<stop offset="0.11" stop-color="#B2B2B1"/>
<stop offset="0.22" stop-color="#838383"/>
<stop offset="0.34" stop-color="#5B5B5A"/>
<stop offset="0.46" stop-color="#3A3A3A"/>
<stop offset="0.59" stop-color="#202020"/>
<stop offset="0.71" stop-color="#0E0E0E"/>
<stop offset="0.85" stop-color="#040403"/>
<stop offset="1"/>
</radialGradient>
<linearGradient id="paint14_linear_46_7" x1="67.5001" y1="20.43" x2="67.5001" y2="133.49" gradientUnits="userSpaceOnUse">
<stop/>
<stop offset="0.04" stop-color="#161616"/>
<stop offset="0.07" stop-color="#262626"/>
<stop offset="0.12" stop-color="#303030"/>
<stop offset="0.18" stop-color="#333333"/>
<stop offset="1"/>
</linearGradient>
<radialGradient id="paint15_radial_46_7" cx="0" cy="0" r="1" gradientUnits="userSpaceOnUse" gradientTransform="translate(80.9699 109.28) rotate(179.825) scale(30.3655 30.3655)">
<stop stop-color="#FFFFFD"/>
<stop offset="0.16" stop-color="#FEFBFA"/>
<stop offset="0.29" stop-color="#FBF1EF"/>
<stop offset="0.43" stop-color="#F6DFDE"/>
<stop offset="0.55" stop-color="#EEC5C5"/>
<stop offset="0.68" stop-color="#E4A4A6"/>
<stop offset="0.8" stop-color="#D97C7F"/>
<stop offset="0.92" stop-color="#CB4D52"/>
<stop offset="1" stop-color="#C0272D"/>
</radialGradient>
<radialGradient id="paint16_radial_46_7" cx="0" cy="0" r="1" gradientUnits="userSpaceOnUse" gradientTransform="translate(97.7456 123.833) rotate(135) scale(18.0472 10.4833)">
<stop stop-color="#9A1B1F"/>
<stop offset="0.07" stop-color="#82171A"/>
<stop offset="0.21" stop-color="#5B1012"/>
<stop offset="0.36" stop-color="#3A0A0C"/>
<stop offset="0.5" stop-color="#200607"/>
<stop offset="0.66" stop-color="#0E0303"/>
<stop offset="0.82" stop-color="#040101"/>
<stop offset="1"/>
</radialGradient>
<radialGradient id="paint17_radial_46_7" cx="0" cy="0" r="1" gradientUnits="userSpaceOnUse" gradientTransform="translate(160.343 115.033) rotate(180) scale(30.48 30.48)">
<stop stop-color="#FFFFFD"/>
<stop offset="0.16" stop-color="#FEFBFA"/>
<stop offset="0.29" stop-color="#FBF1EF"/>
<stop offset="0.43" stop-color="#F6DFDE"/>
<stop offset="0.55" stop-color="#EEC5C5"/>
<stop offset="0.68" stop-color="#E4A4A6"/>
<stop offset="0.8" stop-color="#D97C7F"/>
<stop offset="0.92" stop-color="#CB4D52"/>
<stop offset="1" stop-color="#C0272D"/>
</radialGradient>
<radialGradient id="paint18_radial_46_7" cx="0" cy="0" r="1" gradientUnits="userSpaceOnUse" gradientTransform="translate(172.103 123.95) rotate(135) scale(18.0472 10.4833)">
<stop stop-color="#9A1B1F"/>
<stop offset="0.07" stop-color="#82171A"/>
<stop offset="0.21" stop-color="#5B1012"/>
<stop offset="0.36" stop-color="#3A0A0C"/>
<stop offset="0.5" stop-color="#200607"/>
<stop offset="0.66" stop-color="#0E0303"/>
<stop offset="0.82" stop-color="#040101"/>
<stop offset="1"/>
</radialGradient>
<radialGradient id="paint19_radial_46_7" cx="0" cy="0" r="1" gradientUnits="userSpaceOnUse" gradientTransform="translate(81.1518 168.932) rotate(179.825) scale(30.3655)">
<stop stop-color="#FFFFFD"/>
<stop offset="0.16" stop-color="#FEFBFA"/>
<stop offset="0.29" stop-color="#FBF1EF"/>
<stop offset="0.43" stop-color="#F6DFDE"/>
<stop offset="0.55" stop-color="#EEC5C5"/>
<stop offset="0.68" stop-color="#E4A4A6"/>
<stop offset="0.8" stop-color="#D97C7F"/>
<stop offset="0.92" stop-color="#CB4D52"/>
<stop offset="1" stop-color="#C0272D"/>
</radialGradient>
<radialGradient id="paint20_radial_46_7" cx="0" cy="0" r="1" gradientUnits="userSpaceOnUse" gradientTransform="translate(97.8454 183.941) rotate(135) scale(18.0472 10.4833)">
<stop stop-color="#9A1B1F"/>
<stop offset="0.07" stop-color="#82171A"/>
<stop offset="0.21" stop-color="#5B1012"/>
<stop offset="0.36" stop-color="#3A0A0C"/>
<stop offset="0.5" stop-color="#200607"/>
<stop offset="0.66" stop-color="#0E0303"/>
<stop offset="0.82" stop-color="#040101"/>
<stop offset="1"/>
</radialGradient>
<radialGradient id="paint21_radial_46_7" cx="0" cy="0" r="1" gradientUnits="userSpaceOnUse" gradientTransform="translate(160.348 174.919) rotate(-180) scale(30.48)">
<stop stop-color="#FFFFFD"/>
<stop offset="0.16" stop-color="#FEFBFA"/>
<stop offset="0.29" stop-color="#FBF1EF"/>
<stop offset="0.43" stop-color="#F6DFDE"/>
<stop offset="0.55" stop-color="#EEC5C5"/>
<stop offset="0.68" stop-color="#E4A4A6"/>
<stop offset="0.8" stop-color="#D97C7F"/>
<stop offset="0.92" stop-color="#CB4D52"/>
<stop offset="1" stop-color="#C0272D"/>
</radialGradient>
<radialGradient id="paint22_radial_46_7" cx="0" cy="0" r="1" gradientUnits="userSpaceOnUse" gradientTransform="translate(172.203 184.058) rotate(135) scale(18.0472 10.4833)">
<stop stop-color="#9A1B1F"/>
<stop offset="0.07" stop-color="#82171A"/>
<stop offset="0.21" stop-color="#5B1012"/>
<stop offset="0.36" stop-color="#3A0A0C"/>
<stop offset="0.5" stop-color="#200607"/>
<stop offset="0.66" stop-color="#0E0303"/>
<stop offset="0.82" stop-color="#040101"/>
<stop offset="1"/>
</radialGradient>
<radialGradient id="paint23_radial_46_7" cx="0" cy="0" r="1" gradientUnits="userSpaceOnUse" gradientTransform="translate(80.786 49.9072) rotate(179.825) scale(30.3655 30.3655)">
<stop stop-color="#FFFFFD"/>
<stop offset="0.16" stop-color="#FEFBFA"/>
<stop offset="0.29" stop-color="#FBF1EF"/>
<stop offset="0.43" stop-color="#F6DFDE"/>
<stop offset="0.55" stop-color="#EEC5C5"/>
<stop offset="0.68" stop-color="#E4A4A6"/>
<stop offset="0.8" stop-color="#D97C7F"/>
<stop offset="0.92" stop-color="#CB4D52"/>
<stop offset="1" stop-color="#C0272D"/>
</radialGradient>
<radialGradient id="paint24_radial_46_7" cx="0" cy="0" r="1" gradientUnits="userSpaceOnUse" gradientTransform="translate(97.6467 64.015) rotate(135) scale(18.0472 10.4833)">
<stop stop-color="#9A1B1F"/>
<stop offset="0.07" stop-color="#82171A"/>
<stop offset="0.21" stop-color="#5B1012"/>
<stop offset="0.36" stop-color="#3A0A0C"/>
<stop offset="0.5" stop-color="#200607"/>
<stop offset="0.66" stop-color="#0E0303"/>
<stop offset="0.82" stop-color="#040101"/>
<stop offset="1"/>
</radialGradient>
<radialGradient id="paint25_radial_46_7" cx="0" cy="0" r="1" gradientUnits="userSpaceOnUse" gradientTransform="translate(160.357 55.4441) rotate(180) scale(30.48 30.48)">
<stop stop-color="#FFFFFD"/>
<stop offset="0.16" stop-color="#FEFBFA"/>
<stop offset="0.29" stop-color="#FBF1EF"/>
<stop offset="0.43" stop-color="#F6DFDE"/>
<stop offset="0.55" stop-color="#EEC5C5"/>
<stop offset="0.68" stop-color="#E4A4A6"/>
<stop offset="0.8" stop-color="#D97C7F"/>
<stop offset="0.92" stop-color="#CB4D52"/>
<stop offset="1" stop-color="#C0272D"/>
</radialGradient>
<radialGradient id="paint26_radial_46_7" cx="0" cy="0" r="1" gradientUnits="userSpaceOnUse" gradientTransform="translate(172.01 64.1375) rotate(135) scale(18.0472 10.4833)">
<stop stop-color="#9A1B1F"/>
<stop offset="0.07" stop-color="#82171A"/>
<stop offset="0.21" stop-color="#5B1012"/>
<stop offset="0.36" stop-color="#3A0A0C"/>
<stop offset="0.5" stop-color="#200607"/>
<stop offset="0.66" stop-color="#0E0303"/>
<stop offset="0.82" stop-color="#040101"/>
<stop offset="1"/>
</radialGradient>
<clipPath id="clip0_46_7">
<rect width="252" height="252" fill="white"/>
</clipPath>
</defs>
</svg>
