<svg width="50" height="50" viewBox="0 0 50 50" fill="none" xmlns="http://www.w3.org/2000/svg">
<path d="M39.9991 0H10.0009C4.47756 0 0 4.47756 0 10.0009V39.9991C0 45.5224 4.47756 50 10.0009 50H39.9991C45.5224 50 50 45.5224 50 39.9991V10.0009C50 4.47756 45.5224 0 39.9991 0Z" fill="#9B1010"/>
<path d="M39.9441 0.0938721H10.0559C4.55405 0.0938721 0.0939331 4.55399 0.0939331 10.0558V39.944C0.0939331 45.4458 4.55405 49.906 10.0559 49.906H39.9441C45.4459 49.906 49.906 45.4458 49.906 39.944V10.0558C49.906 4.55399 45.4459 0.0938721 39.9441 0.0938721Z" fill="#9C1010"/>
<path d="M39.8868 0.187897H10.1155C4.63389 0.187897 0.190186 4.6316 0.190186 10.1132V39.8845C0.190186 45.3661 4.63389 49.8098 10.1155 49.8098H39.8868C45.3684 49.8098 49.8121 45.3661 49.8121 39.8845V10.1132C49.8121 4.6316 45.3684 0.187897 39.8868 0.187897Z" fill="#9D1010"/>
<path d="M39.8295 0.284149H10.1705C4.71044 0.284149 0.28418 4.71041 0.28418 10.1705V39.8318C0.28418 45.2918 4.71044 49.7181 10.1705 49.7181H39.8295C45.2896 49.7181 49.7158 45.2918 49.7158 39.8318V10.1705C49.7158 4.71041 45.2896 0.284149 39.8295 0.284149Z" fill="#9E1010"/>
<path d="M39.7722 0.378113H10.2278C4.78796 0.378113 0.378113 4.78796 0.378113 10.2278V39.7722C0.378113 45.212 4.78796 49.6219 10.2278 49.6219H39.7722C45.212 49.6219 49.6219 45.212 49.6219 39.7722V10.2278C49.6219 4.78796 45.212 0.378113 39.7722 0.378113Z" fill="#9F1010"/>
<path d="M39.7149 0.472076H10.2828C4.86451 0.472076 0.472107 4.86448 0.472107 10.2828V39.7172C0.472107 45.1355 4.86451 49.5279 10.2828 49.5279H39.7149C45.1332 49.5279 49.5256 45.1355 49.5256 39.7172V10.2828C49.5256 4.86448 45.1332 0.472076 39.7149 0.472076Z" fill="#A01111"/>
<path d="M39.6599 0.56601H10.3424C4.94435 0.56601 0.568359 4.942 0.568359 10.34V39.6576C0.568359 45.0556 4.94435 49.4316 10.3424 49.4316H39.6599C45.058 49.4316 49.434 45.0556 49.434 39.6576V10.34C49.434 4.942 45.058 0.56601 39.6599 0.56601Z" fill="#A11111"/>
<path d="M39.6026 0.662262H10.3973C5.02078 0.662262 0.662231 5.02081 0.662231 10.3973V39.6049C0.662231 44.9814 5.02078 49.34 10.3973 49.34H39.6026C44.9791 49.34 49.3376 44.9814 49.3376 39.6049V10.3973C49.3376 5.02081 44.9791 0.662262 39.6026 0.662262Z" fill="#A21111"/>
<path d="M39.5453 0.756226H10.4546C5.09835 0.756226 0.756226 5.09835 0.756226 10.4546V39.5453C0.756226 44.9016 5.09835 49.2437 10.4546 49.2437H39.5453C44.9016 49.2437 49.2437 44.9016 49.2437 39.5453V10.4546C49.2437 5.09835 44.9016 0.756226 39.5453 0.756226Z" fill="#A31111"/>
<path d="M39.488 0.850189H10.5097C5.17491 0.850189 0.85022 5.17487 0.85022 10.5096V39.488C0.85022 44.8228 5.17491 49.1475 10.5097 49.1475H39.488C44.8228 49.1475 49.1475 44.8228 49.1475 39.488V10.5096C49.1475 5.17487 44.8228 0.850189 39.488 0.850189Z" fill="#A41111"/>
<path d="M39.433 0.944122H10.5692C5.25468 0.944122 0.946411 5.25239 0.946411 10.5669V39.4307C0.946411 44.7452 5.25468 49.0535 10.5692 49.0535H39.433C44.7475 49.0535 49.0558 44.7452 49.0558 39.4307V10.5669C49.0558 5.25239 44.7475 0.944122 39.433 0.944122Z" fill="#A51111"/>
<path d="M39.3757 1.04037H10.6242C5.33123 1.04037 1.04041 5.3312 1.04041 10.6242V39.3757C1.04041 44.6687 5.33123 48.9595 10.6242 48.9595H39.3757C44.6687 48.9595 48.9596 44.6687 48.9596 39.3757V10.6242C48.9596 5.3312 44.6687 1.04037 39.3757 1.04037Z" fill="#A61111"/>
<path d="M10.6816 1.1344H39.3277C40.5814 1.1344 41.8229 1.38134 42.9812 1.86113C44.1395 2.34092 45.192 3.04416 46.0785 3.9307C46.9651 4.81724 47.6683 5.86971 48.1481 7.02802C48.6279 8.18634 48.8748 9.42781 48.8748 10.6816V39.3276C48.8748 41.8597 47.869 44.2881 46.0785 46.0785C44.2881 47.8689 41.8597 48.8748 39.3277 48.8748H10.6816C8.14992 48.8718 5.72311 47.8633 3.93488 46.0712C2.14666 44.2791 1.14345 41.8501 1.14588 39.3185V10.6793C1.14588 8.1494 2.15024 5.72301 3.93826 3.93327C5.72629 2.14352 8.15171 1.13683 10.6816 1.1344Z" fill="#A71111"/>
<path d="M39.2612 1.2283H10.7366C5.48536 1.2283 1.22839 5.48527 1.22839 10.7365V39.2611C1.22839 44.5124 5.48536 48.7693 10.7366 48.7693H39.2612C44.5125 48.7693 48.7694 44.5124 48.7694 39.2611V10.7365C48.7694 5.48527 44.5125 1.2283 39.2612 1.2283Z" fill="#A81212"/>
<path d="M10.7938 1.32455H39.2107C41.7212 1.32638 44.1282 2.32476 45.9029 4.10032C47.6776 5.87589 48.6748 8.28338 48.6754 10.7938V39.2107C48.6754 41.7221 47.6777 44.1306 45.9019 45.9065C44.1261 47.6823 41.7176 48.68 39.2062 48.68H10.7938C9.55001 48.6797 8.31843 48.4344 7.1694 47.9581C6.02038 47.4818 4.97641 46.7839 4.09711 45.9042C3.21781 45.0245 2.5204 43.9802 2.04469 42.8309C1.56897 41.6816 1.32428 40.4499 1.32459 39.2061V10.7938C1.32459 8.2824 2.32223 5.87386 4.09806 4.09803C5.87389 2.3222 8.28243 1.32455 10.7938 1.32455Z" fill="#A91212"/>
<path d="M39.1489 1.41858H10.8512C5.64169 1.41858 1.41858 5.64169 1.41858 10.8512V39.1489C1.41858 44.3584 5.64169 48.5815 10.8512 48.5815H39.1489C44.3584 48.5815 48.5815 44.3584 48.5815 39.1489V10.8512C48.5815 5.64169 44.3584 1.41858 39.1489 1.41858Z" fill="#AA1212"/>
<path d="M10.9085 1.51251H39.0962C40.3301 1.51251 41.5519 1.75554 42.6919 2.22773C43.8318 2.69992 44.8676 3.39202 45.7401 4.26451C46.6126 5.137 47.3047 6.1728 47.7769 7.31276C48.2491 8.45273 48.4921 9.67454 48.4921 10.9084V39.0962C48.4921 41.5881 47.5022 43.978 45.7401 45.7401C43.9781 47.5022 41.5882 48.4921 39.0962 48.4921H10.9085C8.41653 48.4921 6.02665 47.5022 4.26457 45.7401C2.5025 43.978 1.51257 41.5881 1.51257 39.0962V10.9084C1.51257 8.41647 2.5025 6.02659 4.26457 4.26451C6.02665 2.50244 8.41653 1.51251 10.9085 1.51251Z" fill="#AB1212"/>
<path d="M39.0343 1.60641H10.9634C5.7957 1.60641 1.60645 5.79567 1.60645 10.9634V39.0342C1.60645 44.2019 5.7957 48.3912 10.9634 48.3912H39.0343C44.202 48.3912 48.3912 44.2019 48.3912 39.0342V10.9634C48.3912 5.79567 44.202 1.60641 39.0343 1.60641Z" fill="#AC1212"/>
<path d="M11.0207 1.70267H38.9793C41.4512 1.70267 43.8218 2.68462 45.5697 4.43252C47.3176 6.18041 48.2995 8.55106 48.2995 11.023V38.9815C48.2995 41.4528 47.3178 43.8229 45.5704 45.5703C43.8229 47.3178 41.4528 48.2995 38.9816 48.2995H11.023C8.55109 48.2995 6.18044 47.3176 4.43255 45.5697C2.68465 43.8218 1.7027 41.4511 1.7027 38.9792V11.0207C1.7027 8.54938 2.68441 6.17931 4.43188 4.43184C6.17934 2.68438 8.54941 1.70267 11.0207 1.70267Z" fill="#AD1212"/>
<path d="M38.922 1.79669H11.078C5.95208 1.79669 1.79669 5.95208 1.79669 11.078V38.922C1.79669 44.0479 5.95208 48.2033 11.078 48.2033H38.922C44.0479 48.2033 48.2033 44.0479 48.2033 38.922V11.078C48.2033 5.95208 44.0479 1.79669 38.922 1.79669Z" fill="#AE1212"/>
<path d="M38.8647 48.1093H11.1353C8.68345 48.1093 6.33203 47.1354 4.59832 45.4016C2.86461 43.6679 1.89063 41.3165 1.89062 38.8647V11.1353C1.89063 8.68345 2.86461 6.33203 4.59832 4.59832C6.33203 2.86461 8.68345 1.89063 11.1353 1.89062H38.8647C41.3165 1.89063 43.6679 2.86461 45.4016 4.59832C47.1354 6.33203 48.1093 8.68345 48.1093 11.1353V38.8647C48.1093 41.3165 47.1354 43.6679 45.4016 45.4016C43.6679 47.1354 41.3165 48.1093 38.8647 48.1093Z" fill="#AF1212"/>
<path d="M38.8074 48.0131H11.1926C9.98359 48.0134 8.78638 47.7755 7.66935 47.313C6.55233 46.8504 5.53738 46.1724 4.68249 45.3175C3.82761 44.4626 3.14953 43.4476 2.68701 42.3306C2.22448 41.2136 1.98658 40.0164 1.98688 38.8074V11.1903C1.98688 8.74879 2.95676 6.40728 4.68317 4.68088C6.40957 2.95447 8.75108 1.98459 11.1926 1.98459H38.8074C41.2489 1.98459 43.5904 2.95447 45.3168 4.68088C47.0432 6.40728 48.0131 8.74879 48.0131 11.1903V38.8074C48.0134 40.0164 47.7755 41.2136 47.313 42.3306C46.8504 43.4476 46.1724 44.4626 45.3175 45.3175C44.4626 46.1724 43.4476 46.8504 42.3306 47.313C41.2136 47.7755 40.0164 48.0134 38.8074 48.0131Z" fill="#B01212"/>
<path d="M38.7524 47.9191H11.2522C10.0484 47.9191 8.85639 47.682 7.74423 47.2214C6.63207 46.7607 5.62154 46.0855 4.77033 45.2343C3.05123 43.5152 2.08545 41.1836 2.08545 38.7524V11.2522C2.08545 8.82099 3.05123 6.48939 4.77033 4.7703C6.48942 3.0512 8.82102 2.08542 11.2522 2.08542H38.7524C39.9562 2.08542 41.1482 2.32252 42.2604 2.7832C43.3725 3.24387 44.3831 3.91908 45.2343 4.7703C46.0855 5.62151 46.7607 6.63204 47.2214 7.7442C47.6821 8.85636 47.9192 10.0484 47.9192 11.2522V38.7524C47.9192 41.1836 46.9534 43.5152 45.2343 45.2343C43.5152 46.9534 41.1836 47.9191 38.7524 47.9191Z" fill="#B01313"/>
<path d="M38.6951 47.8252H11.3049C8.88344 47.8252 6.56116 46.8633 4.84894 45.1511C3.13672 43.4388 2.1748 41.1166 2.1748 38.6951V11.3049C2.1748 8.88344 3.13672 6.56116 4.84894 4.84894C6.56116 3.13672 8.88344 2.1748 11.3049 2.1748H38.6951C41.1166 2.1748 43.4388 3.13672 45.1511 4.84894C46.8633 6.56116 47.8252 8.88344 47.8252 11.3049V38.6951C47.8252 41.1166 46.8633 43.4388 45.1511 45.1511C43.4388 46.8633 41.1166 47.8252 38.6951 47.8252Z" fill="#B11313"/>
<path d="M38.6378 47.7313H11.3667C10.1723 47.7316 8.98944 47.4966 7.88578 47.0398C6.78213 46.583 5.77925 45.9132 4.93443 45.0688C4.0896 44.2244 3.41936 43.2219 2.96198 42.1185C2.5046 41.015 2.26904 39.8323 2.26874 38.6379V11.3668C2.26844 10.1723 2.50341 8.9895 2.96023 7.88584C3.41705 6.78219 4.08679 5.77932 4.93119 4.93449C5.77559 4.08966 6.77812 3.41942 7.88155 2.96204C8.98497 2.50467 10.1677 2.2691 11.3621 2.2688H38.6332C41.0447 2.26941 43.3573 3.22765 45.0626 4.93287C46.7678 6.63808 47.726 8.95067 47.7266 11.3622V38.6333C47.7272 41.0448 46.7701 43.3579 45.0658 45.064C43.3614 46.77 41.0493 47.7294 38.6378 47.7313Z" fill="#B21313"/>
<path d="M38.5805 47.635H11.4194C9.01805 47.635 6.71502 46.681 5.01698 44.983C3.31894 43.2849 2.36499 40.9819 2.36499 38.5805V11.4172C2.3656 9.01595 3.31974 6.71327 5.01765 5.01536C6.71556 3.31745 9.01824 2.36331 11.4194 2.3627H38.5805C40.9817 2.36331 43.2844 3.31745 44.9823 5.01536C46.6802 6.71327 47.6343 9.01595 47.635 11.4172V38.5805C47.635 39.7696 47.4007 40.947 46.9457 42.0455C46.4907 43.144 45.8237 44.1422 44.983 44.983C44.1422 45.8238 43.144 46.4907 42.0455 46.9457C40.9469 47.4008 39.7695 47.635 38.5805 47.635Z" fill="#B31313"/>
<path d="M38.5255 47.541H11.4836C10.2995 47.5413 9.1269 47.3083 8.03283 46.8554C6.93875 46.4025 5.94462 45.7384 5.10721 44.9012C4.2698 44.064 3.60552 43.0701 3.15231 41.9761C2.69909 40.8822 2.46582 39.7096 2.46582 38.5255V11.4836C2.46462 10.2993 2.69677 9.12635 3.14902 8.03178C3.60126 6.93721 4.26474 5.94247 5.10154 5.10439C5.93834 4.26631 6.93207 3.60132 8.02594 3.14741C9.11982 2.6935 10.2924 2.45956 11.4767 2.45895H38.5186C39.7026 2.45895 40.8749 2.69215 41.9687 3.14522C43.0625 3.59829 44.0564 4.26236 44.8935 5.09953C45.7307 5.9367 46.3948 6.93056 46.8479 8.02437C47.3009 9.11818 47.5341 10.2905 47.5341 11.4744V38.5163C47.5353 39.7005 47.3032 40.8732 46.8511 41.9676C46.399 43.0621 45.7358 44.0567 44.8992 44.8947C44.0627 45.7328 43.0692 46.3978 41.9756 46.8519C40.882 47.3059 39.7096 47.5401 38.5255 47.541Z" fill="#B41313"/>
<path d="M38.4682 47.4379H11.5317C9.15041 47.4379 6.86661 46.4919 5.18275 44.808C3.4989 43.1242 2.55292 40.8404 2.55292 38.4591V11.5317C2.55292 9.15041 3.4989 6.86661 5.18275 5.18275C6.86661 3.4989 9.15041 2.55292 11.5317 2.55292H38.4682C40.848 2.55535 43.1294 3.5024 44.8113 5.18599C46.4932 6.86959 47.4379 9.152 47.4379 11.5317V38.4682C47.4355 40.8464 46.4897 43.1264 44.808 44.808C43.1264 46.4897 40.8464 47.4355 38.4682 47.4379Z" fill="#B51313"/>
<path d="M38.4109 47.3531H11.5982C9.22783 47.3531 6.95452 46.4114 5.2784 44.7353C3.60228 43.0592 2.66064 40.7859 2.66064 38.4155V11.6028C2.66064 9.23237 3.60228 6.95907 5.2784 5.28295C6.95452 3.60683 9.22783 2.66519 11.5982 2.66519H38.4109C40.7813 2.66519 43.0546 3.60683 44.7308 5.28295C46.4069 6.95907 47.3485 9.23237 47.3485 11.6028V38.4155C47.3485 40.7859 46.4069 43.0592 44.7308 44.7353C43.0546 46.4114 40.7813 47.3531 38.4109 47.3531Z" fill="#B61313"/>
<path d="M38.356 2.7431H11.6464C6.72926 2.7431 2.74316 6.7292 2.74316 11.6463V38.3559C2.74316 43.273 6.72926 47.2591 11.6464 47.2591H38.356C43.2731 47.2591 47.2592 43.273 47.2592 38.3559V11.6463C47.2592 6.7292 43.2731 2.7431 38.356 2.7431Z" fill="#B71313"/>
<path d="M38.2963 47.1629H11.7128C9.36163 47.1629 7.10674 46.229 5.44401 44.5667C3.78128 42.9044 2.84686 40.6498 2.84625 38.2986V11.7013C2.84686 9.35175 3.78002 7.09848 5.44077 5.43645C7.10152 3.77441 9.35405 2.8395 11.7036 2.83707H38.2872C39.4521 2.83587 40.6059 3.06424 41.6825 3.50914C42.7592 3.95405 43.7376 4.60675 44.5619 5.42997C45.3862 6.25318 46.0401 7.23075 46.4864 8.30682C46.9327 9.38289 47.1626 10.5364 47.1629 11.7013V38.2986C47.1623 40.6498 46.2279 42.9044 44.5651 44.5667C42.9024 46.229 40.6475 47.1629 38.2963 47.1629Z" fill="#B81414"/>
<path d="M38.2413 47.069H11.7586C9.41757 47.0684 7.1726 46.1381 5.51724 44.4828C3.86188 42.8274 2.93164 40.5824 2.93103 38.2414V11.7587C2.93164 9.41763 3.86188 7.17266 5.51724 5.5173C7.1726 3.86194 9.41757 2.9317 11.7586 2.93109H38.2413C40.5824 2.9317 42.8273 3.86194 44.4827 5.5173C46.1381 7.17266 47.0683 9.41763 47.0689 11.7587V38.2414C47.0683 40.5824 46.1381 42.8274 44.4827 44.4828C42.8273 46.1381 40.5824 47.0684 38.2413 47.069Z" fill="#B91414"/>
<path d="M38.1841 46.9796H11.8159C10.6611 46.9796 9.5176 46.752 8.45074 46.31C7.38388 45.8679 6.41457 45.2199 5.5982 44.4031C4.78183 43.5864 4.13439 42.6167 3.69288 41.5496C3.25136 40.4825 3.02442 39.3389 3.02503 38.1841V11.8159C3.02563 9.48463 3.95201 7.24898 5.60049 5.60049C7.24898 3.95201 9.48463 3.02563 11.8159 3.02503H38.1841C39.3389 3.02442 40.4825 3.25136 41.5496 3.69288C42.6167 4.13439 43.5863 4.78183 44.4031 5.5982C45.2199 6.41457 45.8679 7.38388 46.31 8.45074C46.752 9.5176 46.9796 10.6611 46.9796 11.8159V38.1841C46.9805 39.3394 46.7536 40.4835 46.3119 41.551C45.8702 42.6186 45.2224 43.5885 44.4054 44.4054C43.5885 45.2224 42.6186 45.8702 41.551 46.3119C40.4835 46.7536 39.3394 46.9805 38.1841 46.9796Z" fill="#BA1414"/>
<path d="M38.1268 46.8787H11.8733C9.55213 46.8787 7.32603 45.9566 5.68472 44.3153C4.04342 42.674 3.12134 40.4479 3.12134 38.1267V11.8709C3.12134 10.7217 3.34773 9.5837 3.78758 8.522C4.22744 7.46029 4.87214 6.49563 5.68486 5.68312C6.49759 4.87061 7.46241 4.22616 8.52423 3.78659C9.58606 3.34701 10.7241 3.12092 11.8733 3.12122H38.1268C40.4476 3.12122 42.6734 4.04298 44.3146 5.68379C45.9558 7.32461 46.8782 9.55011 46.8788 11.8709V38.1267C46.8788 40.4479 45.9567 42.674 44.3154 44.3153C42.6741 45.9566 40.448 46.8787 38.1268 46.8787Z" fill="#BB1414"/>
<path d="M38.0695 46.7847H11.9306C9.62096 46.7847 7.40594 45.8672 5.7728 44.2341C4.13966 42.6009 3.22217 40.3859 3.22217 38.0763V11.9282C3.22217 9.61855 4.13966 7.40353 5.7728 5.77039C7.40594 4.13725 9.62096 3.21976 11.9306 3.21976H38.0695C40.3792 3.21976 42.5942 4.13725 44.2273 5.77039C45.8605 7.40353 46.778 9.61855 46.778 11.9282V38.0717C46.7786 39.2157 46.5537 40.3486 46.1164 41.4057C45.679 42.4628 45.0377 43.4233 44.2289 44.2325C43.4202 45.0416 42.46 45.6835 41.4032 46.1214C40.3463 46.5593 39.2135 46.7847 38.0695 46.7847Z" fill="#BC1414"/>
<path d="M38.0145 46.6908H11.9855C9.68442 46.6908 7.47757 45.7767 5.85044 44.1496C4.22331 42.5225 3.3092 40.3156 3.3092 38.0145V11.9855C3.3092 9.68442 4.22331 7.47757 5.85044 5.85044C7.47757 4.22331 9.68442 3.3092 11.9855 3.3092H38.0145C40.3156 3.3092 42.5225 4.22331 44.1496 5.85044C45.7767 7.47757 46.6908 9.68442 46.6908 11.9855V38.0145C46.6908 40.3156 45.7767 42.5225 44.1496 44.1496C42.5225 45.7767 40.3156 46.6908 38.0145 46.6908Z" fill="#BD1414"/>
<path d="M37.9572 46.5945H12.0429C10.9084 46.5948 9.78497 46.3717 8.73677 45.9377C7.68858 45.5038 6.73613 44.8676 5.93383 44.0655C5.13154 43.2634 4.49511 42.3112 4.0609 41.2631C3.62669 40.215 3.4032 39.0916 3.4032 37.9572V12.0428C3.4032 9.75141 4.31345 7.55388 5.93369 5.93363C7.55394 4.31338 9.75147 3.40314 12.0429 3.40314H37.9572C39.0917 3.40314 40.2151 3.62662 41.2631 4.06084C42.3112 4.49505 43.2635 5.13148 44.0656 5.93377C44.8677 6.73607 45.5038 7.68852 45.9378 8.73671C46.3717 9.78491 46.5949 10.9083 46.5946 12.0428V37.9572C46.5949 39.0915 46.3717 40.2148 45.9377 41.2629C45.5038 42.311 44.8676 43.2633 44.0654 44.0654C43.2633 44.8675 42.311 45.5037 41.263 45.9377C40.2149 46.3716 39.0916 46.5948 37.9572 46.5945Z" fill="#BE1414"/>
<path d="M37.8999 46.5005H12.1001C9.81904 46.5005 7.63142 45.5944 6.01848 43.9814C4.40553 42.3685 3.49939 40.1809 3.49939 37.8998V12.1C3.49939 9.81898 4.40553 7.63136 6.01848 6.01841C7.63142 4.40547 9.81904 3.49933 12.1001 3.49933H37.8999C40.1809 3.49933 42.3686 4.40547 43.9815 6.01841C45.5944 7.63136 46.5006 9.81898 46.5006 12.1V37.8998C46.5006 40.1809 45.5944 42.3685 43.9815 43.9814C42.3686 45.5944 40.1809 46.5005 37.8999 46.5005Z" fill="#BF1414"/>
<path d="M37.8426 46.4066H12.1574C9.88649 46.4066 7.70854 45.5047 6.10254 43.8991C4.49654 42.2935 3.59399 40.1158 3.59338 37.8449V12.1459C3.59642 9.87659 4.50004 7.70124 6.10578 6.09765C7.71152 4.49406 9.88808 3.59335 12.1574 3.59335H37.8426C40.112 3.59335 42.2885 4.49406 43.8943 6.09765C45.5 7.70124 46.4036 9.87659 46.4067 12.1459V37.8357C46.4076 38.961 46.1867 40.0753 45.7567 41.1152C45.3268 42.155 44.6961 43.0999 43.9007 43.8959C43.1054 44.6918 42.161 45.3233 41.1215 45.7541C40.082 46.1849 38.9679 46.4066 37.8426 46.4066Z" fill="#C01515"/>
<path d="M37.7877 46.3127H12.2147C9.95354 46.3127 7.78492 45.4146 6.18579 43.8159C4.58667 42.2172 3.68799 40.0488 3.68738 37.7876V12.2124C3.68799 9.95119 4.58667 7.78281 6.18579 6.18411C7.78492 4.58542 9.95354 3.68732 12.2147 3.68732H37.7877C40.0485 3.68792 42.2165 4.58629 43.8151 6.18492C45.4138 7.78355 46.3121 9.95159 46.3127 12.2124V37.7876C46.3121 40.0484 45.4138 42.2164 43.8151 43.8151C42.2165 45.4137 40.0485 46.3121 37.7877 46.3127Z" fill="#C11515"/>
<path d="M37.7303 46.2164H12.2697C10.0209 46.2164 7.86414 45.3231 6.27398 43.7329C4.68381 42.1427 3.79047 39.986 3.79047 37.7372V12.2697C3.79047 10.0208 4.68381 7.86411 6.27398 6.27395C7.86414 4.68378 10.0209 3.79044 12.2697 3.79044H37.7303C39.9792 3.79044 42.1359 4.68378 43.7261 6.27395C45.3162 7.86411 46.2096 10.0208 46.2096 12.2697V37.7303C46.2105 38.8444 45.9918 39.9477 45.5661 40.9773C45.1404 42.0068 44.5159 42.9424 43.7285 43.7305C42.941 44.5186 42.006 45.1438 40.9768 45.5703C39.9476 45.9969 38.8444 46.2164 37.7303 46.2164Z" fill="#C21515"/>
<path d="M37.673 46.1224H12.3269C10.086 46.1224 7.93687 45.2322 6.35229 43.6476C4.76771 42.063 3.8775 39.9139 3.8775 37.6729V12.3269C3.8775 10.086 4.76771 7.93681 6.35229 6.35223C7.93687 4.76765 10.086 3.87744 12.3269 3.87744H37.673C39.9139 3.87744 42.0631 4.76765 43.6477 6.35223C45.2322 7.93681 46.1224 10.086 46.1224 12.3269V37.6729C46.1224 39.9139 45.2322 42.063 43.6477 43.6476C42.0631 45.2322 39.9139 46.1224 37.673 46.1224Z" fill="#C31515"/>
<path d="M37.6157 46.0285H12.3751C10.1439 46.0285 8.00409 45.1421 6.42639 43.5644C4.84868 41.9867 3.96234 39.8469 3.96234 37.6157V12.3751C3.96416 10.1453 4.85139 8.00746 6.42896 6.4316C8.00653 4.85575 10.1453 3.97086 12.3751 3.97147H37.6066C38.7114 3.97027 39.8056 4.18668 40.8267 4.60835C41.8479 5.03002 42.7759 5.64869 43.558 6.42903C44.34 7.20938 44.9607 8.13612 45.3846 9.15635C45.8085 10.1766 46.0273 11.2703 46.0285 12.3751V37.6157C46.0279 39.8467 45.1414 41.9862 43.5638 43.5638C41.9862 45.1413 39.8468 46.0279 37.6157 46.0285Z" fill="#C41515"/>
<path style="mix-blend-mode:screen" d="M39.9991 0H10.0009C4.47756 0 0 4.47756 0 10.0009V39.9991C0 45.5224 4.47756 50 10.0009 50H39.9991C45.5224 50 50 45.5224 50 39.9991V10.0009C50 4.47756 45.5224 0 39.9991 0Z" fill="url(#paint0_linear_91_5423)"/>
<path style="mix-blend-mode:soft-light" d="M37.6157 46.0285H12.3751C10.1439 46.0285 8.00409 45.1421 6.42639 43.5644C4.84868 41.9867 3.96234 39.8469 3.96234 37.6157V12.3751C3.96416 10.1453 4.85139 8.00746 6.42896 6.4316C8.00653 4.85575 10.1453 3.97086 12.3751 3.97147H37.6066C38.7114 3.97027 39.8056 4.18668 40.8267 4.60835C41.8479 5.03002 42.7759 5.64869 43.558 6.42903C44.34 7.20938 44.9607 8.13612 45.3846 9.15635C45.8085 10.1766 46.0273 11.2703 46.0285 12.3751V37.6157C46.0279 39.8467 45.1414 41.9862 43.5638 43.5638C41.9862 45.1413 39.8468 46.0279 37.6157 46.0285Z" fill="url(#paint1_linear_91_5423)"/>
<path d="M18.3335 12.9778C18.334 13.9669 18.0411 14.9339 17.4919 15.7565C16.9427 16.5792 16.1619 17.2204 15.2482 17.5993C14.3345 17.9781 13.3291 18.0774 12.3589 17.8848C11.3888 17.6921 10.4976 17.216 9.79799 16.5168C9.09844 15.8175 8.62196 14.9265 8.42883 13.9565C8.2357 12.9864 8.3346 11.9809 8.713 11.067C9.09141 10.1532 9.73233 9.37209 10.5547 8.82253C11.3771 8.27297 12.3439 7.97965 13.333 7.97965C13.9896 7.97934 14.6398 8.1084 15.2465 8.35945C15.8531 8.6105 16.4044 8.97861 16.8688 9.44276C17.3331 9.90692 17.7015 10.458 17.9528 11.0646C18.2041 11.6711 18.3335 12.3213 18.3335 12.9778Z" fill="url(#paint2_radial_91_5423)"/>
<path d="M30.0004 24.6448C30.0009 25.6339 29.708 26.6009 29.1588 27.4235C28.6096 28.2461 27.8288 28.8874 26.9152 29.2662C26.0015 29.6451 24.996 29.7444 24.0258 29.5517C23.0557 29.359 22.1645 28.883 21.4649 28.1837C20.7654 27.4845 20.2889 26.5935 20.0958 25.6234C19.9026 24.6534 20.0015 23.6478 20.3799 22.734C20.7583 21.8202 21.3993 21.0391 22.2216 20.4895C23.044 19.9399 24.0109 19.6466 25 19.6466C25.6565 19.6463 26.3067 19.7754 26.9134 20.0264C27.5201 20.2775 28.0713 20.6456 28.5357 21.1097C29.0001 21.5739 29.3684 22.125 29.6197 22.7315C29.8711 23.3381 30.0004 23.9882 30.0004 24.6448Z" fill="url(#paint3_radial_91_5423)"/>
<path d="M18.3335 36.3117C18.334 37.3008 18.0411 38.2678 17.4919 39.0905C16.9427 39.9131 16.1619 40.5544 15.2482 40.9332C14.3345 41.312 13.3291 41.4114 12.3589 41.2187C11.3888 41.026 10.4976 40.5499 9.79799 39.8507C9.09844 39.1515 8.62196 38.2605 8.42883 37.2904C8.2357 36.3204 8.3346 35.3148 8.713 34.401C9.09141 33.4871 9.73233 32.706 10.5547 32.1565C11.3771 31.6069 12.3439 31.3136 13.333 31.3136C13.9896 31.3133 14.6398 31.4423 15.2465 31.6934C15.8531 31.9444 16.4044 32.3125 16.8688 32.7767C17.3331 33.2408 17.7015 33.7919 17.9528 34.3985C18.2041 35.005 18.3335 35.6552 18.3335 36.3117Z" fill="url(#paint4_radial_91_5423)"/>
<path d="M41.6674 12.9778C41.6679 13.9669 41.375 14.9339 40.8258 15.7565C40.2766 16.5792 39.4958 17.2204 38.5821 17.5993C37.6685 17.9781 36.663 18.0774 35.6928 17.8848C34.7227 17.6921 33.8315 17.216 33.1319 16.5168C32.4324 15.8175 31.9559 14.9265 31.7628 13.9565C31.5696 12.9864 31.6685 11.9809 32.0469 11.067C32.4253 10.1532 33.0662 9.37209 33.8886 8.82253C34.711 8.27297 35.6779 7.97965 36.667 7.97965C37.3235 7.97934 37.9737 8.1084 38.5804 8.35945C39.1871 8.6105 39.7383 8.97861 40.2027 9.44276C40.667 9.90692 41.0354 10.458 41.2867 11.0646C41.5381 11.6711 41.6674 12.3213 41.6674 12.9778Z" fill="url(#paint5_radial_91_5423)"/>
<path d="M41.6674 36.3117C41.6679 37.3008 41.375 38.2678 40.8258 39.0905C40.2766 39.9131 39.4958 40.5544 38.5821 40.9332C37.6685 41.312 36.663 41.4114 35.6928 41.2187C34.7227 41.026 33.8315 40.5499 33.1319 39.8507C32.4324 39.1515 31.9559 38.2605 31.7628 37.2904C31.5696 36.3204 31.6685 35.3148 32.0469 34.401C32.4253 33.4871 33.0662 32.706 33.8886 32.1565C34.711 31.6069 35.6779 31.3136 36.667 31.3136C37.3235 31.3133 37.9737 31.4423 38.5804 31.6934C39.1871 31.9444 39.7383 32.3125 40.2027 32.7767C40.667 33.2408 41.0354 33.7919 41.2867 34.3985C41.5381 35.005 41.6674 35.6552 41.6674 36.3117Z" fill="url(#paint6_radial_91_5423)"/>
<defs>
<linearGradient id="paint0_linear_91_5423" x1="50.0917" y1="25" x2="0.485839" y2="25" gradientUnits="userSpaceOnUse">
<stop offset="0.04" stop-color="#380404"/>
<stop offset="1"/>
</linearGradient>
<linearGradient id="paint1_linear_91_5423" x1="3.64609" y1="25" x2="46.1064" y2="25" gradientUnits="userSpaceOnUse">
<stop stop-color="#8F0F0F"/>
<stop offset="1"/>
</linearGradient>
<radialGradient id="paint2_radial_91_5423" cx="0" cy="0" r="1" gradientUnits="userSpaceOnUse" gradientTransform="translate(13.333 12.9801) scale(5.00046)">
<stop stop-color="#F0F0F0"/>
<stop offset="1" stop-color="#E3E3E3"/>
</radialGradient>
<radialGradient id="paint3_radial_91_5423" cx="0" cy="0" r="1" gradientUnits="userSpaceOnUse" gradientTransform="translate(25 24.6471) scale(5.00046)">
<stop stop-color="#F0F0F0"/>
<stop offset="1" stop-color="#E3E3E3"/>
</radialGradient>
<radialGradient id="paint4_radial_91_5423" cx="0" cy="0" r="1" gradientUnits="userSpaceOnUse" gradientTransform="translate(13.333 36.314) scale(5.00046)">
<stop stop-color="#F0F0F0"/>
<stop offset="1" stop-color="#E3E3E3"/>
</radialGradient>
<radialGradient id="paint5_radial_91_5423" cx="0" cy="0" r="1" gradientUnits="userSpaceOnUse" gradientTransform="translate(36.667 12.9801) scale(5.00046)">
<stop stop-color="#F0F0F0"/>
<stop offset="1" stop-color="#E3E3E3"/>
</radialGradient>
<radialGradient id="paint6_radial_91_5423" cx="0" cy="0" r="1" gradientUnits="userSpaceOnUse" gradientTransform="translate(36.667 36.314) scale(5.00046)">
<stop stop-color="#F0F0F0"/>
<stop offset="1" stop-color="#E3E3E3"/>
</radialGradient>
</defs>
</svg>
