<svg width="50" height="50" viewBox="0 0 50 50" fill="none" xmlns="http://www.w3.org/2000/svg">
<path d="M39.9991 50H10.0009C7.34851 50 4.80474 48.9463 2.9292 47.0708C1.05367 45.1953 0 42.6515 0 39.9991L0 10.0009C0 7.34851 1.05367 4.80474 2.9292 2.9292C4.80474 1.05367 7.34851 0 10.0009 0L39.9991 0C42.6515 0 45.1953 1.05367 47.0708 2.9292C48.9463 4.80474 50 7.34851 50 10.0009V39.9991C50 42.6515 48.9463 45.1953 47.0708 47.0708C45.1953 48.9463 42.6515 50 39.9991 50Z" fill="#9B1010"/>
<path d="M39.9441 49.906H10.0582C7.41596 49.906 4.88186 48.8566 3.01327 46.9884C1.14467 45.1202 0.0946018 42.5864 0.0939941 39.9441V10.0559C0.0946018 7.41364 1.14467 4.87978 3.01327 3.01161C4.88186 1.14345 7.41596 0.0939636 10.0582 0.0939636H39.9441C42.5862 0.0939636 45.1201 1.14352 46.9883 3.01175C48.8565 4.87998 49.9061 7.41385 49.9061 10.0559V39.9441C49.9061 42.5862 48.8565 45.12 46.9883 46.9883C45.1201 48.8565 42.5862 49.906 39.9441 49.906Z" fill="#9C1010"/>
<path d="M39.8868 49.8098H10.1155C7.48355 49.8098 4.95936 48.7644 3.09808 46.9036C1.23679 45.0427 0.190824 42.5188 0.190216 39.8868V10.1132C0.190824 7.48126 1.23679 4.95731 3.09808 3.09646C4.95936 1.2356 7.48355 0.190216 10.1155 0.190216H39.8868C42.5188 0.190216 45.0429 1.2356 46.9042 3.09646C48.7655 4.95731 49.8115 7.48126 49.8121 10.1132V39.8868C49.8115 42.5188 48.7655 45.0427 46.9042 46.9036C45.0429 48.7644 42.5188 49.8098 39.8868 49.8098Z" fill="#9D1010"/>
<path d="M39.8295 49.7158H10.1705C8.87217 49.7161 7.58645 49.4606 6.38685 48.9639C5.18725 48.4672 4.09727 47.7389 3.17918 46.8208C2.26109 45.9028 1.53288 44.8128 1.03615 43.6132C0.539421 42.4136 0.283909 41.1279 0.28421 39.8295V10.1705C0.283909 8.87211 0.539421 7.58639 1.03615 6.38679C1.53288 5.18719 2.26109 4.09721 3.17918 3.17912C4.09727 2.26103 5.18725 1.53282 6.38685 1.03609C7.58645 0.53936 8.87217 0.283848 10.1705 0.284149H39.8295C41.1279 0.283848 42.4136 0.53936 43.6132 1.03609C44.8128 1.53282 45.9028 2.26103 46.8209 3.17912C47.739 4.09721 48.4672 5.18719 48.9639 6.38679C49.4607 7.58639 49.7162 8.87211 49.7159 10.1705V39.8295C49.7162 41.1279 49.4607 42.4136 48.9639 43.6132C48.4672 44.8128 47.739 45.9028 46.8209 46.8208C45.9028 47.7389 44.8128 48.4672 43.6132 48.9639C42.4136 49.4606 41.1279 49.7161 39.8295 49.7158Z" fill="#9E1010"/>
<path d="M39.7722 49.6218H10.2278C7.61424 49.6218 5.10778 48.5836 3.25975 46.7356C1.41172 44.8876 0.373505 42.3811 0.373505 39.7676V10.2278C0.373505 7.61424 1.41172 5.10778 3.25975 3.25975C5.10778 1.41172 7.61424 0.373505 10.2278 0.373505H39.7722C42.3857 0.373505 44.8921 1.41172 46.7402 3.25975C48.5882 5.10778 49.6264 7.61424 49.6264 10.2278V39.7722C49.6252 42.3849 48.5864 44.8902 46.7386 46.7372C44.8907 48.5843 42.3849 49.6218 39.7722 49.6218Z" fill="#9F1010"/>
<path d="M39.7172 49.5279H10.2851C7.68293 49.5279 5.18731 48.4944 3.34708 46.6546C1.50685 44.8148 0.472715 42.3194 0.472107 39.7172V10.2828C0.472715 7.68061 1.50685 5.18523 3.34708 3.34543C5.18731 1.50563 7.68293 0.472076 10.2851 0.472076H39.7172C42.3192 0.472076 44.8146 1.5057 46.6544 3.34557C48.4943 5.18543 49.5279 7.68082 49.5279 10.2828V39.7172C49.5279 42.3192 48.4943 44.8146 46.6544 46.6544C44.8146 48.4943 42.3192 49.5279 39.7172 49.5279Z" fill="#A01111"/>
<path d="M39.6599 49.4317H10.3424C9.05893 49.432 7.78801 49.1794 6.60218 48.6885C5.41635 48.1975 4.33885 47.4778 3.43122 46.5704C2.52358 45.663 1.8036 44.5856 1.31238 43.3999C0.821158 42.2142 0.568329 40.9433 0.568329 39.6599V10.3401C0.568329 9.05664 0.821158 7.78577 1.31238 6.60006C1.8036 5.41435 2.52358 4.33702 3.43122 3.4296C4.33885 2.52218 5.41635 1.80244 6.60218 1.3115C7.78801 0.82056 9.05893 0.568028 10.3424 0.568329H39.6599C42.2517 0.568329 44.7375 1.59778 46.5704 3.43027C48.4033 5.26276 49.4333 7.74824 49.4339 10.3401V39.6599C49.4333 42.2517 48.4033 44.7372 46.5704 46.5697C44.7375 48.4022 42.2517 49.4317 39.6599 49.4317Z" fill="#A11111"/>
<path d="M39.6026 49.3377H10.3974C7.8155 49.3377 5.33934 48.312 3.51366 46.4863C1.68798 44.6607 0.662323 42.1845 0.662323 39.6026V10.3973C0.662323 7.81544 1.68798 5.33928 3.51366 3.5136C5.33934 1.68792 7.8155 0.662262 10.3974 0.662262H39.6026C42.1846 0.662262 44.6607 1.68792 46.4864 3.5136C48.3121 5.33928 49.3377 7.81544 49.3377 10.3973V39.6026C49.3377 42.1845 48.3121 44.6607 46.4864 46.4863C44.6607 48.312 42.1846 49.3377 39.6026 49.3377Z" fill="#A21111"/>
<path d="M39.5453 49.2437H10.4546C7.88246 49.2437 5.41563 48.222 3.59683 46.4031C1.77802 44.5843 0.756226 42.1175 0.756226 39.5453V10.4547C0.756226 7.88249 1.77802 5.41566 3.59683 3.59686C5.41563 1.77805 7.88246 0.756256 10.4546 0.756256H39.5453C42.1175 0.756256 44.5843 1.77805 46.4031 3.59686C48.2219 5.41566 49.2437 7.88249 49.2437 10.4547V39.5453C49.2437 42.1175 48.2219 44.5843 46.4031 46.4031C44.5843 48.222 42.1175 49.2437 39.5453 49.2437Z" fill="#A31111"/>
<path d="M39.4904 49.1498H10.512C9.24353 49.1498 7.98745 48.8999 6.81551 48.4145C5.64357 47.9291 4.57872 47.2176 3.68176 46.3206C2.7848 45.4236 2.07328 44.3588 1.58785 43.1868C1.10242 42.0149 0.85257 40.7588 0.85257 39.4903V10.512C0.85257 7.94991 1.87019 5.49275 3.68162 3.68089C5.49305 1.86903 7.94997 0.850827 10.512 0.85022H39.4904C42.0525 0.850827 44.5094 1.86903 46.3208 3.68089C48.1322 5.49275 49.1498 7.94991 49.1498 10.512V39.4903C49.1498 40.7588 48.9 42.0149 48.4146 43.1868C47.9291 44.3588 47.2176 45.4236 46.3207 46.3206C45.4237 47.2176 44.3588 47.9291 43.1869 48.4145C42.015 48.8999 40.7589 49.1498 39.4904 49.1498Z" fill="#A41111"/>
<path d="M39.4331 49.0535H10.5693C8.01656 49.0535 5.56839 48.0394 3.76333 46.2344C1.95828 44.4293 0.944214 41.9812 0.944214 39.4284V10.5532C0.944214 8.00045 1.95828 5.55227 3.76333 3.74722C5.56839 1.94217 8.01656 0.928101 10.5693 0.928101H39.4445C41.9973 0.928101 44.4454 1.94217 46.2505 3.74722C48.0555 5.55227 49.0696 8.00045 49.0696 10.5532V39.4284C49.0696 40.6934 48.8203 41.9459 48.3359 43.1144C47.8514 44.2829 47.1414 45.3445 46.2464 46.2384C45.3515 47.1324 44.2891 47.8411 43.12 48.3241C41.9509 48.8072 40.698 49.055 39.4331 49.0535Z" fill="#A51111"/>
<path d="M39.3758 48.9596H10.6243C8.08248 48.9596 5.64479 47.9498 3.84747 46.1525C2.05016 44.3552 1.04044 41.9175 1.04044 39.3757V10.6242C1.04044 8.08245 2.05016 5.64476 3.84747 3.84744C5.64479 2.05013 8.08248 1.04041 10.6243 1.04041H39.3758C41.9175 1.04041 44.3552 2.05013 46.1525 3.84744C47.9499 5.64476 48.9596 8.08245 48.9596 10.6242V39.3757C48.9596 41.9175 47.9499 44.3552 46.1525 46.1525C44.3552 47.9498 41.9175 48.9596 39.3758 48.9596Z" fill="#A61111"/>
<path d="M39.3185 48.8656H10.6724C8.14389 48.8602 5.72083 47.8519 3.93485 46.062C2.14887 44.2722 1.14584 41.847 1.14584 39.3185V10.6724C1.1513 8.14588 2.158 5.72454 3.94537 3.93889C5.73274 2.15324 8.15504 1.14887 10.6815 1.14584H39.3276C41.8597 1.14584 44.288 2.1517 46.0785 3.94214C47.8689 5.73258 48.8748 8.16094 48.8748 10.693V39.3391C48.8693 41.8692 47.8598 44.2936 46.068 46.0799C44.2761 47.8661 41.8485 48.8681 39.3185 48.8656Z" fill="#A71111"/>
<path d="M39.2635 48.7693H10.7389C9.49033 48.7696 8.25397 48.524 7.1004 48.0464C5.94682 47.5688 4.89863 46.8687 4.01568 45.9859C3.13273 45.1032 2.43233 44.0552 1.95447 42.9017C1.47661 41.7482 1.23065 40.5119 1.23065 39.2634V10.7388C1.23035 9.49008 1.47608 8.25353 1.95381 7.09981C2.43153 5.94608 3.13189 4.89779 4.01487 4.01481C4.89785 3.13183 5.94614 2.43147 7.09987 1.95375C8.25359 1.47602 9.49014 1.23029 10.7389 1.23059H39.2635C41.7852 1.23059 44.2037 2.23235 45.9868 4.01548C47.7699 5.79861 48.7717 8.21706 48.7717 10.7388V39.2634C48.7711 41.7847 47.769 44.2026 45.986 45.9852C44.2029 47.7679 41.7848 48.7693 39.2635 48.7693Z" fill="#A81212"/>
<path d="M39.2061 48.6754H10.7892C8.27861 48.6742 5.87125 47.676 4.09641 45.9003C2.32157 44.1246 1.32455 41.7168 1.32455 39.2062V10.7938C1.32455 9.55012 1.56956 8.31859 2.04558 7.16958C2.52159 6.02057 3.2193 4.97658 4.09884 4.09725C4.97839 3.21792 6.02254 2.52047 7.17166 2.04473C8.32079 1.56899 9.55238 1.32428 10.7961 1.32459H39.213C41.7232 1.32641 44.13 2.32486 45.9043 4.10049C47.6787 5.87612 48.6754 8.28362 48.6754 10.7938V39.2107C48.6741 41.7213 47.676 44.1287 45.9003 45.9035C44.1246 47.6784 41.7167 48.6754 39.2061 48.6754Z" fill="#A91212"/>
<path d="M39.1489 48.5837H10.8511C9.61223 48.5837 8.38547 48.3396 7.24091 47.8655C6.09634 47.3913 5.0564 46.6963 4.18048 45.8202C3.30455 44.944 2.6098 43.9039 2.1359 42.7592C1.66201 41.6146 1.41825 40.3877 1.41855 39.1488V10.8511C1.41855 8.34942 2.41234 5.95021 4.18129 4.18126C5.95024 2.41231 8.34945 1.41852 10.8511 1.41852H39.1489C40.3878 1.41822 41.6146 1.66198 42.7593 2.13587C43.9039 2.60977 44.944 3.30452 45.8202 4.18045C46.6963 5.05637 47.3913 6.09631 47.8655 7.24088C48.3397 8.38544 48.5837 9.6122 48.5837 10.8511V39.1488C48.584 40.3879 48.3402 41.6149 47.8662 42.7598C47.3921 43.9046 46.6972 44.9448 45.821 45.821C44.9448 46.6971 43.9046 47.3921 42.7598 47.8661C41.615 48.3402 40.388 48.584 39.1489 48.5837Z" fill="#AA1212"/>
<path d="M39.0916 48.4875H10.9085C8.4165 48.4875 6.02662 47.4976 4.26454 45.7355C2.50247 43.9734 1.51254 41.5835 1.51254 39.0916V10.9084C1.51254 8.41647 2.50247 6.02659 4.26454 4.26451C6.02662 2.50244 8.4165 1.51251 10.9085 1.51251H39.0962C41.5881 1.51251 43.978 2.50244 45.7401 4.26451C47.5022 6.02659 48.4921 8.41647 48.4921 10.9084V39.0962C48.4915 40.3301 48.2479 41.5517 47.7751 42.6915C47.3024 43.8312 46.6098 44.8667 45.7369 45.7387C44.8639 46.6108 43.8278 47.3024 42.6876 47.774C41.5474 48.2457 40.3255 48.4881 39.0916 48.4875Z" fill="#AB1212"/>
<path d="M39.0366 48.3912H10.9657C9.73676 48.3918 8.51971 48.1503 7.3841 47.6805C6.24848 47.2107 5.21654 46.5218 4.34721 45.6531C3.47788 44.7844 2.78819 43.753 2.31754 42.6177C1.84689 41.4824 1.60449 40.2655 1.60419 39.0366V10.9657C1.60359 9.73618 1.84532 8.51857 2.31557 7.38251C2.78581 6.24644 3.47536 5.21419 4.34478 4.34478C5.21419 3.47536 6.24644 2.78581 7.38251 2.31557C8.51857 1.84532 9.73618 1.60359 10.9657 1.60419H39.0366C41.5182 1.60419 43.8982 2.59001 45.6529 4.34478C47.4077 6.09955 48.3935 8.47952 48.3935 10.9611V39.0366C48.3929 41.5178 47.4068 43.8972 45.6521 45.6515C43.8974 47.4057 41.5178 48.3912 39.0366 48.3912Z" fill="#AC1212"/>
<path d="M38.9793 48.2973H11.023C8.55155 48.2973 6.18124 47.3157 4.43342 45.5683C2.68559 43.8209 1.70337 41.4508 1.70276 38.9793V11.0207C1.70337 8.54923 2.68559 6.17916 4.43342 4.43177C6.18124 2.68437 8.55155 1.70273 11.023 1.70273H38.9816C41.4529 1.70273 43.823 2.68444 45.5704 4.43191C47.3179 6.17937 48.2996 8.54944 48.2996 11.0207V38.9793C48.2996 40.2031 48.0585 41.415 47.5901 42.5457C47.1217 43.6763 46.4351 44.7036 45.5696 45.5689C44.7041 46.4342 43.6766 47.1205 42.5459 47.5887C41.4151 48.0568 40.2032 48.2976 38.9793 48.2973Z" fill="#AD1212"/>
<path d="M38.9219 48.2033H11.078C8.6164 48.2033 6.25566 47.2255 4.51507 45.4849C2.77448 43.7443 1.79663 41.3836 1.79663 38.922V11.078C1.79663 8.61646 2.77448 6.25572 4.51507 4.51513C6.25566 2.77454 8.6164 1.79669 11.078 1.79669H38.9219C41.3835 1.79669 43.7442 2.77454 45.4848 4.51513C47.2254 6.25572 48.2033 8.61646 48.2033 11.078V38.922C48.2033 41.3836 47.2254 43.7443 45.4848 45.4849C43.7442 47.2255 41.3835 48.2033 38.9219 48.2033Z" fill="#AE1212"/>
<path d="M38.8647 48.1094H11.1353C8.68367 48.1088 6.3326 47.1346 4.59902 45.401C2.86545 43.6674 1.89126 41.3164 1.89066 38.8647V11.1353C1.89126 8.68367 2.86545 6.3326 4.59902 4.59902C6.3326 2.86545 8.68367 1.89126 11.1353 1.89066H38.8647C41.3166 1.89066 43.668 2.86464 45.4017 4.59835C47.1354 6.33206 48.1094 8.68348 48.1094 11.1353V38.8647C48.1094 41.3166 47.1354 43.668 45.4017 45.4017C43.668 47.1354 41.3166 48.1094 38.8647 48.1094Z" fill="#AF1212"/>
<path d="M38.8097 48.0131H11.1926C9.98378 48.0134 8.78676 47.7756 7.66988 47.3132C6.55301 46.8508 5.53816 46.1729 4.6833 45.3183C3.82845 44.4636 3.15032 43.449 2.68766 42.3322C2.22501 41.2155 1.98688 40.0185 1.98688 38.8097V11.1926C1.98658 9.98359 2.22448 8.78638 2.68701 7.66935C3.14953 6.55233 3.82761 5.53738 4.68249 4.68249C5.53738 3.82761 6.55233 3.14953 7.66935 2.68701C8.78638 2.22448 9.98358 1.98658 11.1926 1.98688H38.8097C40.0186 1.98688 41.2157 2.22499 42.3326 2.68762C43.4494 3.15025 44.4643 3.82834 45.3191 4.68317C46.1739 5.53799 46.852 6.55282 47.3146 7.66971C47.7773 8.7866 48.0154 9.98367 48.0154 11.1926V38.8097C48.0148 41.2508 47.0446 43.5917 45.3183 45.3176C43.592 47.0435 41.2508 48.0131 38.8097 48.0131Z" fill="#B01212"/>
<path d="M38.7524 47.9192H11.2522C10.0484 47.9192 8.85639 47.6821 7.74423 47.2214C6.63207 46.7607 5.62154 46.0855 4.77033 45.2343C3.05123 43.5152 2.08545 41.1836 2.08545 38.7524V11.2522C2.08545 8.82102 3.05123 6.48942 4.77033 4.77033C6.48942 3.05123 8.82102 2.08545 11.2522 2.08545H38.7524C39.9562 2.08545 41.1482 2.32255 42.2604 2.78323C43.3725 3.2439 44.3831 3.91912 45.2343 4.77033C46.0855 5.62154 46.7607 6.63207 47.2214 7.74423C47.6821 8.85639 47.9192 10.0484 47.9192 11.2522V38.7524C47.9192 41.1836 46.9534 43.5152 45.2343 45.2343C43.5152 46.9534 41.1836 47.9192 38.7524 47.9192Z" fill="#B01313"/>
<path d="M38.6952 47.8252H11.3072C8.88558 47.8252 6.56307 46.8633 4.85048 45.1512C3.1379 43.439 2.17547 41.1168 2.17487 38.6951V11.3049C2.17547 8.88322 3.1379 6.56096 4.85048 4.8488C6.56307 3.13665 8.88558 2.1748 11.3072 2.1748H38.6952C41.1166 2.1748 43.4389 3.13672 45.1511 4.84894C46.8633 6.56116 47.8252 8.88344 47.8252 11.3049V38.6951C47.8252 41.1166 46.8633 43.4388 45.1511 45.1511C43.4389 46.8633 41.1166 47.8252 38.6952 47.8252Z" fill="#B11313"/>
<path d="M11.3622 2.27106H38.6333C39.8274 2.27106 41.0099 2.50627 42.1132 2.96325C43.2164 3.42024 44.2189 4.09005 45.0633 4.93446C45.9077 5.77886 46.5775 6.78131 47.0345 7.88457C47.4915 8.98783 47.7267 10.1703 47.7267 11.3645V38.6355C47.7267 41.0466 46.7689 43.359 45.064 45.0639C43.359 46.7688 41.0467 47.7266 38.6356 47.7266H11.3645C10.1706 47.7269 8.9884 47.4921 7.8853 47.0355C6.7822 46.5789 5.77984 45.9095 4.93544 45.0655C4.09103 44.2216 3.42114 43.2195 2.96399 42.1167C2.50684 41.0138 2.27139 39.8317 2.27109 38.6378V11.3668C2.27049 10.1725 2.50519 8.98984 2.96179 7.88633C3.41839 6.78282 4.08795 5.78008 4.93219 4.9354C5.77644 4.09073 6.77884 3.42067 7.88213 2.96352C8.98541 2.50636 10.168 2.27106 11.3622 2.27106Z" fill="#B21313"/>
<path d="M38.5828 2.36499H11.4194C6.41881 2.36499 2.36499 6.41881 2.36499 11.4194V38.5805C2.36499 43.5811 6.41881 47.635 11.4194 47.635H38.5828C43.5834 47.635 47.6372 43.5811 47.6372 38.5805V11.4194C47.6372 6.41881 43.5834 2.36499 38.5828 2.36499Z" fill="#B31313"/>
<path d="M11.4745 2.45898H38.5164C40.9081 2.45898 43.2018 3.40907 44.893 5.10023C46.5841 6.79139 47.5342 9.0851 47.5342 11.4768V38.5187C47.5342 40.9097 46.5844 43.2028 44.8936 44.8936C43.2029 46.5843 40.9098 47.5342 38.5187 47.5342H11.4768C9.08577 47.5342 6.79264 46.5843 5.10191 44.8936C3.41118 43.2028 2.46133 40.9097 2.46133 38.5187V11.4768C2.46103 10.2928 2.69393 9.12044 3.14672 8.02651C3.59951 6.93259 4.26334 5.93856 5.10029 5.10118C5.93724 4.2638 6.93094 3.59947 8.02463 3.14612C9.11833 2.69278 10.2906 2.45929 11.4745 2.45898Z" fill="#B41313"/>
<path d="M38.4683 47.4379H11.5341C9.15255 47.4379 6.86852 46.492 5.1843 44.8082C3.50008 43.1244 2.55359 40.8406 2.55298 38.4591V11.5318C2.55359 9.15023 3.50008 6.86644 5.1843 5.18265C6.86852 3.49886 9.15255 2.55295 11.5341 2.55295H38.4683C40.848 2.55538 43.1295 3.50243 44.8113 5.18602C46.4932 6.86962 47.4379 9.15203 47.4379 11.5318V38.4683C47.4355 40.8464 46.4897 43.1265 44.8081 44.8081C43.1265 46.4897 40.8464 47.4355 38.4683 47.4379Z" fill="#B51313"/>
<path d="M11.589 2.6492H38.4017C40.7721 2.6492 43.0454 3.59084 44.7215 5.26696C46.3977 6.94308 47.3393 9.21638 47.3393 11.5868V38.3995C47.3393 40.7699 46.3977 43.0432 44.7215 44.7193C43.0454 46.3954 40.7721 47.3371 38.4017 47.3371H11.589C9.21861 47.3371 6.9453 46.3954 5.26918 44.7193C3.59306 43.0432 2.65143 40.7699 2.65143 38.3995V11.5868C2.65143 9.21638 3.59306 6.94308 5.26918 5.26696C6.9453 3.59084 9.21861 2.6492 11.589 2.6492Z" fill="#B61313"/>
<path d="M38.3537 2.7431H11.6464C6.72929 2.7431 2.74319 6.7292 2.74319 11.6463V38.3536C2.74319 43.2707 6.72929 47.2568 11.6464 47.2568H38.3537C43.2708 47.2568 47.2569 43.2707 47.2569 38.3536V11.6463C47.2569 6.7292 43.2708 2.7431 38.3537 2.7431Z" fill="#B71313"/>
<path d="M38.2986 2.8371H11.7013C6.80572 2.8371 2.83707 6.80575 2.83707 11.7013V38.2986C2.83707 43.1942 6.80572 47.1629 11.7013 47.1629H38.2986C43.1942 47.1629 47.1629 43.1942 47.1629 38.2986V11.7013C47.1629 6.80575 43.1942 2.8371 38.2986 2.8371Z" fill="#B81414"/>
<path d="M38.2391 2.93106H11.7586C6.8833 2.93106 2.93106 6.8833 2.93106 11.7586V38.2391C2.93106 43.1144 6.8833 47.0666 11.7586 47.0666H38.2391C43.1144 47.0666 47.0666 43.1144 47.0666 38.2391V11.7586C47.0666 6.8833 43.1144 2.93106 38.2391 2.93106Z" fill="#B91414"/>
<path d="M38.1864 3.02731H11.8159C6.96211 3.02731 3.02731 6.96211 3.02731 11.8159V38.1864C3.02731 43.0402 6.96211 46.975 11.8159 46.975H38.1864C43.0402 46.975 46.975 43.0402 46.975 38.1864V11.8159C46.975 6.96211 43.0402 3.02731 38.1864 3.02731Z" fill="#BA1414"/>
<path d="M38.1268 3.12125H11.8733C7.03969 3.12125 3.12131 7.03963 3.12131 11.8732V38.1268C3.12131 42.9603 7.03969 46.8787 11.8733 46.8787H38.1268C42.9604 46.8787 46.8788 42.9603 46.8788 38.1268V11.8732C46.8788 7.03963 42.9604 3.12125 38.1268 3.12125Z" fill="#BB1414"/>
<path d="M11.9282 3.20837H38.0695C40.3791 3.20837 42.5941 4.12586 44.2272 5.75901C45.8604 7.39215 46.7779 9.60717 46.7779 11.9168V38.0718C46.7779 40.3814 45.8604 42.5964 44.2272 44.2296C42.5941 45.8627 40.3791 46.7802 38.0695 46.7802H11.9282C9.61858 46.7802 7.40356 45.8627 5.77042 44.2296C4.13728 42.5964 3.21979 40.3814 3.21979 38.0718V11.9282C3.21979 9.61863 4.13728 7.40361 5.77042 5.77047C7.40356 4.13732 9.61858 3.21983 11.9282 3.21983V3.20837Z" fill="#BC1414"/>
<path d="M38.0145 3.31146H11.9878C7.19605 3.31146 3.31152 7.19598 3.31152 11.9878V38.0145C3.31152 42.8063 7.19605 46.6908 11.9878 46.6908H38.0145C42.8063 46.6908 46.6908 42.8063 46.6908 38.0145V11.9878C46.6908 7.19598 42.8063 3.31146 38.0145 3.31146Z" fill="#BD1414"/>
<path d="M37.9595 3.40546H12.0428C7.27251 3.40546 3.40543 7.27254 3.40543 12.0428V37.9595C3.40543 42.7298 7.27251 46.5969 12.0428 46.5969H37.9595C42.7297 46.5969 46.5968 42.7298 46.5968 37.9595V12.0428C46.5968 7.27254 42.7297 3.40546 37.9595 3.40546Z" fill="#BE1414"/>
<path d="M37.9022 46.5006H12.1001C9.81907 46.5006 7.63145 45.5944 6.01851 43.9815C4.40556 42.3685 3.49942 40.1809 3.49942 37.8999V12.1001C3.49942 9.81901 4.40556 7.63139 6.01851 6.01845C7.63145 4.4055 9.81907 3.49936 12.1001 3.49936H37.9022C39.0316 3.49936 40.1498 3.72184 41.1932 4.15409C42.2366 4.58635 43.1845 5.21991 43.983 6.01858C44.7815 6.81726 45.4148 7.76541 45.8468 8.80889C46.2787 9.85236 46.5009 10.9707 46.5006 12.1001V37.8999C46.5009 39.0292 46.2787 40.1476 45.8468 41.191C45.4148 42.2345 44.7815 43.1827 43.983 43.9813C43.1845 44.78 42.2366 45.4136 41.1932 45.8458C40.1498 46.2781 39.0316 46.5006 37.9022 46.5006Z" fill="#BF1414"/>
<path d="M37.8449 46.4066H12.1574C9.88652 46.4066 7.70857 45.5047 6.10257 43.8991C4.49657 42.2935 3.59402 40.1158 3.59341 37.8449V12.1459C3.59645 9.87659 4.50007 7.70124 6.10581 6.09765C7.71155 4.49406 9.88811 3.59335 12.1574 3.59335H37.8449C40.1141 3.59335 42.2904 4.49413 43.8958 6.09779C45.5011 7.70144 46.4043 9.8768 46.4067 12.1459V37.8357C46.4079 38.9608 46.1873 40.0752 45.7576 41.115C45.3279 42.1548 44.6974 43.0997 43.9023 43.8957C43.1071 44.6917 42.1629 45.3232 41.1235 45.754C40.0841 46.1849 38.9701 46.4066 37.8449 46.4066Z" fill="#C01515"/>
<path d="M37.7876 46.3126H12.2147C9.95372 46.3126 7.78533 45.4145 6.18657 43.8157C4.58781 42.2169 3.68964 40.0486 3.68964 37.7876V12.2124C3.68964 11.0929 3.91016 9.98448 4.33861 8.9503C4.76707 7.91612 5.39505 6.97647 6.18671 6.18503C6.97837 5.39359 7.91818 4.76585 8.95248 4.33768C9.98677 3.9095 11.0953 3.68927 12.2147 3.68958H37.7876C40.0482 3.68958 42.2163 4.58744 43.815 6.1857C45.4137 7.78397 46.3121 9.95176 46.3127 12.2124V37.7876C46.3121 40.0484 45.4137 42.2164 43.8151 43.815C42.2165 45.4137 40.0484 46.312 37.7876 46.3126Z" fill="#C11515"/>
<path d="M37.7303 46.2164H12.2697C10.0209 46.2164 7.86414 45.323 6.27398 43.7329C4.68381 42.1427 3.79047 39.986 3.79047 37.7371V12.2696C3.79047 10.0208 4.68381 7.86408 6.27398 6.27392C7.86414 4.68375 10.0209 3.79041 12.2697 3.79041H37.7303C39.9792 3.79041 42.1359 4.68375 43.7261 6.27392C45.3162 7.86408 46.2096 10.0208 46.2096 12.2696V37.7303C46.2105 38.8444 45.9918 39.9477 45.5661 40.9772C45.1404 42.0068 44.5159 42.9423 43.7285 43.7304C42.941 44.5185 42.006 45.1437 40.9768 45.5703C39.9476 45.9968 38.8444 46.2164 37.7303 46.2164Z" fill="#C21515"/>
<path d="M12.3269 3.8775H37.673C39.9139 3.8775 42.0631 4.76771 43.6477 6.35229C45.2322 7.93687 46.1224 10.086 46.1224 12.3269V37.673C46.1224 39.9139 45.2322 42.0631 43.6477 43.6477C42.0631 45.2322 39.9139 46.1224 37.673 46.1224H12.3269C11.2175 46.1227 10.1188 45.9045 9.09366 45.4801C8.06854 45.0557 7.13706 44.4336 6.35243 43.6491C5.56779 42.8647 4.94538 41.9334 4.52072 40.9084C4.09607 39.8834 3.8775 38.7848 3.8775 37.6753V12.3269C3.8775 10.086 4.76771 7.93687 6.35229 6.35229C7.93687 4.76771 10.086 3.8775 12.3269 3.8775Z" fill="#C31515"/>
<path d="M37.6157 3.9715H12.382C7.737 3.9715 3.9715 7.737 3.9715 12.382V37.6157C3.9715 42.2607 7.737 46.0262 12.382 46.0262H37.6157C42.2607 46.0262 46.0262 42.2607 46.0262 37.6157V12.382C46.0262 7.737 42.2607 3.9715 37.6157 3.9715Z" fill="#C41515"/>
<path style="mix-blend-mode:screen" d="M39.9991 50H10.0009C7.34851 50 4.80474 48.9463 2.9292 47.0708C1.05367 45.1953 0 42.6515 0 39.9991L0 10.0009C0 7.34851 1.05367 4.80474 2.9292 2.9292C4.80474 1.05367 7.34851 0 10.0009 0L39.9991 0C42.6515 0 45.1953 1.05367 47.0708 2.9292C48.9463 4.80474 50 7.34851 50 10.0009V39.9991C50 42.6515 48.9463 45.1953 47.0708 47.0708C45.1953 48.9463 42.6515 50 39.9991 50Z" fill="url(#paint0_linear_91_1114)"/>
<path style="mix-blend-mode:soft-light" d="M37.6157 3.9715H12.382C7.737 3.9715 3.9715 7.737 3.9715 12.382V37.6157C3.9715 42.2607 7.737 46.0262 12.382 46.0262H37.6157C42.2607 46.0262 46.0262 42.2607 46.0262 37.6157V12.382C46.0262 7.737 42.2607 3.9715 37.6157 3.9715Z" fill="url(#paint1_linear_91_1114)"/>
<path d="M18.3335 12.9801C18.3335 13.9692 18.0401 14.9361 17.4906 15.7584C16.941 16.5808 16.1599 17.2217 15.2461 17.6001C14.3322 17.9785 13.3267 18.0774 12.3566 17.8843C11.3866 17.6912 10.4956 17.2147 9.79634 16.5152C9.09711 15.8156 8.62104 14.9244 8.42836 13.9542C8.23567 12.9841 8.33502 11.9786 8.71385 11.0649C9.09267 10.1512 9.73395 9.37044 10.5566 8.82126C11.3792 8.27208 12.3462 7.97919 13.3353 7.97965C14.6611 7.98025 15.9324 8.50735 16.8697 9.44506C17.807 10.3828 18.3335 11.6543 18.3335 12.9801Z" fill="url(#paint2_radial_91_1114)"/>
<path d="M41.6675 36.3141C41.6675 37.3031 41.3742 38.2698 40.8248 39.0922C40.2753 39.9145 39.4943 40.5554 38.5806 40.9339C37.6669 41.3124 36.6615 41.4114 35.6915 41.2184C34.7215 41.0255 33.8305 40.5492 33.1312 39.8499C32.4318 39.1506 31.9556 38.2596 31.7626 37.2896C31.5697 36.3196 31.6687 35.3142 32.0472 34.4005C32.4257 33.4868 33.0666 32.7058 33.8889 32.1563C34.7112 31.6069 35.678 31.3136 36.667 31.3136C37.3238 31.3133 37.9742 31.4424 38.581 31.6936C39.1878 31.9448 39.7392 32.3131 40.2036 32.7775C40.668 33.2419 41.0363 33.7933 41.2875 34.4001C41.5387 35.0069 41.6678 35.6573 41.6675 36.3141Z" fill="url(#paint3_radial_91_1114)"/>
<defs>
<linearGradient id="paint0_linear_91_1114" x1="50.0917" y1="25" x2="0.485839" y2="25" gradientUnits="userSpaceOnUse">
<stop offset="0.04" stop-color="#380404"/>
<stop offset="1"/>
</linearGradient>
<linearGradient id="paint1_linear_91_1114" x1="3.64837" y1="25" x2="46.1064" y2="25" gradientUnits="userSpaceOnUse">
<stop stop-color="#8F0F0F"/>
<stop offset="1"/>
</linearGradient>
<radialGradient id="paint2_radial_91_1114" cx="0" cy="0" r="1" gradientUnits="userSpaceOnUse" gradientTransform="translate(13.333 12.9801) scale(5.00046)">
<stop stop-color="#F0F0F0"/>
<stop offset="1" stop-color="#E3E3E3"/>
</radialGradient>
<radialGradient id="paint3_radial_91_1114" cx="0" cy="0" r="1" gradientUnits="userSpaceOnUse" gradientTransform="translate(36.667 36.3141) scale(5.00046 5.00046)">
<stop stop-color="#F0F0F0"/>
<stop offset="1" stop-color="#E3E3E3"/>
</radialGradient>
</defs>
</svg>
