<svg width="252" height="252" viewBox="0 0 252 252" fill="none" xmlns="http://www.w3.org/2000/svg">
<g clip-path="url(#clip0_46_78)">
<path d="M239.52 0.470001H12.47C5.84255 0.470001 0.469971 5.84258 0.469971 12.47V239.52C0.469971 246.147 5.84255 251.52 12.47 251.52H239.52C246.147 251.52 251.52 246.147 251.52 239.52V12.47C251.52 5.84258 246.147 0.470001 239.52 0.470001Z" fill="url(#paint0_linear_46_78)"/>
<path d="M127.43 240.77C191.605 240.77 243.63 188.745 243.63 124.57C243.63 60.3945 191.605 8.37 127.43 8.37C63.2545 8.37 11.23 60.3945 11.23 124.57C11.23 188.745 63.2545 240.77 127.43 240.77Z" fill="url(#paint1_linear_46_78)"/>
<path d="M95.5909 83.2264C100.379 71.604 94.8385 58.3007 83.2162 53.5127C71.5938 48.7247 58.2905 54.265 53.5025 65.8874C48.7145 77.5098 54.2548 90.813 65.8772 95.6011C77.4996 100.389 90.8028 94.8488 95.5909 83.2264Z" fill="black"/>
<path style="mix-blend-mode:screen" d="M93.93 68.45C98 72.52 95.6 81.53 88.56 88.56C81.52 95.59 72.56 98 68.45 93.93C64.34 89.86 66.78 80.85 73.82 73.82C80.86 66.79 89.86 64.38 93.93 68.45Z" fill="url(#paint2_radial_46_78)"/>
<path d="M182.167 199.711C194.464 197.106 202.322 185.026 199.717 172.729C197.112 160.432 185.031 152.574 172.734 155.179C160.437 157.784 152.58 169.865 155.185 182.162C157.79 194.459 169.87 202.316 182.167 199.711Z" fill="black"/>
<path style="mix-blend-mode:screen" d="M196.82 171.35C200.89 175.42 198.49 184.42 191.46 191.46C184.43 198.5 175.46 200.89 171.35 196.82C167.24 192.75 169.67 183.74 176.71 176.71C183.75 169.68 192.75 167.27 196.82 171.35Z" fill="url(#paint3_radial_46_78)"/>
<path d="M147.753 132.719C151.462 120.709 144.732 107.966 132.721 104.257C120.711 100.549 107.968 107.279 104.259 119.289C100.551 131.299 107.281 144.042 119.291 147.751C131.301 151.46 144.044 144.73 147.753 132.719Z" fill="black"/>
<path style="mix-blend-mode:screen" d="M145.38 120.85C149.45 124.92 147.05 133.92 140.01 140.96C132.97 148 124.01 150.4 119.9 146.32C115.79 142.24 118.23 133.25 125.26 126.21C132.29 119.17 141.3 116.77 145.38 120.85Z" fill="url(#paint4_radial_46_78)"/>
</g>
<defs>
<linearGradient id="paint0_linear_46_78" x1="3.98997" y1="3.99" x2="248.01" y2="248.01" gradientUnits="userSpaceOnUse">
<stop stop-color="#F2F2F2"/>
<stop offset="1" stop-color="#E6E6E5"/>
</linearGradient>
<linearGradient id="paint1_linear_46_78" x1="45.27" y1="42.4" x2="209.6" y2="206.73" gradientUnits="userSpaceOnUse">
<stop stop-color="#CCCBCB"/>
<stop offset="0.19" stop-color="#DFDFDF"/>
<stop offset="0.44" stop-color="#F1F1F1"/>
<stop offset="0.7" stop-color="#FCFBFB"/>
<stop offset="1" stop-color="white"/>
</linearGradient>
<radialGradient id="paint2_radial_46_78" cx="0" cy="0" r="1" gradientUnits="userSpaceOnUse" gradientTransform="translate(75.5171 77.5202) rotate(-45) scale(18.0472 10.4833)">
<stop stop-color="#E6E6E5"/>
<stop offset="0.11" stop-color="#B2B2B1"/>
<stop offset="0.22" stop-color="#838383"/>
<stop offset="0.34" stop-color="#5B5B5A"/>
<stop offset="0.46" stop-color="#3A3A3A"/>
<stop offset="0.59" stop-color="#202020"/>
<stop offset="0.71" stop-color="#0E0E0E"/>
<stop offset="0.85" stop-color="#040403"/>
<stop offset="1"/>
</radialGradient>
<radialGradient id="paint3_radial_46_78" cx="0" cy="0" r="1" gradientUnits="userSpaceOnUse" gradientTransform="translate(178.972 180.976) rotate(-45) scale(18.0472 10.4833)">
<stop stop-color="#E6E6E5"/>
<stop offset="0.11" stop-color="#B2B2B1"/>
<stop offset="0.22" stop-color="#838383"/>
<stop offset="0.34" stop-color="#5B5B5A"/>
<stop offset="0.46" stop-color="#3A3A3A"/>
<stop offset="0.59" stop-color="#202020"/>
<stop offset="0.71" stop-color="#0E0E0E"/>
<stop offset="0.85" stop-color="#040403"/>
<stop offset="1"/>
</radialGradient>
<radialGradient id="paint4_radial_46_78" cx="0" cy="0" r="1" gradientUnits="userSpaceOnUse" gradientTransform="translate(127.248 130.194) rotate(-45) scale(18.0472 10.4833)">
<stop stop-color="#E6E6E5"/>
<stop offset="0.11" stop-color="#B2B2B1"/>
<stop offset="0.22" stop-color="#838383"/>
<stop offset="0.34" stop-color="#5B5B5A"/>
<stop offset="0.46" stop-color="#3A3A3A"/>
<stop offset="0.59" stop-color="#202020"/>
<stop offset="0.71" stop-color="#0E0E0E"/>
<stop offset="0.85" stop-color="#040403"/>
<stop offset="1"/>
</radialGradient>
<clipPath id="clip0_46_78">
<rect width="252" height="252" fill="white"/>
</clipPath>
</defs>
</svg>
