<svg width="252" height="252" viewBox="0 0 252 252" fill="none" xmlns="http://www.w3.org/2000/svg">
<g clip-path="url(#clip0_46_38)">
<path d="M239.52 0.470001H12.47C5.84255 0.470001 0.469971 5.84258 0.469971 12.47V239.52C0.469971 246.147 5.84255 251.52 12.47 251.52H239.52C246.147 251.52 251.52 246.147 251.52 239.52V12.47C251.52 5.84258 246.147 0.470001 239.52 0.470001Z" fill="url(#paint0_linear_46_38)"/>
<path d="M127.43 240.77C191.605 240.77 243.63 188.745 243.63 124.57C243.63 60.3945 191.605 8.37 127.43 8.37C63.2545 8.37 11.23 60.3945 11.23 124.57C11.23 188.745 63.2545 240.77 127.43 240.77Z" fill="url(#paint1_linear_46_38)"/>
<path d="M139.057 144.634C149.352 137.422 151.852 123.23 144.641 112.934C137.429 102.639 123.237 100.139 112.941 107.35C102.646 114.562 100.146 128.754 107.357 139.05C114.569 149.345 128.761 151.845 139.057 144.634Z" fill="black"/>
<path style="mix-blend-mode:screen" d="M145.38 120.85C149.45 124.92 147.05 133.92 140.01 140.96C132.97 148 124.01 150.4 119.9 146.32C115.79 142.24 118.23 133.25 125.26 126.21C132.29 119.17 141.3 116.77 145.38 120.85Z" fill="url(#paint2_radial_46_38)"/>
</g>
<defs>
<linearGradient id="paint0_linear_46_38" x1="3.98997" y1="3.99" x2="248.01" y2="248.01" gradientUnits="userSpaceOnUse">
<stop stop-color="#F2F2F2"/>
<stop offset="1" stop-color="#E6E6E5"/>
</linearGradient>
<linearGradient id="paint1_linear_46_38" x1="45.27" y1="42.4" x2="209.6" y2="206.73" gradientUnits="userSpaceOnUse">
<stop stop-color="#CCCBCB"/>
<stop offset="0.19" stop-color="#DFDFDF"/>
<stop offset="0.44" stop-color="#F1F1F1"/>
<stop offset="0.7" stop-color="#FCFBFB"/>
<stop offset="1" stop-color="white"/>
</linearGradient>
<radialGradient id="paint2_radial_46_38" cx="0" cy="0" r="1" gradientUnits="userSpaceOnUse" gradientTransform="translate(126.005 127.524) rotate(-45) scale(18.0472 10.4833)">
<stop stop-color="#E6E6E5"/>
<stop offset="0.11" stop-color="#B2B2B1"/>
<stop offset="0.22" stop-color="#838383"/>
<stop offset="0.34" stop-color="#5B5B5A"/>
<stop offset="0.46" stop-color="#3A3A3A"/>
<stop offset="0.59" stop-color="#202020"/>
<stop offset="0.71" stop-color="#0E0E0E"/>
<stop offset="0.85" stop-color="#040403"/>
<stop offset="1"/>
</radialGradient>
<clipPath id="clip0_46_38">
<rect width="252" height="252" fill="white"/>
</clipPath>
</defs>
</svg>
