<svg width="252" height="252" viewBox="0 0 252 252" fill="none" xmlns="http://www.w3.org/2000/svg">
<g clip-path="url(#clip0_46_54)">
<path d="M239.52 0.470001H12.47C5.84255 0.470001 0.469971 5.84258 0.469971 12.47V239.52C0.469971 246.147 5.84255 251.52 12.47 251.52H239.52C246.147 251.52 251.52 246.147 251.52 239.52V12.47C251.52 5.84258 246.147 0.470001 239.52 0.470001Z" fill="url(#paint0_linear_46_54)"/>
<path d="M127.43 240.77C191.605 240.77 243.63 188.745 243.63 124.57C243.63 60.3945 191.605 8.37 127.43 8.37C63.2545 8.37 11.23 60.3945 11.23 124.57C11.23 188.745 63.2545 240.77 127.43 240.77Z" fill="url(#paint1_linear_46_54)"/>
<path d="M96.1376 81.7378C100.112 69.8125 93.6657 56.9236 81.7404 52.9496C69.8152 48.9757 56.9263 55.4215 52.9523 67.3468C48.9784 79.2721 55.4242 92.161 67.3495 96.1349C79.2748 100.109 92.1637 93.663 96.1376 81.7378Z" fill="black"/>
<path style="mix-blend-mode:screen" d="M93.9301 68.45C98.0001 72.52 95.6001 81.53 88.5701 88.56C81.5401 95.59 72.5701 98 68.4501 93.93C64.3301 89.86 66.7801 80.85 73.8201 73.82C80.8601 66.79 89.8601 64.38 93.9301 68.45Z" fill="url(#paint2_radial_46_54)"/>
<path d="M198.477 186.155C203.287 174.541 197.773 161.228 186.159 156.417C174.546 151.607 161.232 157.122 156.422 168.735C151.612 180.348 157.126 193.662 168.74 198.472C180.353 203.283 193.667 197.768 198.477 186.155Z" fill="black"/>
<path style="mix-blend-mode:screen" d="M196.82 171.35C200.9 175.42 198.49 184.42 191.46 191.46C184.43 198.5 175.46 200.89 171.35 196.82C167.24 192.75 169.67 183.74 176.71 176.71C183.75 169.68 192.75 167.27 196.82 171.35Z" fill="url(#paint3_radial_46_54)"/>
</g>
<defs>
<linearGradient id="paint0_linear_46_54" x1="3.98997" y1="3.99" x2="248.01" y2="248.01" gradientUnits="userSpaceOnUse">
<stop stop-color="#F2F2F2"/>
<stop offset="1" stop-color="#E6E6E5"/>
</linearGradient>
<linearGradient id="paint1_linear_46_54" x1="45.27" y1="42.4" x2="209.6" y2="206.73" gradientUnits="userSpaceOnUse">
<stop stop-color="#CCCBCB"/>
<stop offset="0.19" stop-color="#DFDFDF"/>
<stop offset="0.44" stop-color="#F1F1F1"/>
<stop offset="0.7" stop-color="#FCFBFB"/>
<stop offset="1" stop-color="white"/>
</linearGradient>
<radialGradient id="paint2_radial_46_54" cx="0" cy="0" r="1" gradientUnits="userSpaceOnUse" gradientTransform="translate(74.8505 76.0745) rotate(-45) scale(18.0472 10.4833)">
<stop stop-color="#E6E6E5"/>
<stop offset="0.11" stop-color="#B2B2B1"/>
<stop offset="0.22" stop-color="#838383"/>
<stop offset="0.34" stop-color="#5B5B5A"/>
<stop offset="0.46" stop-color="#3A3A3A"/>
<stop offset="0.59" stop-color="#202020"/>
<stop offset="0.71" stop-color="#0E0E0E"/>
<stop offset="0.85" stop-color="#040403"/>
<stop offset="1"/>
</radialGradient>
<radialGradient id="paint3_radial_46_54" cx="0" cy="0" r="1" gradientUnits="userSpaceOnUse" gradientTransform="translate(178.3 179.524) rotate(-45) scale(18.0472 10.4833)">
<stop stop-color="#E6E6E5"/>
<stop offset="0.11" stop-color="#B2B2B1"/>
<stop offset="0.22" stop-color="#838383"/>
<stop offset="0.34" stop-color="#5B5B5A"/>
<stop offset="0.46" stop-color="#3A3A3A"/>
<stop offset="0.59" stop-color="#202020"/>
<stop offset="0.71" stop-color="#0E0E0E"/>
<stop offset="0.85" stop-color="#040403"/>
<stop offset="1"/>
</radialGradient>
<clipPath id="clip0_46_54">
<rect width="252" height="252" fill="white"/>
</clipPath>
</defs>
</svg>
