<svg width="135" height="135" viewBox="0 0 135 135" fill="none" xmlns="http://www.w3.org/2000/svg">
<g filter="url(#filter0_d_48_1763)">
<path d="M67.5 114.978C93.7335 114.978 115 93.7162 115 67.4888C115 41.2615 93.7335 20 67.5 20C41.2665 20 20 41.2615 20 67.4888C20 93.7162 41.2665 114.978 67.5 114.978Z" fill="url(#paint0_linear_48_1763)"/>
<path d="M67.5 113.74C93.0502 113.74 113.763 93.0329 113.763 67.4889C113.763 41.9448 93.0502 21.2372 67.5 21.2372C41.9498 21.2372 21.2372 41.9448 21.2372 67.4889C21.2372 93.0329 41.9498 113.74 67.5 113.74Z" fill="url(#paint1_linear_48_1763)"/>
<path opacity="0.05" d="M67.5 94.0176C82.1545 94.0176 94.0344 82.1403 94.0344 67.4888C94.0344 52.8373 82.1545 40.96 67.5 40.96C52.8454 40.96 40.9656 52.8373 40.9656 67.4888C40.9656 82.1403 52.8454 94.0176 67.5 94.0176Z" fill="white"/>
<path opacity="0.05" d="M67.5 22.4493C58.5912 22.451 49.883 25.0944 42.4766 30.0454C35.0703 34.9963 29.2984 42.0324 25.8909 50.2637C22.4835 58.4951 21.5935 67.5521 23.3335 76.2893C25.0736 85.0264 29.3655 93.0514 35.6665 99.3493C41.9675 105.647 49.9946 109.935 58.7327 111.671C67.4707 113.407 76.5272 112.512 84.7569 109.101C92.9866 105.689 100.02 99.9136 104.967 92.5048C109.914 85.096 112.553 76.3865 112.551 67.4777C112.546 55.5329 107.798 44.079 99.3494 35.6348C90.901 27.1907 79.4447 22.4479 67.5 22.4493ZM67.5 105.491C59.9847 105.489 52.6384 103.26 46.3901 99.0842C40.1417 94.9083 35.2718 88.9735 32.3961 82.0302C29.5203 75.0868 28.7679 67.4467 30.2339 60.0758C31.7 52.7049 35.3186 45.9341 40.6323 40.6196C45.9461 35.3051 52.7163 31.6855 60.087 30.2183C67.4577 28.7512 75.0979 29.5025 82.0417 32.3772C88.9855 35.2519 94.921 40.121 99.0977 46.3687C103.275 52.6165 105.505 59.9624 105.507 67.4777C105.508 72.4695 104.526 77.4125 102.616 82.0246C100.707 86.6367 97.9074 90.8274 94.3779 94.3573C90.8485 97.8873 86.6582 100.687 82.0464 102.598C77.4347 104.508 72.4917 105.491 67.5 105.491Z" fill="white"/>
<path style="mix-blend-mode:lighten" opacity="0.07" d="M113.659 70.5079C100.088 61.1096 83.9562 56.1084 67.4483 56.1813C50.9405 56.2543 34.8537 61.3978 21.3657 70.9156C22.234 82.5938 27.4991 93.508 36.0987 101.457C44.6983 109.405 55.9924 113.797 67.7027 113.745C79.4129 113.693 90.6678 109.202 99.1968 101.178C107.726 93.1536 112.894 82.1932 113.659 70.5079Z" fill="url(#paint2_linear_48_1763)"/>
<path d="M67.5 20.9914C58.3029 20.9931 49.3128 23.722 41.6667 28.8331C34.0206 33.9443 28.0619 41.208 24.5441 49.7057C21.0263 58.2035 20.1074 67.5536 21.9037 76.5736C23.7 85.5935 28.1308 93.8783 34.6357 100.38C41.1406 106.882 49.4274 111.309 58.4483 113.101C67.4691 114.893 76.8188 113.969 85.3148 110.447C93.8109 106.925 101.072 100.963 106.179 93.3146C111.287 85.6661 114.011 76.6747 114.009 67.4776C114.004 55.1462 109.102 43.3214 100.38 34.6039C91.6585 25.8864 79.8314 20.9899 67.5 20.9914ZM67.5 113.743C58.3524 113.742 49.4106 111.029 41.8051 105.946C34.1996 100.863 28.2719 93.6396 24.7715 85.1883C21.2712 76.7369 20.3553 67.4375 22.1398 58.4657C23.9243 49.4939 28.3289 41.2526 34.7968 34.7839C41.2647 28.3153 49.5054 23.9096 58.477 22.1241C67.4486 20.3385 76.7482 21.2533 85.1999 24.7526C93.6517 28.2519 100.876 34.1787 105.96 41.7837C111.043 49.3886 113.758 58.3301 113.76 67.4776C113.761 73.553 112.565 79.5691 110.24 85.1822C107.916 90.7954 104.508 95.8957 100.213 100.192C95.917 104.488 90.8171 107.896 85.2042 110.221C79.5913 112.546 73.5754 113.743 67.5 113.743Z" fill="#999999"/>
<path d="M67.4999 33.5618C60.7889 33.5629 54.2289 35.5542 48.6496 39.2837C43.0704 43.0133 38.7224 48.3136 36.1556 54.5143C33.5888 60.7151 32.9185 67.5378 34.2294 74.1195C35.5404 80.7013 38.7737 86.7464 43.5205 91.4905C48.2673 96.2345 54.3143 99.4644 60.8968 100.772C67.4793 102.079 74.3016 101.404 80.5009 98.8341C86.7001 96.2637 91.9979 91.9127 95.7243 86.3312C99.4506 80.7498 101.438 74.1887 101.435 67.4776C101.432 58.4803 97.8544 49.8529 91.4906 43.4927C85.1267 37.1325 76.4972 33.5603 67.4999 33.5618ZM67.4999 99.148C61.2389 99.1475 55.1187 97.2905 49.9129 93.8119C44.7072 90.3333 40.6498 85.3893 38.2537 79.6049C35.8576 73.8205 35.2304 67.4556 36.4514 61.3148C37.6723 55.174 40.6867 49.5331 45.1133 45.1053C49.5399 40.6775 55.18 37.6617 61.3205 36.4391C67.461 35.2165 73.8261 35.842 79.6111 38.2366C85.3961 40.6311 90.3412 44.6872 93.8212 49.892C97.3012 55.0968 99.1597 61.2166 99.1619 67.4776C99.163 71.6362 98.3449 75.7543 96.7542 79.5967C95.1635 83.4391 92.8315 86.9305 89.8913 89.8715C86.9511 92.8124 83.4604 95.1454 79.6184 96.7371C75.7764 98.3288 71.6586 99.148 67.4999 99.148Z" fill="url(#paint3_linear_48_1763)"/>
<path d="M67.4999 35.8324C61.2379 35.833 55.1166 37.6906 49.9103 41.1703C44.7041 44.65 40.6467 49.5955 38.2513 55.3813C35.8559 61.1671 35.2302 67.5334 36.4532 73.6749C37.6762 79.8163 40.6931 85.4572 45.1222 89.884C49.5513 94.3108 55.1938 97.3246 61.3359 98.5444C67.478 99.7642 73.844 99.1351 79.6285 96.7366C85.4131 94.3382 90.3564 90.2782 93.8334 85.0701C97.3103 79.862 99.1647 73.7397 99.1619 67.4776C99.1582 59.083 95.8207 51.0336 89.8832 45.0992C83.9458 39.1649 75.8945 35.8317 67.4999 35.8324ZM67.4999 96.506C61.7616 96.5049 56.1524 94.8024 51.3815 91.6138C46.6106 88.4252 42.8923 83.8936 40.6966 78.5919C38.5009 73.2903 37.9264 67.4566 39.0457 61.8285C40.1651 56.2004 42.928 51.0305 46.9853 46.9725C51.0425 42.9145 56.2119 40.1506 61.8398 39.0301C67.4677 37.9097 73.3014 38.483 78.6035 40.6777C83.9056 42.8724 88.4379 46.5899 91.6274 51.3602C94.817 56.1304 96.5205 61.7393 96.5227 67.4776C96.5238 71.2896 95.7739 75.0643 94.3159 78.5863C92.8578 82.1084 90.7201 85.3086 88.025 88.0043C85.3298 90.7 82.1299 92.8383 78.6082 94.297C75.0865 95.7558 71.3118 96.5064 67.4999 96.506Z" fill="url(#paint4_linear_48_1763)"/>
<path d="M67.5001 38.4744C61.7606 38.4755 56.1504 40.1787 51.379 43.3684C46.6076 46.5581 42.8893 51.0912 40.6943 56.3943C38.4993 61.6975 37.9263 67.5324 39.0477 73.1612C40.1691 78.79 42.9345 83.9598 46.9943 88.0168C51.054 92.0739 56.2257 94.8358 61.8553 95.9534C67.4848 97.071 73.3194 96.4941 78.621 94.2955C83.9227 92.097 88.4532 88.3756 91.6398 83.602C94.8263 78.8284 96.5256 73.2171 96.5229 67.4777C96.5184 59.7835 93.4586 52.406 88.0162 46.9673C82.5738 41.5285 75.1942 38.4737 67.5001 38.4744ZM67.5001 96.2184C61.819 96.2157 56.2662 94.5286 51.5437 91.3706C46.8213 88.2126 43.1411 83.7253 40.9684 78.4761C38.7958 73.2269 38.2282 67.4513 39.3374 61.8796C40.4466 56.3078 43.1828 51.19 47.2001 47.173C51.2175 43.1561 56.3356 40.4203 61.9074 39.3117C67.4793 38.203 73.2548 38.7712 78.5038 40.9443C83.7529 43.1175 88.2397 46.7981 91.3973 51.5209C94.5549 56.2437 96.2414 61.7966 96.2436 67.4777C96.2443 71.2524 95.5013 74.9903 94.057 78.4778C92.6128 81.9653 90.4955 85.1341 87.8263 87.8031C85.157 90.4721 81.988 92.589 78.5004 94.033C75.0127 95.4769 71.2748 96.2195 67.5001 96.2184Z" fill="#999999"/>
<path d="M67.5 31.0036C60.283 31.0047 53.2284 33.146 47.2284 37.1566C41.2284 41.1673 36.5526 46.8671 33.7921 53.5353C31.0317 60.2035 30.3107 67.5406 31.7204 74.6186C33.1301 81.6966 36.607 88.1975 41.7116 93.2994C46.8161 98.4012 53.319 101.875 60.3977 103.281C67.4765 104.686 74.8131 103.961 81.4799 101.198C88.1466 98.4335 93.8439 93.7546 97.8514 87.7525C101.859 81.7503 103.996 74.6946 103.994 67.4776C103.99 57.8018 100.143 48.5237 93.2995 41.6838C86.4559 34.8438 77.1757 31.0021 67.5 31.0036ZM67.5 103.591C60.3604 103.59 53.3816 101.471 47.4459 97.5037C41.5102 93.5361 36.8842 87.8978 34.1526 81.3014C31.421 74.705 30.7066 67.4468 32.0997 60.4445C33.4928 53.4421 36.9307 47.01 41.979 41.9614C47.0272 36.9128 53.4591 33.4743 60.4613 32.0807C67.4636 30.6871 74.7218 31.4009 81.3184 34.132C87.915 36.863 93.5537 41.4886 97.5217 47.424C101.49 53.3594 103.609 60.338 103.611 67.4776C103.612 72.2202 102.679 76.9166 100.864 81.2984C99.0501 85.6802 96.3903 89.6617 93.0369 93.0153C89.6835 96.369 85.7022 99.0291 81.3205 100.844C76.9388 102.658 72.2426 103.592 67.5 103.591Z" fill="#999999"/>
<path d="M67.5 31.3052C60.3427 31.3063 53.3464 33.4299 47.3961 37.4074C41.4457 41.3849 36.8085 47.0377 34.0709 53.6508C31.3333 60.2639 30.6183 67.5403 32.0163 74.5597C33.4143 81.5792 36.8626 88.0265 41.9249 93.0861C46.9873 98.1457 53.4364 101.59 60.4566 102.985C67.4769 104.379 74.7529 103.66 81.3645 100.919C87.9761 98.1777 93.6264 93.5374 97.6007 87.5849C101.575 81.6324 103.695 74.635 103.692 67.4776C103.688 57.8821 99.8724 48.6811 93.0855 41.8979C86.2986 35.1146 77.0956 31.3045 67.5 31.3052ZM67.5 101.198C60.8337 101.197 54.3174 99.2192 48.7749 95.515C43.2325 91.8108 38.9128 86.5464 36.3619 80.3874C33.8111 74.2284 33.1437 67.4514 34.4441 60.9131C35.7445 54.3749 38.9543 48.369 43.6677 43.6548C48.3811 38.9406 54.3865 35.7298 60.9245 34.4283C67.4626 33.1268 74.2397 33.7931 80.3991 36.3429C86.5585 38.8928 91.8236 43.2116 95.5287 48.7535C99.2338 54.2953 101.213 60.8113 101.215 67.4776C101.216 71.9057 100.345 76.2906 98.6507 80.3818C96.9569 84.4731 94.4736 88.1906 91.3427 91.322C88.2119 94.4533 84.4948 96.9372 80.4038 98.6318C76.3128 100.326 71.9281 101.198 67.5 101.198Z" fill="url(#paint5_linear_48_1763)"/>
<path d="M67.5001 20C63.8255 19.9995 60.1632 20.4231 56.5858 21.2624L55.7089 22.7761V27.3255C55.7096 27.8505 55.9185 28.3537 56.2896 28.7249C56.6608 29.096 57.164 29.3049 57.689 29.3056H77.6631C78.1885 29.3056 78.6924 29.0971 79.0642 28.7258C79.436 28.3546 79.6452 27.8509 79.646 27.3255V22.857L78.7327 21.3378C75.055 20.4467 71.2842 19.9976 67.5001 20Z" fill="url(#paint6_linear_48_1763)"/>
<path d="M67.5056 20C63.935 19.996 60.3753 20.3923 56.893 21.1813L56.0551 22.5945V26.8479C56.0598 27.0961 56.1134 27.3409 56.2129 27.5684C56.3123 27.7958 56.4556 28.0014 56.6346 28.1734C56.8136 28.3454 57.0248 28.4804 57.256 28.5706C57.4872 28.6609 57.734 28.7047 57.9821 28.6995H77.3614C77.8617 28.7085 78.345 28.5185 78.7053 28.1714C79.0656 27.8242 79.2733 27.3482 79.2829 26.8479V22.6587L78.4087 21.2623C74.8347 20.425 71.1763 20.0015 67.5056 20Z" fill="url(#paint7_linear_48_1763)"/>
<path d="M67.5 21.2372C71.4736 21.2362 75.4308 21.7459 79.2745 22.7537V22.6615L79.1516 22.466C71.6216 20.5306 63.7283 20.4999 56.1836 22.3767L56.0523 22.5945V22.6699C59.7936 21.717 63.6393 21.2357 67.5 21.2372Z" fill="white"/>
<path d="M67.5055 21.7957C63.8208 21.7931 60.1487 22.2272 56.5661 23.0888V26.8619C56.5661 27.7863 57.3872 28.5376 58.4038 28.5376H76.9228C77.9366 28.5376 78.7605 27.7891 78.7605 26.8619V23.1642C75.0783 22.253 71.2988 21.7934 67.5055 21.7957Z" fill="url(#paint8_linear_48_1763)"/>
<path d="M26.3648 43.7389C24.5221 46.9247 23.0554 50.3136 21.9941 53.8376L22.8654 55.3541L26.8061 57.6275C27.0312 57.7578 27.2799 57.8424 27.5378 57.8766C27.7957 57.9107 28.0578 57.8937 28.3091 57.8266C28.5604 57.7594 28.796 57.6433 29.0025 57.4851C29.2089 57.3268 29.3822 57.1294 29.5123 56.9041L39.4994 39.6083C39.6295 39.383 39.714 39.1342 39.748 38.8762C39.7819 38.6182 39.7647 38.356 39.6973 38.1047C39.6298 37.8533 39.5135 37.6178 39.3549 37.4114C39.1964 37.2051 38.9987 37.032 38.7732 36.9021L34.8968 34.6678L33.1402 34.693C30.529 37.4273 28.2544 40.4641 26.3648 43.7389Z" fill="url(#paint9_linear_48_1763)"/>
<path d="M26.3368 43.722C24.5604 46.8174 23.1356 50.1016 22.089 53.5136L22.8877 54.9575L26.5714 57.0828C27.0097 57.3247 27.526 57.3829 28.0071 57.2447C28.4883 57.1065 28.895 56.7831 29.138 56.3455L38.8263 39.5636C38.9542 39.3514 39.0391 39.1161 39.076 38.8712C39.113 38.6262 39.1013 38.3764 39.0417 38.136C38.982 37.8955 38.8756 37.6692 38.7284 37.4699C38.5812 37.2706 38.3962 37.1023 38.1839 36.9746L34.5533 34.8828L32.8943 34.9331C30.3784 37.6013 28.1781 40.5504 26.3368 43.722Z" fill="url(#paint10_linear_48_1763)"/>
<path d="M34.637 34.9275L34.556 34.8828H34.327C28.8827 40.4348 24.9088 47.2568 22.7648 54.7313L22.8877 54.9547L22.9519 54.991C25.0876 47.4226 29.108 40.5196 34.637 34.9275Z" fill="white"/>
<path d="M27.9231 44.6353C26.0783 47.8254 24.6177 51.2228 23.572 54.7564L26.8423 56.6444C27.6411 57.1052 28.7023 56.7672 29.2078 55.8903L38.4688 39.854C38.9771 38.9743 38.748 37.8991 37.9381 37.4271L34.7348 35.5782C32.1053 38.3098 29.818 41.3512 27.9231 44.6353Z" fill="url(#paint11_linear_48_1763)"/>
<path d="M26.3648 91.2361C28.2031 94.4217 30.4035 97.3841 32.9223 100.064H34.6706L38.6113 97.7908C39.0656 97.5274 39.397 97.0948 39.5331 96.5876C39.6692 96.0804 39.5988 95.54 39.3374 95.0846L29.3476 77.7943C29.2182 77.5687 29.0455 77.3708 28.8394 77.2121C28.6334 77.0533 28.398 76.9369 28.1468 76.8694C27.8955 76.8019 27.6335 76.7848 27.3756 76.8189C27.1177 76.853 26.8691 76.9377 26.6441 77.0682L22.7649 79.3024L21.9075 80.8385C22.9746 84.4692 24.4709 87.9598 26.3648 91.2361Z" fill="url(#paint12_linear_48_1763)"/>
<path d="M26.3229 91.2472C28.1183 94.3319 30.2522 97.2067 32.6849 99.8183L34.3354 99.8491L38.0191 97.7209C38.2314 97.5932 38.4164 97.4249 38.5636 97.2256C38.7108 97.0264 38.8172 96.8 38.8769 96.5596C38.9366 96.3192 38.9482 96.0693 38.9113 95.8244C38.8743 95.5794 38.7894 95.3441 38.6615 95.132L28.9732 78.3528C28.7308 77.9191 28.3271 77.5985 27.8498 77.4605C27.3724 77.3224 26.8599 77.3782 26.4234 77.6155L22.7928 79.7101L21.9968 81.1624C23.0468 84.679 24.4984 88.0629 26.3229 91.2472Z" fill="url(#paint13_linear_48_1763)"/>
<path d="M27.2221 90.7389C29.1282 94.0432 31.4327 97.1009 34.0841 99.8435H34.3354L34.4024 99.8044C28.9116 94.1743 24.9409 87.2418 22.8626 79.6571L22.7844 79.7046L22.6727 79.9057C23.7249 83.6946 25.2536 87.3348 27.2221 90.7389Z" fill="white"/>
<path d="M27.9148 90.3311C29.7563 93.5224 31.9686 96.4847 34.5058 99.1564L37.7762 97.2712C38.1666 97.0183 38.4414 96.6214 38.5408 96.1669C38.6401 95.7124 38.5561 95.2371 38.3068 94.8443L29.0459 78.808C28.5376 77.9283 27.4791 77.5903 26.6776 78.0539L23.4742 79.9028C24.5263 83.546 26.0174 87.0478 27.9148 90.3311Z" fill="url(#paint14_linear_48_1763)"/>
<path d="M67.5 114.98C71.1784 114.982 74.8447 114.558 78.4254 113.715L79.3052 112.204V107.655C79.3052 107.395 79.2538 107.137 79.1542 106.896C79.0545 106.656 78.9084 106.438 78.7242 106.254C78.54 106.07 78.3214 105.924 78.0809 105.825C77.8403 105.725 77.5825 105.674 77.3223 105.675H57.3481C56.823 105.675 56.3193 105.883 55.948 106.255C55.5767 106.626 55.368 107.13 55.368 107.655V112.123L56.2673 113.634C59.9449 114.527 63.7156 114.979 67.5 114.98Z" fill="url(#paint15_linear_48_1763)"/>
<path d="M67.4944 115C71.0656 114.996 74.6252 114.593 78.107 113.799L78.9449 112.383V108.132C78.9405 107.885 78.8874 107.64 78.7884 107.413C78.6895 107.185 78.5467 106.979 78.3683 106.807C78.1899 106.635 77.9793 106.5 77.7485 106.409C77.5178 106.318 77.2714 106.274 77.0234 106.278H57.647C57.399 106.274 57.1527 106.318 56.9219 106.409C56.6911 106.5 56.4805 106.635 56.3021 106.807C56.1237 106.979 55.9809 107.185 55.882 107.413C55.7831 107.64 55.7299 107.885 55.7255 108.132V112.322L56.5997 113.735C60.1708 114.573 63.8263 114.997 67.4944 115Z" fill="url(#paint16_linear_48_1763)"/>
<path d="M67.5 113.743C63.5262 113.745 59.5688 113.234 55.7255 112.224V112.316L55.8484 112.514C63.3783 114.451 71.2721 114.481 78.8164 112.601L78.9477 112.383V112.31C75.2064 113.263 71.3607 113.745 67.5 113.743Z" fill="white"/>
<path d="M67.4916 113.185C71.1776 113.183 74.8504 112.746 78.4338 111.883V108.116C78.4338 107.194 77.61 106.44 76.5962 106.44H58.0771C57.0605 106.44 56.2394 107.188 56.2394 108.116V111.813C59.9206 112.725 63.6992 113.186 67.4916 113.185Z" fill="url(#paint17_linear_48_1763)"/>
<path d="M108.635 91.2361C110.474 88.0512 111.939 84.6643 113 81.1429L112.129 79.6264L108.188 77.3503C107.963 77.2201 107.714 77.1356 107.456 77.1016C107.198 77.0677 106.936 77.0849 106.685 77.1524C106.433 77.2198 106.198 77.3361 105.991 77.4947C105.785 77.6532 105.612 77.8509 105.482 78.0764L95.4951 95.3722C95.3648 95.5972 95.2802 95.8456 95.2461 96.1033C95.212 96.3609 95.229 96.6228 95.2962 96.8739C95.3634 97.125 95.4794 97.3604 95.6377 97.5666C95.7959 97.7728 95.9932 97.9458 96.2184 98.0756L100.098 100.31L101.854 100.285C104.466 97.5486 106.742 94.511 108.635 91.2361Z" fill="url(#paint18_linear_48_1763)"/>
<path d="M108.652 91.2528C110.431 88.1632 111.86 84.8846 112.911 81.478L112.112 80.0341L108.426 77.906C107.988 77.6644 107.471 77.6067 106.991 77.7455C106.51 77.8842 106.104 78.2082 105.862 78.6461L96.1737 95.4057C95.916 95.8347 95.8388 96.3485 95.9592 96.8343C96.0796 97.3201 96.3878 97.7384 96.8161 97.9974L100.447 100.089L102.106 100.039C104.618 97.3711 106.814 94.423 108.652 91.2528Z" fill="url(#paint19_linear_48_1763)"/>
<path d="M100.363 100.053L100.441 100.098H100.673C106.113 94.55 110.086 87.7355 112.235 80.2687L112.112 80.0453L112.048 80.009C109.912 87.5773 105.892 94.4804 100.363 100.072V100.053Z" fill="white"/>
<path d="M107.077 90.3423C108.92 87.1526 110.381 83.7563 111.428 80.224L108.158 78.3361C107.359 77.8752 106.298 78.2132 105.789 79.0901L96.5228 95.1264C96.0145 96.0061 96.2435 97.0813 97.0534 97.5533L100.254 99.4022C102.887 96.6701 105.178 93.6278 107.077 90.3423Z" fill="url(#paint20_linear_48_1763)"/>
<path d="M108.635 43.7389C106.798 40.5523 104.598 37.5898 102.078 34.9108H100.329L96.3887 37.187C95.9341 37.4493 95.6022 37.8814 95.466 38.3884C95.3299 38.8953 95.4006 39.4356 95.6626 39.8904L105.65 57.1862C105.913 57.6411 106.345 57.973 106.853 58.1091C107.36 58.2453 107.901 58.1745 108.356 57.9124L112.235 55.6781L113.092 54.1449C112.026 50.5112 110.53 47.0178 108.635 43.7389Z" fill="url(#paint21_linear_48_1763)"/>
<path d="M108.652 43.7388C106.866 40.6516 104.741 37.7739 102.315 35.1593L100.665 35.1286L96.9809 37.2539C96.7683 37.3817 96.5829 37.5501 96.4354 37.7495C96.2879 37.9489 96.1812 38.1754 96.1213 38.4161C96.0614 38.6568 96.0495 38.9069 96.0863 39.1522C96.1231 39.3975 96.2078 39.6331 96.3357 39.8456L106.018 56.6248C106.26 57.0627 106.666 57.3866 107.147 57.5254C107.628 57.6642 108.144 57.6065 108.582 57.3649L112.213 55.2703L113 53.8097C111.942 50.297 110.483 46.9179 108.652 43.7388Z" fill="url(#paint22_linear_48_1763)"/>
<path d="M107.778 44.2388C105.871 40.9351 103.566 37.8783 100.913 35.137H100.665L100.598 35.1761C106.088 40.8062 110.059 47.7387 112.137 55.3234L112.216 55.2759L112.325 55.0721C111.273 51.2831 109.746 47.6429 107.778 44.2388Z" fill="white"/>
<path d="M107.082 44.6493C105.241 41.4577 103.03 38.4945 100.494 35.8212L97.2238 37.7092C96.4251 38.17 96.1877 39.2564 96.6932 40.1361L105.954 56.1724C106.462 57.0493 107.521 57.3872 108.32 56.9264L111.523 55.0776C110.473 51.4337 108.981 47.9317 107.082 44.6493Z" fill="url(#paint23_linear_48_1763)"/>
</g>
<defs>
<filter id="filter0_d_48_1763" x="0" y="-6.10352e-05" width="135" height="135" filterUnits="userSpaceOnUse" color-interpolation-filters="sRGB">
<feFlood flood-opacity="0" result="BackgroundImageFix"/>
<feColorMatrix in="SourceAlpha" type="matrix" values="0 0 0 0 0 0 0 0 0 0 0 0 0 0 0 0 0 0 127 0" result="hardAlpha"/>
<feOffset/>
<feGaussianBlur stdDeviation="10"/>
<feComposite in2="hardAlpha" operator="out"/>
<feColorMatrix type="matrix" values="0 0 0 0 1 0 0 0 0 1 0 0 0 0 1 0 0 0 1 0"/>
<feBlend mode="normal" in2="BackgroundImageFix" result="effect1_dropShadow_48_1763"/>
<feBlend mode="normal" in="SourceGraphic" in2="effect1_dropShadow_48_1763" result="shape"/>
</filter>
<linearGradient id="paint0_linear_48_1763" x1="67.5" y1="114.98" x2="67.5" y2="20" gradientUnits="userSpaceOnUse">
<stop/>
<stop offset="1" stop-color="#595959"/>
</linearGradient>
<linearGradient id="paint1_linear_48_1763" x1="67.5" y1="113.743" x2="67.5" y2="21.2372" gradientUnits="userSpaceOnUse">
<stop stop-color="#141414"/>
<stop offset="1" stop-color="#262626"/>
</linearGradient>
<linearGradient id="paint2_linear_48_1763" x1="67.5111" y1="113.743" x2="67.5111" y2="56.1808" gradientUnits="userSpaceOnUse">
<stop stop-color="#1D1D1B"/>
<stop offset="1" stop-color="white"/>
</linearGradient>
<linearGradient id="paint3_linear_48_1763" x1="67.4999" y1="33.5618" x2="67.4999" y2="101.419" gradientUnits="userSpaceOnUse">
<stop stop-color="#DAA834"/>
<stop offset="0.13" stop-color="#FDFFB6"/>
<stop offset="0.35" stop-color="#D8840A"/>
<stop offset="0.4" stop-color="#DC941A"/>
<stop offset="0.5" stop-color="#E3B035"/>
<stop offset="0.6" stop-color="#E7C145"/>
<stop offset="0.66" stop-color="#E8C74B"/>
<stop offset="0.77" stop-color="#FDF381"/>
<stop offset="0.89" stop-color="#C65030"/>
<stop offset="1" stop-color="#E3BD37"/>
</linearGradient>
<linearGradient id="paint4_linear_48_1763" x1="67.4999" y1="99.148" x2="67.4999" y2="35.8324" gradientUnits="userSpaceOnUse">
<stop/>
<stop offset="1" stop-color="#595959"/>
</linearGradient>
<linearGradient id="paint5_linear_48_1763" x1="67.5" y1="31.3052" x2="67.5" y2="103.675" gradientUnits="userSpaceOnUse">
<stop/>
<stop offset="1" stop-color="#595959"/>
</linearGradient>
<linearGradient id="paint6_linear_48_1763" x1="67.6621" y1="29.3056" x2="67.6621" y2="20" gradientUnits="userSpaceOnUse">
<stop stop-color="#FAFAFA"/>
<stop offset="1" stop-color="#B3B3B3"/>
</linearGradient>
<linearGradient id="paint7_linear_48_1763" x1="67.662" y1="28.6995" x2="67.662" y2="20" gradientUnits="userSpaceOnUse">
<stop stop-color="#D9D9D9"/>
<stop offset="1" stop-color="#F2F2F2"/>
</linearGradient>
<linearGradient id="paint8_linear_48_1763" x1="67.6619" y1="28.5068" x2="67.6619" y2="21.6868" gradientUnits="userSpaceOnUse">
<stop stop-color="#D9D9D9"/>
<stop offset="1" stop-color="white"/>
</linearGradient>
<linearGradient id="paint9_linear_48_1763" x1="34.5115" y1="48.2672" x2="26.4526" y2="43.6144" gradientUnits="userSpaceOnUse">
<stop stop-color="#FAFAFA"/>
<stop offset="1" stop-color="#B3B3B3"/>
</linearGradient>
<linearGradient id="paint10_linear_48_1763" x1="33.989" y1="47.9655" x2="26.4211" y2="43.5962" gradientUnits="userSpaceOnUse">
<stop stop-color="#D9D9D9"/>
<stop offset="1" stop-color="#F2F2F2"/>
</linearGradient>
<linearGradient id="paint11_linear_48_1763" x1="33.8222" y1="47.8692" x2="27.911" y2="44.4564" gradientUnits="userSpaceOnUse">
<stop stop-color="#D9D9D9"/>
<stop offset="1" stop-color="white"/>
</linearGradient>
<linearGradient id="paint12_linear_48_1763" x1="34.3425" y1="86.4615" x2="26.2812" y2="91.1157" gradientUnits="userSpaceOnUse">
<stop stop-color="#FAFAFA"/>
<stop offset="1" stop-color="#B3B3B3"/>
</linearGradient>
<linearGradient id="paint13_linear_48_1763" x1="33.8176" y1="86.7645" x2="26.2473" y2="91.1353" gradientUnits="userSpaceOnUse">
<stop stop-color="#D9D9D9"/>
<stop offset="1" stop-color="#F2F2F2"/>
</linearGradient>
<linearGradient id="paint14_linear_48_1763" x1="33.6507" y1="86.8608" x2="27.742" y2="90.2722" gradientUnits="userSpaceOnUse">
<stop stop-color="#D9D9D9"/>
<stop offset="1" stop-color="white"/>
</linearGradient>
<linearGradient id="paint15_linear_48_1763" x1="67.3352" y1="105.675" x2="67.3352" y2="114.98" gradientUnits="userSpaceOnUse">
<stop stop-color="#FAFAFA"/>
<stop offset="1" stop-color="#B3B3B3"/>
</linearGradient>
<linearGradient id="paint16_linear_48_1763" x1="67.3352" y1="106.281" x2="67.3352" y2="115" gradientUnits="userSpaceOnUse">
<stop stop-color="#D9D9D9"/>
<stop offset="1" stop-color="#F2F2F2"/>
</linearGradient>
<linearGradient id="paint17_linear_48_1763" x1="67.3352" y1="106.474" x2="67.3352" y2="113.294" gradientUnits="userSpaceOnUse">
<stop stop-color="#D9D9D9"/>
<stop offset="1" stop-color="white"/>
</linearGradient>
<linearGradient id="paint18_linear_48_1763" x1="100.512" y1="86.7135" x2="108.573" y2="91.3677" gradientUnits="userSpaceOnUse">
<stop stop-color="#FAFAFA"/>
<stop offset="1" stop-color="#B3B3B3"/>
</linearGradient>
<linearGradient id="paint19_linear_48_1763" x1="101.037" y1="87.0164" x2="108.592" y2="91.3788" gradientUnits="userSpaceOnUse">
<stop stop-color="#D9D9D9"/>
<stop offset="1" stop-color="#F2F2F2"/>
</linearGradient>
<linearGradient id="paint20_linear_48_1763" x1="101.203" y1="87.1128" x2="107.112" y2="90.5242" gradientUnits="userSpaceOnUse">
<stop stop-color="#D9D9D9"/>
<stop offset="1" stop-color="white"/>
</linearGradient>
<linearGradient id="paint21_linear_48_1763" x1="100.668" y1="48.5429" x2="108.73" y2="43.8887" gradientUnits="userSpaceOnUse">
<stop stop-color="#FAFAFA"/>
<stop offset="1" stop-color="#B3B3B3"/>
</linearGradient>
<linearGradient id="paint22_linear_48_1763" x1="101.193" y1="48.2398" x2="108.744" y2="43.8803" gradientUnits="userSpaceOnUse">
<stop stop-color="#D9D9D9"/>
<stop offset="1" stop-color="#F2F2F2"/>
</linearGradient>
<linearGradient id="paint23_linear_48_1763" x1="101.36" y1="48.1435" x2="107.271" y2="44.7307" gradientUnits="userSpaceOnUse">
<stop stop-color="#D9D9D9"/>
<stop offset="1" stop-color="white"/>
</linearGradient>
</defs>
</svg>
