<svg width="86" height="85" viewBox="0 0 86 85" fill="none" xmlns="http://www.w3.org/2000/svg">
<path d="M42.5013 84.9825C65.974 84.9825 85.0025 65.9585 85.0025 42.4913C85.0025 19.024 65.974 0 42.5013 0C19.0285 0 0 19.024 0 42.4913C0 65.9585 19.0285 84.9825 42.5013 84.9825Z" fill="url(#paint0_linear_48_1840)"/>
<path d="M42.5012 83.8755C65.3626 83.8755 83.8955 65.3471 83.8955 42.4912C83.8955 19.6354 65.3626 1.10699 42.5012 1.10699C19.6398 1.10699 1.10699 19.6354 1.10699 42.4912C1.10699 65.3471 19.6398 83.8755 42.5012 83.8755Z" fill="url(#paint1_linear_48_1840)"/>
<path opacity="0.1" d="M42.5012 65.711C55.3279 65.711 65.726 55.3152 65.726 42.4912C65.726 29.6673 55.3279 19.2715 42.5012 19.2715C29.6745 19.2715 19.2765 29.6673 19.2765 42.4912C19.2765 55.3152 29.6745 65.711 42.5012 65.711Z" fill="white"/>
<path opacity="0.1" d="M42.5013 2.31146C34.5544 2.31146 26.7859 4.66803 20.1783 9.08315C13.5707 13.4983 8.42079 19.7736 5.37975 27.1157C2.33872 34.4577 1.54317 42.5367 3.09372 50.3308C4.64426 58.125 8.47127 65.2844 14.0908 70.9035C19.7103 76.5227 26.8698 80.3492 34.6641 81.8993C42.4584 83.4493 50.5373 82.6533 57.8791 79.6118C65.221 76.5703 71.496 71.42 75.9107 64.8121C80.3255 58.2043 82.6815 50.4357 82.681 42.4887C82.6791 31.8332 78.4451 21.6148 70.9103 14.0804C63.3755 6.54608 53.1568 2.31279 42.5013 2.31146ZM42.5013 76.5287C35.7666 76.5277 29.1835 74.5296 23.5844 70.7871C17.9854 67.0446 13.6219 61.7258 11.0458 55.5033C8.46969 49.2808 7.79669 42.4342 9.11189 35.8292C10.4271 29.2242 13.6714 23.1575 18.4346 18.3965C23.1978 13.6354 29.2658 10.3937 35.8714 9.08144C42.477 7.76915 49.3234 8.44517 55.5447 11.024C61.7661 13.6029 67.083 17.9687 70.823 23.5694C74.563 29.1701 76.5582 35.7541 76.5562 42.4887C76.5556 51.5202 72.9674 60.1816 66.5809 66.5676C60.1944 72.9536 51.5328 76.5412 42.5013 76.5412V76.5287Z" fill="white"/>
<path style="mix-blend-mode:lighten" opacity="0.15" d="M83.803 45.1926C71.6589 36.7832 57.2243 32.3081 42.453 32.3729C27.6816 32.4377 13.2868 37.0393 1.21698 45.5549C1.99797 56.0013 6.71061 65.7631 14.4047 72.8721C22.0989 79.9812 32.2022 83.9086 42.6776 83.8626C53.1531 83.8167 63.2216 79.8007 70.853 72.6245C78.4845 65.4482 83.1113 55.6454 83.8006 45.1926H83.803Z" fill="url(#paint2_linear_48_1840)"/>
<path d="M42.5012 0.884583C34.2724 0.886065 26.2289 3.32758 19.3876 7.90038C12.5464 12.4732 7.2147 18.9719 4.06682 26.5748C0.91893 34.1777 0.0961943 42.5433 1.70265 50.6138C3.3091 58.6843 7.27258 66.0972 13.0919 71.9151C18.9113 77.733 26.3251 81.6948 34.396 83.2993C42.4668 84.9038 50.8322 84.079 58.4344 80.9293C66.0365 77.7796 72.534 72.4464 77.1051 65.604C81.6763 58.7617 84.1159 50.7175 84.1154 42.4887C84.1134 31.4535 79.7281 20.871 71.9241 13.0688C64.1201 5.26667 53.5365 0.88392 42.5012 0.884583ZM42.5012 83.8755C34.3166 83.874 26.3162 81.4456 19.5117 76.8975C12.7071 72.3493 7.40397 65.8856 4.27277 58.3237C1.14157 50.7617 0.322943 42.4411 1.92041 34.4139C3.51787 26.3867 7.45968 19.0134 13.2474 13.2264C19.0352 7.43934 26.4089 3.49842 34.4363 1.90193C42.4637 0.305433 50.7842 1.12506 58.3458 4.25717C65.9074 7.38929 72.3705 12.6932 76.9178 19.4983C81.4651 26.3034 83.8925 34.3041 83.893 42.4887C83.8927 47.924 82.8218 53.3061 80.7415 58.3275C78.6611 63.349 75.6122 67.9115 71.7686 71.7546C67.925 75.5977 63.3621 78.6462 58.3404 80.7259C53.3187 82.8056 47.9366 83.8758 42.5012 83.8755Z" fill="#99DEAF"/>
<path d="M42.5012 12.1321C36.4969 12.1331 30.6276 13.9146 25.6357 17.2512C20.6438 20.5878 16.7534 25.3297 14.4564 30.8774C12.1594 36.425 11.5591 42.5292 12.7312 48.418C13.9034 54.3068 16.7955 59.7158 21.0417 63.961C25.288 68.2062 30.6977 71.097 36.5868 72.2677C42.4759 73.4384 48.58 72.8366 54.127 70.5382C59.6741 68.2399 64.4151 64.3483 67.7505 59.3555C71.0858 54.3628 72.8658 48.4931 72.8653 42.4888C72.864 34.4368 69.6643 26.7151 63.97 21.0222C58.2757 15.3293 50.5532 12.1315 42.5012 12.1321ZM42.5012 70.8162C36.8994 70.8153 31.4236 69.1533 26.7663 66.0404C22.109 62.9275 18.4793 58.5035 16.3361 53.3279C14.193 48.1522 13.6326 42.4573 14.7259 36.9632C15.8192 31.4691 18.517 26.4225 22.4783 22.4616C26.4396 18.5006 31.4864 15.8032 36.9806 14.7104C42.4748 13.6176 48.1697 14.1785 53.3452 16.3221C58.5206 18.4657 62.9443 22.0958 66.0567 26.7534C69.1692 31.411 70.8307 36.8869 70.8312 42.4888C70.8312 46.209 70.0984 49.8928 68.6747 53.3298C67.2509 56.7668 65.1641 59.8897 62.5334 62.5202C59.9027 65.1507 56.7796 67.2372 53.3425 68.6607C49.9053 70.0841 46.2215 70.8166 42.5012 70.8162Z" fill="url(#paint3_linear_48_1840)"/>
<path d="M42.5013 14.1663C36.8992 14.1672 31.4233 15.8294 26.7658 18.9425C22.1084 22.0556 18.4787 26.4798 16.3357 31.6558C14.1927 36.8317 13.6326 42.5269 14.7263 48.0212C15.82 53.5154 18.5183 58.562 22.4801 62.5227C26.4419 66.4834 31.4892 69.1804 36.9837 70.2727C42.4782 71.3649 48.1733 70.8033 53.3487 68.659C58.524 66.5146 62.9473 62.8837 66.0592 58.2255C69.1711 53.5672 70.8318 48.0908 70.8313 42.4888C70.8299 34.9763 67.8445 27.772 62.5317 22.4605C57.2188 17.1491 50.0138 14.1656 42.5013 14.1663ZM42.5013 68.4548C37.3664 68.4543 32.3469 66.9312 28.0776 64.0781C23.8083 61.225 20.4809 57.17 18.5161 52.4259C16.5513 47.6818 16.0373 42.4616 17.0392 37.4254C18.0411 32.3892 20.5138 27.7632 24.1448 24.1323C27.7757 20.5013 32.4017 18.0286 37.4379 17.0267C42.4741 16.0248 47.6943 16.5388 52.4384 18.5036C57.1825 20.4684 61.2375 23.7958 64.0906 28.0651C66.9437 32.3344 68.4668 37.3539 68.4673 42.4888C68.4673 45.8987 67.7957 49.2752 66.4908 52.4255C65.1858 55.5759 63.2732 58.4384 60.862 60.8495C58.4509 63.2607 55.5884 65.1734 52.438 66.4783C49.2877 67.7832 45.9112 68.4548 42.5013 68.4548Z" fill="url(#paint4_linear_48_1840)"/>
<path d="M42.5013 16.5277C37.3661 16.5282 32.3465 18.0514 28.0771 20.9047C23.8077 23.7581 20.4803 27.8133 18.5156 32.5577C16.5509 37.3022 16.0373 42.5226 17.0396 47.5589C18.0419 52.5953 20.5151 57.2213 24.1465 60.852C27.7779 64.4827 32.4044 66.9551 37.441 67.9564C42.4775 68.9577 47.6979 68.4431 52.4419 66.4775C57.1859 64.5119 61.2405 61.1837 64.093 56.9138C66.9455 52.6438 68.4678 47.6239 68.4673 42.4888C68.466 35.603 65.7297 28.9997 60.8603 24.1312C55.9908 19.2627 49.387 16.5277 42.5013 16.5277ZM42.5013 68.1949C37.4179 68.1939 32.4489 66.6857 28.2227 63.8608C23.9964 61.036 20.7027 57.0214 18.758 52.3247C16.8132 47.6281 16.3048 42.4602 17.2969 37.4746C18.289 32.489 20.7372 27.9095 24.3319 24.3151C27.9266 20.7208 32.5063 18.2731 37.492 17.2814C42.4777 16.2898 47.6456 16.7987 52.342 18.7439C57.0385 20.6891 61.0528 23.9833 63.8772 28.2098C66.7016 32.4363 68.2094 37.4054 68.2099 42.4888C68.2092 49.3067 65.5004 55.8451 60.6791 60.6659C55.8579 65.4867 49.3192 68.1949 42.5013 68.1949Z" fill="#99DEAF"/>
<path d="M42.5012 9.84314C36.0442 9.84413 29.7324 11.7598 24.364 15.3479C18.9957 18.9361 14.8119 24.0355 12.3417 30.0014C9.87144 35.9673 9.22575 42.5317 10.4863 48.8645C11.7468 55.1974 14.8568 61.0143 19.4232 65.5796C23.9896 70.1449 29.8071 73.2536 36.1403 74.5127C42.4734 75.7717 49.0377 75.1245 55.003 72.653C60.9683 70.1814 66.0668 65.9964 69.6537 60.6272C73.2406 55.258 75.1548 48.9458 75.1543 42.4887C75.1523 33.8299 71.7112 25.5264 65.5878 19.4044C59.4644 13.2823 51.1601 9.84314 42.5012 9.84314ZM42.5012 74.7945C36.1126 74.7935 29.8677 72.8982 24.5561 69.3482C19.2446 65.7981 15.105 60.7529 12.6607 54.8503C10.2165 48.9477 9.57732 42.4529 10.8241 36.187C12.0709 29.9212 15.1476 24.1658 19.6653 19.6485C24.1829 15.1312 29.9386 12.0549 36.2045 10.8086C42.4704 9.56232 48.9652 10.202 54.8676 12.6467C60.77 15.0914 65.8149 19.2314 69.3645 24.5432C72.9141 29.855 74.809 36.1001 74.8095 42.4887C74.8088 51.057 71.4046 59.2741 65.3457 65.3325C59.2868 71.3909 51.0695 74.7945 42.5012 74.7945Z" fill="#99DEAF"/>
<path d="M42.5013 10.1155C36.0982 10.117 29.8393 12.0171 24.5161 15.5757C19.1928 19.1342 15.0443 24.1912 12.5951 30.1074C10.1459 36.0235 9.50596 42.5331 10.7562 48.813C12.0065 55.0928 15.0908 60.8609 19.6192 65.3879C24.1476 69.9149 29.9166 72.9974 36.1969 74.2457C42.4771 75.4941 48.9865 74.8521 54.9019 72.4011C60.8173 69.95 65.8731 65.8 69.4299 60.4756C72.9868 55.1513 74.885 48.8919 74.8845 42.4888C74.8838 38.2368 74.0457 34.0266 72.4179 30.0985C70.7902 26.1705 68.4046 22.6015 65.3976 19.5954C62.3905 16.5892 58.8208 14.2048 54.8923 12.5783C50.9637 10.9517 46.7532 10.1149 42.5013 10.1155ZM42.5013 72.653C36.5362 72.652 30.7053 70.8822 25.7459 67.5675C20.7866 64.2528 16.9215 59.542 14.6393 54.0308C12.3571 48.5195 11.7604 42.4553 12.9245 36.6049C14.0887 30.7545 16.9615 25.3806 21.1796 21.1628C25.3977 16.945 30.7718 14.0727 36.6223 12.9091C42.4728 11.7454 48.537 12.3426 54.0481 14.6252C59.5591 16.9079 64.2696 20.7734 67.5839 25.733C70.8982 30.6926 72.6675 36.5237 72.6679 42.4888C72.6679 46.4502 71.8876 50.3728 70.3716 54.0327C68.8556 57.6925 66.6334 61.0179 63.8322 63.8189C61.0309 66.62 57.7053 68.8418 54.0454 70.3576C50.3854 71.8733 46.4627 72.6533 42.5013 72.653Z" fill="url(#paint5_linear_48_1840)"/>
<path d="M42.5013 0.00752202C39.2092 0.00478654 35.9279 0.383819 32.7231 1.13702L31.9384 2.48143V6.55213C31.9378 7.02093 32.1232 7.47082 32.454 7.80301C32.7848 8.1352 33.2339 8.32253 33.7027 8.32385H51.5748C51.8077 8.32418 52.0383 8.2786 52.2536 8.18971C52.4688 8.10082 52.6644 7.97037 52.8292 7.80581C52.994 7.64126 53.1247 7.44584 53.2139 7.23072C53.3031 7.0156 53.349 6.78501 53.349 6.55213V2.5539L52.5419 1.20449C49.2545 0.407772 45.8838 0.00594423 42.5013 0.00752202Z" fill="url(#paint6_linear_48_1840)"/>
<path d="M42.5038 0.00749194C39.3133 0.00515564 36.1325 0.358856 33.0205 1.06203L32.2583 2.32897V6.12729C32.2668 6.5749 32.4527 7.00081 32.7751 7.31146C33.0974 7.62211 33.5299 7.79209 33.9775 7.78406H51.3149C51.7625 7.79209 52.195 7.62211 52.5174 7.31146C52.8397 7.00081 53.0256 6.5749 53.0341 6.12729V2.38144L52.2545 1.117C49.0575 0.374979 45.7858 0.00270143 42.5038 0.00749194Z" fill="url(#paint7_linear_48_1840)"/>
<path d="M42.5013 1.10696C46.056 1.10467 49.5961 1.56073 53.0341 2.46386V2.3814L52.9267 2.20648C46.1896 0.471443 39.1261 0.443959 32.3757 2.12651L32.2583 2.32142V2.3864C35.606 1.53464 39.047 1.10483 42.5013 1.10696Z" fill="white"/>
<path d="M42.5062 1.60677C39.2096 1.60326 35.9241 1.9891 32.718 2.75627V6.13977C32.7375 6.55611 32.9212 6.94775 33.229 7.22882C33.5368 7.50988 33.9434 7.65743 34.3598 7.63911H50.945C51.8521 7.63911 52.5893 6.96941 52.5893 6.13977V2.83123C49.2905 2.01489 45.9045 1.6037 42.5062 1.60677Z" fill="url(#paint8_linear_48_1840)"/>
<path d="M5.69246 21.2481C4.04556 24.0967 2.73407 27.1264 1.78418 30.2766L2.56384 31.6335L6.08978 33.6676C6.2914 33.7841 6.514 33.8597 6.74485 33.8901C6.9757 33.9205 7.21028 33.905 7.43517 33.8447C7.66006 33.7844 7.87085 33.6803 8.05548 33.5384C8.24012 33.3966 8.39498 33.2197 8.51121 33.0179L17.4598 17.5448C17.5762 17.3431 17.6518 17.1205 17.6822 16.8897C17.7126 16.6588 17.6972 16.4243 17.6368 16.1994C17.5765 15.9745 17.4724 15.7637 17.3305 15.5791C17.1887 15.3944 17.0118 15.2396 16.8101 15.1233L13.3416 13.1242L11.7673 13.1467C9.42773 15.5963 7.38841 18.3159 5.69246 21.2481Z" fill="url(#paint9_linear_48_1840)"/>
<path d="M5.6675 21.2232C4.07855 23.9962 2.80453 26.9382 1.86917 29.9943L2.58386 31.2862L5.8799 33.1904C6.27167 33.4067 6.73327 33.4587 7.16336 33.3351C7.59346 33.2114 7.9569 32.9221 8.17389 32.5307L16.8451 17.4998C16.9594 17.3098 17.0352 17.0992 17.0681 16.8799C17.101 16.6606 17.0904 16.437 17.0367 16.2219C16.9831 16.0067 16.8876 15.8042 16.7557 15.626C16.6237 15.4478 16.458 15.2974 16.2678 15.1833L13.0193 13.3091L11.5349 13.3541C9.28408 15.7437 7.31536 18.384 5.6675 21.2232Z" fill="url(#paint10_linear_48_1840)"/>
<path d="M13.0967 13.3566L13.0243 13.3141H12.8169C7.94436 18.2828 4.38702 24.3875 2.46643 31.0763L2.57638 31.2737L2.63386 31.3062C4.54351 24.5328 8.14392 18.3561 13.0967 13.3566Z" fill="white"/>
<path d="M7.08939 22.0428C5.43916 24.8965 4.13232 27.9355 3.19611 31.0963L6.12231 32.7855C6.837 33.2003 7.78408 32.898 8.23888 32.1108L16.5252 17.7622C16.7482 17.4107 16.8235 16.9854 16.7346 16.5787C16.6456 16.1721 16.3998 15.8169 16.0504 15.5906L13.1842 13.9363C10.8306 16.3806 8.78386 19.1029 7.08939 22.0428Z" fill="url(#paint11_linear_48_1840)"/>
<path d="M5.69251 63.7294C7.33701 66.5837 9.30679 69.2377 11.5624 71.6384H13.1267L16.6527 69.6043C16.8542 69.4879 17.0309 69.3328 17.1725 69.1481C17.3141 68.9634 17.4179 68.7526 17.478 68.5277C17.5381 68.3028 17.5533 68.0683 17.5228 67.8376C17.4922 67.6068 17.4165 67.3843 17.2999 67.1829L8.36383 51.7097C8.12862 51.3027 7.74152 51.0057 7.28752 50.8839C6.83353 50.7621 6.34975 50.8254 5.9424 51.06L2.47393 53.0591L1.71677 54.436C2.66821 57.6807 4.00287 60.8005 5.69251 63.7294Z" fill="url(#paint12_linear_48_1840)"/>
<path d="M5.65747 63.7468C7.26312 66.5082 9.17248 69.0814 11.35 71.4185L12.8268 71.4434L16.1229 69.5418C16.3135 69.4285 16.4799 69.2788 16.6126 69.1012C16.7453 68.9235 16.8417 68.7215 16.8963 68.5066C16.9508 68.2916 16.9624 68.0681 16.9305 67.8486C16.8985 67.6292 16.8237 67.4183 16.7101 67.2278L8.02893 52.2119C7.81194 51.8205 7.4485 51.5312 7.0184 51.4075C6.58831 51.2839 6.12671 51.3359 5.73494 51.5522L2.48637 53.4239L1.78668 54.7333C2.72641 57.8765 4.02524 60.901 5.65747 63.7468Z" fill="url(#paint13_linear_48_1840)"/>
<path d="M6.46465 63.2945C8.16904 66.2518 10.2312 68.9878 12.6044 71.4409H12.8293L12.8868 71.4085C7.97422 66.3716 4.42134 60.1695 2.56137 53.3839L2.48891 53.4239L2.39145 53.6063C3.33457 56.9948 4.70321 60.2501 6.46465 63.2945Z" fill="white"/>
<path d="M7.08186 62.9272C8.72868 65.784 10.7083 68.4354 12.9793 70.8262L15.903 69.137C16.6202 68.7246 16.8326 67.7526 16.3778 66.9654L8.09391 52.6168C7.63911 51.8321 6.68953 51.5297 5.97485 51.942L3.10861 53.5963C4.04947 56.8563 5.3837 59.9897 7.08186 62.9272Z" fill="url(#paint14_linear_48_1840)"/>
<path d="M42.5012 84.9825C45.7925 84.9851 49.073 84.6061 52.2769 83.853L53.0641 82.4986V78.4279C53.0634 77.9578 52.8762 77.5071 52.5435 77.175C52.2109 76.8428 51.76 76.6562 51.2899 76.6562H33.4177C32.9479 76.6562 32.4972 76.8428 32.165 77.1751C31.8327 77.5074 31.646 77.958 31.646 78.4279V82.4261L32.4507 83.778C35.741 84.578 39.1151 84.9824 42.5012 84.9825Z" fill="url(#paint15_linear_48_1840)"/>
<path d="M42.4962 85.0001C45.6917 84.9977 48.8768 84.6373 51.992 83.9255L52.7417 82.6611V78.8553C52.7325 78.4075 52.5461 77.9816 52.2233 77.671C51.9006 77.3604 51.4678 77.1905 51.02 77.1985H33.6851C33.2375 77.1905 32.805 77.3605 32.4826 77.6711C32.1603 77.9818 31.9744 78.4077 31.9659 78.8553V82.6036L32.7455 83.8656C35.9414 84.6171 39.2132 84.9977 42.4962 85.0001Z" fill="url(#paint16_linear_48_1840)"/>
<path d="M42.5012 83.8755C38.9458 83.8765 35.405 83.4205 31.9659 82.5186V82.601L32.0733 82.7759C38.8113 84.511 45.8755 84.5385 52.6268 82.8559L52.7442 82.661V82.596C49.3963 83.4465 45.9555 83.8763 42.5012 83.8755Z" fill="white"/>
<path d="M42.4938 83.3757C45.7914 83.3776 49.0777 82.9901 52.2845 82.2212V78.8427C52.2845 78.0156 51.5348 77.3434 50.6402 77.3434H34.0675C33.6511 77.3251 33.2444 77.4726 32.9367 77.7537C32.6289 78.0347 32.4452 78.4264 32.4257 78.8427V82.1513C35.7196 82.9667 39.1005 83.3779 42.4938 83.3757Z" fill="url(#paint17_linear_48_1840)"/>
<path d="M79.3075 63.7294C80.9546 60.8801 82.2661 57.8495 83.2158 54.6984L82.4311 53.349L78.9052 51.3149C78.7039 51.1984 78.4816 51.1227 78.2511 51.0922C78.0205 51.0616 77.7862 51.0768 77.5615 51.137C77.3369 51.1971 77.1262 51.3009 76.9417 51.4425C76.7572 51.5841 76.6024 51.7606 76.4862 51.9621L67.5477 67.4378C67.3138 67.8453 67.2509 68.3288 67.3726 68.7826C67.4944 69.2364 67.7909 69.6235 68.1974 69.8592L71.6684 71.8583L73.2402 71.8383C75.5784 69.3866 77.6152 66.6644 79.3075 63.7294Z" fill="url(#paint18_linear_48_1840)"/>
<path d="M79.32 63.7544C80.9135 60.9908 82.1918 58.057 83.1308 55.0083L82.4161 53.7138L79.1201 51.8122C78.7283 51.5958 78.2667 51.5438 77.8366 51.6675C77.4065 51.7912 77.0431 52.0805 76.8261 52.4719L68.1574 67.4778C68.0429 67.6676 67.967 67.8781 67.9339 68.0973C67.9008 68.3164 67.9113 68.54 67.9647 68.7551C68.0181 68.9703 68.1133 69.1728 68.245 69.3511C68.3767 69.5294 68.5422 69.68 68.7322 69.7942L71.9807 71.6684L73.4651 71.6234C75.7124 69.234 77.677 66.5936 79.32 63.7544Z" fill="url(#paint19_linear_48_1840)"/>
<path d="M71.9058 71.6259L71.9757 71.6684H72.1831C77.0542 66.7028 80.6092 60.6003 82.5261 53.9137L82.4161 53.7138L82.3612 53.6813C80.4502 60.4532 76.8529 66.6298 71.9058 71.6334V71.6259Z" fill="white"/>
<path d="M77.9131 62.9397C79.5628 60.0848 80.8696 57.0451 81.8064 53.8837L78.8802 52.1969C78.163 51.7821 77.2159 52.0845 76.7611 52.8716L68.4748 67.2278C68.0225 68.0125 68.2249 68.977 68.9496 69.3968L71.8158 71.0511C74.1704 68.6052 76.218 65.8813 77.9131 62.9397Z" fill="url(#paint20_linear_48_1840)"/>
<path d="M79.3075 21.2481C77.662 18.3954 75.6914 15.743 73.4351 13.3441H71.8683L68.3449 15.3782C68.1431 15.4945 67.9662 15.6493 67.8244 15.8339C67.6825 16.0186 67.5784 16.2294 67.5181 16.4543C67.4577 16.6792 67.4423 16.9137 67.4727 17.1446C67.5031 17.3754 67.5787 17.598 67.6951 17.7996L76.6312 33.2753C76.7476 33.4769 76.9027 33.6535 77.0874 33.7951C77.2721 33.9367 77.4829 34.0406 77.7078 34.1007C77.9327 34.1608 78.1672 34.176 78.3979 34.1454C78.6287 34.1148 78.8512 34.0391 79.0526 33.9225L82.5211 31.9234L83.2908 30.549C82.3376 27.3014 81.0004 24.179 79.3075 21.2481Z" fill="url(#paint21_linear_48_1840)"/>
<path d="M79.3225 21.2482C77.7238 18.4856 75.8221 15.91 73.6525 13.569L72.1856 13.5366L68.8896 15.4407C68.6997 15.555 68.5341 15.7056 68.4024 15.8839C68.2707 16.0622 68.1755 16.2647 68.1221 16.4798C68.0687 16.695 68.0583 16.9185 68.0913 17.1377C68.1244 17.3569 68.2004 17.5674 68.3148 17.7572L76.9835 32.7706C77.201 33.1621 77.5649 33.4515 77.9954 33.5752C78.4259 33.6988 78.8879 33.6467 79.28 33.4303L82.5286 31.5586L83.2333 30.2492C82.2782 27.1091 80.9661 24.089 79.3225 21.2482Z" fill="url(#paint22_linear_48_1840)"/>
<path d="M78.5404 21.688C76.8343 18.7312 74.7714 15.9952 72.3981 13.5416H72.1732L72.1157 13.5765C77.0243 18.6138 80.5737 24.8149 82.4312 31.5986L82.5011 31.5586L82.5986 31.3762C81.6593 27.9888 80.2958 24.7336 78.5404 21.688Z" fill="white"/>
<path d="M77.9181 22.0528C76.2707 19.1978 74.292 16.5473 72.0232 14.1562L69.097 15.8455C68.3798 16.2578 68.1674 17.2299 68.6222 18.0145L76.9086 32.3632C77.3609 33.1504 78.3104 33.4527 79.0251 33.0379L81.8914 31.3836C80.95 28.1238 79.6158 24.9905 77.9181 22.0528Z" fill="url(#paint23_linear_48_1840)"/>
<defs>
<linearGradient id="paint0_linear_48_1840" x1="42.5013" y1="84.9825" x2="42.5013" y2="0" gradientUnits="userSpaceOnUse">
<stop stop-color="#007729"/>
<stop offset="1" stop-color="#66CD86"/>
</linearGradient>
<linearGradient id="paint1_linear_48_1840" x1="42.5012" y1="83.8755" x2="42.5012" y2="1.10699" gradientUnits="userSpaceOnUse">
<stop stop-color="#009836"/>
<stop offset="1" stop-color="#00AC36"/>
</linearGradient>
<linearGradient id="paint2_linear_48_1840" x1="42.5113" y1="83.8755" x2="42.5113" y2="32.3732" gradientUnits="userSpaceOnUse">
<stop stop-color="#1D1D1B"/>
<stop offset="1" stop-color="white"/>
</linearGradient>
<linearGradient id="paint3_linear_48_1840" x1="42.5012" y1="12.1321" x2="42.5012" y2="72.8479" gradientUnits="userSpaceOnUse">
<stop stop-color="#DAA834"/>
<stop offset="0.13" stop-color="#FDFFB6"/>
<stop offset="0.35" stop-color="#D8840A"/>
<stop offset="0.4" stop-color="#DC941A"/>
<stop offset="0.5" stop-color="#E3B035"/>
<stop offset="0.6" stop-color="#E7C145"/>
<stop offset="0.66" stop-color="#E8C74B"/>
<stop offset="0.77" stop-color="#FDF381"/>
<stop offset="0.89" stop-color="#C65030"/>
<stop offset="1" stop-color="#E3BD37"/>
</linearGradient>
<linearGradient id="paint4_linear_48_1840" x1="42.5013" y1="70.8163" x2="42.5013" y2="14.1663" gradientUnits="userSpaceOnUse">
<stop stop-color="#007729"/>
<stop offset="1" stop-color="#66CD86"/>
</linearGradient>
<linearGradient id="paint5_linear_48_1840" x1="42.5013" y1="10.1155" x2="42.5013" y2="74.867" gradientUnits="userSpaceOnUse">
<stop stop-color="#007729"/>
<stop offset="1" stop-color="#66CD86"/>
</linearGradient>
<linearGradient id="paint6_linear_48_1840" x1="42.6462" y1="8.32385" x2="42.6462" y2="2.55515e-05" gradientUnits="userSpaceOnUse">
<stop stop-color="#FAFAFA"/>
<stop offset="1" stop-color="#B3B3B3"/>
</linearGradient>
<linearGradient id="paint7_linear_48_1840" x1="42.6462" y1="7.78406" x2="42.6462" y2="-4.54914e-06" gradientUnits="userSpaceOnUse">
<stop stop-color="#D9D9D9"/>
<stop offset="1" stop-color="#F2F2F2"/>
</linearGradient>
<linearGradient id="paint8_linear_48_1840" x1="42.6462" y1="7.61163" x2="42.6462" y2="1.50682" gradientUnits="userSpaceOnUse">
<stop stop-color="#D9D9D9"/>
<stop offset="1" stop-color="white"/>
</linearGradient>
<linearGradient id="paint9_linear_48_1840" x1="12.9777" y1="25.2888" x2="5.76691" y2="21.1256" gradientUnits="userSpaceOnUse">
<stop stop-color="#FAFAFA"/>
<stop offset="1" stop-color="#B3B3B3"/>
</linearGradient>
<linearGradient id="paint10_linear_48_1840" x1="12.5103" y1="25.0189" x2="5.7388" y2="21.1094" gradientUnits="userSpaceOnUse">
<stop stop-color="#D9D9D9"/>
<stop offset="1" stop-color="#F2F2F2"/>
</linearGradient>
<linearGradient id="paint11_linear_48_1840" x1="12.361" y1="24.9327" x2="7.07191" y2="21.8791" gradientUnits="userSpaceOnUse">
<stop stop-color="#D9D9D9"/>
<stop offset="1" stop-color="white"/>
</linearGradient>
<linearGradient id="paint12_linear_48_1840" x1="12.823" y1="59.456" x2="5.61006" y2="63.6204" gradientUnits="userSpaceOnUse">
<stop stop-color="#FAFAFA"/>
<stop offset="1" stop-color="#B3B3B3"/>
</linearGradient>
<linearGradient id="paint13_linear_48_1840" x1="12.3555" y1="59.7259" x2="5.57971" y2="63.6379" gradientUnits="userSpaceOnUse">
<stop stop-color="#D9D9D9"/>
<stop offset="1" stop-color="#F2F2F2"/>
</linearGradient>
<linearGradient id="paint14_linear_48_1840" x1="12.2062" y1="59.8121" x2="6.91714" y2="62.8657" gradientUnits="userSpaceOnUse">
<stop stop-color="#D9D9D9"/>
<stop offset="1" stop-color="white"/>
</linearGradient>
<linearGradient id="paint15_linear_48_1840" x1="42.3538" y1="76.6562" x2="42.3538" y2="84.9825" gradientUnits="userSpaceOnUse">
<stop stop-color="#FAFAFA"/>
<stop offset="1" stop-color="#B3B3B3"/>
</linearGradient>
<linearGradient id="paint16_linear_48_1840" x1="42.3538" y1="77.1985" x2="42.3538" y2="85.0001" gradientUnits="userSpaceOnUse">
<stop stop-color="#D9D9D9"/>
<stop offset="1" stop-color="#F2F2F2"/>
</linearGradient>
<linearGradient id="paint17_linear_48_1840" x1="42.3538" y1="77.3709" x2="42.3538" y2="83.4757" gradientUnits="userSpaceOnUse">
<stop stop-color="#D9D9D9"/>
<stop offset="1" stop-color="white"/>
</linearGradient>
<linearGradient id="paint18_linear_48_1840" x1="72.0324" y1="59.7023" x2="79.2453" y2="63.8667" gradientUnits="userSpaceOnUse">
<stop stop-color="#FAFAFA"/>
<stop offset="1" stop-color="#B3B3B3"/>
</linearGradient>
<linearGradient id="paint19_linear_48_1840" x1="72.502" y1="59.9734" x2="79.2626" y2="63.8767" gradientUnits="userSpaceOnUse">
<stop stop-color="#D9D9D9"/>
<stop offset="1" stop-color="#F2F2F2"/>
</linearGradient>
<linearGradient id="paint20_linear_48_1840" x1="72.6513" y1="60.0596" x2="77.9382" y2="63.112" gradientUnits="userSpaceOnUse">
<stop stop-color="#D9D9D9"/>
<stop offset="1" stop-color="white"/>
</linearGradient>
<linearGradient id="paint21_linear_48_1840" x1="72.1725" y1="25.5419" x2="79.3855" y2="21.3775" gradientUnits="userSpaceOnUse">
<stop stop-color="#FAFAFA"/>
<stop offset="1" stop-color="#B3B3B3"/>
</linearGradient>
<linearGradient id="paint22_linear_48_1840" x1="72.6421" y1="25.2708" x2="79.3984" y2="21.37" gradientUnits="userSpaceOnUse">
<stop stop-color="#D9D9D9"/>
<stop offset="1" stop-color="#F2F2F2"/>
</linearGradient>
<linearGradient id="paint23_linear_48_1840" x1="72.7914" y1="25.1846" x2="78.0783" y2="22.1322" gradientUnits="userSpaceOnUse">
<stop stop-color="#D9D9D9"/>
<stop offset="1" stop-color="white"/>
</linearGradient>
</defs>
</svg>
