<svg width="85" height="85" viewBox="0 0 85 85" fill="none" xmlns="http://www.w3.org/2000/svg">
<path d="M42.5 84.98C65.9721 84.98 85 65.9566 85 42.49C85 19.0234 65.9721 0 42.5 0C19.0279 0 0 19.0234 0 42.49C0 65.9566 19.0279 84.98 42.5 84.98Z" fill="url(#paint0_linear_48_1725)"/>
<path d="M42.5 83.873C65.3607 83.873 83.893 65.3452 83.893 42.49C83.893 19.6348 65.3607 1.10699 42.5 1.10699C19.6393 1.10699 1.10699 19.6348 1.10699 42.49C1.10699 65.3452 19.6393 83.873 42.5 83.873Z" fill="url(#paint1_linear_48_1725)"/>
<path opacity="0.2" d="M42.5 65.8565C55.4077 65.8565 65.8715 55.395 65.8715 42.49C65.8715 29.5851 55.4077 19.1235 42.5 19.1235C29.5923 19.1235 19.1285 29.5851 19.1285 42.49C19.1285 55.395 29.5923 65.8565 42.5 65.8565Z" fill="white"/>
<path opacity="0.2" d="M42.4999 2.38635C34.5681 2.38784 26.8148 4.74138 20.2206 9.14937C13.6263 13.5574 8.48733 19.8218 5.45343 27.1505C2.41952 34.4792 1.62699 42.5429 3.17605 50.3221C4.72512 58.1012 8.5462 65.2463 14.1561 70.8537C19.766 76.4611 26.9127 80.2791 34.6925 81.8248C42.4723 83.3704 50.5357 82.5744 57.8631 79.5373C65.1905 76.5002 71.4527 71.3585 75.8578 64.7623C80.2629 58.1661 82.613 50.4118 82.6111 42.48C82.6077 31.8445 78.3801 21.6458 70.8581 14.127C63.336 6.60818 53.1355 2.38503 42.4999 2.38635ZM42.4999 77.0812C35.6591 77.0802 28.9721 75.0509 23.2845 71.2498C17.5969 67.4487 13.164 62.0465 10.5464 55.7263C7.9287 49.4061 7.24381 42.4516 8.57827 35.7422C9.91273 29.0327 13.2066 22.8696 18.0435 18.0321C22.8804 13.1945 29.043 9.8997 35.7522 8.56427C42.4615 7.22884 49.4161 7.91273 55.7367 10.5295C62.0573 13.1462 67.4601 17.5783 71.262 23.2654C75.0639 28.9524 77.0942 35.6391 77.0962 42.48C77.0968 47.0236 76.2024 51.5229 74.4641 55.7209C72.7258 59.9189 70.1775 63.7333 66.9649 66.9464C63.7523 70.1595 59.9382 72.7083 55.7405 74.4472C51.5428 76.1862 47.0436 77.0812 42.4999 77.0812Z" fill="white"/>
<path style="mix-blend-mode:lighten" opacity="0.25" d="M83.8005 45.1913C71.6576 36.7823 57.224 32.3075 42.4538 32.3728C27.6836 32.438 13.2901 37.0401 1.22192 45.5561C1.99889 56.005 6.70972 65.7703 14.4041 72.8822C22.0985 79.9941 32.2037 83.9232 42.6813 83.8769C53.1589 83.8306 63.2291 79.8124 70.8603 72.6328C78.4916 65.4532 83.1159 55.6466 83.8005 45.1913Z" fill="url(#paint2_linear_48_1725)"/>
<path d="M42.5 0.887024C34.271 0.888507 26.2272 3.3302 19.386 7.90331C12.5447 12.4764 7.21323 18.9756 4.06573 26.5788C0.918236 34.1821 0.0961094 42.5479 1.70332 50.6184C3.31054 58.6889 7.2749 66.1016 13.0951 71.919C18.9152 77.7363 26.3298 81.6972 34.4011 83.3005C42.4724 84.9038 50.8378 84.0777 58.4396 80.9265C66.0413 77.7754 72.5379 72.4408 77.1077 65.5973C81.6775 58.7538 84.1153 50.7089 84.1129 42.4799C84.1089 31.4466 79.7228 20.8665 71.9191 13.0666C64.1155 5.26673 53.5333 0.885698 42.5 0.887024ZM42.5 83.8755C34.3153 83.8745 26.3148 81.4467 19.5098 76.899C12.7049 72.3513 7.40116 65.8881 4.26926 58.3263C1.13736 50.7646 0.31792 42.444 1.91454 34.4166C3.51117 26.3892 7.45216 19.0155 13.2392 13.2277C19.0263 7.43996 26.3996 3.49808 34.4268 1.90049C42.454 0.302894 50.7747 1.12133 58.3368 4.25232C65.8988 7.3833 72.3628 12.6862 76.9113 19.4906C81.4597 26.295 83.8885 34.2953 83.8905 42.4799C83.8911 47.9158 82.821 53.2986 80.7413 58.3209C78.6615 63.3432 75.6128 67.9067 71.7693 71.7507C67.9257 75.5947 63.3626 78.6439 58.3406 80.7243C53.3185 82.8047 47.9359 83.8755 42.5 83.8755Z" fill="#FEF6D6"/>
<path d="M42.5 12.1343C36.4953 12.1353 30.6259 13.9169 25.6339 17.2539C20.6419 20.5908 16.7516 25.3332 14.455 30.8813C12.1584 36.4293 11.5586 42.5338 12.7316 48.4227C13.9045 54.3117 16.7975 59.7205 21.0446 63.9652C25.2918 68.2098 30.7023 71.0997 36.5919 72.2693C42.4815 73.4388 48.5856 72.8355 54.1323 70.5357C59.6791 68.2359 64.4192 64.3429 67.7533 59.349C71.0874 54.3551 72.8656 48.4846 72.8632 42.48C72.8598 34.4298 69.6592 26.7105 63.9653 21.0198C58.2713 15.3291 50.5501 12.133 42.5 12.1343ZM42.5 70.8167C36.898 70.8162 31.422 69.1547 26.7642 66.0422C22.1065 62.9298 18.4762 58.5062 16.3323 53.3307C14.1884 48.1552 13.6272 42.4603 14.7196 36.9659C15.8121 31.4715 18.5092 26.4244 22.4698 22.4627C26.4305 18.501 31.4769 15.8026 36.971 14.7086C42.4651 13.6147 48.1602 14.1744 53.3362 16.3169C58.5123 18.4595 62.9369 22.0886 66.0505 26.7455C69.1642 31.4025 70.8271 36.878 70.8291 42.48C70.8301 46.2009 70.0981 49.8855 68.6748 53.3234C67.2516 56.7613 65.1651 59.8852 62.5343 62.5166C59.9036 65.148 56.7803 67.2354 53.3428 68.6595C49.9052 70.0836 46.2208 70.8167 42.5 70.8167Z" fill="url(#paint3_linear_48_1725)"/>
<path d="M42.5 14.1658C36.897 14.1663 31.4201 15.8284 26.7619 18.9418C22.1037 22.0552 18.4733 26.4802 16.3301 31.657C14.1869 36.8338 13.627 42.5299 14.7213 48.0249C15.8156 53.5199 18.5149 58.567 22.4778 62.5278C26.4407 66.4886 31.4892 69.1852 36.9848 70.2766C42.4804 71.368 48.1762 70.8051 53.3518 68.6591C58.5275 66.5131 62.9505 62.8805 66.0615 58.2206C69.1724 53.5607 70.8316 48.0829 70.8291 42.48C70.8258 34.969 67.8396 27.7669 62.5271 22.4572C57.2147 17.1476 50.0109 14.1652 42.5 14.1658ZM42.5 68.4528C37.3656 68.4518 32.3469 66.9285 28.0782 64.0755C23.8095 61.2225 20.4826 57.1679 18.518 52.4244C16.5534 47.6808 16.0394 42.4612 17.0409 37.4255C18.0425 32.3898 20.5146 27.7642 24.1447 24.1333C27.7749 20.5025 32.4001 18.0294 37.4356 17.0269C42.4711 16.0244 47.6908 16.5375 52.4347 18.5011C57.1787 20.4648 61.2339 23.791 64.0877 28.0591C66.9415 32.3272 68.4658 37.3457 68.4677 42.48C68.4687 45.8907 67.7977 49.2681 66.4932 52.4194C65.1886 55.5706 63.2759 58.434 60.8644 60.846C58.453 63.2579 55.59 65.1711 52.4389 66.4763C49.2879 67.7815 45.9106 68.4531 42.5 68.4528Z" fill="url(#paint4_linear_48_1725)"/>
<path d="M42.5 16.5297C37.3648 16.5307 32.3451 18.0546 28.0759 20.9085C23.8068 23.7625 20.4798 27.8184 18.5159 32.5633C16.552 37.3082 16.0393 42.529 17.0426 47.5652C18.046 52.6015 20.5203 57.2272 24.1528 60.8571C27.7852 64.4871 32.4125 66.9583 37.4494 67.9583C42.4864 68.9583 47.7068 68.442 52.4504 66.4749C57.1939 64.5078 61.2476 61.1781 64.0987 56.907C66.9498 52.6359 68.4703 47.6153 68.4678 42.48C68.4638 35.5958 65.7261 28.9949 60.8566 24.1286C55.987 19.2623 49.3843 16.5291 42.5 16.5297ZM42.5 68.1954C37.4169 68.1929 32.4487 66.6835 28.2233 63.8579C23.9979 61.0323 20.7052 57.0174 18.7612 52.3207C16.8172 47.624 16.3094 42.4564 17.3018 37.4712C18.2943 32.4859 20.7425 27.9068 24.3369 24.3127C27.9314 20.7185 32.5108 18.2708 37.4961 17.2788C42.4815 16.2869 47.649 16.7952 52.3455 18.7396C57.042 20.6841 61.0566 23.9772 63.8818 28.2029C66.707 32.4285 68.2159 37.3969 68.2179 42.48C68.2186 45.8574 67.5538 49.2018 66.2616 52.3222C64.9693 55.4426 63.0749 58.2778 60.6866 60.6659C58.2983 63.0539 55.4629 64.948 52.3424 66.24C49.2219 67.5319 45.8774 68.1964 42.5 68.1954Z" fill="#FEF6D6"/>
<path d="M42.5 9.84534C36.0427 9.84633 29.7307 11.7622 24.3623 15.3507C18.9939 18.9391 14.8102 24.039 12.3403 30.0053C9.8705 35.9716 9.22542 42.5363 10.4867 48.8693C11.748 55.2022 14.8589 61.0189 19.4262 65.5837C23.9934 70.1484 29.8117 73.2563 36.1454 74.5142C42.479 75.772 49.0433 75.1235 55.0083 72.6504C60.9733 70.1774 66.0709 65.991 69.6565 60.6206C73.2421 55.2503 75.1546 48.9373 75.1521 42.48C75.1488 33.8227 71.7071 25.5212 65.5838 19.4013C59.4606 13.2813 51.1572 9.84401 42.5 9.84534ZM42.5 74.7923C36.1119 74.7908 29.8678 72.8953 24.5569 69.3454C19.246 65.7955 15.1069 60.7506 12.6629 54.8486C10.2188 48.9466 9.57963 42.4524 10.8261 36.1872C12.0725 29.9219 15.1486 24.1669 19.6654 19.6497C24.1823 15.1325 29.9371 12.0559 36.2023 10.809C42.4674 9.56211 48.9616 10.2008 54.8638 12.6444C60.7661 15.088 65.8112 19.2267 69.3615 24.5373C72.9118 29.8479 74.8078 36.0919 74.8098 42.48C74.8108 46.7233 73.9757 50.9253 72.3524 54.8459C70.729 58.7665 68.3492 62.3289 65.3488 65.3295C62.3484 68.3302 58.7862 70.7103 54.8658 72.3339C50.9453 73.9576 46.7434 74.7929 42.5 74.7923Z" fill="#FEF6D6"/>
<path d="M42.5 10.1152C36.0961 10.1162 29.8363 12.0163 24.5122 15.5751C19.1882 19.1339 15.0391 24.1916 12.5897 30.1086C10.1403 36.0256 9.50054 42.5361 10.7514 48.8166C12.0023 55.0972 15.0875 60.8658 19.617 65.3929C24.1465 69.9199 29.9168 73.002 36.198 74.2495C42.4793 75.497 48.9894 74.8537 54.9051 72.4011C60.8207 69.9485 65.8762 65.7967 69.4321 60.4707C72.9881 55.1448 74.8848 48.8839 74.8823 42.48C74.8783 33.8945 71.4648 25.6621 65.3923 19.5929C59.3198 13.5236 51.0855 10.1146 42.5 10.1152ZM42.5 72.6508C36.5354 72.6498 30.705 70.8803 25.746 67.5661C20.7869 64.2518 16.9219 59.5415 14.6396 54.0309C12.3573 48.5202 11.7601 42.4565 12.9236 36.6065C14.0871 30.7565 16.9591 25.3828 21.1763 21.1649C25.3936 16.9469 30.7668 14.0741 36.6166 12.9096C42.4665 11.7451 48.5302 12.3412 54.0413 14.6227C59.5523 16.9041 64.2632 20.7683 67.5783 25.7268C70.8934 30.6853 72.6638 36.5154 72.6658 42.48C72.6668 46.4419 71.8872 50.3653 70.3717 54.0259C68.8561 57.6865 66.6342 61.0127 63.833 63.8144C61.0317 66.6161 57.7059 68.8386 54.0455 70.3548C50.3852 71.8709 46.462 72.6511 42.5 72.6508Z" fill="url(#paint5_linear_48_1725)"/>
<path d="M42.5 8.65045e-06C39.2123 -0.000443188 35.9355 0.378554 32.7346 1.12948L31.95 2.48384V6.55442C31.9507 7.02409 32.1375 7.47434 32.4696 7.80645C32.8018 8.13856 33.252 8.32543 33.7217 8.32609H51.5933C52.0634 8.32609 52.5143 8.13951 52.8469 7.80733C53.1796 7.47515 53.3668 7.02453 53.3674 6.55442V2.5563L52.5503 1.19695C49.2598 0.399669 45.8858 -0.0021499 42.5 8.65045e-06Z" fill="url(#paint6_linear_48_1725)"/>
<path d="M42.505 -3.51726e-05C39.3103 -0.00354897 36.1252 0.350998 33.0095 1.05697L32.2598 2.32137V6.12708C32.264 6.34914 32.312 6.56818 32.401 6.77168C32.49 6.97517 32.6182 7.15912 32.7783 7.31301C32.9385 7.46689 33.1274 7.58768 33.3343 7.66846C33.5412 7.74925 33.762 7.78844 33.984 7.7838H51.3233C51.771 7.79183 52.2034 7.62185 52.5258 7.31121C52.8481 7.00057 53.034 6.57467 53.0425 6.12708V2.37885L52.2604 1.12943C49.0626 0.380279 45.7893 0.00130095 42.505 -3.51726e-05Z" fill="url(#paint7_linear_48_1725)"/>
<path d="M42.5 1.10695C46.0553 1.10605 49.596 1.56208 53.035 2.46381V2.38135L52.9251 2.20643C46.1878 0.47471 39.1254 0.44723 32.3748 2.12647L32.2573 2.32138V2.38885C35.6048 1.53628 39.0457 1.10564 42.5 1.10695Z" fill="white"/>
<path d="M42.5049 1.6067C39.2081 1.60435 35.9225 1.99271 32.717 2.76366V6.13957C32.717 6.96668 33.4517 7.63886 34.3613 7.63886H50.931C51.838 7.63886 52.5752 6.96918 52.5752 6.13957V2.83112C49.2806 2.01581 45.8989 1.60464 42.5049 1.6067Z" fill="url(#paint8_linear_48_1725)"/>
<path d="M5.69484 21.24C4.0461 24.0905 2.73376 27.1227 1.78418 30.2758L2.56381 31.6326L6.08965 33.6667C6.29112 33.7832 6.51358 33.859 6.74432 33.8895C6.97506 33.9201 7.20957 33.9049 7.43443 33.8448C7.6593 33.7847 7.87012 33.6809 8.05484 33.5392C8.23957 33.3976 8.39458 33.221 8.51101 33.0195L17.4468 17.5443C17.5633 17.3426 17.6389 17.1201 17.6692 16.8892C17.6996 16.6584 17.6842 16.4238 17.6239 16.1989C17.5635 15.974 17.4594 15.7632 17.3176 15.5786C17.1757 15.394 16.9989 15.2391 16.7971 15.1229L13.3287 13.1238L11.757 13.1463C9.42071 15.5928 7.38553 18.31 5.69484 21.24Z" fill="url(#paint9_linear_48_1725)"/>
<path d="M5.66979 21.225C4.08034 23.9945 2.80551 26.9331 1.86908 29.9859L2.58374 31.2778L5.87969 33.1794C6.27182 33.3958 6.73379 33.4479 7.16427 33.3242C7.59476 33.2006 7.95864 32.9112 8.17611 32.5197L16.8445 17.5043C16.959 17.3144 17.035 17.1039 17.068 16.8848C17.1011 16.6656 17.0906 16.4421 17.0373 16.2269C16.9839 16.0118 16.8886 15.8093 16.757 15.631C16.6253 15.4527 16.4597 15.3021 16.2698 15.1878L13.0213 13.3162L11.537 13.3612C9.28593 15.7486 7.31722 18.3872 5.66979 21.225Z" fill="url(#paint10_linear_48_1725)"/>
<path d="M13.0963 13.3562L13.0238 13.3162H12.8189C7.94775 18.2838 4.39212 24.3876 2.47382 31.0754L2.58376 31.2753L2.64124 31.3078C4.55215 24.5361 8.14932 18.3597 13.0963 13.3562Z" fill="white"/>
<path d="M7.08915 22.0421C5.4385 24.8964 4.13167 27.9362 3.19598 31.0978L6.12211 32.787C6.83677 33.1994 7.78632 32.897 8.23861 32.1124L16.5247 17.7641C16.9795 16.977 16.7746 16.0149 16.0499 15.5926L13.1838 13.9384C10.8311 16.3825 8.78451 19.1037 7.08915 22.0421Z" fill="url(#paint11_linear_48_1725)"/>
<path d="M5.69485 63.7376C7.33956 66.5879 9.30838 69.2384 11.5621 71.6363H13.1263L16.6522 69.6023C17.0586 69.3666 17.3552 68.9795 17.4769 68.5257C17.5987 68.072 17.5358 67.5884 17.3019 67.1809L8.36359 51.7107C8.24784 51.5088 8.09334 51.3318 7.90896 51.1897C7.72458 51.0477 7.51395 50.9435 7.28919 50.8832C7.06442 50.8228 6.82994 50.8074 6.59921 50.838C6.36849 50.8685 6.14607 50.9443 5.94473 51.061L2.47386 53.0601L1.70673 54.4344C2.66146 57.683 4.00029 60.8061 5.69485 63.7376Z" fill="url(#paint12_linear_48_1725)"/>
<path d="M5.6573 63.7475C7.26375 66.5075 9.17299 69.0797 11.3496 71.4164L12.8264 71.4439L16.1224 69.5398C16.3123 69.4255 16.4778 69.2749 16.6095 69.0966C16.7412 68.9183 16.8365 68.7158 16.8898 68.5007C16.9432 68.2856 16.9537 68.062 16.9206 67.8429C16.8875 67.6237 16.8116 67.4132 16.6971 67.2234L8.02868 52.2104C7.81174 51.8224 7.45055 51.5355 7.02347 51.412C6.59638 51.2885 6.13783 51.3384 5.74726 51.5508L2.49879 53.4249L1.78662 54.7243C2.72606 57.8707 4.02485 60.8984 5.6573 63.7475Z" fill="url(#paint13_linear_48_1725)"/>
<path d="M6.46194 63.2927C8.16733 66.2492 10.2293 68.985 12.6016 71.4389H12.8264L12.8864 71.4039C7.9736 66.3664 4.4208 60.1637 2.56128 53.3774L2.49131 53.4199L2.39136 53.5998C3.33281 56.9899 4.70059 60.2469 6.46194 63.2927Z" fill="white"/>
<path d="M7.08165 62.9278C8.72928 65.7832 10.7088 68.4337 12.9789 70.8241L15.905 69.1374C16.2543 68.9111 16.5002 68.556 16.5891 68.1494C16.678 67.7427 16.6028 67.3174 16.3798 66.9659L8.09367 52.6177C7.63889 51.8306 6.69183 51.5282 5.97467 51.943L3.10852 53.5972C4.04982 56.857 5.38398 59.9902 7.08165 62.9278Z" fill="url(#paint14_linear_48_1725)"/>
<path d="M42.5 84.9825C45.7912 84.9842 49.0716 84.6044 52.2754 83.8505L53.0625 82.4986V78.428C53.0625 78.1952 53.0166 77.9646 52.9274 77.7495C52.8382 77.5344 52.7075 77.3389 52.5427 77.1744C52.3779 77.0099 52.1823 76.8794 51.9671 76.7905C51.7518 76.7016 51.5212 76.656 51.2883 76.6564H33.4167C32.9469 76.6564 32.4962 76.843 32.164 77.1753C31.8317 77.5075 31.6451 77.9582 31.6451 78.428V82.4262L32.4497 83.778C35.7402 84.5766 39.114 84.9809 42.5 84.9825Z" fill="url(#paint15_linear_48_1725)"/>
<path d="M42.495 85C45.6903 84.9964 48.8752 84.636 51.9905 83.9255L52.7402 82.6586V78.8554C52.7363 78.6336 52.6887 78.4147 52.6002 78.2112C52.5117 78.0078 52.384 77.8238 52.2243 77.6697C52.0647 77.5156 51.8762 77.3945 51.6697 77.3132C51.4633 77.232 51.2428 77.1922 51.021 77.1962H33.6842C33.4623 77.1922 33.2419 77.232 33.0354 77.3132C32.8289 77.3945 32.6405 77.5156 32.4808 77.6697C32.3212 77.8238 32.1935 78.0078 32.105 78.2112C32.0164 78.4147 31.9689 78.6336 31.965 78.8554V82.6037L32.7471 83.8681C35.9423 84.6176 39.2131 84.9974 42.495 85Z" fill="url(#paint16_linear_48_1725)"/>
<path d="M42.5 83.8755C38.9445 83.8769 35.4036 83.4201 31.965 82.5161V82.5986L32.0749 82.776C38.8122 84.5086 45.8751 84.5352 52.6252 82.8535L52.7427 82.6585V82.5936C49.3952 83.4462 45.9543 83.8768 42.5 83.8755Z" fill="white"/>
<path d="M42.4925 83.3757C45.7904 83.3745 49.0767 82.9836 52.2829 82.2113V78.8404C52.2829 78.0157 51.5457 77.3411 50.6387 77.3411H34.069C33.1594 77.3411 32.4247 78.0107 32.4247 78.8404V82.1488C35.7184 82.9648 39.0992 83.3768 42.4925 83.3757Z" fill="url(#paint17_linear_48_1725)"/>
<path d="M79.3052 63.7375C80.9508 60.8879 82.2614 57.8575 83.2108 54.7068L82.4312 53.3499L78.9054 51.3134C78.7038 51.1969 78.4812 51.1213 78.2503 51.091C78.0195 51.0606 77.7849 51.076 77.56 51.1363C77.3351 51.1967 77.1244 51.3007 76.9397 51.4426C76.7551 51.5845 76.6002 51.7613 76.484 51.9631L67.5482 67.4383C67.4317 67.6396 67.356 67.8618 67.3255 68.0924C67.295 68.3229 67.3102 68.5573 67.3703 68.7819C67.4304 69.0066 67.5342 69.2172 67.6758 69.4017C67.8174 69.5862 67.994 69.741 68.1954 69.8572L71.6663 71.8562L73.238 71.8337C75.5749 69.3856 77.6116 66.6677 79.3052 63.7375Z" fill="url(#paint18_linear_48_1725)"/>
<path d="M79.3202 63.7525C80.912 60.9881 82.1902 58.0547 83.1309 55.0066L82.4162 53.7147L79.1178 51.8106C78.7257 51.5945 78.2639 51.5428 77.8338 51.667C77.4037 51.7911 77.0404 52.081 76.8239 52.4728L68.1554 67.4682C67.9248 67.8521 67.8558 68.3118 67.9635 68.7465C68.0712 69.1812 68.3469 69.5554 68.7302 69.7871L71.9786 71.6588L73.4629 71.6138C75.7105 69.2267 77.6758 66.5889 79.3202 63.7525Z" fill="url(#paint19_linear_48_1725)"/>
<path d="M71.9037 71.6263L71.9737 71.6663H72.1811C77.0484 66.7026 80.6037 60.6055 82.5262 53.9247L82.4162 53.7247L82.3588 53.6923C80.4478 60.4639 76.8507 66.6403 71.9037 71.6438V71.6263Z" fill="white"/>
<path d="M77.9108 62.9378C79.5604 60.0839 80.8671 57.0451 81.8039 53.8846L78.8778 52.1954C78.1632 51.7831 77.2136 52.0855 76.7588 52.8701L68.4677 67.2183C68.0129 68.0055 68.2178 68.9675 68.9425 69.3898L71.8061 71.044C74.1623 68.5996 76.2122 65.8775 77.9108 62.9378Z" fill="url(#paint20_linear_48_1725)"/>
<path d="M79.3051 21.24C77.6617 18.3889 75.6928 15.7382 73.4379 13.3412H71.8736L68.3478 15.3778C67.941 15.6125 67.6441 15.9992 67.5223 16.4527C67.4004 16.9063 67.4637 17.3897 67.6981 17.7966L76.6339 33.2719C76.8691 33.6788 77.2562 33.9758 77.7102 34.0976C78.1642 34.2194 78.6479 34.1561 79.0553 33.9216L82.5261 31.9225L83.2933 30.5506C82.3391 27.2995 81.0003 24.1738 79.3051 21.24Z" fill="url(#paint21_linear_48_1725)"/>
<path d="M79.3202 21.24C77.7224 18.4778 75.8206 15.903 73.6503 13.5636L72.1735 13.5361L68.8776 15.4377C68.6874 15.552 68.5215 15.7027 68.3896 15.8811C68.2576 16.0596 68.1621 16.2622 68.1085 16.4776C68.0549 16.6929 68.0442 16.9167 68.0772 17.1362C68.1101 17.3557 68.1859 17.5665 68.3004 17.7566L76.9638 32.7696C77.1803 33.1614 77.5436 33.4512 77.9737 33.5754C78.4038 33.6996 78.8656 33.6479 79.2577 33.4318L82.5062 31.5576L83.2108 30.2508C82.2638 27.1079 80.9584 24.0844 79.3202 21.24Z" fill="url(#paint22_linear_48_1725)"/>
<path d="M78.5381 21.6873C76.832 18.7314 74.7692 15.9964 72.396 13.5436H72.1736L72.1136 13.5786C77.0264 18.6161 80.5792 24.8188 82.4387 31.6051L82.5087 31.5627L82.6061 31.3802C81.6657 27.9901 80.2988 24.7331 78.5381 21.6873Z" fill="white"/>
<path d="M77.9158 22.0546C76.2685 19.199 74.2899 16.5477 72.0211 14.1558L69.095 15.845C68.3803 16.2573 68.1679 17.2294 68.6202 18.0165L76.9063 32.3647C77.3611 33.1494 78.3082 33.4517 79.0228 33.0394L81.889 31.3852C80.9492 28.1249 79.615 24.9915 77.9158 22.0546Z" fill="url(#paint23_linear_48_1725)"/>
<defs>
<linearGradient id="paint0_linear_48_1725" x1="42.5" y1="84.9825" x2="42.5" y2="0" gradientUnits="userSpaceOnUse">
<stop stop-color="#ED9108"/>
<stop offset="1" stop-color="#FBE484"/>
</linearGradient>
<linearGradient id="paint1_linear_48_1725" x1="42.5" y1="83.8755" x2="42.5" y2="1.10699" gradientUnits="userSpaceOnUse">
<stop stop-color="#F9C117"/>
<stop offset="1" stop-color="#F9D232"/>
</linearGradient>
<linearGradient id="paint2_linear_48_1725" x1="42.51" y1="83.8756" x2="42.51" y2="32.3723" gradientUnits="userSpaceOnUse">
<stop stop-color="#1D1D1B"/>
<stop offset="1" stop-color="white"/>
</linearGradient>
<linearGradient id="paint3_linear_48_1725" x1="42.4999" y1="12.1343" x2="42.4999" y2="72.8482" gradientUnits="userSpaceOnUse">
<stop stop-color="#DAA834"/>
<stop offset="0.13" stop-color="#FDFFB6"/>
<stop offset="0.35" stop-color="#D8840A"/>
<stop offset="0.4" stop-color="#DC941A"/>
<stop offset="0.5" stop-color="#E3B035"/>
<stop offset="0.6" stop-color="#E7C145"/>
<stop offset="0.66" stop-color="#E8C74B"/>
<stop offset="0.77" stop-color="#FDF381"/>
<stop offset="0.89" stop-color="#C65030"/>
<stop offset="1" stop-color="#E3BD37"/>
</linearGradient>
<linearGradient id="paint4_linear_48_1725" x1="42.5" y1="70.8167" x2="42.5" y2="14.1658" gradientUnits="userSpaceOnUse">
<stop stop-color="#ED9108"/>
<stop offset="1" stop-color="#FBE484"/>
</linearGradient>
<linearGradient id="paint5_linear_48_1725" x1="42.5" y1="10.1152" x2="42.5" y2="74.8672" gradientUnits="userSpaceOnUse">
<stop stop-color="#ED9108"/>
<stop offset="1" stop-color="#FBE484"/>
</linearGradient>
<linearGradient id="paint6_linear_48_1725" x1="42.645" y1="8.32609" x2="42.645" y2="8.93291e-06" gradientUnits="userSpaceOnUse">
<stop stop-color="#FAFAFA"/>
<stop offset="1" stop-color="#B3B3B3"/>
</linearGradient>
<linearGradient id="paint7_linear_48_1725" x1="42.6449" y1="7.7838" x2="42.6449" y2="-3.50538e-05" gradientUnits="userSpaceOnUse">
<stop stop-color="#D9D9D9"/>
<stop offset="1" stop-color="#F2F2F2"/>
</linearGradient>
<linearGradient id="paint8_linear_48_1725" x1="42.6449" y1="7.61137" x2="42.6449" y2="1.50925" gradientUnits="userSpaceOnUse">
<stop stop-color="#D9D9D9"/>
<stop offset="1" stop-color="white"/>
</linearGradient>
<linearGradient id="paint9_linear_48_1725" x1="12.982" y1="25.2918" x2="5.76927" y2="21.1275" gradientUnits="userSpaceOnUse">
<stop stop-color="#FAFAFA"/>
<stop offset="1" stop-color="#B3B3B3"/>
</linearGradient>
<linearGradient id="paint10_linear_48_1725" x1="12.5124" y1="25.0206" x2="5.74108" y2="21.1112" gradientUnits="userSpaceOnUse">
<stop stop-color="#D9D9D9"/>
<stop offset="1" stop-color="#F2F2F2"/>
</linearGradient>
<linearGradient id="paint11_linear_48_1725" x1="12.3631" y1="24.9344" x2="7.07633" y2="21.8821" gradientUnits="userSpaceOnUse">
<stop stop-color="#D9D9D9"/>
<stop offset="1" stop-color="white"/>
</linearGradient>
<linearGradient id="paint12_linear_48_1725" x1="12.8299" y1="59.4612" x2="5.61714" y2="63.6255" gradientUnits="userSpaceOnUse">
<stop stop-color="#FAFAFA"/>
<stop offset="1" stop-color="#B3B3B3"/>
</linearGradient>
<linearGradient id="paint13_linear_48_1725" x1="12.3602" y1="59.7323" x2="5.58677" y2="63.643" gradientUnits="userSpaceOnUse">
<stop stop-color="#D9D9D9"/>
<stop offset="1" stop-color="#F2F2F2"/>
</linearGradient>
<linearGradient id="paint14_linear_48_1725" x1="12.2109" y1="59.8185" x2="6.92418" y2="62.8708" gradientUnits="userSpaceOnUse">
<stop stop-color="#D9D9D9"/>
<stop offset="1" stop-color="white"/>
</linearGradient>
<linearGradient id="paint15_linear_48_1725" x1="42.355" y1="76.6564" x2="42.355" y2="84.9825" gradientUnits="userSpaceOnUse">
<stop stop-color="#FAFAFA"/>
<stop offset="1" stop-color="#B3B3B3"/>
</linearGradient>
<linearGradient id="paint16_linear_48_1725" x1="42.3551" y1="77.1987" x2="42.3551" y2="85" gradientUnits="userSpaceOnUse">
<stop stop-color="#D9D9D9"/>
<stop offset="1" stop-color="#F2F2F2"/>
</linearGradient>
<linearGradient id="paint17_linear_48_1725" x1="42.3551" y1="77.3711" x2="42.3551" y2="83.4732" gradientUnits="userSpaceOnUse">
<stop stop-color="#D9D9D9"/>
<stop offset="1" stop-color="white"/>
</linearGradient>
<linearGradient id="paint18_linear_48_1725" x1="72.0362" y1="59.6966" x2="79.2468" y2="63.8596" gradientUnits="userSpaceOnUse">
<stop stop-color="#FAFAFA"/>
<stop offset="1" stop-color="#B3B3B3"/>
</linearGradient>
<linearGradient id="paint19_linear_48_1725" x1="72.5036" y1="59.9664" x2="79.2662" y2="63.8708" gradientUnits="userSpaceOnUse">
<stop stop-color="#D9D9D9"/>
<stop offset="1" stop-color="#F2F2F2"/>
</linearGradient>
<linearGradient id="paint20_linear_48_1725" x1="72.6528" y1="60.0526" x2="77.9418" y2="63.1062" gradientUnits="userSpaceOnUse">
<stop stop-color="#D9D9D9"/>
<stop offset="1" stop-color="white"/>
</linearGradient>
<linearGradient id="paint21_linear_48_1725" x1="72.1763" y1="25.5405" x2="79.3891" y2="21.3762" gradientUnits="userSpaceOnUse">
<stop stop-color="#FAFAFA"/>
<stop offset="1" stop-color="#B3B3B3"/>
</linearGradient>
<linearGradient id="paint22_linear_48_1725" x1="72.6438" y1="25.2706" x2="79.3999" y2="21.3699" gradientUnits="userSpaceOnUse">
<stop stop-color="#D9D9D9"/>
<stop offset="1" stop-color="#F2F2F2"/>
</linearGradient>
<linearGradient id="paint23_linear_48_1725" x1="72.7931" y1="25.1844" x2="78.082" y2="22.1308" gradientUnits="userSpaceOnUse">
<stop stop-color="#D9D9D9"/>
<stop offset="1" stop-color="white"/>
</linearGradient>
</defs>
</svg>
