<svg width="39" height="39" viewBox="0 0 39 39" fill="none" xmlns="http://www.w3.org/2000/svg">
<mask id="path-1-outside-1_48_2143" maskUnits="userSpaceOnUse" x="5.60001" y="13.4" width="28" height="17" fill="black">
<rect fill="white" x="5.60001" y="13.4" width="28" height="17"/>
<path fill-rule="evenodd" clip-rule="evenodd" d="M8.73524 16.558C8.9241 16.3566 9.24052 16.3464 9.44198 16.5352L19.5 25.9646L29.558 16.5352C29.7595 16.3464 30.0759 16.3566 30.2648 16.558C30.4536 16.7595 30.4434 17.0759 30.242 17.2648L19.842 27.0148C19.6496 27.1951 19.3504 27.1951 19.158 27.0148L8.75804 17.2648C8.55658 17.0759 8.54637 16.7595 8.73524 16.558Z"/>
</mask>
<path fill-rule="evenodd" clip-rule="evenodd" d="M8.73524 16.558C8.9241 16.3566 9.24052 16.3464 9.44198 16.5352L19.5 25.9646L29.558 16.5352C29.7595 16.3464 30.0759 16.3566 30.2648 16.558C30.4536 16.7595 30.4434 17.0759 30.242 17.2648L19.842 27.0148C19.6496 27.1951 19.3504 27.1951 19.158 27.0148L8.75804 17.2648C8.55658 17.0759 8.54637 16.7595 8.73524 16.558Z" fill="white"/>
<path d="M9.44198 16.5352L7.39015 18.7238L7.39015 18.7238L9.44198 16.5352ZM8.73524 16.558L10.9239 18.6099L10.9239 18.6099L8.73524 16.558ZM19.5 25.9646L17.4482 28.1532C18.6022 29.2351 20.3979 29.2351 21.5518 28.1532L19.5 25.9646ZM29.558 16.5352L31.6099 18.7238L31.6099 18.7238L29.558 16.5352ZM30.242 17.2648L32.2938 19.4534V19.4534L30.242 17.2648ZM19.842 27.0148L21.8938 29.2034L21.8938 29.2034L19.842 27.0148ZM19.158 27.0148L17.1062 29.2034L17.1062 29.2034L19.158 27.0148ZM8.75804 17.2648L10.8099 15.0762L8.75804 17.2648ZM11.4938 14.3466C10.0836 13.0246 7.86868 13.096 6.54663 14.5062L10.9239 18.6099C9.97953 19.6171 8.39744 19.6682 7.39015 18.7238L11.4938 14.3466ZM21.5518 23.776L11.4938 14.3466L7.39015 18.7238L17.4482 28.1532L21.5518 23.776ZM27.5062 14.3466L17.4482 23.776L21.5518 28.1532L31.6099 18.7238L27.5062 14.3466ZM32.4534 14.5062C31.1313 13.096 28.9164 13.0246 27.5062 14.3466L31.6099 18.7238C30.6026 19.6682 29.0205 19.6171 28.0762 18.6099L32.4534 14.5062ZM32.2938 19.4534C33.704 18.1313 33.7755 15.9164 32.4534 14.5062L28.0762 18.6099C27.1318 17.6026 27.1829 16.0205 28.1902 15.0762L32.2938 19.4534ZM21.8938 29.2034L32.2938 19.4534L28.1902 15.0762L17.7902 24.8262L21.8938 29.2034ZM17.1062 29.2034C18.4525 30.4655 20.5475 30.4655 21.8938 29.2034L17.7902 24.8262C18.7518 23.9246 20.2482 23.9246 21.2099 24.8262L17.1062 29.2034ZM6.70621 19.4534L17.1062 29.2034L21.2099 24.8262L10.8099 15.0762L6.70621 19.4534ZM6.54663 14.5062C5.22457 15.9164 5.29602 18.1313 6.70621 19.4534L10.8099 15.0762C11.8171 16.0205 11.8682 17.6026 10.9239 18.6099L6.54663 14.5062Z" fill="white" mask="url(#path-1-outside-1_48_2143)"/>
</svg>
