<svg width="24px" height="24px" viewBox="0 0 24 24" fill="none" xmlns="http://www.w3.org/2000/svg">
<path d="M11.25 17C11.25 17.4142 11.5858 17.75 12 17.75C12.4142 17.75 12.75 17.4142 12.75 17L11.25 17ZM12.75 10C12.75 9.58579 12.4142 9.25 12 9.25C11.5858 9.25 11.25 9.58579 11.25 10L12.75 10ZM11.25 7.00996C11.25 7.42418 11.5858 7.75996 12 7.75996C12.4142 7.75996 12.75 7.42418 12.75 7.00996H11.25ZM12.75 6.99997C12.75 6.58576 12.4142 6.24997 12 6.24997C11.5858 6.24997 11.25 6.58576 11.25 6.99997H12.75ZM3.95442 10.166C4.04608 9.76202 3.79293 9.36025 3.38898 9.26859C2.98504 9.17693 2.58327 9.43009 2.49161 9.83404L3.95442 10.166ZM5.49981 4.73283C5.19117 5.00907 5.1649 5.48322 5.44115 5.79187C5.71739 6.10051 6.19154 6.12678 6.50019 5.85053L5.49981 4.73283ZM12.75 17L12.75 10L11.25 10L11.25 17L12.75 17ZM12.75 7.00996V6.99997H11.25V7.00996H12.75ZM20.25 12C20.25 16.5563 16.5563 20.25 12 20.25V21.75C17.3848 21.75 21.75 17.3848 21.75 12H20.25ZM12 20.25C7.44365 20.25 3.75 16.5563 3.75 12H2.25C2.25 17.3848 6.61522 21.75 12 21.75V20.25ZM12 3.75C16.5563 3.75 20.25 7.44365 20.25 12H21.75C21.75 6.61522 17.3848 2.25 12 2.25V3.75ZM3.75 12C3.75 11.3688 3.82074 10.7551 3.95442 10.166L2.49161 9.83404C2.33338 10.5313 2.25 11.2564 2.25 12H3.75ZM6.50019 5.85053C7.96026 4.54373 9.88655 3.75 12 3.75V2.25C9.50333 2.25 7.22428 3.1894 5.49981 4.73283L6.50019 5.85053Z" fill="#000"/>
</svg>
